<mxfile host="app.diagrams.net" modified="2024-06-05T15:21:14.976Z" agent="Mozilla/5.0 (X11; Ubuntu; Linux x86_64; rv:126.0) Gecko/20100101 Firefox/126.0" etag="WI2_hK-5t1CQiQtlI9P0" version="24.4.6" type="github">
  <diagram name="Page-1" id="ZYTXzmpaoZEqNaZ6OKDH">
    <mxGraphModel dx="7800" dy="2925" grid="1" gridSize="10" guides="1" tooltips="1" connect="1" arrows="1" fold="1" page="1" pageScale="1" pageWidth="850" pageHeight="1100" math="0" shadow="0">
      <root>
        <mxCell id="0" />
        <mxCell id="1" parent="0" />
        <mxCell id="b7sSyu238cDtJSHryWbN-1" value="" style="shape=image;verticalLabelPosition=bottom;labelBackgroundColor=default;verticalAlign=top;aspect=fixed;imageAspect=0;image=data:image/webp,UklGRsASAABXRUJQVlA4WAoAAAAQAAAAcAIAagAAQUxQSJIPAAABwMBs/yy1dX46Go1GownhEsziBQeHEGKjESFTrkuM98lmOwSTXOq4I7J5jeNaZLLIoqiUS11KfR2CfRcudVziBe/7xpJ4FXIRzcVLCCWLyYbxhGA0QqPR6OjX5cyZ3+///59pL90iYgKA9L5U4xy3sdf4GZ/xKr9xdb1xc4vxuba2A42+VJgomVPZ8c09VKJ+ecGEiNldqNRzKRMe7E2o2u8LJjgkfILqHc2Z0KCdQhUPJkxkqEE1/2oCQ1pIUZEHJy5sR1VXTljQhpXVP2HBg+pOnqiwWmEeSVKLXtxQU1/fVF9fu7FswXQ1OXOWrPH7/esXTZfO+UTZprrdbW1tbZe6juyoWuN9QBG2rGc2vFe/raXlt/VV/hUF98dF9uxlm+rr63dtrSgrup/rlwpbKN6Usm1d9zDW0I2WTR5NmAw3cYIpraj6SgSjj7dtzJJm5qYD/Uh4+9jmPMlyV+0diGCsP3Y1rJwuRqqbOJ1Im+mmzYnJkWpSo9IKNl8Io+lbu1alW9McwZ7YcgvpfzqwMkGMG0j8oYn06u8w9u6VNgkWNH2DjLcbF2iS2J7ZfRfpBxoWaXz7kLidaCZSx/QR0oYORJtW8x2SXquYRLZeYZNFmlY1gNzjBxZI9FGUpMYQ0n63XhMrveorZO9f75Igv/Eucv+wLVuSTqJcUfYRYadRwTEdycO7PURPqutLENe9O4JC3njFJpe2ZgzpezwCZTaEUMixuiTB5p1BIfVzC+KLhw8h86k8Eue4st4X5qEjKO4XZZJ8+B9S2pBVr9UESWyMoLAjG2wCFV1AcS88ET84GyLIru9MJoBWVek5gji3RVDoC7lSNABAwRByH3IJ4Qug0L3zREnahWK3TIkTZn+FQgZKCQp0Re0FMRd8haKHKzU5lo0j/6fJfClnUHS9UhOifARFH10ZD/Rs1VHUFmdM0KKmoclCaHUo49U0GZaFUcQ/uLgWDKGEbSl8zhaUsdVFdNhKhO7NiCnpaxWFfw4iJnegnMOF4i0Mo5iddp61Oko5OIsr81OU8+ZDNOfjFAzkxwJZAfWMLAIRMwZR1nCJaD1jKOoullqUNTCLp3AUZQ144ikMFsYCD99UzZVHQMRZ36O8erlgIi9l2I7yBvI5CoMob3BOPIXBwljAtS2kEP1SCQiZFUCZ9TJVDSWR1aDMo1l0hUGUOfh4PIUjWbEATKnvEydyx/h2r/GlNuO9LS0tu2rL00HMtEGUO7xYUdhCtQHl7nNRPR5EuQNZ8RQOJMYEANOW+YxLvcYFbuMpqcagUsc/o+yjWYrSZ9LM1yXDYxpN0iDK3u+Kp/AEhbU2o/x9DjXhEZK0IZTeT6KdR/lb4yqssDYfqvB9RUUyKM6i/KEZFFtQheVxVSjLytJGlYCL1IQ1BD5U4VkCj66EsanxFF6wsoOoxgG7mgZjSxzmGTtTUzzbPT3P+1pjDwuuiMl2A9V4MK7C5dZVhKp8R02YF9MHyHlhhRPMTq8NMgw6YlmHqiyKq760W1a3MkZcanovlrQQwxdLIObEZjp8IwbXsDK64ypcpYCfpRrnug3zF7jTRViC3H2NKzypqak5xVUXdCasFK27eklO6rTZqw6FeE7Hsh3pWxxAWRom+1Iz9yZy/9C60etOz84vru0IM+EzccD4Cf+S3NTU3Kcqjo1xDWjmnIvW+/3V9cbNLcbn2gw/7jXuv2M8jozfNT/D1sUTac4Hs+mb7/AM24U65oboSdUhju9jSAzS1QKxN0yFS03ZhngiexdoYHJSRT/PZcvr9TnBpHNFNw8uNbPs2Diq89oinlxkPTIdYnXUhDjwJYFGSsD8w70M6DC3DskbgHwV2WlTpch67CGI1eYPcmCutX33IsRccpulPdqjHahWvUbj2M4RXAmUj37GcVGcb2dBrK6rDNnmesj+yUYHJ6kiSWbaOcaWAOWUbo7tlnYoAQiduzj0DKOSICq3VaPThhiGZgGtq4NBTxNlLAtiTxmim2sqG6n1XGDMChFhuYnkCMPnjwCt6xzDmN3CqoDYr9PhWwZlOip4K50H6QMzgNreTod/IUo5UD5P95ypt8j2Aes/Up008TrSDyQDte0cHT5pXe8A+TqGq//hsXFUspfs7+hCjwG9q4+uXZBbQNtN9pKpdrICnnyqoBbtJF0gC+hdA3T/YFk7gHELXSQRQOtFNffbqG7RrQPOnBBZ0CbGq0Svkm0w4wiR9fey9lGhO4ptlO5Z4PwTnWzIqnrsHNoVMlwK8AKqejlRApJf0VjgPTL0iDGVKI1so5k5qNZ1UdxIfhB4m8gww5p0N7Bmhcn+HuCasg4TzaXzAK9jiOwtIYaBepSqwsxqxXwY5c/JQlOZ0iJkT1tTEzBvJ/sEUnRljdtoNpF1AvebZHuEuEp2g+ptM79TzLUoH5A1A/cLfuosS9KzuNIiVGOwHNWdTbOH7EW2pDDVNSGOk31CtdXMZcUEopwlm8MmoKVcBPbTVJjyjsLm0lymCjnZoJ1qTIg9ZOcF+Fox6DTqpxrW4qrX+V4im71VYQtp+qg6gf8tKkwU4SOyowKMqSbLaJTqKMRVWXxpZMvfU1gOTYBqmwBzyXJk2sdnR9XmG9iRuiquCoKA31OtfkldIQcNUr8qQAZZntJSlLPQIIXsF3FVjwiXqSqy1XUWSBPIXhDAQbYwrlrMtDCu6hThKFU19CrrdRogWywAkD0ZVz35n4jzIuyj2gp+VX1tE+vPBHCRLfwvuk4RTlJVgWNQUStArLUCPEg2W2lJyllo4CBbroD9FnJDhC6qCoDn1PRroA5S/UaAJ8lylQbKmWMAZO8qYJ+FhDQBRqheB4AqFR2zk/VSdQtQSZahtmGqdresNqNRqn3q6lERuvlmIPVzAAB16qnXgPwkVSSJ7ypVCNTWTXUaJO+h+l5dN5T0Nt/rZJ7/AGVBtXQVAeMHVLiGLUOn6lPcYapPZTtKhR5lDRLlSdbDd5EswQCSG0Kq0Pu2FgHrWrJP2WqQ+qTiaqlCmmR/S/ZbttIW6jlsQaLFVMOioIcrR6cahuiukqYrvV/1Gl9qM97bYrir3rjWb7zeZ7zMa5znNsxNTU21AbeHDJcwJQbJahX3PBXmSPYS2XgaU8Y4Us9lwySat2Q7wXUQqdtNWKYtSDZg59mO5IsVN5VsrWQPkmET02mkDjn4CmmOUg0Kg16eP9XJqq0H2smwnmW+ThZ2KA4GqU5LBkNkehHLK0h+FaJ/SLaZJGGc6oY4g4kczn4kX2xBm+n0YoaMISTvAtXtoYokMdkXeEkX2KLtJ8OhyQw/D9PVmGgg+9JG8QZSXxUHT2l0WiuShxwWlEuHoUKy5JtI/6byllNhJVMd0oad0VbS4fVkssxhpM81UU2GqwgSR8hOCoQ7NbJtSH8erPgWHYaKiTI/R3o9TXnOEFXAxZIWIjoP0RPG6fBmJpEngPS3wOTLdGNZsbUi+e9Fwt12GlsTMq60pLcZUK+xUZSMIuMnoDw4QIXvsxxB4jdMwGEGHCklKQ0iY6WZOXQ4kBHLXyN9lVDY/RDF9KvIGE6wpAydAfHGopgyDyHrCxawkExfwvAKEkdSzCzlQDyVF9OUY8gZmWomjQGHCk05mpHxF2JhqNIVi+OdceTcA5STUg3T3cYer3GJz3iD37iu3nBri3FrW9SdGzLZ4CALYpfPaUJbsDuCrAOaBWj9VDhWSPZUmOosmNX6WVD/eOUDJrSi3RFkPQimv2dAfVd2FFvpbeR0C4Y4UptjJrPmLvLONlWwpftHVOSnxVwzmRBDHbXl3kXe0soDd5F7DVgArCHD4DNExUGkXmoK1vAgot6zs2qDz7ep+sxPyJ1r7iAHIl6oWuad+1rjHWQN2oRDxP7mTcVeb/HG3/UjdxeY9PaiUq9O5YETXAJ/6xDl93I5viZDvSGBwFGnI3W/Zs7xLZfAp8C8j0nM4yCDwM9Ec7SiagPzePJ0VbwAojTIBT46xJHqaTG4Vn2H9KsgxjJVRHJjSNLle15p1yBqcjeqN/gYC7yviA6wCO0SAyJeqyvNmwQAtmmzNx4YR8Y+WyxwVRFbIdaT0o3aVaYXRLF1ooq/T2Jxfq2EUI5VwIxxFnGXQsy5YSV874rpael+DSrbCVG3oJp/zQKLlPAaWAZUqOAQEPpVoD8NMWt9koUmq2woMcqDIUVFsllgiwIOgIVoF+UbTaPQziqgDgifl2w7qOxZiPpbVHUNj3ZCur4EK4GkAdn0JUCaPCDdRY0CLkg1mqyyeoiqjShrgAdc1yUbzABLgawRyeqAeEZAspvJQDpjXKYVoLCLtmgFqO5kHph6U6rALLAYmBuSqlWjgseDUg1OBuJyiXaBwvqTIfpqhXmYIPmmRIF8sBwoHJPolB3oPQGJBh8E8u3S/MGlsG8zwOQvFbaQC5K7pPk8AywIZgWkOWEHzkcHpelJA3qtVZKBZFDXYAZYQyEb2JskuZwMlgQZn0mywwa8aR9LcsoFnPZDUgxmgLq+yADTaxWWxgdQPi6BXmMDiwJHowyh14Bdq9MlCL+jAa9WL8HVZBAsFBboXBKYX6iuPhDykQ7hbs8DTtUBlIwK15sLIi76F+E+ywf+F0dFa7aDaJ2e26LodRrEaB9T1q/EAPAFhApVO8HSIGlHRKjx9+wgpr0yJFTwHQeIOP2MUEPFwEgHSWfE+LwIYt+tqkiOKJBYOSKMvnsaMFsAgLtNnEjzNBA3vTEkTKQ5BUQtviVMZEciSAFa+QhfaIsDCN26oppBYNfmO0IEGx4CdksAmL03IkRwRyaInb5tVIixunQQWCu7IURkZybwcgAkNUV4IjvSgbZZTd+miARgW3YkzKRfqkgAAS0CYMqW22xd610gvmPlBZ1J//g1F4g+b+841zeVU4CbB2BaQ4juTu0UoE7sU1HocRD+Ad/uu2T3zm1IBzG7qf6KbCdVFR8AFNT004VObZwOsk565UiQ7KdjG9NBSmdpyw90XzUs0oCfCyDhtY91irGWUjswZgypZ7gA5Mxb1XjpXgx3rjSvcWsQn6YXb+m4G8vdK02bPHaQW5tZvuPSbd3cT1d2rC/QQOYcX2PXj7Hc6270ZYOYfAAw6cXGnnEz3516b54dmKd2q+bMVJD5vux5ZT7fKxW+JfNy74O415m9yLfR7/e/s2al1/MzUKc9K99b6vP5fMtmZzpBkffnP+Xb5Pf7/RW+ZQUPgMBCGE4p8vp8vmJvtgOEtNcEFRI+5YU/KosjftJfdutC3LtjfKvXuM34TItxU31VSQL8kVldADCpqMTne8ZruMhtnJNqfB/88V5pExX/33//778JI90TWDa2Ef+NRFZQOCAIAwAAEB8AnQEqcQJrAD5tNpdJJCKlISHx6NCgDYlnbuNGNKjkAImF4X1z8SPxV6Ynbntr+PWLVfn9oS3AH6ffs573XSAf07+gdYB6AH63ek5+u3wOftF7BX64//UmzwMCHgpnSWSabEnQOgdA6B0DoHQOgdA5+6L5dtWZsFy2SRLiXEuJcS4lxLiXEuJcBQDpe282zLz3Qk6B0DoHQOgdA6B0DoHPzkr5dq6DCX7iGtkmk6B0DoHQOgdA6B0DldoUhi2dFY1kkS4lxLiXEuJcS4lxLiXAyPu3sS21Z3KDG5nhlxLiXEuJcS4lxLiNI9epF6Lds8MuJcS4lxLiXEuJcS4liAAA/rn6UggX7/PVQFGztkf97OSM4llzkv//zl8O3FKeF3gtZmG0NTh0pHOgPvw7n/dL2q6SitTlGD0fsE0tC339PxIQTosfIbcd6J7Hho4KwD96wr8QdFv5Hg311golR105ugsYsgsD8rb/f/QdBLKkqjebB7sEOhv50uuhSB/+YAZUsGWu43qssMqF62vvcsZhffnSYAAN3EUp1sTsAv3facm6zjx1Rq8Jm7y0c13+GltbskAagOOtshzLP8o2sAlqVxllPFtN2Y+kqLxHjeluLzM+GA8q6uKBLlPk/FmkbGpi3XwKtX8Lgc86GXMgcIhzBTh8cUDXAAJuGjdWXKq2XM/NtBrYHvc6L1X/7DpmitmO5V9Hk7ZGuervOPSWW5EDtoxcdZvwHXoPDD/2JATce93vii/X6A7lMS86kof1rqU7L/y5R1qWOOo5WUXEztETeO5mtQAJ9f6ZCsqwknScywX6ANkwdfHKJ0bw5jn94coqu+aAJPJZHeXBhOKTpmuztItbHvfP8yiL7Vpx8xnDMiqodewdDVHEV7fe4En30/6LcAPFlKIlbP7JrZHZfYf7oRqWMxy4B+neZd/i8oNaGojZoCAucAIE9BZ/Jwm2XEWyMiw2jTNXb73PA1FoPXp/2BtVadWIEJGw8sYK6HgHSZ5VrYPdrXAD9468ss7jSTZYcOAAAAA=;" vertex="1" parent="1">
          <mxGeometry x="-690" y="90" width="625" height="107" as="geometry" />
        </mxCell>
        <mxCell id="b7sSyu238cDtJSHryWbN-2" value="" style="shape=image;verticalLabelPosition=bottom;labelBackgroundColor=default;verticalAlign=top;aspect=fixed;imageAspect=0;image=data:image/png,iVBORw0KGgoAAAANSUhEUgAADugAAAdjCAYAAAAGD1nrAAAABHNCSVQICAgIfAhkiAAAABl0RVh0U29mdHdhcmUAZ25vbWUtc2NyZWVuc2hvdO8Dvz4AAAAudEVYdENyZWF0aW9uIFRpbWUAV2VkIDA1IEp1biAyMDI0IDA1OjM5OjA5IFBNIEVFU1SRFdUKAAAgAElEQVR4nOzbQQ0AIRDAwOP8e14s0BchmVFQA10zMx8AAAAAAAAAAAAAAAAAAHDkvx0AAAAAAAAAAAAAAAAAAAAvMegCAAAAAAAAAAAAAAAAAEBg0AUAAAAAAAAAAAAAAAAAgMCgCwAAAAAAAAAAAAAAAAAAgUEXAAAAAAAAAAAAAAAAAAACgy4AAAAAAAAAAAAAAAAAAAQGXQAAAAAAAAAAAAAAAAAACAy6AAAAAAAAAAAAAAAAAAAQGHQBAAAAAAAAAAAAAAAAACAw6AIAAAAAAAAAAAAAAAAAQGDQBQAAAAAAAAAAAAAAAACAwKALAAAAAAAAAAAAAAAAAACBQRcAAAAAAAAAAAAAAAAAAAKDLgAAAAAAAAAAAAAAAAAABAZdAAAAAAAAAAAAAAAAAAAIDLoAAAAAAAAAAAAAAAAAABAYdAEAAAAAAAAAAAAAAAAAIDDoAgAAAAAAAAAAAAAAAABAYNAFAAAAAAAAAAAAAAAAAIDAoAsAAAAAAAAAAAAAAAAAAIFBFwAAAAAAAAAAAAAAAAAAAoMuAAAAAAAAAAAAAAAAAAAEBl0AAAAAAAAAAAAAAAAAAAgMugAAAAAAAAAAAAAAAAAAEBh0AQAAAAAAAAAAAAAAAAAgMOgCAAAAAAAAAAAAAAAAAEBg0AUAAAAAAAAAAAAAAAAAgMCgCwAAAAAAAAAAAAAAAAAAgUEXAAAAAAAAAAAAAAAAAAACgy4AAAAAAAAAAAAAAAAAAAQGXQAAAAAAAAAAAAAAAAAACAy6AAAAAAAAAAAAAAAAAAAQGHQBAAAAAAAAAAAAAAAAACAw6AIAAAAAAAAAAAAAAAAAQGDQBQAAAAAAAAAAAAAAAACAwKALAAAAAAAAAAAAAAAAAACBQRcAAAAAAAAAAAAAAAAAAAKDLgAAAAAAAAAAAAAAAAAABAZdAAAAAAAAAAAAAAAAAAAIDLoAAAAAAAAAAAAAAAAAABAYdAEAAAAAAAAAAAAAAAAAIDDoAgAAAAAAAAAAAAAAAABAYNAFAAAAAAAAAAAAAAAAAIDAoAsAAAAAAAAAAAAAAAAAAIFBFwAAAAAAAAAAAAAAAAAAAoMuAAAAAAAAAAAAAAAAAAAEBl0AAAAAAAAAAAAAAAAAAAgMugAAAAAAAAAAAAAAAAAAEBh0AQAAAAAAAAAAAAAAAAAgMOgCAAAAAAAAAAAAAAAAAEBg0AUAAAAAAAAAAAAAAAAAgMCgCwAAAAAAAAAAAAAAAAAAgUEXAAAAAAAAAAAAAAAAAAACgy4AAAAAAAAAAAAAAAAAAAQGXQAAAAAAAAAAAAAAAAAACAy6AAAAAAAAAAAAAAAAAAAQGHQBAAAAAAAAAAAAAAAAACAw6AIAAAAAAAAAAAAAAAAAQGDQBQAAAAAAAAAAAAAAAACAwKALAAAAAAAAAAAAAAAAAACBQRcAAAAAAAAAAAAAAAAAAAKDLgAAAAAAAAAAAAAAAAAABAZdAAAAAAAAAAAAAAAAAAAIDLoAAAAAAAAAAAAAAAAAABAYdAEAAAAAAAAAAAAAAAAAIDDoAgAAAAAAAAAAAAAAAABAYNAFAAAAAAAAAAAAAAAAAIDAoAsAAAAAAAAAAAAAAAAAAIFBFwAAAAAAAAAAAAAAAAAAAoMuAAAAAAAAAAAAAAAAAAAEBl0AAAAAAAAAAAAAAAAAAAgMugAAAAAAAAAAAAAAAAAAEBh0AQAAAAAAAAAAAAAAAAAgMOgCAAAAAAAAAAAAAAAAAEBg0AUAAAAAAAAAAAAAAAAAgMCgCwAAAAAAAAAAAAAAAAAAgUEXAAAAAAAAAAAAAAAAAAACgy4AAAAAAAAAAAAAAAAAAAQGXQAAAAAAAAAAAAAAAAAACAy6AAAAAAAAAAAAAAAAAAAQGHQBAAAAAAAAAAAAAAAAACAw6AIAAAAAAAAAAAAAAAAAQGDQBQAAAAAAAAAAAAAAAACAwKALAAAAAAAAAAAAAAAAAACBQRcAAAAAAAAAAAAAAAAAAAKDLgAAAAAAAAAAAAAAAAAABAZdAAAAAAAAAAAAAAAAAAAIDLoAAAAAAAAAAAAAAAAAABAYdAEAAAAAAAAAAAAAAAAAIDDoAgAAAAAAAAAAAAAAAABAYNAFAAAAAAAAAAAAAAAAAIDAoAsAAAAAAAAAAAAAAAAAAIFBFwAAAAAAAAAAAAAAAAAAAoMuAAAAAAAAAAAAAAAAAAAEBl0AAAAAAAAAAAAAAAAAAAgMugAAAAAAAAAAAAAAAAAAEBh0AQAAAAAAAAAAAAAAAAAgMOgCAAAAAAAAAAAAAAAAAEBg0AUAAAAAAAAAAAAAAAAAgMCgCwAAAAAAAAAAAAAAAAAAgUEXAAAAAAAAAAAAAAAAAAACgy4AAAAAAAAAAAAAAAAAAAQGXQAAAAAAAAAAAAAAAAAACAy6AAAAAAAAAAAAAAAAAAAQGHQBAAAAAAAAAAAAAAAAACAw6AIAAAAAAAAAAAAAAAAAQGDQBQAAAAAAAAAAAAAAAACAwKALAAAAAAAAAAAAAAAAAACBQRcAAAAAAAAAAAAAAAAAAAKDLgAAAAAAAAAAAAAAAAAABAZdAAAAAAAAAAAAAAAAAAAIDLoAAAAAAAAAAAAAAAAAABAYdAEAAAAAAAAAAAAAAAAAIDDoAgAAAAAAAAAAAAAAAABAYNAFAAAAAAAAAAAAAAAAAIDAoAsAAAAAAAAAAAAAAAAAAIFBFwAAAAAAAAAAAAAAAAAAAoMuAAAAAAAAAAAAAAAAAAAEBl0AAAAAAAAAAAAAAAAAAAgMugAAAAAAAAAAAAAAAAAAEBh0AQAAAAAAAAAAAAAAAAAgMOgCAAAAAAAAAAAAAAAAAEBg0AUAAAAAAAAAAAAAAAAAgMCgCwAAAAAAAAAAAAAAAAAAgUEXAAAAAAAAAAAAAAAAAAACgy4AAAAAAAAAAAAAAAAAAAQGXQAAAAAAAAAAAAAAAAAACAy6AAAAAAAAAAAAAAAAAAAQGHQBAAAAAAAAAAAAAAAAACAw6AIAAAAAAAAAAAAAAAAAQGDQBQAAAAAAAAAAAAAAAACAwKALAAAAAAAAAAAAAAAAAACBQRcAAAAAAAAAAAAAAAAAAAKDLgAAAAAAAAAAAAAAAAAABAZdAAAAAAAAAAAAAAAAAAAIDLoAAAAAAAAAAAAAAAAAABAYdAEAAAAAAAAAAAAAAAAAIDDoAgAAAAAAAAAAAAAAAABAYNAFAAAAAAAAAAAAAAAAAIDAoAsAAAAAAAAAAAAAAAAAAIFBFwAAAAAAAAAAAAAAAAAAAoMuAAAAAAAAAAAAAAAAAAAEBl0AAAAAAAAAAAAAAAAAAAgMugAAAAAAAAAAAAAAAAAAEBh0AQAAAAAAAAAAAAAAAAAgMOgCAAAAAAAAAAAAAAAAAEBg0AUAAAAAAAAAAAAAAAAAgMCgCwAAAAAAAAAAAAAAAAAAgUEXAAAAAAAAAAAAAAAAAAACgy4AAAAAAAAAAAAAAAAAAAQGXQAAAAAAAAAAAAAAAAAACAy6AAAAAAAAAAAAAAAAAAAQGHQBAAAAAAAAAAAAAAAAACAw6AIAAAAAAAAAAAAAAAAAQGDQBQAAAAAAAAAAAAAAAACAwKALAAAAAAAAAAAAAAAAAACBQRcAAAAAAAAAAAAAAAAAAAKDLgAAAAAAAAAAAAAAAAAABAZdAAAAAAAAAAAAAAAAAAAIDLoAAAAAAAAAAAAAAAAAABAYdAEAAAAAAAAAAAAAAAAAIDDoAgAAAAAAAAAAAAAAAABAYNAFAAAAAAAAAAAAAAAAAIDAoAsAAAAAAAAAAAAAAAAAAIFBFwAAAAAAAAAAAAAAAAAAAoMuAAAAAAAAAAAAAAAAAAAEBl0AAAAAAAAAAAAAAAAAAAgMugAAAAAAAAAAAAAAAAAAEBh0AQAAAAAAAAAAAAAAAAAgMOgCAAAAAAAAAAAAAAAAAEBg0AUAAAAAAAAAAAAAAAAAgMCgCwAAAAAAAAAAAAAAAAAAgUEXAAAAAAAAAAAAAAAAAAACgy4AAAAAAAAAAAAAAAAAAAQGXQAAAAAAAAAAAAAAAAAACAy6AAAAAAAAAAAAAAAAAAAQGHQBAAAAAAAAAAAAAAAAACAw6AIAAAAAAAAAAAAAAAAAQGDQBQAAAAAAAAAAAAAAAACAwKALAAAAAAAAAAAAAAAAAACBQRcAAAAAAAAAAAAAAAAAAAKDLgAAAAAAAAAAAAAAAAAABAZdAAAAAAAAAAAAAAAAAAAIDLoAAAAAAAAAAAAAAAAAABAYdAEAAAAAAAAAAAAAAAAAIDDoAgAAAAAAAAAAAAAAAABAYNAFAAAAAAAAAAAAAAAAAIDAoAsAAAAAAAAAAAAAAAAAAIFBFwAAAAAAAAAAAAAAAAAAAoMuAAAAAAAAAAAAAAAAAAAEBl0AAAAAAAAAAAAAAAAAAAgMugAAAAAAAAAAAAAAAAAAEBh0AQAAAAAAAAAAAAAAAAAgMOgCAAAAAAAAAAAAAAAAAEBg0AUAAAAAAAAAAAAAAAAAgMCgCwAAAAAAAAAAAAAAAAAAgUEXAAAAAAAAAAAAAAAAAAACgy4AAAAAAAAAAAAAAAAAAAQGXQAAAAAAAAAAAAAAAAAACAy6AAAAAAAAAAAAAAAAAAAQGHQBAAAAAAAAAAAAAAAAACAw6AIAAAAAAAAAAAAAAAAAQGDQBQAAAAAAAAAAAAAAAACAwKALAAAAAAAAAAAAAAAAAACBQRcAAAAAAAAAAAAAAAAAAAKDLgAAAAAAAAAAAAAAAAAABAZdAAAAAAAAAAAAAAAAAAAIDLoAAAAAAAAAAAAAAAAAABAYdAEAAAAAAAAAAAAAAAAAIDDoAgAAAAAAAAAAAAAAAABAYNAFAAAAAAAAAAAAAAAAAIDAoAsAAAAAAAAAAAAAAAAAAIFBFwAAAAAAAAAAAAAAAAAAAoMuAAAAAAAAAAAAAAAAAAAEBl0AAAAAAAAAAAAAAAAAAAgMugAAAAAAAAAAAAAAAAAAEBh0AQAAAAAAAAAAAAAAAAAgMOgCAAAAAAAAAAAAAAAAAEBg0AUAAAAAAAAAAAAAAAAAgMCgCwAAAAAAAAAAAAAAAAAAgUEXAAAAAAAAAAAAAAAAAAACgy4AAAAAAAAAAAAAAAAAAAQGXQAAAAAAAAAAAAAAAAAACAy6AAAAAAAAAAAAAAAAAAAQGHQBAAAAAAAAAAAAAAAAACAw6AIAAAAAAAAAAAAAAAAAQGDQBQAAAAAAAAAAAAAAAACAwKALAAAAAAAAAAAAAAAAAACBQRcAAAAAAAAAAAAAAAAAAAKDLgAAAAAAAAAAAAAAAAAABAZdAAAAAAAAAAAAAAAAAAAIDLoAAAAAAAAAAAAAAAAAABAYdAEAAAAAAAAAAAAAAAAAIDDoAgAAAAAAAAAAAAAAAABAYNAFAAAAAAAAAAAAAAAAAIDAoAsAAAAAAAAAAAAAAAAAAIFBFwAAAAAAAAAAAAAAAAAAAoMuAAAAAAAAAAAAAAAAAAAEBl0AAAAAAAAAAAAAAAAAAAgMugAAAAAAAAAAAAAAAAAAEBh0AQAAAAAAAAAAAAAAAAAgMOgCAAAAAAAAAAAAAAAAAEBg0AUAAAAAAAAAAAAAAAAAgMCgCwAAAAAAAAAAAAAAAAAAgUEXAAAAAAAAAAAAAAAAAAACgy4AAAAAAAAAAAAAAAAAAAQGXQAAAAAAAAAAAAAAAAAACAy6AAAAAAAAAAAAAAAAAAAQGHQBAAAAAAAAAAAAAAAAACAw6AIAAAAAAAAAAAAAAAAAQGDQBQAAAAAAAAAAAAAAAACAwKALAAAAAAAAAAAAAAAAAACBQRcAAAAAAAAAAAAAAAAAAAKDLgAAAAAAAAAAAAAAAAAABAZdAAAAAAAAAAAAAAAAAAAIDLoAAAAAAAAAAAAAAAAAABAYdAEAAAAAAAAAAAAAAAAAIDDoAgAAAAAAAAAAAAAAAABAYNAFAAAAAAAAAAAAAAAAAIDAoAsAAAAAAAAAAAAAAAAAAIFBFwAAAAAAAAAAAAAAAAAAAoMuAAAAAAAAAAAAAAAAAAAEBl0AAAAAAAAAAAAAAAAAAAgMugAAAAAAAAAAAAAAAAAAEBh0AQAAAAAAAAAAAAAAAAAgMOgCAAAAAAAAAAAAAAAAAEBg0AUAAAAAAAAAAAAAAAAAgMCgCwAAAAAAAAAAAAAAAAAAgUEXAAAAAAAAAAAAAAAAAAACgy4AAAAAAAAAAAAAAAAAAAQGXQAAAAAAAAAAAAAAAAAACAy6AAAAAAAAAAAAAAAAAMBm776j5K7r/Y+/YyDJhqIUEQhNOqGDCHJF5QpyFdQropefYJcfSBNERHqRjkjvvQYSCBBKCqSQBJJAEtJIIYHUTTZtN7vZ7Oxutvz+gMuV30XMJrP7mfnO43FODpz17MwTDvP1nJl5fT9AGxjoAgAAAAAAAAAAAAAAAABAGxjoAgAAAAAAAAAAAAAAAABAGxjoAgAAAAAAAAAAAAAAAABAGxjoAgAAAAAAAAAAAAAAAABAGxjoAgAAAAAAAAAAAAAAAABAGxjoAgAAAAAAAAAAAAAAAABAGxjoAgAAAAAAAAAAAAAAAABAGxjoAgAAAAAAAAAAAAAAAABAGxjoAgAAAAAAAAAAAAAAAABAGxjoAgAAAAAAAAAAAAAAAABAGxjoAgAAAAAAAAAAAAAAAABAGxjoAgAAAAAAAAAAAAAAAABAGxjoAgAAAAAAAAAAAAAAAABAGxjoAgAAAAAAAAAAAAAAAABAGxjoAgAAAAAAAAAAAAAAAABAGxjoAgAAAAAAAAAAAAAAAABAGxjoAgAAAAAAAAAAAAAAAABAGxjoAgAAAAAAAAAAAAAAAABAGxjoAgAAAAAAAAAAAAAAAABAGxjoAgAAAAAAAAAAAAAAAABAGxjoAgAAAAAAAAAAAAAAAABAGxjoAgAAAAAAAAAAAAAAAABAGxjoAgAAAAAAAAAAAAAAAABAGxjoAgAAAAAAAAAAAAAAAABAGxjoAgAAAAAAAAAAAAAAAABAGxjoAgAAAAAAAAAAAAAAAABAGxjoAgAAAAAAAAAAAAAAAABAGxjoAgAAAAAAAAAAAAAAAABAG6yXOgAAAAAAAAAAAADIhtpVdVFZVR2VK6pjRc3KWFZZFZVV1VGzsjZW1eUiV98Qufr6j/764d+3NLd8/PudOnWKsm5do6ysW3T/6E9Zt26xQfeyKOvWLcq6dY3u3btF97Ky6F7WLTbacIPosdWXoseWWyT8pwYAAACgFBnoAgAAAAAAAAAAAGtkZe2qmDJ9ZswrXxQLK5bG/IUVUb5oSZRXLI7yRYujvqExWdv222wd2/bYMrbrsVV8ebseceA+PWO/PXePsrJuyZoAAAAAyK5Ora2trakjAAAAAAAAAAAAgMKyomZlTJo6Iya+OyMmT5sZE6fOiHkLFqXOarM9d9s59um5axywd8/Yd8/dYu89dkmdBAAAAEAGGOhCB1u4eGnMW7DooztILomalbWRq6+Putz//Ml9/Pe5//lZff2n3l2yrFvX6NqlS3Tt+uGfbv/99126xMYbbRhf3GzT2HKLzeKLm20aW2y+6cd/3XKLzaJ7WVmCfwNAxId3k5370bVg/sKKWF654hOv+f9+3f/jtSCXa4i6XC5W1eX+1+N169olyrp1i7JuXaN7WVmUlXWN7mXdolvXrlHWrVt0797t4/99ww26x2abfCF23H6b2HH7bWKHbXsk+DcAAAAAAAAAABSapqbmGDN+Ugx5Y0wMHflWTJv5QeqkdtG9rCz222v3OGDvPeKAffaIr+63d2y26RdSZwEAAABQZAx0oZ3UrqqLtydMiQlTpsfYie/GB3MXxJz55amzPmHzTTeJnrvuFD133TH22HWn6LnrTrHrTttHl/XXT50GmTJ52swYP3lqvDN5Wkyb+UHMXbAwqmtqU2d9wk47bBs7bNsjdttph9h+261jp+23jR233ya2+tIXU6cBAAAAAAAAAO1ofnlFDB4xOoaNejuGjxobufqG1ElJ7LTDtnHoV/aLbx56UHz9qwfE5zfeMHUSAAAAAAXOQBfyZNLU92L8pKkxfvLUGDdpanwwd0HqpLW2xy47xi47bh89d90p9t5jl/jKvnvGxht5wxnWxLLKqhg9blK8M2VajJv4bkx8d8annn5dLDb5/MZxyIH7xqEH7ReHHrRf7LHLjtGpU6fUWQAAAAAAAADAOnh91NgYMnJMDB4xOt6fMz91TkHaa/ed41uHfjWO+c43Y9+eu6XOAQAAAKAAGejCWqiqrokx4yfFW+Mnx4Qp02PUuImpk9pVp06dYt+eu8bXDz4wDjvkgPjq/vtEt65dUmdBQRg78d14653JMX7Sh+P8iiXLUie1qw036B5f/+oBcehB+8XXvrJf7LX7zqmTAAAAAAAAAIB/oS6Xi2deejVefX1UvPHW+JI9JXdtfXm7HvGT7x8VP/n+d2KbrbdMnQMAAABAgTDQhTVQ39AYo8dNjBGjx8Xw0WNjyvRZqZOS6rL++vGV/faKww4+IA475MDYb8/donPnzqmzoEO89/6cGD56XAwfPS7efPudWFWXS52U1Oc33jAOOXDfOOzgA+OYI78ZX/riZqmTAAAAAAAAAICPjBg9Lp59+dV4vv+QaGhsTJ2TCQfu0zOOPfqIOPboI+MLG2+UOgcAAACAhAx04Z9YVZeL5/sPjucHDImRY8anzilo3cvK4ptf+0r88D8Oj6MO/7rTdcmcMeMnx7MvDYpXBg+P5VXVqXMK2p677RxHfevQ+M7h/xb79twtdQ4AAAAAAAAAlJwFixbHE8++FH36DYzyiiWpczLtyG8eGsf/53fje98+LHUKAAAAAAkY6MI/aGpqjqFvjIlnXno1Bg17I+ob3DWyrTboXhbf+/Zh8aPvHRHfOORAJ+tStGbPK4/e/QbEsy+/GvPLK1LnFKVtt94yfnzMkfHTH/xHfHm7HqlzAAAAAAAAACDTZs2ZF7c/8GQ8/cKA1CklZ8MNusePjz4yfnfij2PnHbZLnQMAAABABzHQhYiYMGV69HlxUDz78qCorqlNnZMZm23y+fj+UYfHj7777Thov72iU6dOqZPgM62oWRl9+g2Mvq+8FhOmTE+dkyn77bV7/NcPvxs//I/DY5PPb5w6BwAAAAAAAAAyY8K7M+KWex+LAUNHpk4hIo74xtfi9N/8LA4+YO/UKQAAAAC0MwNdStaSZZXRu9+A6NNvYLz3wdzUOZm31Ze+GD/9wVHxq//6z9hyi81T58DHVjc1xaBhb0afFwfG4BGjo6mpOXVSpnXu3Dn+/esHx0++/5046vB/iy7rr586CQAAAAAAAACK0vDRY+O2B56MkWPGp07hU+zTc9c447cnxDFHfjN1CgAAAADtxECXkjNi9Li4+9HeMWTkmNQpJalz585xzJHfjNN+/X9i7z12SZ1DCVteuSLueKhXPNH35ahZ6eTsFDbcoHv8+Ogj4+Rf/DS+vF2P1DkAAAAAAAAAUPBaW1uj/5CRcdv9j8eEd2ekzmEN7LHLjnH+mb+LI795aOoUAAAAAPLMQJeS0NraGq8MHhG3P/CEN6YLyFf33ztO/sVP47v//vXo1KlT6hxKxIKFFXHzfY9Hn34Do3H16tQ5RESnTp3imCO/GWef/IvYY5cdU+cAAAAAAAAAQEHq8+KguPW+x2PWnHmpU1gL+/bcLS7/8+lx8AF7p04BAAAAIE8MdMm8p1/oH7c98GS8P2d+6hT+ie222SpOOuG4OOHYo6OsrFvqHDJq6nvvx413PRyvDB6ROoXPcMQ3vhbnnPLL2G+v3VOnAAAAAAAAAEBBmDh1Rvzxkutj6nvvp04hDw49aP+45JxTYt+eu6VOAQAAAGAdGeiSSa2trfHCgCFx/R0Pxux55alzWEMbbtA9fn38j+LM350QG27QPXUOGTFvwaK46pZ7o9/AoalTaINvHPKV+PPpv4kD9+mZOgUAAAAAAAAAklheVR1//fvd8fQL/VOn0A7+64f/ERedfXJsvukmqVMAAAAAWEsGumTO4BGj45pb7493Z8xKncJa2myTz8f5Z54UPzv26OjUqVPqHIrU4qXL44Y7H4qnnu8fzc3NqXNYS4cetH+cc8ov4tCD9k+dAgAAAAAAAAAd5t7H+sR1tz8Ydblc6hTa0Qbdy+KPp/wyTjrxuFh/vfVS5wAAAADQRga6ZMa7M2bFRdfeGqPHTUqdQp703HWnuObCs+Kr+++dOoUiUpfLxY13PxJ3PvRU6hTy6FuHHhR/u+zc6LHlFqlTAAAAAAAAAKDdvDN5Wpxz2Q0xbeYHqVPoQF/erkdcfcFZ8a1DD0qdAgAAAEAbGOhS9Kqqa+Kqm++NJ/u+HP5zzqYfHHV4XPqnU2PrL30xdQoFrs+Lg+LKm+6OJcsqU6fQDrp17RJnn/zLOPVXx8d663VOnQMAAAAAAAAAeVNdUxuX33hn9HruldQpJHTs0UfEVef/Ib6w8UapUwAAAABYAwa6FK2WlpZ4tHe/uPb2+6O6pjZ1Du2sW9cucdqv/0+c/tsTolvXLqlzKDAzZs2Osy+9Pt6ZPC11Ch1g5x22ixsu/VMccuA+qVMAAAAAAAAAYJ31ffm1uOjaW6OquiZ1CgVgs00+H1ed/4f44X/8e+oUAAAAAP4FA12K0juTp8VZF18b730wN3UKHWzLLTaPy889LX5w1OGpUygAdblcXHnzvfFQr+dSp5DA9759WFx+7mmxzdZbpk4BAAAAAAAAgDarrqmNMy+6OgYNezN1CgXom1/7Stxy5fnxpS9uljoFAAAAgH/CQJeiUt/QGDfc8WDc/WjvaGlpSZ1DQt8+7JC48bJzvQFdwoaPHhtnX3xdLFy8NHUKCXVZf/343Yk/jnNO+WV0LytLnQMAAAAAAAAAa2T46LFx2l+uimWVValTKGAbbbhB3HLlX+K7/5ZOmYMAACAASURBVH5Y6hQAAAAAPoWBLkVj/KSpcdr5V8Wc+eWpUygQG3Qvi4vOOjl++V8/jE6dOqXOoYPUrqqLS66/PXo990rqFArI5ptuEn+79E9x1OH/ljoFAAAAAAAAAD7TX668KR7p/ULqDIrICT8+Jq78y5nRrWuX1CkAAAAA/AMDXYrCZTfcEfc81id1BgXqgH16xk1XnBe77rh96hTa2eujxsZZF18bFUuWpU6hQP3s2KPjyvPOiLKybqlTAAAAAAAAAOAT5i1YFL/948UxZfqs1CkUoZ122DbuueHS2HO3nVOnAAAAAPARA10K2qw58+K3Z18S770/J3UKBW799daLM393Qpx50onRZf31U+eQZ01NzXHlTXcb6rNGtttmq7jn+ktjv712T50CAAAAAAAAABERMXDoG3HGhVfHytpVqVMocpede1qc/POfpM4AAAAAIAx0KWC9nnslLrzmlsjVN6ROoYjstMO2cdtVF8T+e++ROoU8mV9eEb8755KYNPW91CkUmQv+cFKc8dsTUmcAAAAAAAAAUOKuuPGuuOuRp1NnkCHf+dahcdtVF8TGG22YOgUAAACgpBnoUnBW1eXi7EuuixcHDUudQpFab73O8dc/nxG/Ov4/U6ewjvoPGRGnn3911OVyqVMoUkd842txzw2XRPeystQpAAAAAAAAAJSYXK4+Tjrn0hg8ckzqFDKox5ZbxH03Xu4gAwAAAICEDHQpKO/OmBW/OfvimLdgUeoUMuC4Y74TN15+bnRZf/3UKayFc6/4Wzz+zEupM8iAnXbYNh6+9arYeYftUqcAAAAAAAAAUCIqliyL4085N2bMmp06hQxbb73Occkffx8nnXhc6hQAAACAkmSgS8F4su/LccHVt0RDY2PqFDJkn567xqO3XRNf+uJmqVNYQwsWLY6fn/6XmD7TB1TkT1m3rnH7NRfF9759WOoUAAAAAAAAADJu+szZcdxJZ8fyyhWpUygRxx59RNx65fnRuXPn1CkAAAAAJcVAl+Ry9Q1xzmXXx3OvDE6dQkZttsnn45HbrokD9+mZOoV/YfDIMfH7P18RK2tXpU4ho/548i/iT6f+Ojp16pQ6BQAAAAAAAIAMGjxyTJz0x0siV9+QOoUSc9ghB8Yjt1wVZWXdUqcAAAAAlAwDXZKau2Bh/PLMC2PGLCdl0r7WW69zXH3BWfHz476fOoV/4q9/vzvufPip1BmUgG9//eC452+XxQbdy1KnAAAAAAAAAJAhvZ57Jc657IbwlTxS2XO3nePpe/4Wm236hdQpAAAAACXBQJdkpkyfFT/53dmxomZl6hRKyHHHfCduuuK8WG+9zqlT+EhDY2OcfO7lMXDoG6lTKCG7fHm7eOLO62PbHlumTgEAAAAAAAAgA6659b649f4nUmdAbLPVl6LP/X+PHbbtkToFAAAAIPMMdEli1NgJccKp50WuviF1CiXo6wcfEI/edk2UdeuaOqXk1a6qi+NP/lOMmzQ1dQolaLNNvxC97roh9t5jl9QpAAAAAAAAABSxP1x0TfTuNzB1Bnxs0y98Pvo+eHPstvOXU6cAAAAAZNrnUgdQel4cNCx++n/PMc4lmZFjxsdxvzs7VtauSp1S0pZXroijTzzVOJdklleuiB/+6ox44613UqcAAAAAAAAAUIRaWlritPOvNM6l4FSuqI4f/uqMmDJ9VuoUAAAAgEwz0KVDPdTrufi/f7osmpqaU6dQ4sZPmho//OUZUV1TmzqlJM1dsDC++7NT4r3356ROocTlcvVx/Cl/iuf7D06dAgAAAAAAAEARaWlpiTMuvDr6vvxa6hT4VNU1tfGjX58Zb0+YkjoFAAAAILM6tba2tqaOoDQ82KtvXHjNrakz4BN23XH7ePbBm2PzTTdJnVIyFi5eGseceGosWrw0dQp8wrUXnR2//OkPU2cAAAAAAAAAUOCMcykm3bp2iSfuvC4OPWj/1CkAAAAAmeMEXTrE48+8ZJxLQXrvg7nxvRN+HxVLlqVOKQkLFy+N//zlGca5FKS/XHlTPNirb+oMAAAAAAAAAArcmRdeY5xL0ahvaIyf/f68eH3U2NQpAAAAAJnjBF3aXZ8XB8WZF16dOgM+U48tt4i+D94S222zVeqUzFqyrDKOOfHUmL+wInUKfKaL/3hKnPqr41NnAAAAAAAAAFBgnJxLMevapUv0uueG+NqB+6ZOAQAAAMgMA13a1QsDhsTvz/tr+M+MYrDZpl+Ifo/cHjtuv03qlMxZXrkijvn5aTFnfnnqFFgjRroAAAAAAAAA/KPW1tY4/YKrjHMpamXdukaf+2+KA/fpmToFAAAAIBM+lzqA7Bo49I047fyrjHMpGssrV8TRJ/w+3vtgbuqUTKmqronjTjrbOJei8te/3x033fNo6gwAAAAAAAAACkBra2v88dLrjXMpern6hvjpSefExKkzUqcAAAAAZIKBLu1iyMgx8ds/XhLNzc2pU6BNVtSsjGN/fWZ8MHdB6pRMqKquiWN/84eYPnN26hRos+vveDDufPip1BkAAAAAAAAAJHbuFTfGU8/3T50BeVGXy8Vxvz3b93kAAAAA8sBAl7wbMnJM/OrMC41zKVrLq6rjR78+M+YtWJQ6pajVrKw1zqXo/fXvd8eDvfqmzgAAAAAAAAAgkZvvfSyeePal1BmQV7Wr6uJnp/45liyrTJ0CAAAAUNQMdMmr/x7nrm5qSp0C62TJssr40a/PjPKKJalTilLNyto47nfutEk2XHjNrfH4Mz5sBQAAAAAAACg1Lw4aFtfd/kDqDGgXixYvjeNP/lPU5XKpUwAAAACKVqfW1tbW1BFkw6ixE+LY35yVOgPyaodte0T/XnfHFzbeKHVK0ahvaIxjf/OHeGfytNQpkFf33HBp/OCow1NnAAAAAAAAANABRo4ZH8efcm40NzenToF29Y1DvhK97r4+Pvc5570AAAAAtJV3VMiLWXPmxc9PPz91BuTdnPnlceKp50VDY2PqlKLQ0tISvznrIuNcMumMC66OsRPfTZ0BAAAAAAAAQDubPnN2/OLMC4xzKQnDR4+NC66+JXUGAAAAQFEy0GWdLV1eGcf99uxYVZdLnQLtYtykqXHaX64MB47/a3+6/G8x9I23UmdAu2hcvTpOPO28+GDugtQpAAAAAAAAALST5ZUr4r9OPidyufrUKdBhHun9QjzU67nUGQAAAABFx0CXdVKXy8VPTjonFi9dnjoF2tXLrw2PK2++J3VGQbv9wSej13OvpM6AdlVdUxvHn/ynWFGzMnUKAAAAAAAAAHnW0NgYJ552XixZVpk6BTrcRdfdFmPGT06dAQAAAFBUDHRZJ7/+w8UxY9bs1BnQIe586Kl4su/LqTMK0nOvDI6rbr43dQZ0iPkLK+LEU89LnQEAAAAAAABAnp1xwdUx4d0ZqTMgiZaWlvjVmRdEecWS1CkAAAAARcNAl7V2zmU3xPDRY1NnQIc694ob3Sny/zNhyvQ46+JrU2dAhxo3aWr84aJrUmcAAAAAAAAAkCd3PNgrXhw0LHUGJLWiZmWccOp5katvSJ0CAAAAUBQMdFkrD/V6zkmilCR3ivykxUuXx4mnnReNq1enToEO17vfwLjv8WdSZwAAAAAAAACwjoa+8VZcefM9qTOgIMyYNdtNywEAAADWkIEubfbGW+/ERdfdljoDknGnyA/l6hvihFPPi+VV1alTIJnL/nanU7UBAAAAAAAAitiKmpVxxgVXpc6AgvLioGEO8AAAAABYAwa6tMm8BYviV3+4MFpaWlKnQFIzZs2OU8/7a+qMpE758+Xx7oxZqTMgKadqAwAAAAAAABS3My+8xs3J4VNcdN1tMXfBwtQZAAAAAAXNQJc2+fkZ50ftqrrUGVAQBgwdGfc81id1RhJ3PvxUDBr2ZuoMKAgralbGiaedlzoDAAAAAAAAgDbq3W9gvPq67z/Ap8nl6uOkcy6Npqbm1CkAAAAABctAlzV2yfW3x3vvz0mdAQXlqpvuiWkzP0id0aGmzfwgrr31/tQZUFCmz5wdF117a+oMAAAAAAAAANZQecWSuPCaW1JnQEGbPG1mXHPrfakzAAAAAAqWgS5rZNTYCXHf48+kzoCCs7qpKU4659Kob2hMndIhGlevjpPOuTRWNzWlToGC88CTfWPYm2+nzgAAAAAAAABgDZx+/pVRu6oudQYUvDsffirGjJ+cOgMAAACgIBno8i+trF0Vp/z5itQZULDenzO/ZE7OvPbW++P9OfNTZ0DBOv38K2N55YrUGQAAAAAAAAB8hseeeTFGj5uUOgOKxjmXXR9NTc2pMwAAAAAKjoEu/9L5V90cS5ZVps6AgvbEsy/FoGFvps5oV+MmTY27Hnk6dQYUtOVV1XHa+VemzgAAAAAAAADgn1hWWRWX3XBn6gwoKu/PmR+33PdY6gwAAACAgmOgy2fqP2REPPvyq6kzoCicdfG1UV1TmzqjXeTqG+L3TtKGNfL6qLHxxLMvpc4AAAAAAAAA4FOcdfF1UZfLpc6AonPTvY/FrDnzUmcAAAAAFBQDXf6pmpW1ce4VN6bOgKJRVV0Tl1x/W+qMdnHNrffF/IUVqTOgaFzx97ujckV16gwAAAAAAAAA/sGLg4bF4BGjU2dAUWpubo6zLro2dQYAAABAQTHQ5Z+6/Ma7YnnlitQZUFR69xsYb779TuqMvJoyfVbc9/gzqTOgqNSsrI0Lrr4ldQYAAAAAAAAAH6ldVedzXFhH4yZNjd4vDEidAQAAAFAwDHT5VGPGT44n+76cOgOK0lmXXBcNjY2pM/Kiqak5TvvLX1NnQFF6YcCQGPrGW6kzAAAAAAAAAIiIa2+7P5ZVVqXOgKJ3xd/vitpVdakzAAAAAAqCgS7/S+Pq1XH6+VemzoCiNb+8Iv5+9yOpM/Lilvsfj/c+mJs6A4rWOZfdELn6htQZAAAAAAAAACVt5ux58dBTz6fOgExYXlUdN93zaOoMAAAAgIJgoMv/cuNdD8eCRYtTZ0BRu/Php2L2vPLUGetkzvzy+NudD6XOgKK2aPFSH0oBAAAAAAAAJHbOpddHS0tL6gzIjHsf71P0340CAAAAyAcDXT5h7oKFcefDT6XOgKLX1NQcF197a+qMdXLuFTemToBMuOuRp9z4AgAAAAAAACCR514ZHG9PmJI6AzKlqak5Lr7uttQZAAAAAMkZ6PIJf7r8b9HU1Jw6AzJh8Mgx8fqosakz1sqAoSNj5JjxqTMgEz4c7PtQCgAAAAAAAKCj1Tc0xuU33pk6AzJp8IjRvl8EAAAAlDwDXT42cOgb3jCDPPvLlTfF6qam1Blt0tDYGBdefUvqDMiUAUNHxqhxE1NnAAAAAAAAAJSUB5/sG4uXLk+dAZl1zW33p04AAAAASMpAl4j4cJB3wdU3p86AzJkzvzzuf+LZ1BltcvsDT8bCxUtTZ0Dm/OWvf4/mZqfUAwAAAAAAAHSEulwubn/wydQZkGnjJ02N10eNTZ0BAAAAkIyBLhERce9jfQzyoJ3cfO9jsaoulzpjjSxeujxue8CHU9Ae3vtgbjz1fP/UGQAAAAAAAAAl4e5H+0RVdU3qDMi86+94MHUCAAAAQDIGukRdLmeQB+2oZmVt3P3I06kz1shN9zwaDY2NqTMgs26659FoanKKLgAAAAAAAEB7KqbvakCxGz9pagx9463UGQAAAABJGOgSdzzYK1bWrkqdAZl27+PPRHVNbeqMz1ResSQee+bF1BmQaeUVS5yiCwAAAAAAANDO7nrkad+Hgg50410Pp04AAAAASMJAt8TVrKyNux7tnToDMq9mZW3c93if1Bmf6YY7HoqWlpbUGZB5N9/rFF0AAAAAAACA9lK7qi7ue/yZ1BlQUsZNmhpvvTM5dQYAAABAhzPQLXG33P945HL1qTOgJNz1SO+CPUV37oKF0bvfgNQZUBLKK5bEk8+9nDoDAAAAAAAAIJMe7d0vVtXlUmdAybnr4adTJwAAAAB0OAPdEra8ckXc+dBTqTOgZNTlcvFAr76pMz7VDXc8FK2trakzoGTcdv8TqRMAAAAAAAAAMqdx9eq48+FeqTOgJA0YOjLmLliYOgMAAACgQxnolrD7n3w2dQKUnPse6xMNjY2pMz5hfnlF9H3ltdQZUFIWLFocz/cfnDoDAAAAAAAAIFOeeXFQLK+qTp0BJcuBIQAAAECpMdAtUbn6hnjoqedSZ0DJWVGzMnr3G5g64xPuevRpp+dCArc/6K7NAAAAAAAAAPnS2toadzzkc1hIqXe/AbGiZmXqDAAAAIAOY6Bboh7t0y+qa2pTZ0BJuv3BJwtmELuiZmX06vty6gwoSe/OmBVvvv1O6gwAAAAAAACATBj6xlvxwdwFqTOgpNU3NMbTLwxInQEAAADQYQx0S1BTU3Pc9fBTqTOgZM1bsCgGDXszdUZERNz3WJ+ob2hMnQEl686Hn06dAAAAAAAAAJAJTzz7UuoEICIe7/Ni6gQAAACADmOgW4Ke6z84Fi9dnjoDStq9j/VJnRC5+oZ4oFff1BlQ0gaPGB2z55WnzgAAAAAAAAAoapUrqqP/kJGpM4CImDVnXkyYMj11BgAAAECHMNAtQQ899VzqBCh5b46dEPMWLEra8MKAIVFdU5u0AYh4/Bl3jgUAAAAAAABYF0/2fTlaW1tTZwAfebLvy6kTAAAAADqEgW6JmTFrdrwzeVrqDCAiHn/2pbTPbxQIBeHpF/pHS0tL6gwAAAAAAACAovXwU8+nTgD+wTMvvxr1DY2pMwAAAADanYFuiXm0j0EeFIre/QYkG+XNnlce4yZNTfLcwCctr6qOV18flToDAAAAAAAAoCiNGjshyiuWpM4A/kEuVx8Dh45MnQEAAADQ7gx0S0hDY2P07jcgdQbwkcVLl8fQN95K8twPPPlskucFPl2v519JnQAAAAAAAABQlF4YMDR1AvApnu8/JHUCAAAAQLsz0C0h/QYOi9pVdakzgH/Q67mOH+U1NDbG0y8Y60MhGTTszVheuSJ1BgAAAAAAAEBRaW1tjecHDE6dAXyKwSNGR66+IXUGAAAAQLsy0C0hTs+FwjNo2JsdPpwfOPQNY30oMK2trfFcfx8aAwAAAAAAALTF6PGTorqmNnUG8ClWNzVF/8EjUmcAAAAAtCsD3RKxomZljBwzPnUG8P9Z3dQUr3TwG9EvDhrWoc8HrJl+A4emTgAAAAAAAAAoKi8Nej11AvAZ+g3yXQgAAAAg2wx0S4RBHhSujhzl5eob4rXhozrs+YA19/aEKbFkWWXqDAAAAAAAAICi0Nra6kbIUOAGDn0jVtXlUmcAAAAAtBsD3RLhbpFQuIaPGhu1q+o65LkGjxgd9Q2NHfJcQNs9339w6gQAAAAAAACAojBhyvRYVlmVOgP4F4aPHps6AQAAAKDdGOiWgBU1K2PkW+NTZwD/xOqmpnj5tY4Z0b/0qrE+FDJ3dwYAAAAAAABYM4NefzN1ArAGXn/TQBcAAADILgPdEtB/8IhoaWlJnQF8hpdeHd7uz7G6qSkGDh3Z7s8DrL1xk6bG4qXLU2cAAAAAAAAAFLzXho9KnQCsAa9VAAAAIMsMdEtA/yEGeVDoho8aG01Nze36HK+/+XbUNzS263MA627IyDGpEwAAAAAAAAAK2vKq6pgyfVbqDGANlFcsiTnzy1NnAAAAALQLA92Ma1y9OkaOGZc6A/gXGlevjtHjJrbrc7w2fHS7Pj6QH8PefDt1AgAAAAAAAEBBGzBkROoEoA2GvTk2dQIAAABAuzDQzbiRY8ZHrr4hdQawBoaNat9R3oChTtOGYjDszbejtbU1dQYAAAAAAABAwRoyckzqBKANho8y0AUAAACyyUA3414b4cRMKBavt+OpmdNnzo7FS5e32+MD+VOzsjYmTn0vdQYAAAAAAABAwXrd2A+KyuhxE1MnAAAAALQLA92Me+W14akTgDU0ZfqsWFZZ1S6P/dqIUe3yuED7GPbGW6kTAAAAAAAAAArSex/MjVV1udQZQBtUVdfEzNnzUmcAAAAA5J2Bboa9P2e+EzOhyIwcM75dHnfoSGM/KCYj32qfawEAAAAAAABAsXv7ncmpE4C18Nb4SakTAAAAAPLOQDfDRo+bmDoBaKMx7fBGdFNTc4ybNDXvjwu0n7ET3o2mpubUGQAAAAAAAAAF5+0JU1InAGuhPb4XBQAAAJCagW6GeTMais+Y8fm/y+vEqTOiobEx748LtJ+GxsaYNHVG6gwAAAAAAACAgvOWE3ShKI3x2gUAAAAyyEA3w7wZDcVn+qzZUbuqLq+P6VoAxWm0O8cCAAAAAAAAfEJVdU3MnleeOgNYC/MWLIqq6prUGQAAAAB5ZaCbUZUrqr0ZDUWotbU1xuR5lPf2O07ThmJkXA8AAAAAAADwSe9On5U6AVgH02d+kDoBAAAAIK8MdDMq3wM/oOPke5Q3etzEvD4e0DGM6wEAAAAAAAA+aZpxHxQ1r2EAAAAgawx0M+qdydNTJwBrafK0mXl7rAULK6KquiZvjwd0nMoV1VFesSR1BgAAAAAAAEDBmD5rduoEYB1Mfc9AFwAAAMgWA92Mmvre+6kTgLWUz9evN7WhuE3z/+cAAAAAAAAAH3P6JhQ3r2EAAAAgawx0M2q6N7KgaC1eujxvp956UxuKm9cwAAAAAAAAwP/wnSgobjOcgg0AAABkjIFuBuVy9VFesSR1BrAO8vWBknEfFDevYQAAAAAAAIAPzS+viFx9Q+oMYB2sqsvFssqq1BkAAAAAeWOgm0FTZsxKnQCso3yN8qa76yQUNQNdAAAAAAAAgA/NmV+eOgHIgwULF6dOAAAAAMgbA90MMuaB4jdj1px1foyWlpZ47/11fxwgnekzjewBAAAAAAAAIiLmlS9KnQDkwfyFFakTAAAAAPLGQDeDZs2elzoBWEf5+FBp1pz50dramocaIKUFi9w5FgAAAAAAAGDuAgNdyILyiiWpEwAAAADyxkA3g+bMX5g6AVhHCxau+yBv3gLXAsiCfFwPAAAAAAAAAIqdE3QhGxY4QRcAAADIEAPdDJprlAdFr7xi3Qd57hwL2ZCP6wEAAAAAAABAsTPQhWwoX+QEXQAAACA7DHQzaM688tQJwDrK1TfE8qrqdXoMH0xBNjhBFwAAAAAAACBiYYVRH2TB0uWVqRMAAAAA8sZAN2OWVVZF4+rVqTOAPFiwqGKdfn+eE3QhE9b1WgAAAAAAAACQBYuXLk+dAORBVXVN6gQAAACAvDHQzZi5BnmQGet659e5CxbmqQRIaWHF0tQJAAAAAAAAAEnVrqpLnQDkSWVVdeoEAAAAgLwx0M2YiiXLUicAebK8ct3ejHbnWMiG5ZUrUicAAAAAAAAAJFW1wombkBXVK2ujpaUldQYAAABAXhjoZow3oyE7qqrXfqDb2toalSvcbRKyoHIdrgUAAAAAAAAAWbDcdyAgM1pbW6OqemXqDAAAAIC8MNDNGIM8yI7KqrV/Pa+o8SY2ZMW6XAsAAAAAAAAAsqDKd6IgU1ZUO4gEAAAAyAYD3YzxZjRkR9U6vBHtNG3IjlV1uWhpaUmdAQAAAAAAAJBM7aq61AlAHtXWeU0DAAAA2WCgmzHrMugDCsvydTg107UAsmXp8qrUCQAAAAAAAADJrF7dlDoByKO6XH3qBAAAAIC8MNDNmHUZ9AGFZWVt7Vr/bmXVijyWAKlVr1z76wEAAAAAAABAsWtuaUmdAOSRgS4AAACQFQa6GeONK8iO2lW5tf5d1wLIllWr6lInAAAAAAAAACTT0tKcOgHIo7q6tf9eFAAAAEAhMdDNmObmptQJQJ7U5db+jeimZh9MQZas8sEUAAAAAAAAUMKamnwPArJkXb4XBQAAAFBIDHQzprm5JXUCkCfrMshzLYBsMdAFAAAAAAAASllzi+9BQJbk6htTJwAAAADkhYFuxjg1E7KjLle/1r/b7FoAmWKgCwAAAAAAAJSy1tbW1AlAHn3uc51SJwAAAADkhYFuxrS4WyRkRq6+Ya1/1wm6kC3rMtgHAAAAAAAAKHadOhnzQZZ0/pyvrgIAAADZsF7qAPLLQBeyo7m5OZqbm6Nz585t/t2WVtcCyJKmpqbUCQAAAECJWVm7KuYuWBTzyhfF/IUVsbxyRdTlclGXq//4T67+v//+w5/ncg1Rl8vFqrrc/3q8sm5do6xbt+he9uGfsm7dYoPuZR/+vOx/ft69rCw22nCD6LHVl2LbrbeM7bbZKrb+0hcT/BsA/tuc+eUxv7wi5pUviooly2Jl7aqPrgENH7/+6xsaonZV3Uc/+/C6UF1T+6mPt/FGG350Hega3cvKYsMNyqJrl64fXgO6/881YsMNuscWm20a2/bYMrbtsVVsu/WWUdatawf/0wMAAO2h2fccAQAAgIww0AUoYGszzo2IaG1tzXMJkFLn9dbuWgAAAACwJiZPmxnjJ0+NdyZPi2kzP4i5Cxb+02Hd2srVN0SuviEqV1Sv1e/vsG2P+PJ2PeLAffeM/fbaPQ7ad8/YeKMN89oIpW5ZZVWMGT85Jr47I8ZPnhpz5pVHecWSvD9PzcraqFm5dteYzTfdJLbbZqvYb8/dY9+eu8b++/SMXb68XZ4LAYBC5KbGkC0tzQa6AAAAQDYY6GZMp06dUicABcC1AAAAAAD4NMsqq2L0uEnxzpRpMW7iuzHx3RlR39CYOutfmjO/PObML4+hb7z18c+232brOGCfPeLAffaM/ffaPQ7Yp2fCQig+o8dNivGTp8b4SVNj/ORpsWjx0tRJ/9KyyqpYVlkV4ydN/fhnG224Qey31+7xlX33jP323D0O2n+v2OTzGyesBADaQ5f1u6ROAPLIjcoBAACArDDQzZimpubUCUABaGlxgi5kSbM7xwIAAABraezEd+OtdybH+ElTY9ykqVGxZFnqpLyZu2BhzF2wMJ57ZfDHPztwn56x3167x8EH7BMHH7BPSqduXQAAIABJREFUbLH5pgkLoXAsWFgRb46dGOMnTY0JU6bHxKkzUiflzcraVTFi9LgYMXrcxz/btseWccDePePAfXrGV/bdM/bfe4+EhQBAPpSVdU2dAORRWTevaQAAACAbDHQBsqjVQBcAAAAAStF778+J4aPHxfDR4+LNt9+JVXW51EkdatxHQ+QHnuwbERE777BdHPa1A+Owgw+Ifzto/9h4ow0TF0LHqK6pjRFjPhytDh89LubML0+d1KHml1fE/PKKeGHAkIiI2HijDePfDto/Djv4gPj6IQfGLl/eLnEhANBWZd26pU4A8qh7WVnqBAAAAIC8MNDNmG7uLAeZsd56ndf6d10LIFu6de2SOgEAAAAoYGPGT45nXxoUrwweHsurqlPnFJRZc+bFrDnz4qFez0VExAH79Iyjj/hGHHfMd5yuS+Ysq6yK3v0GxouDhsWEKdNT5xSUmpW10X/IiOg/ZERERGy+6SbxvW8fFscefWQcfMDeiesAgDXhtE3Ilu5lRvcAAABANhjoZoy7RUJ2rMvr2QdTkC1e0wAAAMD/b/a88ujdb0A8+/KrMb+8InVO0Rg/aWqMnzQ1rrzpnvj6wQfEj48+Io458luxQXcn91Cc6nK5eOnV4fHsS6/GiDHjorW1NXVSUVhWWRWP9ukXj/bpF9tuvWUce/QR8ZPvHxU77bBt6jQA4J9w2iZki+85AgAAAFlhoJsxBjyQHetyp0hvYkO2uHMsAAAAEBGxomZl9Ok3MPq+8prTMddRa2trjBg9LkaMHhdnXXxd/OCow+PHRx8Z3/nWoanTYI0MfeOteOalQfHyq8OjobExdU5Rm7+wIm657/G45b7HY6/dd44ffe+I+OkPjorNN90kdRoA8A98JwqyxfcgAPh/7N13dJR13obxe5IQEkihdxCkCEgVUYooSFEpIr33Jl2kg1goooAUkd6bQelSRZqCiFhQsSGo9Co9EAgkef/Q19VdC5CZ+c48c33OyYEDh+e5dtcZ3CT38wMAAACcgoGuw/DJaMA5kjOyDQsLdWMJAGuM7gEAAAAACFw3bt7Uxm07tWT1u9q8fZdu3kywTnKkd97dqnfe3ar0aaNV+/HKalCrmkoUKWidBfzJDz8d0lsr12vZ2vd06sxZ6xxH+vr7A/r6+wMaMX66Hi5TSvVrVVP1yg/zNVgAAHxAOGM+wFEY6AIAAAAAAKdgoOswfHEYcI7kvJ4Z8wHOwhebAQAAAAAIPGfPXdCkOTFatHytLl2Otc4JGGfPX9TsmOWaHbNcd9+VQx2a1Vfrxk9ZZyHALVm9UbMWLdOX3+6zTgkYiYmJ2rbzE23b+YnCw8aoXs2q6ta2qe7Kkc06DQCAgMX3RAHOwvdBAAAAAAAAp2Cg6zCM8gDnSM6TInkvAJyFJ8cCAAAAABA4jh4/qfEzFmrJO+8q/sYN65yA9tOhoxr48niNmTpX7ZrUVbumdRUVGWGdhQBxPT5eMcvXafK8xTpy7KR1TkCLu3ZdC5eu0aJla1W9cgX17NBCRQvlt84CACDg8DVTwFl4TQMAAAAAAKdgoOswYTwtEnCM5DwpMiws1I0lAKzxNGgAAAAAAJzv2x9+1GtT5mrd5u3WKfgvZ89d0KhJs/X6zIVqUreGerRrpiyZMlhnwaGuXI3TvLdXafLcxTp77oJ1Dv4gKSlJazd9oLWbPlC50iXVrW0TVSr/gHUWAAABI12aaOsEAG6UJirSOgEAAAAAAMAtGOg6DAMewDmScwouJ+gCzsJrGgAAAAAA5zp89IRGTJiud97dap2Cf3HterzmxKzQm8vWqk3jp9SjQ3OljY6yzoJDXI+P1+yYFXpj1ps6d+GidQ7+xc5P9mjnJ3t0X7HCGtqvm0oVK2ydBABAQIiKjNCly7HWGQCSif8vDQAAAAAAnCTIOgDuxYAHcI6I1OF3/GcZ6wPOkjrVnb8fAAAAAAAA33TqzFn1eWmMytVqzjjXz1yPj9fU+W+r9GONNHrSbF2OvWKdBD+WkJCgRcvWqGyNZhr62hTGuX7m86++Vc3mXdS0cz99t/8n6xwAABwvZ7Ys1gkA3CBndl7LAAAAAADAORjoOky6tNHWCQDcJGP6dHf8Z3nSJOAcYSlDFZE6lXUGAAAAAABwk6txcRo2bqpKVK6nRcvWKCEhwToJd+jK1TiNnTZfpao11OS5i61z4IfWbvpA5Wu1UJ+XxujEqTPWOUiGrR/u1qP12qpjnxd16Ohx6xwAABwrR7bM1gkA3CBHVl7LAAAAAADAORjoOkz2LJmsEwC4SXI+Ge1yuXg/AByCp0ADAAAAAOAcS1ZvVNkazTR5DmNOJ7kce0XDxk7Vg9WbaPuuz6xz4AcOHT2uBh2eVftnn2fM6TCrN27Tw7Vb6eUJMxQXd806BwAAx+Frp4Az8FoGAAAAAABOwkDXYXi6HOAcyX3ya3beDwBHyMEXpgAAAAAA8Hv7Dvys6s06q8fgl3X6l3PWOfCQw0dPqGHH3mredQCjS/yluLhrGj5+mio82VI7Pv7cOgceEn/jhibOWqSyNZtp2dr3rHMAAHAURn2AM+TMntU6AQAAAAAAwG0Y6DoMn4gGnCNH1uS9nrNn5QRdwAl4+AYAAAAAAP7ralycBo2coIp122jP3u+sc+Alm7fvUpnqTTVs3FTrFPiQ1Ru36cHqTTVpdoxu3LxpnQMvOHXmrLoNHKFaLbrqh58OWecAAOAIPNwYcAa+DwIAAAAAADgJA12HCQ8PU5qoSOsMAG6Q3IFtcge+AHwDp2EDAAAAAOCfPtj1qSo82VJzYlZYp8DI5DmL9WD1Jtr12VfWKTB09twFteoxSB37vKgzZzlBOxB9+uU3qly/rUZPms04GwCAZOLgAsAZcmbntQwAAAAAAJyDga4DMeQB/F9YylClSxOdrGtwgi7gDDmy8fc6AAAAAAD+JPbKVT37wig16thHx0+dsc6BscNHT6hOmx7qP2ysYq9ctc6Bl61cv1kPP9VKG7fttE6BsZs3EzR22nxVrtdWX3yzzzoHAAC/xddOAWfIkyuHdQIAAAAAAIDbMNB1IEZ5gP/LlT1rsq+Rg7E+4Aichg0AAAAAgP94/6NPVaF2S8WsWGedAh8zf8k7qlC7pbbs+Ng6BV5w9twFte45WJ37D9O5Cxetc+BD9v98WE806aQXR0/Stevx1jkAAPidtNFRCg9LaZ0BIBmiIiN4HQMAAAAAAEdhoOtADHkA/+eOk7AZ6ALOwIM3AAAAAADwfTdvJujF0ZPUuFMfnTz9i3UOfNTJ07+oWZf+GjRygq7HM8xzqg9371HFum307tYPrVPgw6YtWKIqDdpp34GfrVMAAPA7d9+V0zoBQDLkzpnNOgEAAAAAAMCtGOg6EEMewP+5Y1zrjlN4AdjLnoW/1wEAAAAA8GVHjp1UjeadNW3BEusU+Ik5MStUrVFHHTh42DoFbpSQkKCRr89Qgw7P6pdz561z4Ad+PHhEjzXupDkxK6xTAADwK0UK5rdOAJAMxQoXsE4AAAAAAABwKwa6DnT3XTmsEwAkU/6770r2NcLDw5QhXVo31ACwkj9PLrlcLusMAAAAAADwN9Zv2a6Kddvoq29/sE6Bn/nhx4Oq2qC95r29yjoFbnDs5Gk92aq7Xp+5SElJSdY58CPX4+M1aOQENe86QGfPX7TOAQDAL5QsWtA6AUAylCxSyDoBAAAAAADArRjoOlDRQjxlDvB37nod89RJwL8V5TUMAAAAAIDP6jt0jNo+M0RX4+KsU+Cnrl2P14Dh49T2mSG6dDnWOgd3aNMHH6ly/bb6/KtvrVPgxzZv36VKddvoo8++tE4BAMDnlSjCQBfwZ/cVLWydAAAAAAAA4FYMdB0oe5ZMioqMsM4AkAzF773HLddhoAv4Nx66AQAAAACA7zl64pQq1WujhUvXWKfAIdZv2a5H67XV3u/2W6fgNiQkJGjE+Olq0W2gLl5iYI3kO3P2nOq366Vx0+ZzEjMAAP+gcIG8CgkJts4AcAfCUoaqQN67rDMAAAAAAADcioGuQ91f/F7rBAB36O67cig8LKVbruWuoS8AG8UK5bdOAAAAAAAAf7B5x8d6tF5bfb//Z+sUOMyxk6dVo1lnzVi41DoFt+DsuQt6qnUPvTH7TesUOExiYqJGTZqtRp366Oy5C9Y5AAD4pBQhISpSkK+jAv7ovqKFFRTEt6wCAAAAAABn4bMdDsUoD/Bf7jwxs3hh3gsAf1ayaGHrBAAAAAAA8JthY6eqeZf+uhx7xToFDnXj5k09P+oNtew+iH/OfNjHn+9Vxbpt9OmX31inwMG27/pMleq11a7PvrJOAQDAJ5UoUtA6AcAdKFGU1y4AAAAAAHAeBroOVayw+wZ+ALyrmBsHulkzZ1SGdGnddj0A3nNXjmxuO00bAAAAAADcuevx8Wrdc7Amz11snYIA8d77O1WzRVed/uWcdQr+y4atO1S//TP65dx56xQEgDNnz6lBh15avXGbdQoAAD6n5L2M/AB/dB8PKQcAAAAAAA7EQNehODUT8F9FC+V36/U4URvwTzxsAwAAAAAAe7FXrqpe22f07tYPrVMQYH748aAeb9JJBw4etk7Bb2JWrFObns/p5s0E6xQEkJs3E9Sxz4uaMu8t6xQAAHwKJ+gC/qlk0ULWCQAAAAAAAG7HQNehODUT8F/uHtQWZ+QH+CUGugAAAAAA2Dp77oJqNO+iz7761joFAerEqTOq3rSzPv3yG+uUgPfqG7P07AujrDMQwIa+NkUDho9TUlKSdQoAAD4hX55cCksZap0B4DZkzphe2TJntM4AAAAAAABwOwa6DsapmYD/yZk9i6IiI9x6zeL38uRYwB8VLcRAFwAAAAAAK4eOHtcTTZ/WDz8etE5BgLsce0W1WnTVus3brVMCVt+hYzR++gLrDEDz3l6lTn1fss4AAMAnBAUFqXzpktYZAG5DxXKlrRMAAAAAAAA8goGug91f/F7rBAC3qXSJIm6/5v0leC8A/NF9RQtZJwAAAAAAEJCOnzqjOm166sjxk9YpwO869H5BK9dvts4IKElJSeo6cLgWLl1jnQL8bvXGbWrUsY+ux8dbpwAAYK7KI+WsEwDchsoVylgnAAAAAAAAeAQDXQerWP4B6wQAt6liOfe/btOliVbRQvndfl0AnlO6RBFFRqS2zgAAAAAAIOAcP3VGT7XqrhOnzlinAH+SmJiozv2HMRb1omdfGKXlazdZZwD/44Ndn6rp0/105WqcdQoAAKaqVWSgC/iLoKAgVWGgCwAAAAAAHIqBroMVL1xAUZER1hkAbsOjDz3oket6YvgLwHM89V4AAAAAAAD+3ulfzumpVt05ORc+re/QMZods9w6w/EGDB+nxSvXW2cAf2vnp1+ofrtndDn2inUKAABmsmXOqIL581hnALgFZe8vrvDwMOsMAAAAAAAAj2Cg62Aul0uVKzDwAfxF8cL3KH3aaI9cu9JDDHQBf8JAFwAAAAAA7zp77oJqM86Fnxg88nVNnrvYOsOxnh/1hua9vco6A/hXX3yzT3Xa9NSFS5etUwAAMFP1YU7RBfxBlYfLWicAAAAAAAB4DANdh6tUnoEP4C8e9eCgvnTxIjyJEvAT6dJEq1jhAtYZAAAAAAAEjEuXY1W/Qy8dPHLMOgW4ZcPGTtWEGQutMxxn3LT5mrFwqXUGcMu+2XdAtVt119nzF61TAAAwUfURRn+AP6jycBnrBAAAAAAAAI9hoOtwlcqXtk4AcIs8eWJmSEiwHilzv8euD8B9+MIUAAAAAADec+VqnOq376Xv9/9snQLctlcmztTsmOXWGY4xdf7bGjVptnUGcNt++PGgajbvotO/nLNOAQDA6+4vfq8iI1JbZwD4BzmzZ1G+3LmsMwAAAAAAADyGga7DZUiXVkUK5rPOAPAvIiNSq1Sxwh69R6WHHvDo9QG4R+UKDHQBAAAAAPCGuLhratDhWe39br91CnDHBo98XUtWb7TO8Htz31qll8ZMts4A7tjBI8fUsGNvxV65ap0CAIBXuVwuVXuknHUGgH/wWMXy1gkAAAAAAAAexUA3AFQsxygP8HWVK5SRy+Xy6D08eUIvAPepWK60dQIAAAAAAI4XF3dNjZ/uqz17v7NOAZKtx+CXtXL9ZusMv7Vo2RoNHDHOOgNItn0HflbrnoOtMwAA8Lqqj5S1TgDwD6o8zGsUAAAAAAA4GwPdAPAop2YCPs8b49kcWTMrb+6cHr8PgDtXukQRRUVGWGcAAAAAAOB4rXoO1u49e60zALfp3H+Ytn642zrD7yxfu0l9XhpjnQG4zYe796hVj0FKTEy0TgEAwGt4WDngu9KliVa50iWsMwAAAAAAADyKgW4AKHt/CaWNjrLOAPA3QkKCVe2Rcl651+OPPuSV+wC4MzWqPmKdAAAAAACAoyUmJqr9s89r+67PrFMAt2v37POcCn0btu38RD2eG2mdAbjdxm07GZ4DAAJKZERq1atR1ToDwF9o+ORjShESYp0BAAAAAADgUQx0A0TdGlWsEwD8jWqPlFN0lHdOzGxU+wmv3AfA7XO5XKrPF44BAAAAAPCoZ18YpbWbPrDOADwiLu6aGj/dVwcOHrZO8XlffP29WvcYrISEBOsUwCNiVqzTqEmzrTMAAPCapnWrWycA+AvN69eyTgAAAAAAAPA4BroBovFTfCIa8FUNnnzMa/fKnyeXShQp6LX7Abh1lco/oPTp0lhnAAAAAADgWK9Nmau3Vm2wzgA86tLlWDXq0Funzpy1TvFZPx48okad+uh6fLx1CuBR46bN14Klq60zAADwinKlSypn9izWGQD+oGTRQsqbO6d1BgAAAAAAgMcx0A0QRQrmU77cuawzAPyXqMgIVa5Qxqv35BRdwDfVr1nNOgEAAAAAAMdatGyNxkyZa50BeMXxU2fUttcQ3bh50zrF55w4dUZ12/bUpcux1imAVwwYPk4fffaldQYAAF7RvB4ndQK+pEkdDhQBAAAAAACBgYFuAGnRgE9EA76mbvXKShES4tV71nmiskJCgr16TwD/LDw8TE9UrmCdAQAAAACAI338+V71GzbWOgPwqs+/+lZDXploneFTrsfHq2X3gTr9yznrFMBrEhMT1bbnczp64pR1CgAAHtfwycfkcrmsMwBICk2RQvVqVLHOAAAAAAAA8AoGugGkUe0nGOUBPqZ+rce8fs/oqAhVr/yw1+8L4O89Wa2iwlKGWmcAAAAAAOA4x06eVuseg5SYmGidAnjdvLdXafnaTdYZPqPH4JH6+vsD1hmA1124dFktug1QXNw16xQAADwqS6YMqlyhjHUGAEm1H6+kVOHh1hkAAAAAAABewUA3gERHRahKhbLWGQB+kzN7FpUqVtjk3o1qP25yXwB/rYHBWB8AAAAAAKeLu3Zdzbr014VLl61TADO9nn9VX337g3WGuSnz3tI77261zgDMfL//Z/V+abR1BgAAHte0bnXrBACSmtThtQgAAAAAAAIHA90A0/ipJ6wTAPym8VN2n4yuVP4BZc6Y3uz+AP4jc8b0Kle6hHUGAAAAAACO06X/MO078LN1BmAq/sYNtew+UOcvXrJOMbN912caNnaqdQZgbsW6zXp71QbrDAAAPOqxiuWVPm20dQYQ0HJkzayy9/M9EAAAAAAAIHAw0A0wj1Uqr/Tp0lhnAJDUoGY1s3u7XC5O0QV8RKPaj8vlcllnAAAAAADgKDMXLdOGrTusMwCfcOrMWbV95jklJCRYp3jd6V/OqX3vF5SUlGSdAviEAS+P16Gjx60zAADwmKCgILVqWNs6AwhoHVs0sE4AAAAAAADwKga6AahN4zrWCUDAq/pIOeXMnsW0oXWjpxQcHGzaAAS64OBgtW70lHUGAAAAAACOsu/Azxr62hTrDMCn7PrsK40YP906w6uSkpLUofcLunQ51joF8BlxcdfUofcLunkz8Ab7AIDA0aFFA4WlDLXOAAJSVGSEmtevZZ0BAAAAAADgVQx0A1C7pnX5RDRgrHPrRtYJypo5o+o8Udk6AwhoTz5WUVkzZ7TOAAAAAADAMa5dj1ebZ57TjZs3rVMAnzNl3lvas/c76wyvmTjrTe3es9c6A/A5e7/br9GTZ1tnAADgMWmiItWSU3QBE11aN1Z4WErrDAAAAAAAAK9ioBuA0kRFqvFTT1hnAAGrUP67VbZUcesMSb4xFAYCWbe2Ta0TAAAAAABwlBdGvaGfDx+zzgB8VpcBwxV37bp1hsd9/f0BjZrEABH4OxNnvakvvv7eOgMAAI/p3KqRUoSEWGcAASVVeLjaN6tnnQEAAAAAAOB1DHQDVOdWjeVyuawzgIDUs0Nz64TfFS6QV4+Uvd86AwhI5UqXVOECea0zAAAAAABwjI3bdmr+knesMwCfdvDIMb0ycaZ1hkddjYtT22eeU0JCgnUK4LOSkpL0dL+hunY93joFAACPyJIpA4cXAF7WrmldpU4Vbp0BAAAAAADgdQx0A1SuHFlVo8rD1hlAwMmSKYNqVatonfEnXdo0tk4AAlIXTrAGAAAAAMBtzl+8pJ7PjbTOAPzC9AVLtGfvd9YZHvPi6Mk6cvykdQbg8w4dPa4R46dZZwAA4DHd2zXj8ALAS8JShqpTy4bWGQAAAAAAACYY6Aawrm2aWCcAAadL68YKCvKtt96Hy9yvQvnvts4AAkre3Dn16EMPWmcAAAAAAOAY/YeN1YVLl60zAL/RZcBwxd+4YZ3hdjs+/lwLlq62zgD8xsxFy7R7z17rDAAAPCJn9iyqV6OqdQYQEJrWran0aaOtMwAAAAAAAEz41koMXlWiSEE9eF9R6wwgYKROFa7m9WtZZ/ylrm0Z7APe1LVNE57WDAAAAACAm6zfsl2rN26zzgD8ysEjxzRywgzrDLe6GhenboNGWGcAfqfboBG6Hh9vnQEAgEc807GFdQLgeMHBwerRvpl1BgAAAAAAgBkGugGuS2tGeYC3tGlcR+FhKa0z/lLtxx5VlkwZrDOAgJA+XRrVq8mTmgEAAAAAcIfzFy/p2edHWWcAfmnq/Le1Z+931hlu88LoSTp15qx1BuB3jhw7qbFT51lnAADgEXlz51SNKg9bZwCO1qBWNWXOmN46AwAAAAAAwAwD3QBXrWI5FSmYzzoDcLywlKHq1LKBdcbfCgkJVs8OPDkW8IZubZsqNEUK6wwAAAAAABxh0MsTdOHSZesMwG89M+QVJSUlWWck20effqGFS9dYZwB+a9KcxTpw8LB1BgAAHjHk2acVEhJsnQE4UmiKFBrQvb11BgAAAAAAgCkGutDQft2sEwDH696+uTKkS2ud8Y9a1K+p3DmzW2cAjpYja2a1a1rXOgMAAAAAAEfYvWevVq7fbJ0B+LUffjqkhcv8e9iakJCgfkPHWmcAfi0hIUHPPPeKdQYAAB5xV45s6tjcdx+oDvizHu2bcXouAAAAAAAIeAx0obL3l9DjlR6yzgAcK3PG9OraprF1xr8KDg7WiIE9rDMAR3u+d2elCAmxzgAAAAAAwO8lJCSo9wujrTMAR3h14kxdjr1inXHHZr25nJM/ATf47KtvtXjleusMAAA8ok/n1sqUIZ11BuAomTKkU7d2Ta0zAAAAAAAAzDHQhSRpWP9uCgkJts4AHGlQz45KGRpqnXFLHn3oQT1S9n7rDMCR7itWWLWqVbTOAAAAAADAEea+tYpBHuAmZ89f1PgZC6wz7sjZ8xc1atJs6wzAMYaPn6Zr1+OtMwAAcLvw8DC91LerdQbgKC/26eo33w8FAAAAAADgSQx0IUnKkS2L2jWpa50BOE6RgvnU8MnHrDNuy8jBvRQUxF8PgLu9MriXdQIAAAAAAI5w8VKsRr4+wzoDcJTpC5bo6PGT1hm3bfi4qbpyNc46A3CMs+cuaPLcxdYZAAB4xFNPVFbpEkWsMwBHKFm0kOpUr2ydAQAAAAAA4BNYYOF3vTu3VnRUhHUG4CivPPesdcJty5Mru1o2qGWdATjKU09UVtFC+a0zAAAAAABwhJcnTGeQB7jZzZsJenHMZOuM27L3u/1avHK9dQbgOG/MflO/nDtvnQEAgEe89lI/HlgOuMGoIb2tEwAAAAAAAHwGn3HE7yIjUqt/13bWGYBjPFapvEoVK2ydcUf6d2+viNSprDMARwhNkUIv9O5snQEAAAAAgCMcO3laC5etsc4AHGntpg/02VffWmfcMk7SBjwjLu6aRk+aY50BAIBH5M+TS+2b1bPOAPxag1rVVKRgPusMAAAAAAAAn8FAF3/SsuGTyp0zu3UG4PeCgoL0Qu8u1hl3LE1UpJ59upV1BuAIHVs0UJZMGawzAAAAAABwhFFvzFJiYqJ1BuBYA0eMs064JXv2fqetH+62zgAca9HytTp64pR1BgAAHtG3SxulSxNtnQH4pfCwlH79/VAAAAAAAACewEAXfxIcHKwxL/SxzgD83tOtGipPLv8eu3du1Uj58+SyzgD8WpZMGfRMxxbWGQAAAAAAOMKho8e1ZPVG6wzA0fZ+t18bt+20zvhXIyZMt04AHC0hIUGjJ822zgAAwCMiUqfSmBf53ijgTgzo3l7p06WxzgAAAAAAAPApDHTxP8o/UFKtG9W2zgD8Vu6c2dW/WzvrDLeYMup5uVwu6wzAb70+fKBSpwq3zgAAAAAAwBFemThLSUlJ1hmA442bNs864R999NmX+nD3HusMwPGWrN6onw8fs84AAMAjnni0glrUr2WdAfiVMqWKqWOLBtYZAAAAAAAAPoeBLv7SC326KkfWzNYZgF+a/MpzCk2RwjrDLe69J596dmhunQH4pfo1q6lCmVLWGQAAAAAAOMIPPx7UyvWbrTOAgPDFN/u0e89e64y/9crrM60TgICQlJSk0ZM5RRcA4FxD+3fXPfnyWGcAfiE6KkLTRr9onQEAAAAAAOCTGOjiL4WlDNWkV56zzgD8TpsmdVSyaCHrDLfq/XQ4mcx4AAAgAElEQVRr5c+TyzoD8Cvp06XRiIE9rDMAAAAAAHCMSXNirBOAgDJx1pvWCX/pky++9unxMOA0K9Zt1o8Hj1hnAADgEWEpQzVr7FClDA21TgF83hsvD1amDOmsMwAAAAAAAHwSA138rQdKFlWH5vWtMwC/kSVTBg3u2dE6w+1CQoI1ZdTzCg4Otk4B/Mb4of0VFRlhnQEAAAAAgCP8cu68lq3dZJ0BBJRNH3ykAwcPW2f8j6nz3rJOAALO1Pm87gAAzpU3d04NG9DdOgPwac3r11SVh8taZwAAAAAAAPgsBrr4R4N6dtRdObJZZwB+4fXhA5U6Vbh1hkfce08+9erU0joD8As1qz7CF6cAAAAAAHCj6QuWKiEhwToDCDivz1honfAnh4+e0PotO6wzgIDz1soNunDpsnUGAAAe06J+LdWo8rB1BuCTcmbPomH9e1hnAAAAAAAA+DQGuvhHYSlDNXXU83K5XNYpgE9rUqe6KpQpZZ3hUb06tlDhAnmtMwCfliYqUqOe722dAQAAAACAY8Rdu675S1ZZZwABafm6zTpx6ox1xu+mLnhbSUlJ1hlAwLlx86ZmLFhinQEAgEeNHzZA2TJntM4AfEpwcLBmjR2msJSh1ikAAAAAAAA+jYEu/lWJIgXVpU1j6wzAZ6VPl0Yv9ulineFxQUFBmjLqeaUICbFOAXzWsAHdlTY6yjoDAAAAAADHiFmxVhcvxVpnAAEpISFBk+cuts6QJMVeuaqY5WutM4CANStmueJv3LDOAADAYyJSp9KM115ScHCwdQrgMwZ0b6eihfJbZwAAAAAAAPg8Brq4Jf27tVOxwgWsMwCfNH30C4qKjLDO8IoCd9+lof27W2cAPqnqI+VUv2Y16wwAAAAAABxl+oKl1glAQFu0fK2uxsVZZ+jN5Wt17Xq8dQYQsC5eitXbq961zgAAwKPuK1ZYrz7XyzoD8AkVy5VWl9Yc6AEAAAAAAHArGOjilqQICdHcCSMCZoQI3KpnOrZQudIlrTO8qnWj2qpZ9RHrDMCn5MiaWVNeHWKdAQAAAACAo3y4e48OHT1unQEEtLi4a1q+drN1hmbHrLBOAALewqWrrRMAAPC4ZvVqqk2TOtYZgKm778qhmWOHKiiIby0FAAAAAAC4Fa6kpKQk6wj4j207P1GTp/taZwA+oVSxwnpn/hsB+QnpuLhreqxxR+3/+bB1CmAuNEUKrY+ZqsIF8lqnAAAAAADgKB37vKjVG7dZZwABr1jhAnp38XSz+2/f9Zkaduxtdn8A/7Fl2WwVyn+3dQYAAB6VkJCghh37aOcne6xTAK+LSJ1Km5fMUq4cWa1TAAAA7linGGnfKesK3xQSJAUHSSHBf/j5/38ES8Gu//zen34/+NefpwiSQkOksBRSWIiU8ref/+nHP/z6X/1eWArr/xYAAHA/Brq4ba9MnKkJMxZaZwCm0kZH6f2Vc5UxfTrrFDM/Hz6mKg3a62pcnHUKYOrVIc+qZYMnrTMAAAAAAHCUM2fPqWSVBkpISLBOASDbUV67XkO0bvN2k3sD+LMW9Wtp1PMM5gEAznc59ooeb9JJPx06ap0CeI3L5dKSGWNV/oGS1ikAAADJUupV6fMj1hX4Oy5JUWFSdPivH2n+68c//TxMSpPqzz9Gh0upQq3/UwAA8GcMdHHbEhMT1ahTH+34+HPrFMBEUFCQls4ap7KlilunmFu/ZbvaPjPEOgMwU6d6ZU1+hdcAAAAAAADuNnbafI2eNNs6A8BvmtevqdHP9/H6fc+cPafij9YTX84EfEN4eJi+3rZCqcLDrVMAAPC4w0dPqFrjDrp4KdY6BfCKof26qUPz+tYZAAAAycZA1/nCQqTMUVLmSCnLH3/8i1+LDLOuBQAEAga6uCOXLseqaqMOOnz0hHUK4HV8QvrPxkyeo9emzrPOALyuaKH8Wr1gklKG8iguAAAAAADc7b6qDXTi1BnrDAC/SRUerq/fX6nwsJReve+4afM1irE+4FNee7GvmtatYZ0BAIBX7N6zV/XaPaObNxOsUwCPqlejqt4YOdg6AwAAwC0Y6OKPwkL+d7ybNUrKlkbKkUbK/tuP6VNblwIA/BkDXdyxAwcP67FGnXQ1Ls46BfAaTsv8X0lJSWr7zBBt2LrDOgXwmjRRkdq6fI6yZMpgnQIAAAAAgON89NmXqtump3UGgP8yfcyLqlWtolfvWbZGMx08csyr9wTwzyqUKaW3p79mnQEAgNesWLdZXQYMs84APOaBkkW1at5E6wwAAAC3YaCLOxGe4teh7h9HuznS/vnXMkdKLpd1KQDAF4VYB8B/5cudS9Nfe1HNu/S3TgG8omD+PBo3lH/e/5vL5dIbIwerRvMu2nfgZ+scwOOCgoI0e8JwxrkAAAAAAHjIqvVbrBMA/IV33t3q1YHuN/sOMM4FfNCHu/fo/MVLShsdZZ0CAIBX1KleWVeuxqnv0DHWKYDbFS6QV4smv2qdAQAAAJiLuyHtP/Prxz/JlVbKmVbKk17Kn0nKl1HKl0EqmEWKCvNOKwDA9zDQRbJUfuhBvTywpwaNnGCdAnhU5ozpFTNltFKGhlqn+KTUqcK1cNIrqtm8i06dOWudA3jUhOEDVLZUcesMAAAAAAAcKSEhQSs3bLbOAPAXNn3wkeKuXVd4WEqv3G/Vhq1euQ+A25OYmKg1772vFvVrWacAAOA1zevX1KXYWA0bO9U6BXCbXDmyasnMsYpInco6BQAAAPAbh8//+vHhT//7e+lTS/kz/jbazfjbgDfDrz+m5V+7AcDRGOgi2do0qaMz585r3LT51imAR0RFRmjprHGclvkvcmTNrKWzxqlGsy66dDnWOgfwiD6dW6t+zWrWGQAAAAAAONaO3Xt08RKfWwJ80bXr8Xrv/Z168rFKXrnfsjUbvXIfALfvnXe3MtAFAAScLq0b68qVqxrL90fBATJnTK/lsycoXZpo6xQAAADAMc5e+fVj18H//b204f8Z7hbI9OuJu4WySMWzez0TAOABDHThFv26ttXJ078oZsU66xTArVKEhGjx1NHKlzuXdYpfyJc7lxZPHa06bXrqeny8dQ7gVk3qVFfvzq2tMwAAAAAAcLSV6zk9F/Blqzdu88pAd8/e73T81BmP3wfAndn5yRc6f/GS0kZHWacAAOBVfbu21flLlzUnZoV1CnDH0kZHadms8cqeJZN1CgAAABAwzsdJnxz+9eOPglxSnvS/jnULZZEKZ/nPz6PCbFoBALePgS7cZuxL/RR75apWb9xmnQK4zbQxL6hk0ULWGX6lZNFCmjNhuJp27medArjNY5XKa+xL/DMNAAAAAICnrdu83ToBwD/YvH2XV+6zZtP7XrkPgDuTmJioDVt2qEmd6tYpAAB43csDeyo+/oYWLVtjnQLcttSpwrVk5ljlzZ3TOgUAAACApMQk6cdffv1Y8/Wffy9btFQo838Gu4WySIWzSpkjbVoBAH+PgS7casqrQxQUFKRVG7ZYpwDJEhQUpKmjntcTj1awTvFLlco/oMXTxqhlt4GKv3HDOgdIlkrlH9D0MS9aZwAAAAAA4Hgff75Xly7HWmcA+Adx165r64e7Van8Ax69z6b3P/Lo9QEk36YPPmKgCwAIWGNe6KPr1+O1dM1G6xTglqUMDdWCSa/o3nvyWacAAAAAuAXHL/76sfmHP/96+tRSsWxSsez/+SiaTUrJOgwAzPAWDLcKDg7WlFeHKDRFiJas5pPQ8E//P86tVa2idYpfe6Ts/YqZOkrNuvTXtevx1jnAHalU/gHNfX2EQlOksE4BAAAAAMDx3vtgp3UCgFuwZcfHHh3onjz9i3746ZDHrg/APbbu/EQJCQkKDg62TgEAwMTrIwbqxs2bHGIAvxCaIoXenPKqypYqbp0CAAAAIJnOXpG27v/14/8FuaT8Gf8z2C3+2493pbPrBIBAEmQdAOdxuVyaMHygmtWraZ0C3DaXy8U4143KlS6pt2eMVarwcOsU4LYxzgUAAAAAwLs2fbDLOgHALdiy42OPXn/d5g88en0A7hEXd0279+y1zgAAwIzL5dKUV4eoQa1q1inAPwpNkUIxU0epXOmS1ikAAAAAPCQxSdp3WlqyRxqyRnpympT7eSniWanCWKnLW9LU7dJHP1uXAoAzcYIuPMLlcmnMC30UkSpc0xYssc4BbtmUV4cwznWz0iWKaNmscWrQ4VnFXrlqnQPckorlSuvNKaOsMwAAAAAACBgnT/+ifQf4ijDgD346dFTHT51RtswZPXJ9xvqA/9i842OVvb+EdQYAAGb+/xADSVqyeqNxDfC/GOcCAAAAge1KvLTjp18//l9osFQih/RgbqlMHqlMbunuDFaFAOAMnKALj3qxb1d1aF7fOgP4VyEhwZozYbhqP/6odYojlShSUMtmjVdkRGrrFOBfVSr/gOZMGGGdAQAAAABAQNmw9UPrBAC34d0tOzxy3fgbN7Tj4889cm0A7rdlu2dP1AYAwB+4XC69PmKQWjeqbZ0C/AnjXAAAAAB/JT5B2n1Imvi+1GyulPdFKdMAqdZUafgGadP3Uux160oA8C8MdOFxQ/t1Y6QLnxaaIoXenDxKj1d6yDrF0YoVLqClM8cpVXi4dQrwtyqVf0Czxw9XWMpQ6xQAAAAAAALKjo8/s04AcBs+/GSPR6770adf6sbNmx65NgD3+27/T7oce8U6AwAAnzBycC/1aN/MOgOQJEVGpNay2eMZ5wIAAAC4JWdipTVfS0PWSFXfkKJ6S/cOl9oulKZ/KH15TEpMsq4EAN/FQBdeMbRfN7VqyJMi4XvCUobqremvqUKZUtYpAaFY4QJaMuM1RrrwSYxzAQAAAACws/OTL6wTANyGjz790iPX/WTPXo9cF4Dn7PrMM+8HAAD4o4E9Ouilvl2tMxDgsmbOqHVvTtH9xe+1TgEAAADgp5IkfXtSmrNL6hQjlRgppekj1ZwivbZZ2nOEwS4A/BEDXXjNK8/1Uvtm9awzgN9FpE6lpbPGq0ypYtYpAeW+YoW1dOZYRUaktk4BfvdYpfKaM4FxLgAAAAAAFg4eOabzFy9ZZwC4DecuXNSRYyfdft2PGegCfueTL76xTgAAwKd0bNFAIwf3ss5AgCqQN7c2xExTvty5rFMAAAAAOMzl69Lab6Q+K6T7XpUy9JPqTJde3yZ9fVxKYrALIIAx0IVXDevfXc8908k6A1BUZIRWzZuoUsUKW6cEpJJFC2ntoinKlCGddQqgVg1ra8744UoZyjgXAAAAAAALu/d8bZ0A4A588oV7X7uJiYn6hPcDwO986ub3AgAAnKB1o9qa8dpLfA0aXlWqWGGtXTiZ78UBAAAA4BXn46SVX0k9l0pFX5YyD5QazpKmbpf2nbKuAwDvYqALr+vatokmDBsgl8tlnYIAlTY6Sqvnv6HCBfJapwS0/Hlyad2bU5U7Z3brFASwAd3b65XnevF3EgAAAAAAhj75ghMzAX/0yZfuHeV9/f0BXY+Pd+s1AXjenq+/U2JionUGAAA+p2bVR/Tu4mm6K0c26xQEgPo1q2n5nAmKSJ3KOgUAAABAgDoTKy3ZI3V+Syo4TMoyUGo6R5q5Uzp41roOADyLgS5MNKz9uOa9PkJhKXlSJLwrX+5cWh8zVQXy5rZOgaTsWTJp7aLJKlGkoHUKAtDElwepZ4fm1hkAAAAAAAS83Z8z0AX8kbtPzdy9h/cCwB9dux6vr77bb50BAIBPuidfHr339gxVLFfaOgUOFRISrJcH9tTElwcpNEUK6xwAAAAA+N2py1LMZ1KHN6U8L0j3DP31tN1130hxN6zrAMC9GOjCTNVHymnJzHFKExVpnYIAUeXhsnr3LZ5O6mvSpYnW8tkTVLlCGesUBIj0aaO1YfE01a9ZzToFAAAAAICAFxd3TT/8dMg6A8Ad+Gbfj4q/4b7voPji6+/ddi0A3sXrFwCAvxcZkVoxU0frmY4trFPgMGmjo7Ry7kS1aVLHOgUAAAAA/tUPp6XXt0k1pkhp+0pVXpdGb5K+OmZdBgDJx0AXpu4vfq82LZ2le/LlsU6Bw/Xp3FoL3hipVOHh1in4C+FhKbXgjZHq3q6ZdQocrljhAtq8dLaKF77HOgUAAAAAAEj6dv9P1gkA7lBSUpK+3/+z26737Q8/uu1aALzr230HrBMAAPB5/bu101vTx3CQAdyiaKH82rR0lkoVK2ydAgAAAAC37fpNafMPUr+VUvGRUrZBUusFUsyn0rkr1nUAcPsY6MJc9iyZtH7RFD1Wqbx1ChwoPDxMb04Zpd6dW1un4F+4XC4N6tlB08e8qJShodY5cKBGtZ/Qu4unK3PG9NYpAAAAAADgN98w6AH8mrtew4mJifr+gPvGvgC862v+PgcA4JY8XOZ+bVk2WyWKFLROgZ8KDg7Ws51aat2iqcqWOaN1DgAAAAC4xYlL0ryPpaZzpfT9pQdHS4NXSzt4tisAP8FAFz4hPDxMcyeMUL+uba1T4CB35cimjW9NV6XyD1in4DbUqlZRqxdMYkQJt0kREqKRg57R+GH9rVMAAAAAAMB/+XYfX1UF/Jm7Brrf7f9JSUlJbrkWAO9jYA8AwK3Lmjmj1r85VR2a17dOgZ/Jmzun3l08TX27tlVISLB1DgAAAAB4zO5D0svvShXGSRn6Sy3nS0s+l2KvW5cBwF9joAuf0qtTSy2c/KrSp422ToGfq1iutN57e4by5c5lnYI7ULRQfm1aMlOVK5SxToGfy5g+nVbNm6jWjZ+yTgEAAAAAAH/h2x8Y6AL+zF0j+29/+Mkt1wFgIy7umn48eMQ6AwAAvzK0Xze9Pf01ZcmUwToFPi4oKEhd2jTWlmWzde89+axzAAAAAMCrzl6RFuyWGs6W0vWVqk6UJm6Tjpy3LgOA/2CgC59T+aEH9cGq+apeuYJ1CvxU76dbKWbqaEVGpLZOQTJkSJdWCye9orEv9VPqVOHWOfBD9xe/V1uXzVbJooWsUwAAAAAAwN/4+vv91gkAkuEbN43sv3XTSbwA7PDQDQAAbl+FMqX0wcp5qlejqnUKfFSeXNm1dtEUDen1tEJTpLDOAQAAAABTNxKlTfukHkulXEOkoiOkQe9IH/0sJSZZ1wEIZAx04ZPSpYnWrHHDNOXVIUoTFWmdAz9RIG9ubVoyU326tLFOgRs1qVNd25bPUZlSxaxT4CfCUoZqSK+ntWreRKVPl8Y6BwAAAAAA/I0Tp84o7tp16wwAyXDpcqzOXbiY7Ovs//mwG2oAWPr58DHrBAAA/FJkRGq9MXKwZo0bpnRpoq1z4COCg4PVo30zbVsxVyXuvcc6BwAAAAB80tcnpJEbpXKvSVkGSm0WSMu/kK7EW5cBCDQMdOHTnnqist5fOU+PPvSgdQp8WEhIsJ7t1FKblszUvffks86BB+TIlkUr5ryuF/p0sU6Bj3vwvqLavmq+urRprKAg/jUHAAAAAABfdvjYSesEAG5w9PipZF/jyLETbigBYOnocf5eBwAgOapXrqCdaxapZYMn5XK5rHNgqGD+PHrv7Rka2KMDp+YCAAAAwC06EyvN/ViqN1PK0E+qN0Na8rkUd8O6DEAgYLkCn5cpQzotmvyqJgwfqOioCOsc+JgCeXNrQ8w09e3aVilCQqxz4GFPt2yonWsWqXSJItYp8DFRkRGaMGyAVs6dqBzZsljnAAAAAACAW3Do6HHrBABucMQNo7yDR3g/APydO94LAAAIdNFREXp1yLPaEDNNhfLfbZ0DLwsPS6nne3fW1mVz+N8fAAAAAJLh2k1p+ZdSw9lSpv5Ss7nSmq+l+JvWZQCcioEu/EbDJx/T9lXzOU0Xkjg1N5DlyZVdq+ZN1PABPRQeHmadAx9Q+/FHtXP1QjWs/bh1CgAAAAAAuA2cmAk4w9ETyTtB9/Qv5xR/g8eXA/7OHadpAwCAXxUrXEBbls3WS327KnWqcOsceEHdGlW0e8NidW7VyDoFAAAAABwlNl5681Op1lQpy0Cp/SJp0/dSQqJ1GQAnYaALv5Ix/a+n6U58eZDSRkdZ58AIp+bC5XKpXdO62rZsjsqUKmadAyPZMmfUkhljNXXU80qfLo11DgAAAAAAuE2HGegCjnA0madm8l4AOMOxkwx0AQBwt44tGujjdTFqxMOqHatA3txau3CyJo18ThnSpbXOAQAAAABHOx8nzfpIqvqGlG2Q1O1t6cOfpKQk6zIA/o6BLvxS/ZrV9NHaN9W6UW25XC7rHHhJ+nRp9PLAntq8ZBan5kKSlCtHVq2Y87qmvDpEWTJlsM6BF3Vr21Qfrlmkhx68zzoFAAAAAADcoUNHj1snAHCDI8kc6PJeADhD3LXr+uXceesMAAAcJ326NBo/bIDWLZqiQvnvts6Bm2TOmF6vvdhX76+Yq/uKFbbOAQAAAICAczpWmvSB9NBYKdcQqfdy6dPD1lUA/BUDXfit6KgIjRzcS5uWzFSJIgWtc+BB4WEp1bNDc+1a+6baNKmjkJBg6yT4mKeeqKydqxeqa9sm/PPhcPcXv1fb35mvwc90VFjKUOscAAAAAACQDCdO/2KdAMANTp05m6w/f/IU7wWAUyT3/QAAAPy9kkULacuy2ZowbIDuviuHdQ7uUPq00Xqpb1ft3rBYTevWsM4BAAAAAEg6ekEau0UqPUoqMkIavUk6fdm6CoA/YaALv1e4QF6tf3OqXh8xSBnTp7POgRu5XC41qv2EPl4fowHd2ysidSrrJPiw8PAwPfdMJ21bPlcVy5W2zoGbpU8brQnDBmj1gknKlzuXdQ4AAAAAAHCDc+cvWicAcIPzFy4l68+fu8B7AeAUyX0/AAAA/65h7ce1450Fmjl2qIoXvsc6B7coInUq9e3aVp9seEsdWzRQaIoU1kkAAAAAgL/wzQmp30op2yDpiUnS4s+k6zetqwD4uhDrAMBdGtSqpppVH9HMRUv1xuwYXboca52EZKhU/gG92LerCtx9l3UK/Eze3DkVM3W0Pvr0C700Zoq+/HafdRKSITwspTo0r6/OrRsrTVSkdQ4AAAAAAHCTGzdvKvbKVesMAG6Q3IHt2fMX3FQCwBqDewAAvMPlcqlGlYdVo8rD2rLjY82OWaHN23dZZ+EvpImKVKeWDdW2SR1FRUZY5wAAAAAAblFCkrThu18/osOkhvdJrcpI5e+2LgPgi1xJSUlJ1hGAu124dFmTZsdo5qKlunY93joHt6FY4QJ6/tnOKv9ASesUOMT6Lds1csIM7f/5sHUKbkNUZITaN62rji0aKjqKL1IBAAAAAOA0J06d0X1VG1hnAHCTY19sUVBQ0B392eZdBzAmABxi5OBeat2otnUGAAAB6dDR45qxcKneWrWBB2L5gJzZs6hLq8ZqUre6UoaGWucAAAAElFKvSp8fsa4A4FR5M0itHpRal5FyprWuAeArGOjC0c6cPadx0xdoTswK6xT8A5fLpWoVy6lTiwYqe38J6xw41Fur1mvctAU6dPS4dQr+QXRUhDo0b6BOLRooInUq6xwAAAAAAOAh3+w7oCoN2ltnAHCTvdtWKEO6O/suhOrNOmvP3u/cXATAQr+ubdWrU0vrDAAAAtrVuDgtWrZWMxYt1ZFjJ61zAk65+0uocZ3qalCrmnUKAABAwGKgC8BbKuSV2pX79XTd8BTWNQAsMdBFQDh77oKmLViiuW+t1OXYK9Y5+E14eJga1X5cT7dsqLtyZLPOQQBITEzU2k0f6PWZC/X19wesc/AHmTOm19OtGqlVw9oKD0tpnQMAAAAAADzsg12fqlHHPtYZANzk/RVzVSBv7jv6sw9Wb6LDR0+4NwiAifbN6mlY/+7WGQAAQFJSUpJ2ff6V3lq5Xqs3vq+rcXHWSY6VL3cu1a9VTY1qP64smTJY5wAAAAQ8BroAvC1N+K8n6napIOXPZF0DwAIDXQSU2CtXNfetlZo2f4l+OXfeOidgZcmUQW2b1FGrhrUVFRlhnYMAtfXD3Zo4c5E++uxL65SAlidXdnVu3Vgt6teyTgEAAAAAAF60bvN2tes1xDoDgJusWThZpYoVvqM/W+SR2jp7/qKbiwBYaFT7CY0f1t86AwAA/Je4uGtauWGL3n5ng3Z99pV1jiOkjY5SvZpVVbd6FZUsWsg6BwAAAH/AQBeAFZekKgWlrg9LtYpKQS7rIgDeEmIdAHhTROpU6ta2qTq2aKD33v9Ib7+zQVt2fKybNxOs0wJCyaKF1KFZfdWpXtk6BVCl8g+oUvkH9MNPh7R4xTotW/ueTv9yzjorIKSJitRTTzyq+rUeu+Nv2gMAAAAAAP4tIYHPyQJOcv369Tv+szd5PwAc43p8vHUCAAD4C+HhYWpSp7qa1KmuI8dOavm6TVq76X3t/W6/dZpfSRkaqhpVH1bdGlVV+aEHrXMAAAAAAD4mSdJ73//6kSut9PRDUofyUob/Y+++o6Ou0zaM3+mVJCSEBAKBhBBCL6H3Lk1pKsVCE1dFsCu6u1iwi/W1F1SsYEWwYQNBmnSkSO+EFpOQBqS8f4R1110LkMk8U67POXOAmMxcek4GZH73fDnTDvB4nKALr/dLdo4+/PRrzfrkC63buMU6x+PUTUrUoH49dWH/XkqsUc06B/hDJSUlWrBkhWZ98qW++HahCk9wEYmj9enWUYP6dtfAPt2tUwAAAAAAgLEPP/1aE26/1zoDgIO8+exD53yBep02fZVfUODgIgAW+nTrqFef5Pd3AADcxb6Dh/TJF99pzlfzteanzdY5LikqopI6tmmhHp3a6oLzuio0JMQ6CQAAAH+BE3QBuJJAP+mi5tKELlK7JOsaABWFE3Th9SpHRmjcyCEaN3KItu/aq5mzv9AHc+fpwKEj1mluKyG+qgb27a7BfXuqUVqKdQ5wRnx9fX89VTcvv0Bz5s3Xe3PmafGPq63T3FqbFo01dEBvDTyvmyIq8fY/AAAAAACgTFFRkXUCAAcqLCzHCbo8H8thzUQAACAASURBVAAeo7Acp2kDAADnq1EtTteMGa5rxgzX/ozD+vr7JVqxZoOWrlyrfQcPWeeZCA4KVOvmTdSpbQt1apuupg3qWScBAAAAANzYyWLprRVlt+Y1pAmdpZGtpJAA6zIAjsQJusDvKC0t1ZIVa/TenHma+9UC5eblWye5vJjKkTq/d1cN6ttTrZs3ko+Pj3US4BAZh4/qvTlf6v0587Rlx27rHLfQLr2penZppwt6d1WN6vHWOQAAAAAAwAW9/eGnuumuR6wzADjIMw/8Q0P69zynr01o1l0lJSUOLgJgoV16U3346pPWGQAAwAEyDh/V0pVrtWj5aq1ct0Gbt+60TqowLZs2VMc2LdS5bbratWxmnQMAAIBy4gRdAK6uUpA0voN0Q3epRpR1DQBHYKAL/IWTp05pxZqf9P3SlVqwZIXWbdzChSIqe8fIVs0bq2PrFurUpoWaNqwnX19f6yygQu3cs18LlqzQwqUrtGj5auUcz7VOcglREZXUoXVz9e/ZRT06teGkXAAAAAAA8JdenzVbk+993DoDgIM8etctGjmk/zl9bbUmXR0bA8BMs0Zp+vzt560zAABABSg8cVI/bd6qdRt/1rqNW7R2489uOdpNiK+qtJQk1U+tozYtGqt9q2YKDQmxzgIAAIADMdAF4C78faWhzaSbe0otE61rAJSHv3UA4OoCAwLUvlVztW/VXJMnXqGc47n6fulK/bB8lRYsWaGde/ZbJzqFn5+fmjWsp45tWqhTm3S1bNZQQYGB1lmAUyUlJigpMUGjhw2UJK1at1ELl63S90tWaPGKNcZ1zhMdFam26U1OPzc2U1pKEqdmAwAAAAAAAF6smDc2BSCptIT3BgcAwFMFBwWqZdOGatm04W8+vnnrTm3duVvbd+3V1p27tW3nHm3duUcFBYVGpVJEpXAlJsQrMaGaEhOqqU7tRKXVTVL9uskKC2WMCwAAAABwDUUl0sxVZbcOyWUn6g5uKvlyWT7gdhjoAmcpolK4BvTqogG9ukiSMg4f1YIlP2rh0lVauGylDh/NNC50jNiYaDVITVaj+nXVulljdWjdnL+kBv5LiyYN1KJJA103/lIVnjipZavWaeGylVq0dJXWbdoiTzmkPiY6Su3Sm6pdy6Zq17KZ6tdNtk4CAAAAAABujjf7AjyLj/ieBgAAALxRWt0kpdVN+p+PH8/NU2ZWtjJ/yVZWznEdOfaLMrOylXM8V/n5BSo8cVIFhYUqKDyh/IJCFZ44oZLi377xj6+fr0JDQhQaEvwft7Jfh/zmY8EKDw1V5ahI1apRTZXCw5z1rw8AAAAAgEP8sKPslhQjXddVGtdeCg+yrgJwphjoAuUUX7WKhg3sq2ED+0qSDh46ok1bd2jztp36edtObd62U1u271LhiZPGpb8vKDBQ9VJqq37dOmqQmqwGqXXUqH5dRUVUsk4D3EpwUKC6tGupLu1aSpIKCgq1+fRzwOZtO8ueF7bu1JFjrjvij6gUruRaNU7faio5scav7yILAAAAAADgSCWcsAd4lKLiYusEAC6gVPz+DgAAylQKD1Ol8DDVqlHdOgUAAAAAALex85h0/QfSnZ9KV7SXru8u1YiyrgLwVxjoAg5WLS5W1eJi1b1jm998/MChI9qz76D27D+ovfvLftyfcVi5ufnKLyhQfkHhr7cTJx035o2LjVG1qlVUJSZa8VVjFFclRlVPf6xm9Wq/+y6WAMovJCRYzRvXV/PG9X/z8eO5edq976D2HczQrr0HTj8nZCgzK/vfzwX5/3o+KHBoU1BgoKpER6lqbIyqVolWWkqSatdMUEpSopJqJigmmj+9AwAAAAAA5ygtKfnrTwIAAG6luJjf3wEAAAAAAAAAKK/sQunRb6UnvpOGNpdu6Sm1TLSuAvBHGOgCTlI9LlbV42LVNr3JGX1+Xn6B8gsKVFBw4tehXuGJE//zeQEBAQoKDFRwUKCCg4IUFBSooNM/Dw4KdPS/BoByqhQepkZpKWqUlnJGn1944mTZc0Fh2XNBwekhf0nJmZ1IERQUpCrRUYqpHKXwsNDypAMAAAAAADiMfwAvTwCexNfXxzoBgAvguQAAAAAAAAAAAMcpLpVmrSq7dU6R/tFH6pVmXQXgv3EFDOCiwkJDFBYaYp0BwFjZ+J6xPQAAAAAA8CyBDHQBjxIYEHDOX+vv76eiojN7Q0IAri2gHM8FAAAAAAAAAADgj32/Ter9tNS6VtlQ9/zG1kUA/sXXOgAAAAAAAAAAAHiXAH8GPIAnCSjH6J5BH+A5gvh+BgAAAAAAAACgQi3fLV3wgtTsAem9VVJJqXURAAa6AAAAAAAAAADAqcoz5gPgespzgi4nagOeg8E9AAAAAAAAAADOsXa/dPF0qeG90hvLpeIS6yLAezHQBQAAAAAAAAAATlWeMR8A11OuE3Q5URvwGLwBBwAAAAAAAAAAzrX5kHT5DCn1bunlxdKpYusiwPsw0AUAAAAAAAAAAE4VGMggD/AkYSEh5/y1QTwfAB4jJDjIOgEAAAAAAAAAAK+045g0/m2pzp3S0wukwlPWRYD3YKALAAAAAAAAAACcqlJ4mHUCAAeKiow4568N5/kA8BgRlcKtEwAAAAAAAAAA8Gp7s6SJ70lJU6RpX0t5J62LAM/HQBcAAAAAAAAAADhV5XKM+QC4nqiISuf8tdE8HwAeo3IU388AAAAAAAAAALiCjOPSLR9Ltf4p3fuFlF1gXQR4Lga6AAAAAAAAAADAqRjwAJ4lKvLcB7o8HwCeIzoy0joBAAAAAAAAAAD8h2N50j/nSon/lKbMlY4XWhcBnoeBLgAAAAAAAAAAcKqoiEry8fGxzgDgIJXCw875a6M4QRfwGAzuAQAAAAAAAABwTTmF0tQvpDp3Sc9+LxWVWBcBnoOBLgAAAAAAAAAAcCpfX19FVDr3QR8A1xEbE12ur2fQB3gOvp8BAAAAAAAAAHBtR3KlCbOkBlOlD9dY1wCegYEuAAAAAAAAAABwupjKUdYJABygelxsub4+OirSQSUArMVVibFOAAAAAAAAAAAAZ2DrEWnoy1Krh6Vlu6xrAPfGQBcAAAAAAAAAADhdfNXyjfoAuIbq8VXL9/XlHPgCcB01qsdZJwAAAAAAAAAAgLOwYo/Udpo05CVp+1HrGsA9MdAFAAAAAAAAAABOl5gQb50AwAGqx5dvYJuYUM1BJQAs+fn5KTYm2joDAAAAAAAAAACcg4/WSmn3SBNmSkdyrWsA98JAFwAAAAAAAAAAOF1NRnmARyjvCbo1GesDHqF2zerWCQAAAAAAAAAAoByKSqRnF0rJU6Spn0sFp6yLAPfAQBcAAAAAAAAAADgdJ+gCnqFm9fJ9L8fGRCs4KNBBNQCs1KgWZ50AAAAAAAAAAAAcIPekNOVTqc6d0suLpeIS6yLAtTHQBQAAAAAAAAAATpfICbqAR0iuVaPc98HzAeD+atXgBF0AAAAAAAAAADzJwRxp/NtSk/uluT9Z1wCui4EuAAAAAAAAAABwOoY8gGeom1yr3PeRyPMB4PZSkhKtEwAAAAAAAAAAQAXYmCGd/7zU6TFp5R7rGsD1MNAFAAAAAAAAAABOFxcbo5CQYOsMAOVQMyFegQEB5b6f1DrlH/kCsFUvpbZ1AgAAAAAAAAAAqECLdkitH5H+9o50LM+6BnAdDHQBAAAAAAAAAICJxml1rRMAlEPdJMcMa9NSkh1yPwDs1KuTZJ0AAAAAAAAAAAAqWEmp9OIPUr17pJd+kEpLrYsAewx0AQAAAAAAAACAibQUxjyAO6ublOiQ++G5AHBvISHBiouNsc4AAAAAAAAAAABOcixPuvIdqeXD0qq91jWALQa6AAAAAAAAAADABKM8wL01dNAp2PVSasvHx8ch9wXA+Ro76LkAAAAAAAAAAAC4l1V7pVYPS1e9I2UVWNcANhjoAgAAAAAAAAAAE2l1GegC7qxpg1SH3E9gQICSEhMccl8AnK8RA10AAAAAAAAAALxWSan0wg9Syl3SSz9IpaXWRYBzMdAFAAAAAAAAAAAm6qfWsU4AcI6CgwKVkpTosPtrwPMB4LaaN06zTgAAAAAAAAAAAMaO5UlXviO1fLjsZF3AWzDQBQAAAAAAAAAAJqIiKqlO7ZrWGQDOQeP6qfL1ddxLjelNGzrsvgA4V4vGDawTAAAAAAAAAACAi1i1V2r1sHTVO1JWgXUNUPEY6AIAAAAAAAAAADMtmzayTgBwDpo0SHXo/bVqxnMB4I7Cw0KVXKuGdQYAAAAAAAAAAHAhJaXSCz9IKXdJLy+WSkuti4CKw0AXAAAAAAAAAACYad2cUR7gjhw9qG3SIFX+/n4OvU8AFa8lp18DAAAAAAAAAIA/cCxPGv+21PLhspN1AU/EQBcAAAAAAAAAAJhpyamZgFvq2r61Q+8vwN9fLRo3cOh9Aqh4DHQBAAAAAAAAAMBfWbVXSn9IunaWlHfSugZwLAa6AAAAAAAAAADATGpyLYWHhVpnADgLdZMSFRkR7vD7bcWJ2oDb6dgm3ToBAAAAAAAAAAC4iWe+l+rfI83fal0COA4DXQAAAAAAAAAAYKoT4x7ArXRo3bxC7rd9y2YVcr8AKkZISLBaNuXkawAAAAAAAAAAcOb2Zkndnyw7TbfglHUNUH4MdAEAAAAAAAAAgKluHVtbJwA4C+1bVcxAt0Pr5goMCKiQ+wbgeB1bt5Cfn591BgAAAAAAAAAAcDOlKjtNt8FU6Ycd1jVA+TDQBQAAAAAAAAAApnp0amudAOAsdGnXskLuNygwUB3btKiQ+wbgeF3bV8xzAQAAAAAAAAAA8A67MqVOj0k3fiAVcpou3BQDXQAAAAAAAAAAYKp6XKzq1022zgBwBtq0aKyISuEVdv89GewDbqNr+9bWCQAAAAAAAAAAwM2VSnr8O6nxfdKyXdY1wNljoAsAAAAAAAAAAMxxii7gHnp1bl+h939e944Vev8AHCMhvqqSa9WwzgAAAAAAAAAAAB5i21Gp/aPS5NnSySLrGuDMMdAFAAAAAAAAAADmenZuZ50A4Az06lKx36vV42KVmlyrQh8DQPkN7tfTOgEAAAAAAAAAAHiYklLpoa+kJvdLK/dY1wBnhoEuAAAAAAAAAAAw17p5I1WOjLDOAPAn4mJjlFqndoU/znndOEUXcHX9e3a2TgAAAAAAAAAAAB7q58NS22nSP+dKp4qta4A/x0AXAAAAAAAAAACY8/Hx0YBeXawzAPyJwX17OOVxeC4AXFtsTLSaNUqzzgAAAAAAAAAAAB6sqES69wup+YPS2v3WNcAfY6ALAAAAAAAAAABcQn9GeYBLG9inu1Mep0mDVNWsHu+UxwJw9s7v3dU6AQAAAAAAAAAAeIkNB6VWD0lTPy8b7QKuhoEuAAAAAAAAAABwCR1bN1d4WKh1BoDfUT0u1qknZvbv2dlpjwXg7Azs0806AQAAAAAAAAAAeJFTJdKUT6W2j0h7f7GuAX6LgS4AAAAAAAAAAHAJfn5+6t+TU3QBVzR0QG+nPt4ATugEXFJcbIxaN29snQEAAAAAAAAAALzQyr1S4/ukj9dalwD/xkAXAAAAAAAAAAC4DE7lA1yTs78305s0UPW4WKc+JoC/dsmQ/tYJAAAAAAAAAADAi2UXSoNfkibMlE4UWdcADHQBAAAAAAAAAIAL6dKupapWibbOAPAfUuvUVsN6KU5/3BGD+zn9MQH8uWED+1onAAAAAAAAAAAA6NmFUvpD0vaj1iXwdgx0AQAAAAAAAACAy/D19dUlQwdYZwD4D2NHDDZ53MsuusDkcQH8vhZNGiixRjXrDAAAAAAAAAAAAEnShoNS0/ulN5Zbl8CbMdAFAAAAAAAAAAAuZSSnZgIuIyQ4SBeff57JY8fFxqhbh9Ymjw3gfw0fxOm5AAAAAAAAAADAteSdlC6fIQ2bLuWftK6BN2KgCwAAAAAAAAAAXEqN6vHq0q6ldQYASUMH9FJISLDZ448c0t/ssQH8W0hwkC7s38s6AwAAAAAAAAAA4HfNWiU1ub/sVF3AmRjoAgAAAAAAAAAAl3PJ0AHWCQAkjbp4kOnjn9etg6KjIk0bAEjDBvYxHesDAAAAAAAAAAD8le1HpZYPSc8ttC6BN2GgCwAAAAAAAAAAXE7f7p0UX7WKdQbg1dqmN1GjtBTThgB/f40aNtC0AYA0Zvhg6wQAAAAAAAAAAIC/VFgkXTNTGvCclF1gXQNvwEAXAAAAAAAAAAC4HH9/P101aph1BuDVrrrcNb4Hr7zsIgX4+1tnAF6rdfPGSq1T2zoDAAAAAAAAAADgjH26QWp8n7Ryj3UJPB0DXQAAAAAAAAAA4JIuv+gChYWGWGcAXqlmQrx6d21vnSFJioqopEuG9rfOALzW2BGcngsAAAAAAAAAANzP3iyp7TTpka+tS+DJGOgCAAAAAAAAAACXFBIcpHEjh1hnAF7p2rEj5ePjY53xq6tHDXepHsBb1KgWp/N7d7XOAAAAAAAAAAAAOCdFJdKtH0vnPy/lnbSugSdioAsAAAAAAAAAAFzW+EsvVIC/v3UG4FViKkfq8osusM74jcQa1TSgVxfrDMDrXDf+Mvn6clkBAAAAAAAAAABwb3N/ktIflLYftS6Bp+GVNAAAAAAAAAAA4LKqRFfWJRcOsM4AvMo1o0dYJ/yuSVdcap0AeJWqVaJ18cDzrDMAAAAAAAAAAAAc4ufDUosHpW+3WJfAkzDQBQAAAAAAAAAALu368Zdxii7gJBGVwjVmxGDrjN/VKC1F/Xp0ss4AvMaEMSMUGBBgnQEAAAAAAAAAAOAwOYVSr/+THvnaugSegoEuAAAAAAAAAABwaXGxMRo1bKB1BuAVJowZoZDgIOuMP3TbteOsEwCvEBMdpcsuusA6AwAAAAAAAAAAwOFKSqVbP5aGviSdKLKugbtjoAsAAAAAAAAAAFze9VderuCgQOsMwKNFVArXuJFDrDP+VGqd2hrYp7t1BuDxbrlmjEuP9QEAAAAAAAAAAMrrw7VSm0ekfVnWJXBnDHQBAAAAAAAAAIDLi6kcqbEjXHs4CLi76664VGGhIdYZf+m2a8fJx8fHOgPwWLVrJujSoQOsMwAAAAAAAAAAACrc2v1SswekpTutS+CuGOgCAAAAAAAAAAC3MGHsCIWGuP54EHBHCfFVNf6yC60zzkhSYoKGDexjnQF4rLtvmSA/Pz/rDAAAAAAAAAAAAKc4lid1flx69nvrErgjf+sAAPBEuXn5yso5rqzs48rOOa5fsnN+/Xn28VxlZmUrO+e4snKO68SJkyoqLlZRUZGKiopVXFysU0VFKiouVnFRsU7918cKCgp/81hhoSEKDAhQYODpW0DZLSgwQCHBwfL181VQYKACAwIUEOBf9vP/+tzg4CBFR0YounKkoqMiFRMdpeioSMVXrWL0XxAAAAAAAAD4X9FRkZo8cZymPPy0dQrgcabcdLUC/N3npcN/XP83zZk3X3n5BdYpgEdp0aSBendtb50BAABcVHZOrgpPnFBBYaEKCk+osPCECk+cUH5B2a/LboUqPP3zU6dO6cTJU2XXxJy+NuZU0b+vkTlVVPTrx369NuZUkfwD/H+9pqXs+hZ/BQYGll33EhCggNPXxQQE/Mf1L//6vIDTn3f6nwcHBSk8LFThYSGnfwxTcFCg9X9KAAAAAADgYk6VSBNmSUt3SS+PlALd56VTGPMpLS0ttY4AAHeQl1+g/RmHdejwUR08fFSHjhzVgUNHdOjwMR05llk2ws05rmOZWdapDhUeFqroypGKja6sqMgIxVSOVEzlKEX/68fTg95//TwyItw6GQAAAAAAAB6suLhY3YeO1ZYdu61TAI/RvHF9ffbWc9YZZ+35GbN097RnrTMAj/LN+6+oQWod6wwAAFDBcvPylflLtjKzc5SVnaOjmb/ol6wcZWZl//vH7Bwdy8xSZla2Dh05Zp3scJER4aoUFqawsFBFVgpXaEiwwsNCFRYaqkrhoWVj3tBQhf/HzyMjKikuNkZJiQnW+QAAAPgD6Q9Jq/ZaVwAA3F16TenzCVIs8xicAQa6ACDpeG6etu3cUzbAPXJMBw8fUcaho8o4clQZh4/q4KGjyi/gXfjPRFBgoBIT4lWrZoJq1aim2jUTlJSYoJrV45Vap7Z1HgAAAAAAADzAkpVrNWTMddYZgMf4/J0X1KxhPeuMs8ZgH3CsURcP1IP/uME6AwAAlNPJU6e0/+Bh7T94SPszDmnfwcM6kHH61wcPa3/GIRUUnrDOdHtREZVULS7237eqVRRftcqvv46vWkWVIyOsMwEAALwOA10AgKNUi5DmXCWlJ1qXwNUx0AXgNY79kq1de/dr55592rVnv3bs2afd+w5qx669yso5bp3nNf71TqKJCWXj3Vo1qqtWzeqqXaO6YqKjrPMAAAAAAADgJq68+S7NmTffOgNwe5cMHaBpd95snXHOGOwDjhFRKVzLP39XkRG8FTwAAO5gz76D2r57r3bs3qd9BzK0e99BHcg4rH0Zh3QsM8s6D6cFBQYqvmoVVY+LVXxcFSXExykuNkbxVauoZkK86tVJUnBQoHUmAACAR2GgCwBwtHfGSMPTrSvgyhjoAvAoBYUntHHLdm3buVu79h7Qjt37To9y9+t4bp51Hv5CWGjI6dFuNSXVqqF6dZLUKC1F9esmW6cBAAAAAADAxRw4dETt+1+iEydPWqcAbstTBnnjb7pTc79aYJ0BuLVpd96sS4YOsM4AAAD/4Vhm1q8j3O279mrH7r3avrvsTen5f2HP4OPjo5oJ8UpNrq16KbWVmlxbqXVqq15yLYWEBFvnAQAAuCUGugAAR/OR9NRF0rVdrEvgqhjoAnBbefkFWr9pq9Zt/Lnsx01btG3nHpWUlFinwcGCgwJVP7WOGqfVVaP6ddU4ra7S6ibzLqIAAAAAAABe7qU339eUh5+2zgDc1uP33Kbhg/paZ5TbkWOZ6nD+ZbxRJ3COmjaopy/efcE6AwAAr/XT5m1l49tdZbdde/dr87adyssvsE6DoRrV4srGunXKRrupybWUWqe2wsNCrdMAAABcGgNdAEBFuaWn9NBAycfHugSuhoEuALdwPDdPa37arPWbt2rdxi3a+PM2bd25xzoLxtLqJqlpgzSlN22glk0bctIuAAAAAACAlyktLVXvYeP10+Zt1imA20lv0kBz33zWOsNh3nx/rm65Z5p1BuB2fH199d0H05Vap7Z1CgAAHq24uFjbd+/Tz9t2lt2279LP23Zqx579Ki4uts6DG4mvWkVpKUmqm1xLqcm1lVY3SQ3rpSgkOMg6DQAAwCUw0AUAVKTh6dIboyR/X+sSuBIGugBc0vLV6/Xj6p+0+qdNWrdpi/buz7BOghsICw1R88b11apZI7VoXF/pTRuqcmSEdRYAAAAAAAAq0M/bdqrHRVdwQTNwlhZ8/LpSk2tZZzjU4DGTtHTlOusMwK1MuuIS3T5pvHUGAAAeo6SkRDv37P91gPvz9l3avG2nduzaq1NFRdZ58FC+vr5KSUpU0wapalw/VU0a1FPj+ikKDQmxTgMAAHA6BroAgIrWO036+G9SSIB1CVwFA10A5nLz8rVs1TqtWLtBS1as0bJV662T4EHq1K6pFo3rq2WzRmrZtKEapNaxTgIAAAAAAICDPfT0K3rixTesMwC3cfM1Y3TTVaOsMxxu7/4MdTj/UoYPwBmqXTNBCz5+TYEBXEECAMC52rJ9l1as3aBV6zdp7YbN+mnzNuskQJLk4+OjOrVqqknDstHuv8a74WGh1mkAAAAVioEuAMAZWteSPrtGigmzLoErYKALwOkOH83U4h9Xa9nq9Vq+ar02bd0hnorgLGGhIWrRpIFaNm346y2iUrh1FgAAAAAAAMqpy6BR2rJjt3UG4PJSk2vpm/eny9/fzzqlQjwz/R3d+8QL1hmAW/jsrefUvHF96wwAANxGXn6BVq7boBVrN2rl2g1auW6DsnNyrbOAs5KUmKAmDeqpSf1UNWlQduO6GQAA4EkY6AIAnCWlivTtdVLNytYlsMZAF0CF27J9l5auWqflq9Zr2ap12nfwkHUS8BupybXUukVjdWqTrvatmqlKNH9CAgAAAAAAcDebt+5UnxF/04mTJ61TAJfl6+urL999UY3SUqxTKkxpaamGjL1OS1eus04BXNq4kUN07+RJ1hkAALi07bv2auXaDVpx+rZ5207egB4eqWZCvNKbNFTH1s3VrWMbVY+LtU4CAAA4Zwx0AQDOVC2ibKSbFmddAksMdAE4XF5+geYv/lELFv+o+Yt/1N4DGdZJwFmpm5SoDq2bq32r5urQurmioyKtkwAAAAAAAHAGXps5W7ff97h1BuCyJl1xiW6fNN46o8IdPpqpbkPGKDMr2zoFcEmpdWrry3dfVHBQoHUKAAAuZfX6Tfrhx9VaunKdVq3bqF+yc6yTABO1ayaoU5sW6nj6xnUzAADAnTDQBQA4W1SINPdqqUOydQmsMNAF4BCr1m3UgiUr9O2iZVqxdoN1DuBQ9VKS1KlNC/Xo1FZd27eyzgEAAAAAAMCfuHTCZH2zcKl1BuBymjWspzlvPCt/fz/rFKf4fukKDbvyZusMwOUEBQbq2w+mK7lWDesUAADMbd25R4uWrtTCZav0w4+rlXM81zoJcEkNUuuoU5sW6tQ2Xe1aNlVoSIh1EgAAwB9ioAsAsBDkL71/hTSgkXUJLDDQBXBODh/N1DcLl+q7H5Zr4dKVyso5bp0EOEVEpXD16NRGfbt3Uo9ObXjRAQAAAAAAwMVk5RxXj6FjdeDQEesUwGWEhYZo4ewZqhYXa53iVHc98oxeeOM96wzApTw85SZdduH51hkAAJg4fDRT8xf/qEXLyka5GYePWicBbsfPz0/NG6WpU9t0dWrTQulNGyowIMA6CwAA4FcMdAEAVnx9pOmXSqPaWJfA2RjoAjhjS1asw86imQAAIABJREFU0bz5i/XtomXasmO3dQ7gEnp0bKO+PTqpT/dOiqkcaZ0DAAAAAAAASavWbVT/S6+xzgBcxqtP3qs+3TpaZ5joO/Iqrflps3UG4BL6du+k6U9Mtc4AAMBpco7natHy1Vq4bKUWLV2lbbv2WCcBHicoMFBt05uoY5sW6tgmXc0a1rNOAgAAXo6BLgDA2n3nS3ecZ10BZ2KgC+BPfbNwqT7/dpE++/p7/ZKdY50DuLRWzRqpX8/OGtCri2pUi7POAQAAAAAA8GrT3/lQf3/gKesMwNyoiwfqwX/cYJ1hJuPwUXUbMkZZOcetUwBTSYkJ+vLdF1UpPMw6BQCACrV+01Z99f0Sff39Eq1ev8k6B/A68VWrqGfnturdpb06tklXSHCQdRIAAPAyDHQBAK5gYhfpqYusK+AsDHQB/EZBQaG+XrhUn3+7UF8tWKLcvHzrJMAtNayXon49O6tf905Kq5tknQMAAAAAAOCVrpk8VR999o11BmCmUVqK5r75rIICA61TTC1ZuVZDx14vXhaFtwoPC9U3772ixBrVrFMAAHC4U0VFWrRslebN/0Hz5i/WgUNHrJMAnBYcFKgOrVuod9f2Oq9rB8XFxlgnAQAAL8BAFwDgKsa2k14eKfn4WJegojHQBaCsnOOa990P+uzbhVqw+EcVnjhpnQR4lNo1E9SvRyf169lZLRrXlw9/wgIAAAAAAHCKEydPqs+Iv2nz1p3WKYDTxVSO1DfvT+cC6NOeffVdTX38eesMwOl8fX0168VH1aF1c+sUAAAcJivnuObNX6x583/Q/MU/Ki+/wDoJwBlolJaiXl3aq3eX9mrasB7XzwAAgArBQBcA4EoY6XoHBrqAlzqWmaW5Xy/Q3K8WaNGyVdY5gNeIr1pFA8/rpkH9eqpZw3rWOQAAAAAAAB5v38FD6j50rI7n5lmnAE7j7++nT15/Ws0b17dOcSmXTpisbxYutc4AnOreyZM0buQQ6wwAAMpt2649mvfdYn05/wetWLtBJSUl1kkAyiE2Jlo9OrVR767t1bVdK4WEBFsnAQAAD8FAFwDgahjpej4GuoAXOXnqlL787gfN+uRLfffDchUXF1snAV4tuVYNDenXU0P691JSYoJ1DgAAAAAAgMf6cc1PGjr2ep0qKrJOAZzisbtv1YjB/awzXE5BQaGGjL1Oazb8bJ0COMWIwf302N23WmcAAHDO1m3cotlffqs5X87X3gMZ1jkAKlC3Dq3Vs3Nb9e/ZRXGxMdY5AADAjTHQBQC4orHtpJdGSr6MdD0SA13ACyxfvV7vzflSn3w5XznHc61zAPyOJg1SNahvDw3u20PxVatY5wAAAAAAAHicrxYs1ujr/sEpS/B4V48apik3XW2d4bKyc3J1wahrtWX7LusUoEK1S2+q915+TH5+ftYpAACclcNHMzXrky/03px5/JkN8EK+vr7q3rGNRgzup95d2svfnz/PAgCAs8NAFwDgqi5pKc0YxUjXEzHQBTzUvgMZmjm77AWL3fsOWOcAOEM+Pj7q3DZdIwb3U98enRQYEGCdBAAAAAAA4DE++uwbXTN5qnUGUGEG9e2h5x76p3WGyzua+Yv6X3qN9uw7aJ0CVIikxAR9+e6LqhQeZp0CAMAZyS8o0Nx5C/Te3Hn6YflqcTkbAEmKqRypCwf01sgh/ZVap7Z1DgAAcBMMdAEAroyRrmdioAt4kNy8fH38+bd6b86XWr56vXUOgHKKiqikIf17acTgfmqUlmKdAwAAAAAA4BFenzVbk+993DoDcLgu7VrqrWcf4rTMM7Q/47DOG36ljmVmWacADhUZEa6vZr6smgnx1ikAAPypkpISzV/8o96fO09ffLtIBYUnrJMAuLBmjdI0YnA/DenXU+FhodY5AADAhTHQBQC4Oka6noeBLuABFixZoVmffKEPP/3aOgVABWmUlqKRg/trSP9eiowIt84BAAAAAABwa09Pf1v3PfGidQbgMC2aNND7Lz+ukOAg6xS3snXnHg0eM4mRLjzKJzOeVqtmjawzAAD4Qz9t3qb353ypDz/7RkeOZVrnAHAzwUGB6t+zi0YM7qf2rZrJx4ermQEAwG8x0AUAuANGup6FgS7gpo7n5umdjz7T67Nma8fufdY5AJxocL8eGj1skFo3b2ydAgAAAAAA4Lamv/Oh/v7AU9YZQLnVr5usOW88o7DQEOsUt7Rt1x4NHn2djmb+Yp0ClNtrT96n87p1sM4AAOB//JKdo3c++kzvfPiZtu3aY50DwEPUTIjX8EH9NGxgHyXEV7XOAQAALoKBLgDAXTDS9RwMdAE389PmbZr+zof6+PNvVFB4wjoHgKGG9VI0dsRgDenfS8FBgdY5AAAAAAAAboeRLtxd3aREzZ7xtCpHRlinuLWde/Zr0OiJOnyUE9zgvqbeNlFXXDLUOgMAgN9Yvnq9Zsz6RHPmzdfJU6escwB4KB8fH3Vum64Rg/upb49OCgwIsE4CAACGGOgCANzJJS2l1y+X/HytS1AeDHQBN3Di5EnN/vxbvTZrtlav32SdA8DFREaEa/jAvhozYrBq1ahunQMAAAAAAOBW3nx/rm65Z5p1BnDWkhITNGfGM4qJjrJO8Qi79x3QoNGTlHH4qHUKcNYe+PsNGj1soHUGAACSpNy8fL0/9yvNmDVbm7busM4B4GUqR0ZoxJB+GjtiCKfqAgDgpRjoAgDczYXNpHfHMtJ1Zwx0ARe270CGpr/zkd79+HP9kp1jnQPADXRt30rjRg5Rz87trFMAAAAAAADcxhvvz9Gt9zxqnQGcsZrV4zXnjWcUFxtjneJR9uw7qKHjrte+g4esU4AzNu3Om3XJ0AHWGQAAaNPWHXr1nY/0wadfK7+gwDoHgJfz8fFRry7tNGb4YHVt38o6BwAAOBEDXQCAO2Kk694Y6AIu6Ovvl+iVtz/U/MU/WqcAcFN1atfUlZddpIvOP08hwUHWOQAAAAAAAC7vnY8+0413PmydAfylGtXi9MmMp1UtLtY6xSPt3Z+hgaMn6uChI9YpwF968t7bdfEF51lnAAC82ImTJzX7i+80Y9ZsrVy30ToHAH5Xcq0aGjN8sIYP6qvwsFDrHAAAUMEY6AIA3NWwFmUjXbgfBrqAizhVVKT358zTc6+9q60791jnAPAQ0VGRGjVsoMaNGKKY6CjrHAAAAAAAAJfGSBeujnGuczDShTtgnAsAsLR73wG99u7Hevfjz5WVc9w6BwDOSEhIsC4a0FvjRg5Rap3a1jkAAKCCMNAFALiz0W2kVy+zrsDZYqALGMvLL9DrM2frxTff06Ejx6xzAHiowIAADR3QS1ddfjEvMgAAAAAAAPyJ12bO1u33PW6dAfwPxrnOxUgXroxxLgDAypIVa/TsazP19fdLrFMAoFzapTfVmBGD1bd7J/n7+1nnAAAAB2KgCwBwd7f1kh4caF2Bs8FAFzByLDNLz82YqRmzPtHx3DzrHABepEentrrysgvVuW1L6xQAAAAAAACX9Pqs2Zp8LyNduI6aCfGa/dr/Mc51sr37MzRo9EQdYKQLF8I4FwDgbCUlJZr71QI999q7WrPhZ+scAHCo+KpVdNlFF+jyi85XlejK1jkAAMABGOgCADzBE0Ol67pZV+BMMdAFnGz3vgN66uW39P6ceTp56pR1DgAv1qJJA10//lL16tLeOgUAAAAAAMDlfPz5N7r2jvtVXFxsnQIv17Beima+ME0x0VHWKV7p0JFjunDcDdq2a491CrxcYECApj95r3p0bGOdAgDwEgWFJ/T2h5/qhTdmae/+DOscAKhwQ/r31LVjR6p+3WTrFAAAUA4MdAEAnuLVS6XRba0rcCYY6AJOsn7TVj3+wgx98d0i8W0HwJXUr5us66+8TAN6dZGvr691DgAAAAAAgMuYv/hHjb3hnyooKLROgZfq1DZdrz95n0JCgq1TvFp2Tq6GX3Wz1vy02ToFXqpSeJjefu5htWza0DoFAOAFjmVm6aW33tfrM2crK+e4dQ4AOF2/Hp108zVjGOoCAOCmGOgCADyFr480a5w0tJl1Cf4KA12ggn27aJmeevlNLVu13joFAP5Ucq0amjjuEl04oLf8/f2scwAAAAAAAFzC+k1bNezKm/RLdo51CrzMkP499dS9t8vPj7+rcwUFhSd05c136evvl1inwMtUi4vVrJceVUrtROsUAICH27lnv56e/rbenzNPJ0+dss4BAHN9unXUjVeNUuP6da1TAADAWWCgCwDwJP6+0lcTpa78r6lLY6ALVJCV6zbqnkef0/LVDHMBuJeE+KqaMGaERgzpr+CgQOscAAAAAAAAczt279PF42/U/ozD1inwEhPHXaI7rhtvnYHfcf0/H9LM2Z9bZ8BLpNVN0rvPT1NcbIx1CgDAgy1ZuVbPvTZTXy1YbJ0CAC7pvG4ddNNVoxnqAgDgJhjoAgA8TWiANP96qVUt6xL8EQa6gIOt2fCzHnzqJS1YssI6BQDKJToqUhPGjNCYEYMVEhxknQMAAAAAAGAqMytboybeoRVrN1inwIMFBgToqftu18A+3a1T8CeenzFLUx97XiUlJdYp8GA9O7fTi9Pu4u/nAQAVZuHSlZr23Gu88TwAnKFeXdrrxqtGqVnDetYpAADgTzDQBQB4oqgQadGNUsNq1iX4PQx0AQfZtHWHHnjqZd5RFIDHiY2J1qQrLtHlF1+gwIAA6xwAAAAAAAAzRUXFuvnuaZyeiQpRLS5Wbzz9gBrWS7FOwRn4fukKjbthinLz8q1T4IFumTBWN/7tcusMAICHWrRslaY996qWrWKYCwDnokentrr5mjEMdQEAcFEMdAEAnqpquLTkZim5inUJ/hsDXaCctu3ao4f+7xXN/WqBdQoAVKhqcbG64W+Xa/igvgrw97fOAQAAAAAAMPP6rNn6x4NPqaio2DoFHqJFkwZ64+kHFB0VaZ2Cs7Bzz36NvPpW7dq73zoFHiIkJFivPHaPunVobZ0CAPBAy1at1/1PvsiJuQDgID06ttHNE8Yy1AUAwMUw0AUAeLKaUdLSW6TqvKzsUhjoAudoz76DeuiZV/TRZ9+IbyMA3qRmQrxuvmq0hg7oJT8/P+scAAAAAAAAE0tWrtXVt96jQ0eOWafAzY2/9ELdc+u11hk4R8dz8zTp7w/oi+8WWafAzaUm19LLj09V3aRE6xQAgIdZtmq9Hn76FS1escY6BQA8UrcOrXXT1aOV3qSBdQoAABADXQCA50utKi27RYoKsS7BvzDQBc7S/ozDeuSZ6Zo5+wvrFAAwlVyrhm65ZowG9ukuHx8f6xwAAAAAAACnO56bpzvuf1Lvz51nnQI3VD0uVs89PEWtmze2ToEDvD93nv7+wFPKOZ5rnQI34+vrqwljRuiWCWMU4O9vnQMA8CDLVq3XI89O1w/LV1unAIBX6NWlvf5xw9+UmlzLOgUAAK/GQBcA4A1aJUrzr5dCA61LIDHQBc5YQUGhnnrlLT3/+kwVnjhpnQMALiM1uZZum3iF+vXoZJ0CAAAAAABg4tOvv9ctd0/TL9k51ilwEyOH9NfU265VaAhva+xJDh46okn/eECLlq2yToGbqF0zQc8/MkVNG9SzTgEAeJCV6zbqwf97mT+TAIABX19fDR/UV5MnjlNsTLR1DgAAXomBLgDAW3RPlb6ZZF0BiYEu8JdKS0s165MvdP+TL+nw0UzrHABwWa2aNdIDf79eDeulWKcAAAAAAAA43bHMLF0/5SF9/f0S6xS4sLjYGD0xdbK6tm9lnYIK9Oo7H+nuR5/TiZO84Sv+2FWXX6zbJl6h4CDe2hwA4Bg/bd6m+554QfMX/2idAgBeLzgoUFdedpEmjrtE4WGh1jkAAHgVBroAAG9yZQfphRHWFWCgC/yJ5avX6/b7ntDGLdutUwDALfj4+GjE4H6647orFVM50joHAAAAAADA6T767Bv9/YEnOU0X/2PE4H6659ZruTDXS+zdn6EJt9+rH9f8ZJ0CF5OUmKBnH5qiZg05NRcA4Bj7Mw7rvide0EeffWOdAgD4L9FRkbr+yss0evggBfj7W+cAAOAVGOgCALzN0xdLEzpbV3g3BrrA79h3IEN3P/qc5n61wDoFANxSeFiobrjyco2/7EJeYAAAAAAAAF7nWGaWbrzrYc2bv9g6BS6gWlys/u++O9ShdXPrFDhZaWmpXp/1iaY+9rzyCwqsc2DM19dX14werlsmjFFgQIB1DgDAAxzPzdMTL76hl9/6QCdPnbLOAQD8iZoJ8bpj0ngN7NNdPj4+1jkAAHg0BroAAG/j5yN9ea3Ug/eGNcNAF/gPuXn5evzFGXr5TV68AABHqF0zQXfefLX6dOtonQIAAAAAAOB0n3z5nW6/7wllZmVbp8DI6OGD9M8b/qbQkBDrFBjan3FYk+64X4tXrLFOgZG6SYl69qEpapSWYp0CAPAARUXFem3mx3rs+df1S3aOdQ4A4Cw0rJeiqbddq3Ytm1mnAADgsRjoAgC8UWSwtGqylFzFusQ7MdAFJJWUlOitDz/VQ0+/omOZWdY5AOBx2qU31QN/v171UpKsUwAAAAAAAJwqMytbDz71st78YK54ScZ7NEito8fuuVVNG/A2xfi3Dz79Svc8+pwOH820ToGThIeF6qarR+uKkUPl7+9nnQMA8ABzv1qg+554Ubv27rdOAQCUQ7cOrTXlxquVVpfraAAAcDQGugAAb1WvqrTsFimS9452Oga68HpLVq7V5KmPacuO3dYpAODxRg8fpMnXXqHIiHDrFAAAAAAAAKdat3GLbrv3Ma35abN1CipQTOVI3T5pvEYO6S8fHx/rHLigvPwCTXv2Vb301gcqLi62zkEFuviC8zTlpmsUUznSOgUA4AHWbPhZd9z/hFav32SdAgBwEB8fH104oJdum3iFEuKrWucAAOAxGOgCALxZj1Rp3kTJl5eqnYqBLrzWscwsTXnkaX346dfWKQDgVWIqR2rKTdfo4gvOs04BAAAAAABwqtLSUs365AtNffwFHcvMss6BA/n5+Wn0sIGaPPEKhYeFWufADWzbtUe33D1NS1eus06Bg3GCNgDAkfbuz9DUx5/XnHnzrVMAABUkKDBQ142/VBPGjlBgQIB1DgAAbo+BLgDA293QTXpsqHWFd2GgC69TUlKi6e98pIefma7juXnWOQDgtVo2bajHp96mlNqJ1ikAAAAAAABOlZuXr+dee1fPz3hP+QUF1jkop/N7d9Xtk8YrKTHBOgVu6Ovvl+j+J1/Spq07rFNQTrVrJujWCWM1qG93TtAGAJRbXn6BHnlmul544z3rFACAk9SqUV3T7rxZHdu0sE4BAMCtMdAFAEB67TJpVBvrCu/BQBdeZfX6Tbrprke4yAEAXIS/v5+uunyYbrp6tIKDAq1zAAAAAAAAnOpYZpYef3GGZsz6RKeKiqxzcJa6dWitf954lerXTbZOgZsrLS3VR599o4eeeUV79h20zsFZiq9aRTdeNUojBvWTv7+fdQ4AwAN88OlXunvaczpyLNM6BQBgYGCf7rrn1mtVtUq0dQoAAG6JgS4AAFKAr7ToRql1besS78BAF14hMytb9zz6vGbO/tw6BQDwO2pUi9O9kyfpvG4drFMAAAAAAACcbt/BQ3rkmema9cmX1ik4A62bN9Yd112pNv/P3n2H91kWbh++0mKhMlRAQZCpiFtcqPzce6OC4kBl772lgGWvsqHsvS27AlJB2bO0KV3pooUOOtPdtGnG+we8KMpqm+TO95vzPI4cCYXyfLrSNnmu5/7sJ0unUIWuvPH2nHXJtQY5FWCt97wr++6yfXb/w69KpwBQJcZOeDGHHtsnTz77XOkUAApbbdV35vB9ds5Ov/1FunXrVjoHACqKgS4AvOy9qyXPHp5s8J7SJdXPQJeq1trammv63ZWTz700c+ctKJ0DwFv4xlZfSJ/eh2b9dd9XOgUAAACgw016aVouuOKG3Hj7vVnS2Fg6h//yna99OQfvuUO2+PjmpVOocksaG9PvrgG54MobM2Hi5NI5/JcN1l83e/5xu/xumx9n5R49SucAUAUaGhanz4VX5ZLr+qWpqbl0DgCdyEc32zRn9D40n/nkR0unAEDFMNAFgH/7xPuTpw9Ler6jdEl1M9Claj03YnQOOfb0DB05pnQKAMvoyP13zb47/750BgAAAEARM2bV55Jrb8lVN9+RBQsXlc7p0lZaqXt+8cNvZ79dt8+HNt6wdA5dTEtLS/oPeDDnXX5Dho8aWzqny/vYhz+YvXf8bbb+wTfTvXv30jkAVIn+Ax7MX06/IC9Nm1E6BYBObPttf5KjDtgj71pjtdIpANDpGegCwGv9/FPJbbsmNTWlS6qXgS5VZ8HCRTnxnEty1U13lE4BYAV8ZLNN0veUo/PRzTYtnQIAAABQxLz5C3Lr3/6Rm+68N8+NGF06p0vZYL11s93Pf5jf/PyHWX/d95XOgTz85MDc0n9A+vUfUDqlS1m5R4/87PvfyLY//V6+9qXPl84BoIpMmDg5hxzbJ489Pbh0CgAVYs13vyvHHLxHfv2zH6TGXdUA8IYMdAHgf/X6fnLCT0tXVC8DXarKw08OzH69Ts60GbNKpwDQBlZaqXv23fn3OWC3P6THO95ROgcAAACgmHETJuamO+7NLX8bkKnTZ5bOqUrvWmO1bP39b2Xbn34vX9jiE6Vz4HUtXNSQu+77V/rddV+eeHZI6ZyqVFNTk62+sEV+/dPv5yff+3re2bNn6SQAqsjiJY0559Jr0/fKm9K4dGnpHAAq0Baf+EjOOf6IfPiDG5dOAYBOyUAXAF7fbbsmv/h06YrqZKBLVViwcFGOOe383Hj7PaVTAGgHm2y4fvqeeky2+PjmpVMAAAAAinv4yYG57e77c9d9/0rD4iWlcyreD775lWzzk+/mJ9/9eukUWCYTJ0/NLX8bkJvv/HtemDSldE7F+9DGG2a7n/8gv/zxd7PeOu8tnQNAFfrXY0/nkN6nZ8q0GaVTAKgCe/5puxyy1w4eKgQA/8VAFwBe3+orJ88dmWy8VumS6mOgS8Vzai5A11BTU5Pdtt82h++7S3qusnLpHAAAAIDiGhYvyT0PPJxb+g/Iw08+m5aWltJJFeNLn/tUfvnj72br738za6y+WukcWGGDh45Mv78NyJ33/jP1c+aWzqkY675v7fzyR9/JL3/8nXx88w+VzgGgSs2eOy+HH39m+g94sHQKAFVmg/XWzfkn98qWn/lk6RQA6DQMdAHgjW2xfvLUoUmPlUqXVBcDXSqWU3MBuqYPvH+dnHdSr3zpc58qnQIAAADQaUyfWZ97//lIHnt6cB59alBmz51XOqlTWWP11bLV57fI1770uXz3G1vlA+9fp3QStJt/PfZ0Hnr8mTz4xMCMGju+dE6ns8XHN8/Xvvz5fGOrL+TLn9+idA4AVe6BR5/K/r1OyqzZHqABQPvZ7Q+/yp/32zWrrNyjdAoAFGegCwBvbr9vJOdsW7qiuhjoUpGcmgvAb3/xoxx32D5ZbdV3lk4BAAAA6HSGjBiVR558No88OSgPPzmwdE4RX/niZ/OVLT+br37xs/nspz5WOgeKmFU/J4889Wz+8fATefSpQZk+s750UofbbJMN839bfibf2GrLfPnzn3ZqNgAdYsHCRTnqlHNz851/L50CQBex8Qbr56LTj8mnP7Z56RQAKMpAFwDe2t17Jj/6eOmK6mGgS0VZsHBRjj71vNx0x72lUwDoBDZYb91ceuaxPrkAAAAA8CaWNDZmYO3wPPzkwDzy1KAMGT4qLS0tpbPaVLdu3fLpj2+er37xs/nqFz+XL3zmE1m5h1Nj4L+NmzDx5fH+U8/msWcGZ+68BaWT2tx667z35YH+Fz+Xr3/583nf2muWTgKgi3n8mcHZ64gTPHQegA7XrVu37LXDb3Lo3jumxzveUToHAIow0AWAt/bunsnQXskH3l26pDoY6FIxnJoLwOtZaaXuOXyfnbP3jr9NTU1N6RwAAACATm/BwkV5evDQDB81NqPGTkjd2PEZPmps6ay3beUePfLhD26Uj3xok3zkQ5vmox/eNF/Y4hNZbdV3lk6DilM7fFSGjRyT0c9PyPBR4zJq7POZNXtu6ay3bYP11s3mH9okH/vwpvnwBzfOpz62eTbbZMPSWQB0UQ2Ll+S4My/MVTfdUToFgC7ugxtvkItP/0s+vvmHSqcAQIcz0AWAt2fLjZLHDk5W6la6pPIZ6NLpLWlsTO8+fX0CA4A3tdUXPpO+pxyVdd67VukUAAAAgIo0ZvyLeX7CxLwwaUomvTQtEyZOyYuTX8rEyVOzqKGhQ1tWX23VbLj++7PBeutmow+8Pxus//5suP66+eDGG2bTjT7QoS3Q1cyeOy8jRo3LC5OmZOKUqXlx8kt5cdJLeXHyS5k+s77Dezb6wHrZYP11s+H673/1/cLGG6yXj262aXr2XKXDewDg9Qx6bkT2OOy4TJwytXQKACRJunfvnoP2+FP23+X36d69e+kcAOgwBroA8PYd9K3kjF+Wrqh8Brp0ahMmTs6f9uuV0eMmlE4BoAK8a43Vcv5JvfKdr325dAoAAABA1Zk9d14WNSx+5aUhDQ1LsqihIYsaFqdh8ctvv/x6cVqam1/zdbt175539lzlP156vvp2z1Ve++XvWmO1Qt9C4O2Yv2Dhq7/m///7hMWLl2ThooZ/v3945X1BY2Pja75uTU1NVll55Zd/7f/H+4RV39nzNe8L/v/bBrgAdHaNS5fm1PMuz4VX3xy3YAHQGW3x8c1zwSlHe+AZAF2GgS4ALJu790x+9PHSFZXNQJdO68bb70mvU85NQ8Pi0ikAVJgdfvPz9D5kr6zco0fpFAAAAAAAAKAKDR81NrsfemzGTXDnNwCd2yor98jRB+2RnX7rWCQAqp+BLgAsm3f3TIb2Sj7w7tIllctAl05n4aKGHHjMqek/4MEyK2lPAAAgAElEQVTSKQBUsA9/cONccvpfsvmHNimdAgAAAAAAAFSRcy+7Piefe2npDABYJl/54mdz7gl/zvvXeW/pFABoNwa6ALDsttwoeezgZKVupUsqk+82OpUhI0blm7/c0TgXgBU2etyEfOOXO+bKG28vnQIAAAAAAABUgVmz52abnQ80zgWgIj361KB845c75ta7/1E6BQAAgE7k6ReSI+8qXVG5nKBLp9H3ypty8nmXpqmpuXQKAFXmJ9/9es454Yi8s2fP0ikAAAAAAABABXrs6cHZ47DjMrN+dukUAFhhP/nu13NG70OzxuqrlU4BgDblBF0AWH5375n86OOlKyqPgS7FzZo9N3sfcXweemJg6RQAqtgmG66f6y44NZtu9IHSKQAAAAAAAECFaG5uzmkXXJHzLr8hbrMCoJqst857c8U5J+TTH9u8dAoAtBkDXQBYfu/umQztlXzg3aVLKku30gF0bY89PTjf+MUOxrkAtLvxL07Od369S/oPeLB0CgAAAAAAAFABJk+dnp/9ad+ce9n1xrkAVJ0p02bkx7/fKxdccaPf5wAAAMichuR3V5auqDwGuhRz1sXX5Fe7HpSZ9bNLpwDQRTQ0LM5uh/TOkSefk8alS0vnAAAAAAAAAJ3U/Q8/kW/+cscMem5E6RQAaDfNzc054eyLs+0uB2XW7LmlcwAAACjskXHJ2f8qXVFZalo99ooOtqihIbsfelzuf/iJ0ikAdGGf+MiHcs15J+f967y3dAoAAAAAAADQSSxtakrv0/vmihtvK50CAB1q7TXfk4tOOyb/t+VnSqcAwHL73KnJoImlKwCgsvV8RzLy6GSjNUuXVAYn6NKhJkycnO9tt5txLgDFDasbm29ts1MefnJg6RQAAAAAAACgE5gwcXJ+8JvdjXMB6JJm1s/OtrscmJPOubR0CgAAAAU1LE22v6p0ReUw0KXD/Ouxp/PdX++acRM8kgaAzmHOvPnZbrdDcur5l5dOAQAAAAAAAAq6675/5Vvb7JQRo8eVTgGAos67/Pr8fId9M6t+TukUAAAACnn0+aTvw6UrKkNNa2tra+kIqt/Zl1yb0y64In66AdBZfWOrL+Si0/6Sd62xWukUAAAAAAAAoIM0NTWn18nn5Jp+d5VOAYBO5X1rr5lrzj85n/7Y5qVTAOBt+9ypySDniQFAm1itRzLsqGSjNUuXdG5O0KVdLWpoyB/2+XNOPf9y41wAOrUHH38m3/nVzhk1dnzpFAAAAAAAAKADzKqfk6132Nc4FwBex/SZ9fnp9nv7fRIAAKCLWtCYbH9V6YrOz0CXdjNh4uR8b7vdcv/DT5ROAYC3ZdJL0/KD3+6eO//+z9IpAAAAAAAAQDsaMmJUvrXtThn03IjSKQDQaS1tasrhx5+ZfY88KUsaG0vnAAAA0MEefT659LHSFZ2bgS7t4l+PPZ3v/nrXjJswsXQKACyTxUsas8dhx+WoU85NU1Nz6RwAAAAAAACgjfXrPyA/3X7vTJ9ZXzoFACrCLX8bkB/9bs9MmjK1dAoAAAAd7KBbk8lzSld0Xga6tLkLrrgxv9vzsCxYuKh0CgAst8tvuC1b77BvZtX7kyQAAAAAAABUg6am5hx23BnZr9dJWdrUVDoHACrKiNHj8q1td85DTwwsnQIAAEAHWtCY/Oma0hWdl4EubaapqTl7//mEnHD2xaVTAKBNDHpuRL617U559rkRpVMAAAAAAACAFTCrfk623mHfXHtL/9IpAFCx5i9YmN/teVguv+G20ikAAAB0oAdGJ1c/VbqiczLQpU3MX7Awv9hxv9x29/2lUwCgTU2fWZ+fbL9Xrr/1b6VTAAAAAAAAgOUwZMSofGvbnTLIg3kBYIW1tLTkqFPOzQFHn5qmpubSOQAAAHSQ/fsl0+eXruh8DHRZYRMnT833ttstA4cML50CAO3mkGP7OCUeAAAAAAAAKky//gPy0+33zvSZ9aVTAKCq3HznvfnFjvtlzjx3ZwMAAHQFcxcnO11XuqLzMdBlhdQOq8t3t9slEyZOLp0CAO3ugituzG6H9M6SxsbSKQAAAAAAAMCbaGpqziHH9sl+vU7K0qam0jkAUJUGDhme7/1614x/0T2kAAAAXcHdw5MbBpau6FwMdFlu/Qc8mJ/9cZ/MnbegdAoAdJj+Ax7MNjsdkNlz55VOAQAAAAAAAF7HnHnz84sd98v1t/6tdAoAVL2JU6bme9vtmoefdIc2AABAV7DvX5P6haUrOg8DXZbLqedfnt0O6e0JowB0Sc8+NyI//O0eTpAHAAAAAACATuaFSVPy/d/sloFDhpdOAYAuY8HCRdlut0Ny6XW3lE4BAACgndUvSva8uXRF52GgyzJpXLo0O+zfK2dfcm3pFAAo6oVJU/LD3+7hE/sAAAAAAADQSTw1aGi+/5vd8uKkl0qnAECXdMxp5+eQY/ukpaWldAoAAADt6K+DkgdGla7oHAx0edvq58zN1n/cJ/f967HSKQDQKcyZNz/b7HRA+g94sHQKAAAAAAAAdGl33PtAtt3lgMydt6B0CgB0adff+rf8fq/Ds3BRQ+kUAAAA2tFuNyRLmkpXlGegy9vywqQp+cFvd0/tcNN2APhPjUuXZrdDeqfvVTeVTgEAAAAAAIAu6YwLr8qehx+fpqbm0ikAQJIHH38mP/rdHpn00rTSKQAAALST52clp/6jdEV5Brq8pTHjX8yPt98rEydPLZ0CAJ3W8WdelGNOO790BgAAAAAAAHQZS5uassdhx6XPhVeVTgEA/svo51/I97fbLUNGOBgGAACgWp10X/L8zNIVZRno8qaGjhyTn2y/V2bVzymdAgCd3qXX3ZIDjzk1ra2tpVMAAAAAAACgqs2bvyDb7nxg7vz7P0unAABvoH7O3Gz9x31z9/0Pl04BAACgHSxpSna7oXRFWQa6vKGnBw/N1jvsm3nzF5ROAYCKcdMd92afI09MS0tL6RQAAAAAAACoSpNempYf/m6PPD14aOkUAOAtLGlszC4HHZOLr+1XOgUAAIB28MDo5Lba0hXlGOjyuv7x0OP51S4HpaFhcekUAKg4t919f3Y68Og0NTWXTgGAqrN4SWOeHjw0d933r9IpAAAAAEABQ0aMyve32y3PvzCpdAoAsAx6n35BTjz7ktIZAAAAtIMDbkkWNZauKKOmtbW1tXQEncsd9z6QvY44IX5qAMCK+dZXvpgrzj4+K/foUToFACpSc3NzRo4Zn9phdakdXpfaYXWpGzs+zc3N+eRHN8uAmy8tnQgAAAAAdKB/PPR4dj24d5Y0dtE7vQCgCvzp11vn5F4HpKampnQKAFXoc6cmgyaWrgCArumw7ySn/rx0RcdbqXQAnct1t/wthx7Xp3QGAFSFfz76VLbb7eDceFGf9Fxl5dI5ANDpPf/CpNQOq8vgYSNTO6wuw+rGZPESN9oBAAAAAO5pAYBqcfVf78z8hQtz3olHplu3bqVzAAAAaCNn/TPZ8cvJR9YpXdKxDHR5VZ++V+aMi64unQEAVeWpQUOz7S4H5qaLTs/qq61aOgcAOo2p02e+OsStHTYqQ0bUZe68BaWzAAAAAIBO6OxLrs2p519eOgMAaCO33X1/Fi5qyKVnHJt3rORWZgAAgGqwtCXZ5frk0YNKl3SsmtbW1tbSEZTV2tqaQ487I9ff+rfSKQBQtT662aa5/cpz8641ViudAgAdbv6ChRk0dORrTsedNmPWCv0/P/nRzTLg5kvbqBAAAAAA6KyOPPmcXHnj7aUzAIB28JUvfjbXnHdyeq6ycukUAKrE505NBk0sXQEAXdu1f0y237J0Rccx0CX79Top/foPKJ0BAFXvI5ttklsuPStrrfnu0ikA0G4WL2nM0JGjM3joyNQOr0vtsLqMf3Fym1/HQBcAAAAAqltra2sOOPqU/PWu+0qnAADt6LOf+lhuuuj0rL7aqqVTAKgCBroAUN7aqybPH5usvkrpko5hoNuFtba2Zs/Dj8+df/9n6RQA6DI+tPGGueOqc410AagKzc3NGTlmfGqH1aV2eF0GDx2ZUeMmpLm5ud2vbaALAAAAANWrqak5ux/aO/c88EjpFACgA3xks03S79Izs/aa7ymdAkCFM9AFgM5h768l5/+6dEXHMNDtooxzAaCcD228YW694uy8b+01S6cAwDJ5/oVJqR1Wl8HDRqZ2WF2G1Y3J4iWNRVoMdAEAAACgOi1pbMyf9j0yDz0xsHQKANCBNlhv3dx6+dnZYP11S6cAUMEMdAGgc6hJUvvn5FPrly5pfwa6XVBzc3P2/vOJxrkAUNDGG6yfO68+z0gXgE5r6vSZrw5xa4eNSu3wusybv6B01qsMdAEAAACg+ixYuCi/2/OwPFM7rHQKAFDAWmu+O/0uPTMf3WzT0ikAVCgDXQDoPL6wYfL0YaUr2t9KpQPoWM3Nzdn14N6595+PlE4BgC5twsTJ2fpP++bWK87Oeuu8t3QOAF3c/AULM2joyNecjjttxqzSWQAAAABAF1I/Z2622fmA1I0ZXzoFAChkVv2c/PQPe+eGC0/Llp/5ZOkcAAAAVsAzLya31ibbbFG6pH05QbcLMc4FgM5ng/XWzR1Xn2ekC0CHWbykMUNHjs7goSNTO7wutcPqMv7FyaWzlpkTdAEAAACgekybMSs/32G/TJhYeR+rBADaXo93vCOXnXlsvvv1rUqnAFBhnKALAJ3LR9ZJhh+VdKspXdJ+DHS7CONcAOi8Nlhv3dx6+dnZYP11S6cAUIWGjhyT2uF1GTpidAYOGZ6RY54vndQmPvWxD+e+my4pnQEAAAAArKCJk6fm5zvsmynTZpROAQA6kZqampx93OH59dY/KJ0CQAUx0AWAzuey3yU7V/Hzl1YqHUD7M84FgM5t4pSp2XqHfXPnVecZ6QKwQp5/YVJqh9Vl8LCRqR1Wl2F1Y7J4SWPprHbheWMAAAAAUPnGTZiYX+y4f2bMqi+dAgB0Mq2trdn/6FMyb8HC7PL7bUrnAAAAsJyOvSf5w5ZJjypdslbpN4v/zzgXACrDS9Nm5Oc77Ju7r78w675v7dI5AFSAl6bNSO3wulcGuXUZMnxU5s1fUDoLAAAAAOBtGf/iZONcAOAtHX3qeenWrSY7/faXpVMAAABYDhPnJOc9lBz87dIl7cNAt4oZ5wJAZZkybUa22fmA3Hn1eVl7zfeUzgGgE5k3f0EGDX35VNza4XUZPHRkps900xoAAAAAUJnGvzg5W/9pX+NcAOBt6XXyuenxjh7ZftuflE4BAABgOZw8INnjq8mqPUqXtD0D3SrV2tqafY48yTgXACrM8y9MyjY7H5i7rj4/71pjtdI5ABSweEljnhsxKoOHvXw6bu2wukyYOLl0FgAAAABAmzDOBQCWx6HH9UkSI10AAIAKNGthcuqA5Lgq/CudgW6VOuKEs3LHvQ+UzgAAlsPocRPym90PTr/Lzspqq76zdA4A7ai5uTkjRj+f2uEvD3EHDx2ZUeMmpKWlpXQaAAAAAECbM84FAFbEocf1ycor98ivfvq90ikAAAAsozP/mez/zWStVUuXtC0D3Sp0zqXX5Zp+d5XOAABWQO3wUfntHoem32VnZZWVe5TOAaANtLa2ZtwLE189Fbd2WF2G1Y3NksbG0mkAAAAAAO3OOBcAaAv7H3VykhjpAgAAVJiFjcmx9yTn/qp0Sdsy0K0yN995b04577LSGQBAGxg4ZHh22O/IXHP+yenxjneUzgFgGU2ZNuPVU3Frh9dlyPBRmb9gYeksAAAAAIAOZ5wLALSV1tbW7H/UyenxjpWy9Q++VToHAACAZXDxo8mh30k2eE/pkrZjoFtF/vHQ4znwmNNKZwAAbeihJwZm5wOPyVXnnJDu3buXzgHgDcybvyDPPjfi5UHuK6fjutEMAAAAAMA4FwBoe62trdnriBOSxEgXAACggjQ2J736J9f8sXRJ2zHQrRKPPzM4Ox94TFpbW0unAABt7P6Hn8g+R56UvqcclZqamtI5AF1ew+IlGTJ8VGqH170yyB2ZFye9VDoLAAAAAKDTMc4FANpLS0tL9jrihPTo8Y788FtfLZ0DAADA23T9M8mR308+sk7pkrZhoFsFho8am+33PiJLm5pKpwAA7eSOex/Iu1ZfLaccdWDpFIAupampOSNGj8vgYSNTO6wutcPrMnrcC2lpaSmdBgAAAADQqRnnAgDtraWlJbse3DuXntHbSBcAAKBCtLQmh9+R3Ll76ZK2YaBb4V6YNCW/2uWgNCxeUjoFAGhnV//1zqz//vdl351/XzoFoCq1trZm7ISJLw9xXzkZd3jd2DQuXVo6DQAAAACgohjnAgAdpbm5Obse3DtXn3tivv3VL5XOAQAA4G24a2jy9IRky41Ll6w4A90KNnX6zPxyx/0ze+680ikAQAc56ZxLs+H678/WP/hW6RSAijfppWmvnopbO6wuQ4aPyoKFi0pnAQAAAABUtBmz6vOLHfczzgUAOkxzc3O23/uI3HxJn3ztS58vnQMAAMDbcOgdyUMHlK5YcQa6FWruvAXZZucDMmXajNIpAEAH2+fIE/Oed6/hEwoAy2DOvPkZ9NyIDH7ldNzaYXWZWT+7dBYAAAAAQFVZsHBRfrXrwZk2Y1bpFACgC9phv1657YpzssUnPlI6BQAAgLfw8NjkgVHJtzcvXbJiDHQr0NKmpvx+r8Py/AuTSqcAAAU0NTVnh/2Pyt3X9c1HN9u0dA5Ap9PQsDi1I0aldlhdBg8dmdrhdZk4eWrpLAAAAACAqta4dGl+v9fhGTV2fOkUAKCLali8JNvtfkjuuvq8bP6hTUrnAAAA8BZOvs9AlwL2P+rkPPvciNIZAEBBDQ2L8+tdD869N1yYD6y3bukcgGKWNjVl+Khxr56KWzu8LqPHTUhra2vpNAAAAACALqOlpSW7HvyXPD14aOkUAKCLmzd/QbbZ5cDcd9MlWX/d95XOAQAA4E08MDp5bnLyqfVLlyw/A90Kc8aFV+X2ex4onQEAdAIz62fnV7senHtvvCjvXmP10jkA7a61tTVjxr+Y2qEjM3j4y4PcEaPGpXHp0tJpAAAAAABd2iHH9smABx8vnQEAkCSZVT8nv9xp/9x9Xd+sveZ7SucAAADwJo6/N+m3S+mK5WegW0H+9o+H0ufCq0pnAACdyISJk/P7vQ7PLZedlZ6rrFw6B6BNTZoyNYNfORW3dmhdhowYlYWLGkpnAQAAAADwH8646OrcePs9pTMAAF7jxUkvZZudD8xdV5+fd62xWukcAAAA3sBtQ5Lxs5JN1ipdsnwMdCvEwCHDs/cRJ5TOAAA6oUHPjciehx+Xq845sXQKwHKbPXdeBj03IrXD6l4d5c6qn1M6CwAAAACAN3HDbXenT98rS2cAALyu0eMm5De7H5zbrjgnPXuuUjoHAACA19HSmpx8X3LJ70qXLJ+a1tbW1tIRvLmJk6fmu9vtkrnzFpROAQA6sX12+l16HbBb6QyAt7SooSFDho/K4KGvnI47rC4Tp0wtnUWF+eRHN8uAmy8tnQEAAAAAXdY/H30q2+99RNx6BAB0dlt9fovcfMkZWWml7qVTAGhnnzs1GTSxdAUAsKx6dE8mnpC8b/XSJcvOCbqd3Jx587Pd7gcb5wIAb+n8K27IFp/4SH78na+VTgF4VePSpRkxatwrJ+OOTO2wuowZ/6IbtgAAAAAAKtjgoSOz0wFH+1gvAFARHh9Ymz0OOzaX9Omdbt26lc4BAADgvzQ2J2c8kJz689Ily84Jup3Y0qam/GKH/fLscyNKpwAAFaLnKivn7usvzEc327R0CtAFtba2ZvS4Ca+eils7rC7DR43L0qam0mlUISfoAgAAAEAZYye8mB//fq/Mm+9h8wBAZdlu6x/k7OOPKJ0BQDtygi4AVK7VV04mn5isvkrpkmXjBN1ObP+jTjbOBQCWScPiJfnD3kfkH/0uy3vetUbpHKDKTZw89dVTcWuH1WXIiNFZ1NBQOgsAAAAAgHYydfrMbLvzgca5AEBFuvnOv2fttd6Tow7YvXQKAAAA/2X+kqTvI8nh3y1dsmwMdDupsy+5Nrff80DpDACgAk2eOj07HXBUbrnsrHTv3r10DlAl6ufMzaDnRqR2WF0GvzLIrZ8zt3QWAAAAAAAdZP6Chdlut4Mzbcas0ikAAMvtgituzDprr5Vdt9+2dAoAAAD/5cwHkgO/mfSooNVrBaV2Hff+85Gcev7lpTMAgAr25LPP5ZjTLsiJf96vdApQgRYuanj1VNza4XUZPHRkJk+dXjoLAAAAAIBCmpub86d9j8zo518onQIAsML+cvoF2XiD9fLdr29VOgUAAID/MH1BctVTyW7/V7rk7TPQ7WQmTJycff58UukMAKAKXHHjbfnkRzfLb37+w9IpQCfWuHRphteNzeBhI18d5Y6dMDGtra2l0wAAAAAA6CQO7t0nTzw7pHQGAECbaG1tzW6H9M7d11+Yj334g6VzAAAA+A+nDEh22SrpVlO65O0x0O1EGhoW5w97/zmLGhpKpwAAVeLQ4/pks003yuc+9bHSKUAn0NLSktHjXnj1VNza4XUZMXpcmpqaS6cBAAAAANBJXXJtv9x8572lMwAA2tTiJY35ze6H5v5+l+V9a69ZOgcAAIBXjJ+V3Do4+dVnS5e8PQa6ncg+R56YsRNeLJ0BAFSRpqbm7Lj/UT6ZAF3UC5OmvHoqbu3wugwZMToNDYtLZwEAAAAAUCEeemJgevfpWzoDAKBdzJhVn9/sfkj+dt0FeWfPnqVzAAAAeMUJfzfQZRldet0tueeBR0pnAABVaMas+ux0wFG546rzstJK3UvnAO1kVv2cDBo6IoP//yB3WF1mz51XOgsAAAAAgAo1YvS47HjAUWltbS2dAgDQbkaOeT477n90brzotHTr1q10DgAAAEmem5LcX5d85yOlS96agW4n8OxzIzxtFABoV88+NyLHntE3xx++b+kUoA0sXNSQwUNHpnZ43cuvh9VlyrQZpbMAAAAAAKgS02fW5ze7H5qGhsWlUwAA2t3DTw7MMaednxOO2K90CgAAAK84/X4DXd6GmfWz86f9jkxLS0vpFACgyl12/a3Z8jOfzE+/943SKcAyaFy6NENHjnn1VNzBw0Zm3ISJpbMAAAAAAKhSDYuX5De7H5IZs+pLpwAAdJjLb7gtH9pko+yw3dalUwBYAc8eXrqgsixqTJpakuaW175uak6aW1953fL6/01zS7Kk6eWXxUv/4+1XXi9Z+u+3X/Pv/+vthqXJjAXJrIVJ/aLS3yMAdCYD6pKxM5IPvbd0yZsz0C2oubk5f9qvV2bVzymdAgB0EfsfdXI2/9Am+fCmG5VOAV5HS0tLRo2b8OqpuLXD6zJyzPNpamounQYAAAAAQBfQ2tqa3Q7pnZFjni+dAgDQ4Y486exssuH6+fqXP186BQA6xDt7lC54rZbWZPail8e6r/uy4LX/PPOV10uaSpcD0F7Ofyg5e9vSFW+uprW1tbV0RFfV+/QLcvG1/UpnAABdzMYbrJ/7+12WVd/Zs3QKdHkTJk7+j5Nx6zJ05Og0LF5SOgsqwic/ulkG3Hxp6QwAAAAAqCrHn3VR+l55U+kMAIBievZcJX+/8WIPvweACjJvcTJtXjL1P1/m/++XTZ+fLG0pXQvAslhjleSlkzrfQyX+k4FuIXff/3B2OeiY0hkAQBf13a9vlWvOO6l0BnQpM+tn59khI1I7vO7VUe6cefNLZ0HFMtAFAAAAgLZ10x335sBjTi2dAQBQ3PvXeW/+fuPFed/aa5ZOAQDa2IwF/zvcnTI3GTk1GTMjGTezdCEA/+3i3ya7/V/pijdmoFvAhImT861tdnIyFgBQ1DEH75k9/7Rd6QyoSgsWLsrgoSMz+JUhbu3wurw0bUbpLKgqBroAAAAA0HaeeHZIfrnj/qUzAAA6DZ+PBICuqakleX5mMmb6y4Pd0dP//fbE2UmLBRZAh/v4+5NhvUpXvDED3Q7WuHRpvrfdbhk1dnzpFACgi+vevXvuuOrcfP7THy+dAhVtSWNjho4ck9phdRk8bGRqh9Xl+Rcmlc6CqucT4gAAAADQNmbWz85Xf/bHzJk3v3QKAECn8osffTt9Tzm6dAYA0IkMm5I8Pyupm/rKeHdGMujFZEFj6TKA6vboQcn/bVq64vWtVDqgqznujAuNcwGATqG5uTk77N8r/7r1irx3rTVL50BFaG5uTt3Y8a+eils7rC4jx4xPc3Nz6TQAAAAAAFhmzc3N+dN+vYxzAQBex+33PJAtP/Op7LDd1qVTAIBO4hPrvfzys0++9stfqE9qJ/37ZcjkZPysMo0A1eiChzrvQNcJuh3o4ScHZrvdDimdAQDwGlt+5pO546pzU1NTUzoFOp3xL07O4KEjXx3jDqsbk4bFS0pnAXGCLgAAAAC0hV4nn5srbrytdAYAQKe10krdc/d1F+ZTH/tw6RQAoMIsWJIMmvjvwW7tpGT4S8mSptJlAJVnpW7J1JOTtVYtXfK/DHQ7yKzZc/O1rf+Y+jlzS6cAAPyPQ/feKQft/sfSGVDUzPrZGThkeGqH1WXw0LoMGVGXufMWlM4C3oCBLgAAAACsmLvvfzi7HHRM6QwAgE5vnfeulfv7XZa113xP6RQAoAoMnfLyWHfgi8mDo5PnppQuAqgMJ/wk6fWD0hX/y0C3g/x6t4PzyJPPls4AAHhdNTU1uf3Kc/PFz36ydAp0iPkLFmbQ0JGpHfbyybiDh43MtBmzSmcBy8BAFwAAAACW35jxL+b72+2ahsVLSqcAAFSEz37qY7nr6vPSvXv30ikAQJWpX5g8Mi55cMy/B7stll4A/2Pd1ZPJJyXdakqXvJaBbge48sbbc+TJ55TOAAB4U+9da808cuc1edcaq5VOgXYxbcas9O7TN7XD6jJh4uTSOcAKMtAFAAAAgOWzcFFDvr3tznlhkuNZAACWxUgNFlIAACAASURBVK7bb5vjDtundAYAUOXmNCQPjTHYBXg9t++a/PzTpStey0C3nY2bMDHf3nbnLGlsLJ0CAPCWvv2VL+a6vqeWzoB28dyI0fn+b3YrnQG0EQNdAAAAAFg+2+99RB545MnSGQAAFemyM4/Lj7/ztdIZAEAXMqcheXjsy2PdB8ckQyYb7AJd13c2T/6xb+mK1+pWOqCaNS5dmp0POsY4FwCoGA88+lQuve6W0hnQLmpqakonAAAAAABAUedfcYNxLgDACtj3yBMzZvyLpTMAgC7k3T2Tn30yOXObZNARyYxTkqv/kGy7RbL6yqXrADrW/aOSsTNKV7yWgW47OuGsizNq7PjSGQAAy+T4My/KsLqxpTOgzRnoAgAAAADQlT3x7JCcdM6lpTMAACpaw+Il+cPeR2Te/AWlUwCALmrNVZM/fjHpt0sy67TkH/sk+30j2WSt0mUAHeP8h0oXvJaBbjt5+MmBTp8DACrS0qam7HTAUWloWFw6BQAAAAAAgDYwdfrM7LT/UWltbS2dAgBQ8V6YNCW7HPwXf7YCAIp7R/fkOx9Jztk2ef7YZFiv5OSfJVttknRzpglQpa58MlnUWLri3wx028GcefOz52HHl84AAFhuE6dMzYF/Oa10BrQpB+gCAAAAANAVLW1qyh/3/XPmzJtfOgUAoGo88uSzOfPia0pnAAC8xsffnxzxveSxg5MZpyRX/yHZdotk9ZVLlwG0nXmLk+ueKV3xbwa67eCAo09J/Zy5pTMAAFbInX//Z27524DSGdBmaix0AQAAAADogk4577IMHTmmdAYAQNXp0/fKPPLks6UzAABe15qrJn/8YtJvl2TmqUm/nZOffCJZyZIMqAKXPla64N+8W21jt9/zQO77Vyf6EQYAWAF/PvHszKyfXToD2oSBLgAAAAAAXc1Tg4am75U3lc4AAKhaexx2XKbPrC+dAQDwpnqslGz7maT/HslLJyVn/jL59PqlqwCW38AXk7EzSle8zEC3Dc2qn5M/n3RW6QwAgDazYOGi7H/UKaUzoE3UxEAXAAAAAICuY9bsudn14L+UzgAAqGr1c17+M1dLS0vpFACAt2Xt1ZIDv5XU/jkZdHiy79eTNd9Zugpg2V33dOmClxnotqF9jjwxc+ctKJ0BANCm/vnoU7n5zntLZwAAAAAAALAM9jjs2MyY5TQ3AID29vTgoelz4VWlMwAAltlnNkjO/dXLp+r+dafkBx9NujkLBagQ1z9TuuBlBrptpF//AXnw8U7yowoA0MaOOuW8TJ0+s3QGrJAaHzQCAAAAAKCLuPS6W/LoU4NKZwAAdBlnXXxNHnny2dIZAADLpcdKya8+m9y7d/L8sclB30retUrpKoA3N3Zm8vSE0hUGum1i2oxZOfKks0tnAAC0mwULF2WfI08snQErpMZCFwAAAACALmDE6HE55rTzS2cAAHQ5exx2XKbPrC+dAQCwQjZaMznjl8mkE5Nztk0+uHbpIoA3dv3A0gUGum1ir8OPz4KFi0pnAAC0q8eeHpzrbvlb6QxYfga6AAAAAABUucalS7PbIb1LZwAAdEn1c+Zm14P/kpaWltIpAAArbLWVk/2+kYztndy2a7LVJqWLAP7Xzc8mzYX/Cmagu4JuvP2ePD6wtnQGAECHOOb08zN1+szSGbBcnKALAAAAAEC1O/HsSzJuwsTSGQAAXdbTg4fmrEuuLZ0BANCmfvHp5LGDk2cOS7bZIunmdkygk5g2P3lgVNkGA90VMG3GrPQ65dzSGQAAHaahYXH2OfLE0hmwXOxzAQAAAACoZk8MrM0l1/YrnQEA0OWdceFVGTKi8B3iAADt4PMbJrfskjx/bLLnV0vXALzs+mfKXt9AdwXsdfjxaWhYXDoDAKBDPfb04Fx1852lM2CZ1cRCFwAAAACA6jR/wcLscdhxpTMAAEjS2tqa3Q85NouXNJZOAQBoFxutmfTdLnnhuOSPWzpRFyjr9iFJw9Jy1zfQXU433HZ3Hh9YWzoDAKCI487om0kvTSudAQAAAAAAQJLDjj8z02fWl84AAOAVL0yakhPOuqh0BgBAu9pwzeTqPyYjjkq23SKOUQGKmL8k6T+03PUNdJfD3HkLcuwZF5bOAAAopmHxkvQ6+ZzSGbBMamp86AcAAAAAgOrTf8CDuePeB0pnAADwXy6/4bY8/szg0hkAAO1u83WSfrskzxyWfHr90jVAV3T9M+WubaC7HHr3uSDz5i8onQEAUNSABx/PA488WToD3jYDXQAAAAAAqs3sufNy2HFnlM4AAOAN7Hn48Zm/YGHpDACADvG5DZPBRySX/S5572qla4Cu5N7hyexFZa5toLuMaoePyk133Fs6AwCgUzjsuDOypLGxdAa8Lfa5AAAAAABUm14nn5M58+aXzgAA4A1Mn1mfP594dukMAIAOU1OT7LxVMvovyR5fKV0DdBVLW5K/DipzbQPdZdDc3JwDjzmldAYAQKcxZdqMnH3JtaUz4G1xgi4AAAAAANXkgUefyu33PFA6AwCAt3Dr3f/I3//1aOkMAIAO9e6eyYW/SYb3SrbcqHQN0BXcMLDMdQ10l8EVN96eujHjS2cAAHQq519xQ16YNKV0BrylmhjoAgAAAABQHeYvWJj9jzq5dAYAAG/TQceclln1c0pnAAB0uI+9P3nykOSy3yVrrVq6Bqhmj4xNJs7u+Osa6L5N02fW59TzLy+dAQDQ6TQ1NeeQY/uUzgAAAAAAAOgyjj71PAMPAIAKMnvuvPz5pLNLZwAAFFFTk+y8VTK2d7Ljl0rXANWqNcmttR1/XQPdt6l3nwuycFFD6QwAgE7p0acGpf+AB0tnwJuqqXGCLgAAAAAAle/Rpwbl5jv/XjoDAIBl1H/Ag/nHQ4+XzgAAKObdPZMrtk/u2j1532qla4Bq1H9ox1/TQPdteKZ2WG6/54HSGQAAndpRp5ybhobFpTPgDdnnAgAAAABQ6RY1NGSfI08snQEAwHI66C+nZ978BaUzAACK+uknkxFHJz/9ROkSoNo8NCaZ28FntBrovoWlTU058JhTS2cAAHR602fW5/S+V5bOgDdmoQsAAAAAQIXrfXrfTJsxq3QGAADLaWb97Bx96nmlMwAAiltr1eSuPZLLfpes2qN0DVAtmluT+0Z27DUNdN/Cxdf8NeMmTCydAQBQES6+tl/GjH+xdAa8rhoDXQAAAAAAKtjTg4fm2lv6l84AAGAF/fWu+/LQEwNLZwAAdAo7b5UM65V8aePSJUC16D+0Y69noPsmXpo2I336XlU6AwCgYrS0tOSQ3qeXzoDXZaALAAAAAEAl27fXSaUTAABoIwccfUoWLmoonQEA0ClsvFby6EHJMT9MurvVE1hB/Ycmra0ddz0D3Tdx/FkXZUljY+kMAICK8vTgoek/4MHSGQAAAAAAAFWjT98r8+Kkl0pnAADQRqZOn5lj+/QtnQEA0Gl075Yc++PkoQOTdVcvXQNUsrmLk0fHddz1DHTfwKDnRuT2ex4onQEAUJGOO+PCLG1qKp0Br+GhagAAAAAAVKLJU6fnvMtvKJ0BAEAbu/aW/nmmdljpDACATuX/Nk2e65V8aePSJUAl69+Bf9Uy0H0Dhx1/ZukEAICKNemlabno6ptLZ8Br1NSY6AIAAAAAUHkOO+6MNC5dWjoDAIB2cOAxp3oIPgDAf3nvaskjByV/2LJ0CVCp+g/tuGsZ6L6OW+/+R4aPGls6AwCgop118TWZVT+ndAa8ykAXAAAAAIBKc9+/Hss/H32qdAYAAO1k3ISJufAqD8EHAPhvK3VLrvlj0ne70iVAJaqbloyf1THXMtD9L0saG3PcGReWzgAAqHgNi5fkxHMuKZ0BrzLQBQAAAACgkixpbMyRJ51dOgMAgHZ2xoVXZfLU6aUzAAA6pT2/mjx2UPKenqVLgEpz53Mdcx0D3f9y3mXXZ/rM+tIZAABV4cbb78nQkWNKZ0CSxD4XAAAAAIBKcu6l12XKtBmlMwAAaGeNS5fmsOPOKJ0BANBpbbVpMuiI5CPrlC4BKkn/oR1zHQPd/zBtxqycd/kNpTMAAKrKESeeVToBkjhBFwAAAACAyvHCpCk5/4obS2cAANBB/vnoU7nrvn+VzgAA6LQ2Xit55rDkO5uXLgEqxf9j776j7K7r/I+/J5mUIQ0TQgmhSegECR0EglKUJogUBSnSV8AVXdQVWQsuiIiIdEQgtFCkQ2ihJECAEJJJMjOZSe+kkF4mmUz5/RF+KCtlkimf+7338TiH4y7nzp2nHvQMzH1930MmRCypbvnvY6D7L37351ujZs2a1BkAAHll5JiKePblIakzAAAAAAAAMuMnv77WZ1gAAArMr/5wYyxfsTJ1BgBAzurcIeKFiyJO3D11CZAFdQ0RL1S0/Pcx0P1IWeXEePy5wakzAADy0m//dEusqa1NnUGBKwoXdAEAAAAAyH0vvPZmDHtvVOoMAABa2fwFC+Oqv/4tdQYAQE5r2ybiobONdIHGeWZsy38PA92P/OzK61InAADkrZkfzI3b730kdQaFrshAFwAAAACA3LZqdU1cftUNqTMAAEjk7oFPxPhJU1NnAADktP8/0v1W39QlQK57tiyioaFlv4eBbkQ8MeiVGDV2XOoMAIC8dt2t98SChYtTZ1DA7HMBAAAAAMh1tw14OGbPnZ86AwCAhH7x++tTJwAA5Ly2bSKeuiDiOy7pAp9jyaqIYVNa9nsU/EC3rq4urr7xb6kzAADy3qrVNXHDnfenzqCAFVnoAgAAAACQwxYsXBx/9bsUAICC9/b7o+PlIcNSZwAAZMLDZ0d8+yupK4Bc9mpVy75/wQ90H3xiUMyYNSd1BgBAQbjnoSdj1px5qTMoUAa6AAAAAADksj/cdGdUr1qdOgMAgBzwP3+8Oerq6lJnAADkvLZtIh49J+K7e6YuAXLV6xNa9v0LeqC7prY2/njTXakzAAAKxpra2rj+9ntTZwAAAAAAAOSU8ZOmxv3/eDZ1BgAAOWLqjFlx18AnUmcAAGRC2zYRD55lpAt8umGTI2rrW+79C3qge9fAJ+LDhYtSZwAAFJSBTwyKaTNnp86gABWFC7oAAAAAAOSmX197c+oEAAByzHW33ROLly5LnQEAkAlFRREDfxBxUr/UJUCuWVUb8c6Ulnv/gh3orqyujr+43gYA0Orq6+vjDzf+PXUGBajIPhcAAAAAgBz09ojSeH3Ye6kzAADIMUuWLo9rb747dQYAQKbcd2bEXlumrgByzZAJLffeBTvQve3eRz1VCgAgkSeffyUmTJmeOoMCU2ShCwAAAABAjmloaIhf/P761BkAAOSouwY+HlOmz0qdAQCQGR2KI57/YUTvDVOXALnkdQPd5rV02fK4bcDDqTMAAAra76+/LXUCBcZAFwAAAACAXHP/Y8/G+MnTUmcAAJDDfvOnm1MnAABkykadI166OKJrx9QlQK54c1JEbX3LvHdBDnT/+vcHYtnyFakzAAAK2kuvD4tRY8elzqCAGOgCAAAAAJBLqqtXxTU33pk6AwCAHPfS68PivdKy1BkAAJmy06YRj56TugLIFatqI4ZPbZn3LriB7vwFC+PO+x9LnQEAQET87w13pE6ggNjnAgAAAJBLZs2ZF4NeeSPKqyamTgESueHO+2PBoiWpMwAAyIDLr74hdQIAQOYcsVPENcelrgByxZAJLfO+BTfQvf6O+2J1TU3qDAAAIuKt4aPi7fdHp84AAAAAAGhRCxcviVfefDeuu21AnH7xf8duXzsh9jri5Djn0iti5NhxqfOABOZ9uDBuG/BI6gwAADJi7LgJ8fhzg1NnAABkzs8Ojzh1r9QVQC54vYUGusUt87a5adaceXH3wCdSZwAA8C+u/PNtMeiBW1NnUACKwgldAAAAAFre8hUrY9TYcTG6oipKyypjdHlVzPxgbuosIMf89c77PWAeAIB1cuX1t8Wx3zgk2hUX1Me/AQCa7K7vR4ydvfYPoHANnRhRWx9R3Mwnbwvq79BuuuvB1AkAAPwfo8aOizffHRkH7rtH6hTyXZGBLgAAAADNq3rV6hhTMT5Gl1dGafnaMe7kaTNTZwE5bt6HC+PeR55OnQEAQMbMmfdh/O2+f8QPf/Dd1CkAAJnSoTji2Qsjdvl9xHLPzIOCtao2YsS0iP22ad73LZiB7uKly+KhJwalzgAA4FPcdNeDBrq0uCIDXQAAAACaoGbNmqiomhSl5Wsv45aWV8aEydOivr4+dRqQMdffcW+sqa1NnQEAQAZdf8e98b0TjoovdeuaOgUAIFO27B5xzxkRJ96ZugRIachEA931dsd9j8aq1R5zAACQi4a8PSIqxk+KnbffNnUKecw+FwAAAIDGqquri6pJU6O0bO1V3NLyyhg3frJBHdBk8z5cGA/849nUGQAAZNTyFSvjhjvui99cdlHqFACAzPnO7hE/2C/i7ndSlwCpvD4+4ueHN+97FsRAt3rV6rhr4OOpMwAA+Bx/vfOBuO2P/5M6gzzmgi4AAAAAn6ahoSEmTZvxzzFuWWWUVU7wAGigRVx36z3G/gAANMmAR56KS879fvT4UrfUKQAAmXPjyRGvT4iYsiB1CZDCW5Mj6hsi2jTjx8oLYqB736NPx5Kly1NnAADwOZ5+8bX45Y/Oiy17b5Y6BQAAAADIYzNmzYnS8sooLauM0vKqGFNRFctXrEydBRSAWXPmxf2PuZ4LAEDTrFpdE7fcMzCuuPTC1CkAAJnTqX3EY+dG7HFN6hIghWWrI0ZMi9hn6+Z7z7wf6NbW1sUt9zyUOgMAgC/Q0NAQtw54KK6+/NLUKeQpF3QBAAAACs+HCxfF+6MrorR87XXc0eVVsXDxktRZQIG6/vZ7o76+PnUGAAB54J6HnoofnfP96Na1c+oUAIDM6bdFxM8Pj7jm5dQlQApDJxrorpPHn3s55s53dxwAIAseeOy5+Pkl58aGXbukTiEPFYWBLgAAAEA+W7x0WYwaOy5KyypjdEVVlJZV+l0xkDNmzZkXA58YlDoDAIA8sbK6Om6/75H42UVnp04BAMik3x0d8fD7EVMXpi4BWtvwac37fnk90G1oaIgb7rw/dQYAAI20prY27rjvUb88oEU4oAsAAACQP1asrI7R5ZVRWlYVpeWVUVpeGTNmzUmdBfCZ/nTL3a7nAgDQrG6/99G46Affi04blKROAQDInPbFEQPOiOj/l9QlQGsbMb153y+vB7ovD3k7Jk+bmToDAIB1cNfAx+OSc06Lko4dUqeQZ4osdAEAAAAyadXqmhg7bnyMLl97FXd0eVVMnNrMvzkHaEGz5syLR55+MXUGAAB5ZmV1dfzt/n/Ej88/PXUKAEAmHdwn4twDIu4clroEaE1TFkQsqY7o1kzPOsrrge6fbxuQOgEAgHW0ZOnyuO/Rp+P8009KnUKeMdAFAAAAyH1ramujYvykT4xxqyZNjbq6utRpAOvt+tvvdT0XAIAWceuAh+OCM072IHwAgPV07bcjnhwd8eGK1CVAa3p3asQROzXPe+XtQHf4qLExuqIqdQYAAOvh1gEPx9nfOyGKi9umTgEAAAAAWkh9fX2MnzQtRldURmnZ2j8qxk+OmjVrUqcBNJsFCxfHI0+9kDoDAIA8tXTZ8rjn4SfjP848JXUKAEAmbVgS8cfjI85+IHUJ0Jrem2ag+4Vuvntg6gQAANbTnHkfxpMvvBInHnNE6hTyiAu6AAAAAGlNnjZz7VXcirXXccdWTojq6lWpswBa1N8HPh5ramtTZwAAkMduvuvBOOfUE6J9u3apUwAAMukH+0fc+kbEe9NTlwCtZUQz/vc9Lwe6s+fOj5deH5Y6AwCAJrj93kcMdAEAAAAgo2Z+MHftGLe8KkrLK2NMxfhYumx56iyAVlW9anXcNfDx1BkAAOS5BYuWxIOPD4qzTjkudQoAQGbdeVrEHn+IqGtIXQK0BgPdL3D7vY+kTgAAoInKKifGiNHlsddXdkmdAgAAAAB8jgULF8fIsRX/HORWVMWChYtTZwEk99ATg2LJUg8nAACg5d1y98D4/neOieLitqlTAAAyabfNI354cMSNQ1KXAK1h5uKIecsiNu7S9PfKu4FudfWqeOCxZ1NnAADQDP7+4OMGujSroqKiaGjweDMAAACA9bV02fIYVVb5ieu4H8ydnzoLIOfU19fHrQMeTp0BAECBmDF7Tjzx/Ctx0rFHpE4BAMis3xwVcdfbEStqUpcArWH4tIhjdm36++TdQPfhp16IFSurU2cAANAMnnnp9fjdzy6Knj26p04hTxjoAgAAADTeyurqGF0x/p9j3LLKmDZzduosgEx4bvDQmDF7TuoMAAAKyF/uuDdOPObwKCoqSp0CAJBJ3TtF/OzwiF8/l7oEaA0jDHQ/3a33evooAEC+qKuri3seejIuu+js1CnkCb+EAgAAAPh0q2tqorxyYpSW//M67oQp0z3sDGA93XzXwNQJAAAUmMnTZsbzr74ZRx16UOoUAIDM+umhETe8FrFwZeoSoKWNmN4875NXA93Xh70X02d+kDoDAIBmdNfAJ+LSC86M4uK2qVMAAAAAIC/U1dVFxfjJa6/illfG6PLKqJw4JWpr61KnAeSFd94fE6MrqlJnAABQgP76t/sNdAEAmqBT+4jfHh1xyaOpS4CW9t605nmfvBro3vnAY6kTAABoZouXLosnnn8lTjr2iNQp5AEHdAEAAIBC09DQEBMmT4vSj8e4VVFeOTFW19SkTgPIW7cOeCh1AgAABWp0RVW88c77cdB+e6ZOAQDIrIv7R/zx5YgZi1OXAC1p3vKImYsjem/YtPfJm4HutJmz45U33kmdAQBAC7jjvkcMdGkWRWGhCwAAAOS3qTNmrb2MW1YZpeWVMaZiQqysrk6dBVAwZsyaEy+9Pix1BgAABezmuwca6AIANNFlh0X86B+pK4CW9t40A92PuZ4LAJC/yionxvtjKmLP3XZOnULGFTmhCwAAAOSR2XPnR2lZZYwur4zSsqoYXVEZS5YuT50FUNBuvffh1AkAABS4IW+PiPGTpsb2226dOgUAILPO/WrElS9EzPdrF8hrI6ZHfPsrTXuPvBjoVlevioFPDEqdAQBAC/r7g48Z6NJkBroAAABAVi1cvCRGjR0XpR9dxx1dXhXzFyxMnQXAv1hdUxOPPv1i6gwAAIg7H3gs/vg/P02dAQCQWSXtIi79WsQvn0ldArSkEdOa/h55MdAd+OSgWLGyOnUGAAAt6OkXX4/fXnZR9OzRPXUKGWafCwAAAGTBsuUrorSsMkrL1w5xS8sqY9aceamzAPgCjz37cixfsTJ1BgAAxMNPvRBX/OTC6NK5U+oUAIDMurh/xNUvRSxbnboEaCkjpjf9PfJioHv3wCdTJwAA0MLq6urivn88Gz+54IzUKQAAAADQbKpXrY4xFeM/GuNWRmlZZUyZPit1FgDr4d5Hnk6dAAAAERFRs2ZNDHjkqbj47FNTpwAAZFaXjhE/PDjimpdTlwAtZeHKiPnLI3p2Xv/3yPxAd8To8pg4tRmmygAA5LyHnhwUl55/ehQ5g8p68tcOAAAAkFLNmjVRUTXpo+u4VVFaXhkTJk+L+vr61GkANFHVxCkxuqIqdQYAAHzs7oFPxA/P+m60adMmdQoAQGZd3D/i2sER9Q2pS4CWUjknomef9f/6zA90H3z8udQJAAC0khmz5sRbw0fFgfvukTqFrDLQBQAAAFpJXV1dVE2aunaMW1YZoyuqomL8pKitrUudBkAL+NsDj6VOAACAT5g9d348N3hoHHvEIalTAAAyq/eGESf2i3hkZOoSoKVUzYs4qFAHuqtrauLJF15NnQEAQCsa+OQgA13WW1EY6AIAAADNr6GhISZOnRGjyz8a45ZXRVnlhFi1uiZ1GgCtoLp6VTz+3MupMwAA4N8MeOQpA10AgCb68dcMdCGfVc5p2tdneqD75POvRHX1qtQZAAC0oudeHhrX/k91bFBSkjqFDHJAFwAAAGgO02d+EKMrqtZexy2vijEVVbF8xcrUWQAk8vBTL0T1qtWpMwAA4N+8NXxUzJw9J3r32jR1CgBAZu2/TcTum0eUzkpdArSEqnlN+/pMD3QffHxQ6gQAAFrZ6pqaePSZl+LMk49LnUIGFVnoAgAAAOtozrwPY3R5VZT+y3XcRUuWps4CIIfc/fCTqRMAAOAzDXjk6bj8x+enzgAAyLSfHBpxxr2pK4CWULAXdGfOnhPDR41NnQEAQAIPPTHIQJf1YqALAAAAfJ7FS5fFyDEVHw9yR5dXxdz5C1JnAZDD3isti/GTpqbOAACAz/Tg48/Ff//o3GjTpk3qFACAzDqpX8T5D0asqk1dAjS3KQsi6uoj2q7n3zJldqA74JGnUycAAJBIaXlVTJgyPbbbZsvUKQAAAABk1IqV1R9fxC0tr4zS8sqYMauJj0cGoODc6/MrAADkuIWLl8QLr70VRx16UOoUAIDM6tgu4qQ9Iu4bnroEaG51DRFVcyN23mz9vj6TA936+vp48PHnUmcAAJDQ/f94Jn572UWpM8gYF3QBAACgMK1aXRNjx43/xCB30tQZqbMAyLily5bHMy+9njoDAAC+0AOPPWugCwDQRGfsY6AL+apqXoENdF95451YuHhJ6gwAABJ67NmX4leXXhDtijP5Iy2J2OcCAABA/ltTWxsV4yf9c4xbVhlVk6ZGfX196jQA8szTL74eq2tqUmcAAMAXevXNd2Pu/AWxSc8eqVMAADLr0B0iem8YMXNx6hKguVXOiYivrN/XZnLNMPCJ51MnAACQ2IJFS+Kl14fF0YcdnDqFDCkKC10AAADIJ/X19TF+0rQoLa+M0eWVUVpWGRXjJ0fNmjWp0wAoAI8+82LqBAAAaLQHH38uLr3gjNQZAACZVVQU8f29I/7wcuoSoLlVzVv/r83cQHfBoiXx8tBhqTMAAMgBA58YZKDLOily0HP1LAAAIABJREFUQhcAAAAyq6GhIaZMnxWlZZUfDXKrYmzlhKiuXpU6DYACNH3mBzF81NjUGQAA0GgPPfW8gS4AQBOdvIeBLuSjyrnr/7WZG+g+/tzLUVtblzoDAIAc8Mob78SChYujR/cNU6eQEQa6AAAAkB0zZ8+J0vKqj8e4o8urYtnyFamzACAiIh55+oXUCQAAsE6mz/wg3h9TEXvutnPqFACAzOq3RcSWX4qYvih1CdCcxs1Z/6/N3ED3yRdeTZ0AAEAOeeal1+Os7x6fOgMAAACAJliwcHGMHFsRpWVrx7il5ZWxYNGS1FkA8JkeeebF1AkAALDOHn36RQNdAIAmOnUvV3Qh3yxdFTF3WcQmXdb9azM10J01Z16MHFOROgMAgBzy1IuvGujSaA7oAgAAQHpLly2PUWWVUfrRH6MrquKDufNTZwFAo707cmzMmNWEx+kDAEAiT77wSlz5i0uiXXGmPkIOAJBTTtrDQBfyUeWcAhjoPjnoldQJAADkmHfeHxPzPlwYG2/UPXUKWWChCwAAAK1qZXX1Rxdxqz6+jjtt5uzUWQDQJI+6ngsAQEYtWbo8Xh7ydhx16EGpUwAAMmuPLSK2/FLE9EWpS4DmVDUvov926/51mRroPvXiq6kTAADIQU+/+Fqce9p3UmeQAUVhoAsAAAAtZXVNTZRVTozR5ZUfj3EnTJkeDQ0NqdMAoNmsWl0Tjw8anDoDAADW26NPv2igCwDQRN/bK+IaV3Qhr1TOWb+vy8xAd8r0WTF23ITUGQAA5KCnXnjVQJdGKXJBFwAAAJpFbW1djJswOUrL1w5xS8sqo3LilKirq0udBgAt6sXX3ozq6lWpMwAAYL298NqbsWTp8ujWtXPqFACAzDp6FwNdyDdTFqzf12VmoPvUC67nAgDw6UaMLo+ZH8yN3pttkjqFHGefCwAAAOuuoaEhJkyeFqVllVFasXaMW1E1KVbX1KROA4BW9+jTL6ZOAACAJnvxtTfj5OO+mToDACCzDtw2olvHiCWe5Qd5Y+bi9fu67Ax0XzTQBQDgsz3z0uvxH2eekjoDAAAAIPOmzpgVpWUfXcYtr4wxFRNiZXV16iwASG7BwsXxypvvps4AAIAme+blIQa6AABNUFQUccyuEQ+MSF0CNJdZ+TzQnTJ9VlROmJI6AwCAHPb0C68a6PKFipzQBQAAgE+YPXf+2su4Hw1yR1dUxpKly1NnAUBOGvTqG6kTAACgWQwZ9l4sX7EyOnfaIHUKAEBmHdPXQBfyyZylEWvqItq1Xbevy8RA9x/PvJg6AQCAHFdaXhUzP5gbvTfbJHUKOcxAFwAAgEK2cPGSGDV23NpBbnlVlJZVxocLF6XOAoDMGDR4aOoEAABoFmtqa+OF196ME485InUKAEBmHb1L6gKgOTXE2pHuFl9at6/LxED38UGvpE4AACADnhg0OC4557TUGeQwA10AAAAKxbLlKz4a4q69jFtaVhmz5sxLnQUAmbV8xcoY+s77qTMAAKDZPPvyEANdAIAm6NIxYu8tI96bnroEaC4zF+fhQLe8amJMnTErdQYAABnw9IuvGejyucxzAQAAyFfjJkyO4aPGxvBRY2N0eVVMmjojdRLQSEX+qRVkwvOvvhn19fWpMwAAoNm8+sa7Ub1qdZR07JA6BQAgsw7uY6AL+WTW4nX/mpwf6D7z0uupEwAAyIiyyokxbebs2Kp3r9Qp5CgXdAEAAMgH1atWx8gxFTF81Nh4r7Qs3h9TEUuXLU+dBaynhmhInQA0wnODh6ROAACAZrWmtjZeev2tOO6bX0+dAgCQWQdvF3Hdq6krgOYyMx8Hui+89lbqBAAAMuSF196KC04/KXUGOcpAFwAAgHxwxTU3xgOPPZs6AwAKRvWq1fHqG++mzgDIlJKOHaJb1y6xYbcu0b1bt4//7y916xqdO20QHTq0j5IOHaJjxw7RoX376NixQ3Ts0D46dmj/qe9Xs6Y25sz7MOYvWBjzFyyK+QsWxYcLF8W8+Qti/oJFsWjJ0lb+dwiQH154zUAXAKApvrZd6gKgOc1ctO5fk9MD3bnzF0TVxCmpMwAAyJCXhwwz0AUAAAAAAJrN4KFvx5ra2tQZADllx+22iS16bRa9NukZm23SMzbbeKPYfLNNYpONe8Tmm24SJR07tHrT7LnzY/6ChfHhgkUxZ96HMe/DhTFvwcKYN39BzJ47P0rLKlu9CSDXvfLGO9HQ0OCB5wAA66lLx4i+vSLGzk5dAjSHWUvW/WtyeqA7aPDQ1AkAAGTM2yNGx8rq6tigpCR1CjnIL5QAAAAAAFhXz/n8ClDAOrRvH7vtvH3stN2XY5cd+8QuO/SJPXfbOXXWp+q1Sc/otUnPz31NedXEKKucEGMqJnz0r1WxanVNKxUC5J5ly1fEe6VlsU+/vqlTAAAyq38fA13IF3l3QffloW+nTgBoFZtt0jO+vFXv2HarLWKzTXpGpw1KonOnDaLTBiXRqdMG0amk5JN/7qM/li1fEctXrIwV1dWxYmV1rKxeFcuXr4jlK9b+/8tXrowVK1bG9FkfxKSpM2LytJmxaMnS1P92AVpUfX19vPLGu3HsEYekTiEX2ecCAAAAALAOatasiRdfezN1BkCr2Xij7rHfnl+JfffoG3t9ZdfYbeftUyc1q112WDsyPuW4Iz/+c+MmTI6xFeNjdMX4KC2vjJFjKhIWArS+wUPfMdAFAGiCfbeOuMkz/iAv5NUF3epVq+PNd0emzgBoNl06d4ptt94itt1qi+izzZax7dZbxFa9e8X2224dHTu0X+/37NK50zp9zbLlK6Jy4pSYMm1mTJ4+MyZOmR4Tp86IqolT1qsBIBcNHvq2gS6fygVdAAAAAADWxZBh77msCOS1rl06x9GHHRxf3adf7Nuvb/TutWnqpFa303Zfjp22+3KcfNw3IyJixcrqGPbeqHhr+Kh4492RUTF+UuJCgJY1eOjb8cv/PC91BgBAZu2zdeoCoLnMXBTR0BCxLh85z9mB7pC334s1tbWpMwDWW4/uG8ZX9+4XX92nXxy4zx7x5a16p06KiLWj3r133zX23n3XT/z5urq6GFMxPt4cPjLefHdUvFc6NqpXrU5UCdA0r7zxTjQ0NBhj8m+KnNAFAAAAAGAdPDf4jdQJAM1u4426x5FfPyiOPuzgOGDv3aNt27apk3JKpw1K4vD+B8Th/Q+IiIgPFy6K5wYPjUGD34hhI0ZFbW1d4kKA5jVuwuSYPXd+9NqkZ+oUAIBM2n7jiG4dI5asSl0CNNWa+ogPV0T07Nz4r8nZge7LQ95OnQCwTjp32iD232v3OGjfPeKr+/SLnbffNnXSOmnbtm3067tT9Ou7U1xyzmkREfH2iNJ4892RMfSd92PE6PLEhQCNt2DRkhg5dlzsudvOqVPIMUbbAAAAAAA0VkNDQ7w8ZFjqDIBm0a1r5zjluCPjqEMPjn336Js6J1M26v6lOPPk4+LMk4+LpcuWx/OvvhGPP/dKDH1nROo0gGYzeOjbccZJ30qdAQCQWftsHfFyZeoKoDnMXJQnA93nX/EEUiD3fWXnHeKbXz8wDtpvz7wcge2/1+6x/167x2UXnR0rq6vjreGjYug778ezLw+JOfM+TJ0H8LleHjIsL/+3GQAAAAAAaB2jK8bHwsVLUmcArLfi4rZx6EH7xcnf+mYc0f+AKC52KbepunZZO3Q+5bgjY9acefHQk8/Hw08+HzNmz0mdBtAkr775roEuAEAT7LOVgS7ki1lLIvpt0fjX5+RAt7S8KhYtWZo6A+DftGnTJvbt1zeOOuzgOOqwg6PXJj1TJ7WaDUpK4vD+B8Th/Q+IK39+SZSWVcZzg4fGoFeGxuRpM1PnAfybl4e8Hb+45NzUGeQYB3QBAAAAAGisV998N3UCwHrZbpst49TvHBMnHXNE9Oi+YeqcvLX5phvHTy88M3564Znx+rD34pZ7Hoo33nk/dRbAehn6zvtRW1vnYQ4AAOtp361TFwDNZeaidXt9Tg50Bw8ZljoB4BO6de0cp33nmDjvtBNj0403Sp2TE3bfdcfYfdcd4/Ifnx/vjhwbf7v/0Xj+1Tejvr4+dRpARERUjJ8Us+fOL6iHKfDFiix0AQAAAABopFffeCd1AsA66bvTdvGf550eRx16kN+LtbJDDtg7Djlg7xg/aWrcdNeD8cTzr0RtbV3qLIBGq65eFSPHVsQ+/fqmTgEAyKRde6UuAJrLzMXr9vqcHOi+PPTt1AkAERHRZ+st45zTvhPfPf7I6NihfeqcnLXvHn1j3z36xszZc+LOBx6LB58YFMuWr0idBRAvDxkWZ558XOoMcogPIgAAAAAA0BhLly2P98dUpM4AaJQ9dts5Lj3/9Djs4P1TpxS87bfdOv76v7+MX/7n+XHbgIfj3kefjupVq1NnATTKG++8b6ALALCetukR0aE4YnVt6hKgqeYtW7fXt2mZjPW3cPGSGFMxPnUGUOAO3HePuP/mP8QbT98bZ51ynHFuI/XutWn85rKLYtTgf8TvfnZxbNFr09RJQIEbPNST7fmkojDQBQAAAADgi7321vDUCQBfaN89+sYjd1wXz91/i3Fujtl0443iN5ddFCMH/yP+64c/iG5dO6dOAvhCQ94ekToBACDTdt0sdQHQHBZXr9vrc26gO3iI67lAGsXFbePEY46IVx+7Kx7925/j0IP2S52UWZ02KInzvn9ivP3cA3HHn34T/frulDoJKFBvvPN+1NbWpc4ghzigCwAAAABAY7z65rupEwA+01d23iEeuOWaePKeG+Og/fZMncPn2LBrl/jphWfGqMGPxc8vPid1DsDnGjl2XKysXsdPogMA8LFdDHQhLyxauW6vz7mB7lvvjUqdABSYtm3bxqknHB3Dn38obrzql7HTdl9OnZQ32rZtG8cecUgMeuDWePiOP8Xuu+6YOgkoMKtramLk2IrUGeSQIgtdAAAAAAAaYfDQd1InAPybHfpsE3+//sp44aHb4+sH7ps6h3VQ0rFD/Pj802PES4/EIQfsnToH4FPV1dXFm+/6HDcAwPra2UAX8kLmB7qveAIp0EqKiorihKMPi2HP3B/X/eay2GyTnqmT8trB++0Vzz94Wwz461VG0ECremu4XxwAAAAAAACNN3bchFi4eEnqDICP9ezRPW686pfx+uN3x1GHHpQ6hybYfNONY+Bt18Zdf7kyNt9049Q5AP9myNsjUicAAGTWzpumLgCaw+LqdXt9Tg10p86YFQsWLk6dARSAow87OF5/4p64+epfxZa9PaakNR1xyAHx6mN3xa3XXOE/e6BVvPWegS7/wgVdAAAAAAC+wKseLg/kkDNO+lYMe/b+OPGYI1Kn0IyO/PpBMfSpAXHhGSdHmzY59TFOoMD5nA0AwPpzQRfyQ6Yv6LpuBrS0ffr1jecH3h53/vl3sf2Xt0qdU9COP/LQeOvp++Pqyy+Nnj26p84B8tiI0vKora1LnUGOKDLQBQAAAADgCxjoArlgu222jGfvvyWuueIn0bnTBqlzaAEblJTEr//rh/HiQ3fELjv0SZ0DEBERVROnxPIV6/hpdAAAIiJiq+4RxTm11APWR6Yv6HrqEtBSturdK+698ap4asCNsfsuO6TO4SPFxW3jrFOOi3efHxiXXXR26hwgT62uqYn3RpelziBH2OcCAAAAAPB5lq9YGcNHjU2dARSw9u3axWUXnR2vPHZX7LnbzqlzaAW77tgnBj96Z1z+4/NTpwBERMTbI0pTJwAAZFJxm4gtvpS6Amiq+oaIpasa//qcGugOfef91AlAHjrn1BPi9SfuicP7H5A6hc9Q0rFD/OSCM+L1x++OnbffNnUOkIeGDfcgGNYqCgtdAAAAAAA+27vGuUBC22y5ebzw0O3xkwvOiHbFxalzaGUXn31qvPDQ7bFV716pU4AC52diAID1t+1GqQuA5rBoZeNfmzMD3QlTpseChYtTZwB5ZItem8ZTA26M3//iR9GxQ/vUOTTCDn22iRcfuiMuu+jsKC5umzoHyCNvGejykSIndAEAAAAA+BzvjBidOgEoUMcc3j8GP3pn7LTdl1OnkNBXdt4hXnvsrjjluG+mTgEK2PCRBroAAOvLQBfyQyYHukYTQHM665TjYsiTA2Kffn1Tp7COiovbxk8uOCMGPXBb9Nl6y9Q5QJ4YXloWq1bXpM4AAAAAAABy3Lsjx6ROAApM+3bt4upf/jj+dt1vY4OSktQ55ICSko7xlyt/Edf/7ucuKQNJjBw7Lmpr61JnAABk0rY9UxcAzWFxdeNfmzMD3WHvGegCTdej+4bxwC3XxNWXXxolHTukzqEJ+u60Xbzy2N/jvO+fmDoFyAN1dXUxorQsdQY5wAVdAAAAAAA+y6rVNTFy7LjUGUAB2XzTjePZ+2+Js757fOoUctB3jz8ynr73pujRfcPUKUCBqauri/fHVKTOAADIpO0MdCEvZPKC7pC3R6ROADLu8P4HxNAnB8TXD9w3dQrNpH27dvG7n10cj9xxXfTs0T11DpBxb3kgDBFhnwsAAAAAwGcZNbYi6upcCgNaxyEH7B2v/OOu6LvTdqlTyGG777pjDH7kzth1xz6pU4ACM3zUmNQJAACZtLlnLEFeyNxAd9yEybF02fLUGUBGFRe3jd//4kdx741XRfcNu6XOoQUctN+e8foTd8dX9+mXOgXIsLeGG+jigi4AAAAAAJ/t7feNEIDWcck5p8WDt/4xunXtnDqFDNh0443imftuiROOPix1ClBA3istT50AAJBJvUxaIC8srm78a3NioDvsvdLUCUBG9ezRPZ4ecFOcc+oJqVNoYd037BaP3HFd/PAH302dAmTUe6VlUb1qdeoMEjPQBQAAAADgs7zz/ujUCUCeKynpGPfeeFX88j/P83sr1knHDu3j5qt/Ff/z0//w1w7QKkaOrUidAACQSb26Rfi7Nsi+zF3QHT5qbOoEIIN233XHeO2xu6Jf351Sp9BK2rRpE1dcemHc+effRUlJx9Q5QAaVlo1LnUBiRf6xBwAAAAAAn6K+vj6Gj/T5FaDlbNW7V7z08B1xeP8DUqeQYf9x5inx0O3XRudOG6ROAfLcgoWLY+bsOakzAAAyp6goYpMuqSuApsrcQHfkGE9ZAtbNsUccEk/fe1P06L5h6hQSOPqwg+P5B26Nnj26p04BMmbkGANdAAAAAADg340ur4rVNTWpM4A8teuOfeLFh+6IPltvmTqFPHDwfnvFs/fdHN037JY6Bchzo8oqUycAAGRSLzMXyLzFWRroLli0JGZ+MDd1BpAhF539vbjjT7+JdsXFqVNIaIc+28QLD90e2269ReoUIEPe92CYglfkgC4AAAAAAJ/inZFjUicAeeqAvfvFUwNujG5dO6dOIY/s0GebeOreG2PTjTdKnQLksVFjPQgfAGB99PI8Jci8RdWNf23yge7wUX7BATROUVFR/Pm3P4tf/fiC1CnkiF6b9IxBD9wae+62c+oUICOGl45NnUBqFroAAAAAAHyKd94fnToByEOHHbx/PHT7tbFBSUnqFPJQn623jGfuvSl6b7ZJ6hQgT40qM9AFAFgfBrqQfStWN/61yQe6rpgBjXXXX66M7337qNQZ5JiuXTrHs/ffEt/42ldTpwAZsGDh4pg1Z17qDBIqMtAFAAAAAOBTDB/pIZ9A8/rWN74W9910dbQrLk6dQh7r3WvTeHLAjbHxRt1TpwB5qLSsMurr61NnAABkTo9OqQuAplpd2/jXJh/ojhrj6UrA5ysp6RhPDbgxvvm1A1OnkMPuuv7KOOHow1JnABkw0gNiCpqBLgAAAAAA/9fM2XNi8dJlqTOAPNJ//73i5qt/lTqDArH5phvHY3f9Jbp26Zw6Bcgzq1bXRNWkqakzAAAyx0AXsq+mrvGvTTrQra+vj5FjDSSAz/albl3jqXtujH369U2dQo5r06ZN3HTV5XHe909MnQLkOAPdwmaeCwAAAADA/zW6YnzqBCCP7PWVXeKev14VxcVtU6dQQPpsvWU8dNu10aF9+9QpQJ4Z62dlAIB1ZqAL2VeTlQu64yZMjlWra1ImADmsZ4/u8fR9N0XfnbZLnUJGFBUVxe9+dnFcesEZqVOAHPa+gW5Bc0EXAAAAAID/a0xFVeoEIE/suN028eCtf4yOHYwkaX39+u4Ud/zpN6kzgDxTVjUxdQIAQOYY6EL2rc7KQNc4AvgsG3btEk/e89fos/WWqVPIoJ9ddHace9p3UmcAOWrsuPFRX1+fOgMAAAAAAMgRY1wFA5pBjy91i4du+1N06exTuKRzxCEHxM8vPid1BpBHKsZPSp0AAJA5BrqQfTV1jX9t0oHuSANd4FN06dwpHrvrL/HlrXqnTiHDrvz5JXHGSd9KnQHkoFWra2Js5YTUGSTigi4AAAAAAP+XB8wDTVVc3Dbuu+kPsUnPHqlTIH58/ulx6EH7pc4A8kR5pQu6AADrykAXsq8mMxd0R/sFB/BJJR07xKN3/jl23n7b1CnkgT/86tI4/shDU2cAOWjUmHGpE0jEQBcAAAAAgH8184O5sWz5itQZQMZd9+vLol/fnVJnwMduv/bXsVXvXqkzgDyweOmymDt/QeoMAIBM6W6gC5mXiQu6y5aviIlTp6f69kAOKioqirtv+N/4ys47pE4hTxQVFcVNV/0yDti7X+oUIMd4En7hss8FAAAAAOBfjakYnzoByLjvn3hMnHzcN1NnwCd02qAk7rnhf1NnAHmiYvyk1AkAAJlS0i51AdBUq9c0/rXJBrojx7paBnzSlT+/JPrvv1fqDPJM27Zt454bfh9f3qp36hQgh5SWVaZOIBEXdAEAAAAA+FdjKqpSJwAZtu3WW8SVP/9R6gz4VDtut01cffmlqTOAPDBu/OTUCQAAmdK5Q+oCoKkycUG3vGpiqm8N5KBTjjsyzjn1hNQZ5KkunTvFwFuvjW5dO6dOAXLExKnTo2bNOjzWhrxRFAa6AAAAAAD8kwu6wPpq27Zt3PKHK6Jjh/apU+AznXXKcXHoQfulzgAyzgVdAIB117E4dQHQFJkY6FZO8DQlYK3+++8Vf7ny56kzyHNb9t4s7rnhqtQZQA4Z5+dRAAAAAAAoeCNGl6dOADLqsh/+IHbbefvUGfCFbrr68ujZo3vqDCDDfMYGAGDddXJFFzJvTSNHuskGuv5mDYhYO5q840+/SZ1Bgdhvz93i6ssvTZ0B5AgPjClMRUUu6AIAAAAAsNasOfNi2fIVqTOADNpjt53jP8/7fuoMaJQNu3ZxPAFokolTpqdOAADInA3apS4Ammp1beNel2SgW19fH5UTp6T41kAO6dihfTxwyzXRtUvn1CkUkLNOOS5OOe7I1BlADhg33kC3IBnoAgAAAADwkfLKiakTgAxq06ZN3PD7X6TOgHXy9QP3jcP7H5A6A8iomjVrYsasOakzAAAyxQVdyL6aXB7oTpo2M2prG3njF8hbt1xzRfTZesvUGRSga3/90+i703apM4DExk3wwJhCZJ8LAAAAAMD/N37y1NQJQAadd9p3fN6FTPrtZRdFcXHb1BlARk2c6oouAMC66GygC5lX08j5a5KB7rjxk1J8WyCHXHT29+LIrx+UOoMC1a64OO7561WuN0OBGzfBBd1CVGShCwAAAADARyZMnpY6AciYnj26x88vOTd1BqyXbbbcPC4845TUGUBGTZo6I3UCAECmGOhC9uX0BV1jCChsO263TfziYr+sIK1em/SMG37/i9QZQELzFyyMRUuWps6glRnoAgAAAADw/4030AXW0f/+94+ipKNP2JJdP7ngjOjZo3vqDCCDJrmgCwCwTrr4xweQeasNdIFc1KF9+/jbdb+N4uK2qVMgvvm1A+Pkb30jdQaQUEXVpNQJtLKiMNAFAAAAAGCtqklTUycAGbLHbjvHsUcckjoDmqSkpGP85MIzU2cAGTTRBV0AgHXSpWPqAqCpauoa9zoDXaBV/ea/fhh9tt4ydQZ87OrLfxybb7px6gwgkcqJU1InAAAAAAAACXwwd35UV69KnQFkyB8uvzR1AjSL0088JrbYfNPUGUDGTDLQBQBYJ10NdCHzanL1gm519aqYPvOD1v62QA445IC946zvHp86Az5hg5KSuPkPV6TOABLx4JjCU+SALgAAAAAAETFhyrTUCUCGnHD0YdF3p+1SZ0CzaNu2bfzyR+elzgAy5oO582N1TU3qDACAzHBBF7KvvqFxr2v1gW6FEQQUpA1KSuLPv/1Z6gz4VPvu0Td+8L1vp84AEjDQLTxFFroAAAAAAETE+EkGukDjtG/XLq649MLUGdCsjj/y0Nhlhz6pM4CMmTxtZuoEAIDM6NIhdQHQVG0a+bHzVh/ojhtvBAGF6DeX/TA226Rn6gz4TFdcemFsuvFGqTOAVmagW3gMdAEAAAAAiIiYMNlAF2ic00861ucJyEs/Ove01AlAxsyYNSd1AgBAZnR1QRcyr00jl7etPtCtmjSltb8lkNg+/frG6ScemzoDPldJxw7xlyt/kToDaGXV1av88qDAGOgCAAAAABBhoAs0Ttu2beOSc4wYyU/HHN7f+BxYJzNm+4wNAEBjlbRPXQA0VbtcHehOmTaztb8lkNhNV12eOgEapf/+e8Upx30zdQbQyqbM8PNpITHPBQAAAAAgImL8FANd4IuddOwRsUnPHqkzoEW0adMmLj771NQZQIbMmPVB6gQAAIBW065t417X6gPdqTNnt/a3BBL68fmnxxabb5o6AxrtiksvjJKOHVJnAK1o6gw/nwIAAAAAQCFZWV0dCxYuTp0B5LiioiLXc8l7p55wdHTr2jl1BpARLugCADRefX3qAqCpinN1oDtl+qzW/pZAIhtv1D1+5BcVZEyP7hvGf553euoMoBVN8wCZwlLkhi4AAAAAQKGrGD85dQKQAUcdelB8eaveqTOgRZV07BCnfeeY1BlARhi9E8+vAAAgAElEQVToAgA03pq61AVAU+XkBd2ZH8yNeo8AgILxq0svjJKSjqkzYJ1deObJ0XuzTVJnAK1kmgu6BaXIQBcAAAAAoOB5eCfQGGedcnzqBGgV3z3+qNQJQEbMmGWgCwDQWGvM5yDzcnKga/wAhWP3XXaIk449InUGrJcO7dvHFT+5MHUG0Eqm+hm1oBjoAgAAAABgWAB8ka232DwO3HeP1BnQKrbbZsvYe/ddU2cAGbB46bKoXrU6dQYAQCa4oAvZ166Ry9tWHehOnTGrNb8dkNDPLzk3dQI0ybFHHBLbb7t16gygFUyaOj11Aq3IPhcAAAAAgBmzDXSBz3fGyd9KnQCt6tQTjk6dAGSEY00AAI1joAvZl5MXdF0ng8Kw64594pAD9k6dAU1SVFQU//UfZ6XOAFrBqtU1sWDRktQZtBIXdAEAAAAAMNAFPk/7du3i+985JnUGtKpvfeOQKCnpmDoDyIBZc+elTgAAyAQDXci+4lwc6E6baaALheC/f3Re6gRoFscc3t8VXSgQ02bMSp0AAAAAAAC0khmzDHSBz3bkoQdFl86dUmdAq9qgpCSO/PqBqTOADJg778PUCQAAmVBbn7oAaKocvaBr+AD5btcd+8TXD9w3dQY0i6Kiorj0/NNTZwCtYOoMD5IpFEXhgi4AAAAAQCFraGhwQRf4XMcecUjqBEji6MP6p04AMmDO/AWpEwAAMsEFXci+4kYub1t1oDtluoEu5LtfXHJu6gRoVscfeWhsu/UWqTOAFjZtpoFuoSgqMtAFAAAAAChkc+Z9GHV1Ph0HfLqOHdrHEYcckDoDkjjs4P2iY4f2qTOAHOeCLgBA4xjoQra1W4fVbasNdBcuXhLLV6xsrW8HJLD9tlvHoQftlzoDmt1FP/he6gSghRnoFg77XAAAAACAwuZ6LvB5jjz0oGhXXJw6A5Jo365dHN7fQB34fHPmG+gCADRGrYEuZFq7to1/basNdKfNMHqAfPfTC89MnQAt4qRjvxGb9OyROgNoQVNnzEqdQCtxQRcAAAAAoLAZ6AKf57hvfD11AiR19GEHp04ActzceQtSJwAAZMKy1akLgKYozsWB7lQDXchr22y5eRxzeP/UGdAiiovbuqILeW76LB/GKRQGugAAAAAAhW2G3wkAn6GkpGN842tfTZ0BSR3ef/9o06bVPlYKZJALugAAjbOkOnUB0BTtc3Gg+8Hc+a31rYAELvrB9/zDWfLa9088Nrp17Zw6A2ghH8ydHw0NDakzaAUGugAAAAAAhc0FXeCzHLzfnqkTILkNSkpi7913SZ0B5LC58xf4jA0AQCMsXZW6AGiKTh0a/9pWW9PN/XBBa30roJWVlHSMbx91aOoMaFElHTvEt4/01znks3kfLkydAAAAAAAAtLBZH8xNnQDkqMMP3j91AuSEr31139QJQI6bv2BR6gQAgJxnoAvZ1iUnB7rzDXQhX33riK/FBiUlqTOgxZ1y/FGpE4AW5OdVAAAAAADIfx/M+zB1ApCjvvn1g1InQE742lf3SZ0A5LgFixanTgAAyHkGupBtXTs2/rWtNtCdZ/AAeet73zZapDDsvssO0WfrLVNnAC1k3od+Xi0ERUVFqRMAAAAAAEhowULXvoB/t+uOfaLHl7qlzoCcsNvO2/vvA/C5Fiw00AUA+CJL/h979x1mZ10mfPye9DoJgZBCeiWNEgJIkfbCsq917WtbG+uuWNe2rl3Rl0VdLAsoFkSQLh1EpPdOqCGQkBAS0vv0/v4BSgiTMEPOOb/nPOfzuS6uiTpzni/XxeCZeZ77dzekLgB2xeAsDuiuMfAAuTRm1Ig4eO6c1BlQMh9891tSJwBFYoNuZTCgCwAAAABQuTo6OmLDpi2pM4AMOvqwg1MnQKYceuD+qROADNu42XtqAIDXYoMulLdMbtA18AD59KF3vzV1ApTUe97yD6kTgCJZs35j6gRKwIAuAAAAAEDlWm97LrAD8/adlToBMmX/OTNSJwAZttGhNwAAO9XeEdHQkroC2BWZG9BtaGiMunq7uSGP3vO241MnQEntPmxoHHnIvNQZQBGsdaBMRTCfCwAAAABQudZtMKALdG7efgZ0YVsH7DMzdQKQYRts0AUA2KlN9akLgF01OGsDuqsNO0AuHbDPzBg9YnjqDCi5d7zp/6ROAIpgjfesAAAAAACQazboAp2ZPGFsDBs6JHUGZMqcGdOiyunHwA7YoAsAsHMGdKH8ZW6DrmEHyKd3vfm41AmQxJuPPTJ69eqZOgMosDXrvWetBG4iAwAAAABUrvUbNqdOADJo3r6zUydA5vTv1zdm7z0ldQaQURtt0AUA2KlV3i5B2Rvct+ufW6IB3fWluAxQYu9487GpEyCJQQMHxPFHHZY6AyiwtQ6VqQhVYUAXAAAAAKBSrbNBF+jEgfvNSp0AmTR3zszUCUBG2aALALBzq7amLgB2VXX/rn+uDbrA6zJv31kxtHpw6gxI5tgjDkmdABSYDbqVwQZdAAAAAIDKtX6DAV3g1ebMmJY6ATJp76mTUicAGbVla03qBACATFvpPBMoe9X9uv65pRnQNewAuXPUYQelToCkjj3iDakTgAJrbW2LDU74zD3zuQAAAAAAlWudAV1gO1VVVTFjmiFE6MxM3xvADmypqU2dAACQaas8jgxlb3Dfrn9uSQZ0167bWIrLACV01KEHpk6ApPYYtltMnTgudQZQYGsdLJN7NugCAAAAAFSu9RsN6AKvNHXS+Ojdq1fqDMik2XtPSZ0AZFRtXX3qBACATFu1NXUBsKsyt0F342aj/5AngwcNjLlzZqTOgOSOOGRe6gSgwDbaoJt7BnQBAAAAACrXBgO6wHYMIMKODejfP/YauWfqDCCDauvqUicAAGTays2pC4BdNThrA7pba2pLcRmgRI469EDDLRARRx92UOoEoMBq3EAAAAAAAIDc2uCAeWA7s6YZ0IWd2XvqpNQJQAY1NjVHe3t76gwAgMyyQRfK35D+Xf/c0gzo1hp0gDw55IB9UydAJhw8dx/D6pAzW2u8b80//94GAACg/HkAEgBen9ra+tQJQMbsPXVi6gTItCkTxqZOADJqi+VNAAA7tMo5gVD29hjY9c8tyYBujQFdyJWDD9gndQJkwqCBA2KGk0IhV7xvzT/nKgAAAJAH7e0dqRMAoCzV1hnQBV5pwti9UidApo0bMyp1ApBRDr8BAOhcXXPEpobUFcCu6N0jYnC/rn++AV2gWwb07x8zp01OnQGZYWAd8mWr0z1zz+ZzAAAA8sGALgB0V3t7e7S0tqbOADJmvOFD2KnxY0anTgAyqqbOs+EAAJ1ZtDZ1AbCr9hravc8vyYCuE0ghPw49cL/UCZApb5hrQBfyxMEy+WdAFwAAgDxob29PnQAAZWfz1prUCUDGjN1rZPTs2TN1BmTa2L0MsQOdq7FBFwCgUwZ0ofyNqO7e5xd9QNcWMsiXg+fOSZ0AmXLgfrNTJwAF5HTP/DOgCwAAQB60t9ugCwDdVVfXkDoByJgJY/dKnQCZN3b0yNQJQEbV1RvQBQDozKJ1qQuAXTVicPc+34Au0C0zp01OnQCZMmrE8Bha3c3/9wUya2uNAV0AAAAg+zrCgC4AdJdDOoHtTTSgC6+pf7++MWL47qkzgAxqaGxKnQAAkEk26EL5y96Abq0bHJAnBnTh1WZMnZQ6ASiQGu9dc88CXQAAAPKgo8OALgB0V22dDV/AK40euWfqBCgLe+4xLHUCkEFNTc2pEwAAMukZA7pQ9kZUd+/zS7BB15AD5EX14EExcs89UmdA5uw9zYAu5MXWmtrUCRRZVZjQBQAAoPy1tralTgCAsmNAF9ieoUPomuG7+14BXq2xyQZdAIDOLFqXugDYVZnboFtTa8gB8mL29CmpEyCT9p4yMXUCUCA26OZflRW6AAAA5EBbmwFdAOiuuvqG1AlAxhjQha4ZvvtuqROADLJBFwDg1WqbItYZo4Oyl7kB3a2GHCA39p5qSyh0xoAu5EeN0/Nzz4AuAAAAedBqQBcAus0GXWB7toJC1+w+bGjqBCCDGmzQBQB4lYVrUhcAhTCiunufX/wNujUGdCEvxo8ZlToBMmn8mNGpE4AC2Vrj2Kq8M58LAABAHrS1tadOAICyY0AX2J4NutA1htmBztigCwDwao+9kLoAKITMbdCtqTOgC3lhCBE6t+cew6Jnz56pM4ACqKtvSJ0AAAAA8Jra2w3oAkB31RjQBbYzYvjuqROgLAzffbfUCUAGNTUb0AUA2N785akLgELI3Abd1ta2Yl8CKJFxNuhCp6qqqmLi2L1SZwAF0uiEz3yzQhcAAIAcaG1z/w0AuqvZAAGwjSHVg6LKfSPokupBA1MnABnU2NiUOgEAIHPmr0hdAOyq3j0ihvbv3tcUfUC3vaOj2JcASmTS+DGpEyCzxu41MnUCUCBNBnRzzYMWAAAA5EFbmw26ANBd7e2eXwFeNniggUPoqkEDB6ROADKoqaUldQIAQOY8bIMulL2R3dyeG1GCAd2Odg8IQB4MGzok+vbpkzoDMmvsaAO6kBfNLQZ086wqDOgCAABQ/lo8AAkA3dbe4fkV4GWDbQSFLhs4wIAu8GrNzX4/BQCwrWfWRjR4iwRlb9SQ7n9N0Qd02wzoQi7svtvr+DcMVJBhvkcgN2zQzTcLdAEAAMiDltbW1AkAUHY6bNAFtlE92IAudNXAAf1TJwAZ5AA5AIBXmm97LuTC+GHd/5qiD+i2G9CFXDB8CDs3bKjvEciLJid85lqVCV0AAAByoKXFgC4AdJfnV4BtDRpoQBe6atBAG3SBV2v2+ykAgFeYvyJ1AVAIE3fv/teUYEDXCaSQB8OGDk2dAJm229Dq1AlAgTQ126CbZwZ0AQAAyAMbdAGg+9o7PL8CvMwGXeg6A7pAZ2zQBQB4JRt0IR8mZHNA1wmkkAc26MLO7WaDLuRGsw26AAAAQMa1GtAFgG7rMKALbKNvnz6pE6BsDBzQP3UCkEE26AIAvKy9I+LuJakrgELI6AZdA7qQB0OHDE6dAJm2uwFdyI0mA7q5ZoMuAAAAedDiAUgA6DbPrwDbcs8Iuqd3r16pE4CMsUEXAOBlj70QUducugIohExu0G1zgwOACmCIHfKjqbkpdQJF5FELAAAA8qDFBl0A6LZ2G3SBbfToUfTH5iBX+vXrmzoByBgHyAEAvOy2RakLgEKxQRcomvY238uwM7sNsUEX8qLZBt1ccxo6AAAAeWBAFwC6r8PzK8A23DKC7unbp0/qBCBj/H4KAOBlty1OXQAUwsjBEX17df/rij+g6wRSyAXbsGHnhlQPMvQFOdHY1Jw6gSLy72oAAADyoK21LXUCAJSd9nbPrwAvqwr3jKA7+tugC2ynpcUB+AAAf2ODLuTDxD1e39cVf0DX1k3IhbY2D/vAaxk2tDp1AlAANujmmwFdAAAA8sCGEgDovvYOz68AL3PPCLqnX18bdAEAADrzxMqIjfWpK4BCmDDs9X1d8Qd0bd2EXLBBF17bbkOGpE4ACqDZCZ8AAABAxrXaoAsAALuko8NWbeiOvgZ0ge057AIAICIiblucugAolMxu0O3Ro+iXAEqgoaExdQJkXq/ePVMnAAXggJmcc38IAACAHLBBFwC6r1dP9/KAlzU1N6dOgLLiOVAAAIDO3W5AF3Ijsxt0e/fuVexLACVQb0AXXlNdfUPqBKAAevfunTqBIqpygisAAAA54IAxAOi+Xr08vwK8rLnFoTfQHc0tLakTgIzp7f01AEC0tUf8ZUHqCqBQJu7++r6u+AO6fgCDXGhobEqdAJlXb0AXcqGPA2ZyrcoKXQAAAACAitTHAZ3ANloMG0K3NDf7ngFeyfPhAAARdz4bsdUuPMiNiXu8vq+zQRfokoZG7xrgtdg0Dflgg26+2aALAAAAAFCZevXqmToByBAbdKF7WnzPANvpZUAXACCueSJ1AVBIE4a9vq+zQRfoEht04bX5PoF86O0BnVwznwsAAAAAUJls0AW21dzcnDoBykqT7xlgO56vAQAwoAt5Mmn3iJ6vc9K2BBt03eCAPGiwGRR2qq6+IXUCUCDev+abDboAAAAAAJXJhi9gW7aBQvc0N7ekTgAypldv768BgMr23IaIhWtSVwCFMnPU6/9aG3SBLqk3oAs7ZUAX8qOPGwgAAAAAAJA7vf3+H9hGc4thQ+iOZkPtwHY8Hw4AVLorHktdABTSzJGv/2tLsEHXD2CQBw2NBnRhZwzoQn7YoJtvNugCAAAAAFQmAwTAtmzQhe5pbmlOnQBkTM+ePVMnAAAkdc3jqQuAQpplgy5QbFtralMnQKZt8T0CuWFAN98M6AIAAAAAVCa//we21dhs2BC6o7W1LXUCkDGeDwcAKtmm+oibnkldARTSzEwP6NqgC7nQ2NQcGzZtSZ0BmbX8hVWpE4AC6d3LCZ95ZjwXAAAAAKAy+f0/sK3NW7amToCy0dDYlDoByKBe3l8DABXs4odTFwCFts/o1/+1NugCXbZi1erUCZBZy1f6/oC8cIJ+vtmgCwAAAABQmfz+H9jW5i01qROgbGwy0A50wvPhAEAlO//B1AVAIU0YFtFnF37EKcEGXTc4IC9WrFyTOgEyy4Au5Eef3m4g5JkBXQAAAACAymSAANhWU3Nz1NU3pM6AsrBx05bUCUAG9fJ8DQBQoVZsjrhjceoKoJBmjtq1ry/6gG6vXj2LfQmgRFasMqALO7L8BQO6kBcOmAEAAAAAgPzpbYAA2I6hQ+iajZs3p04AMsgBOABApTr/gYiO1BFAQc3K+oBuHwMOkBsrbAiFHbJBF/LDDYScs0EXAAAAAKAi+f0/sL0Nmw3oQlcYZgc6Y4ETAFCpzn8wdQFQaDNH7trXF3+DrhNIITdWrLRBF3bk+RUrUycABeIE/XyrMqALAAAAAFCR/P4f2N4mA7rQJRsM6AKdcAAOAFCJFqyKePSF1BVAoWV+QHdAv77FvgRQIitW2RAKndmwaUs0NjWnzgAKZLch1akTKCLjuQAAAAAAlWlA//6pE4CM2WhAF7pk46bNqROADOrX1/PhAEDlOff+1AVAMcwavWtfX/QB3cGDBhX7EkCJPLfchlDozLLljsEBKBc26AIAAAAAVKah1YNTJwAZs9FWUOgSw+xAZwYNHJA6AQCgpJpaI359V+oKoNDG7RYxsM+uvUbRB3SHVhvQhbyorauPZSsM6cL2HlvwTOoEoECG7z4sdQJFZkAXAAAAAKAyVXt+BdjO+o2bUidAWdhgmB3oRPWggakTAABK6sKHIjbWp64ACm3WqF1/jaIP6A5xAinkyqNPPp06ATLnkScXpk4ACsThMgAAAAAAkE/uAQDbW/r8C6kToCysWrMudQKQQYMHG9AFACrLz25OXQAUw5zRu/4aRR/QHeyEJMiVR54wiAjbm//4U6kTgAJxuEz+2aALAAAAAFCZBvTv73fEwCs8t9yALnTFUt8rQCeqBzkABwCoHHcviXjEj0aQSweM2/XXKPqAbkTEUIMOkBs26MIrNTQ2xTNLlqXOAArEgG7+efYKAAAAAKByDdttSOoEIEOWrViVOgEyr6m5OTZs3Jw6A8ggC5wAgEryv7elLgCKZV65DOhWVzslCfLi4ccXpE6ATJnvewJyxcEy+Wc7AgAAAABA5XIfANjW1pra2LBpS+oMyLRFS55PnQBkVPVgA7oAQGVYUxPxp/mpK4BiGNIvYtIeu/46NugC3dLY1ByLlvrFK/zNI0/YKg15YoNu/lWFAV0AAAAAgEpVPdgB88ArLVv+QuoEyLTnfI8AOzB4kPfWAEBl+PktEa3tqSuAYjhwfGFepyQDugYdIF8eeWJh6gTIjPlPPJU6ASigodVuHuSdDboAAAAAAJXLAfPA9pYaPoSdMqAL7MhuQ7y3BgDyb0NdxE9vTl0BFMu8cYV5HRt0gW57+PEFqRMgM+6f/3jqBKCAHCxTAcznAgAAAABULPcBgO09t3xl6gTINN8jQGf69e0TPXqU5BF0AICk/t/1EY2tqSuAYjmgnAZ0h9hEBrlyy533p06ATFi4aGmsXb8xdQZQQA6WAQAAAACA/Brq+RVgO0uXrUidAJm29HkbdIFXGzzI+2oAIP9Wb4044/bUFUAxldUG3erBfhCDPFm2YmU8+9zy1BmQ3I133JM6ASgwJ+fnX1WVFboAAAAAAJXKfQBge48teDp1AmTawkVLUicAGVQ9eGDqBACAovvhX2zPhTwb0i9iwu6Fea2SDOjaRAb5c9Md96ZOgORuuM2ALuTN0CHVqRMoMgO6AAAAAACVywHzwPYWLX0+GhqbUmdAJq1YuTo2bt6SOgPIoMGDDOgCAPm2fFPEr+9KXQEU08ETCvdaJRnQdQIp5M+NBnSpcFtrauP++Y+nzgAKbGi1B3PyzoAuAAAAAEDlcsA80JlHnngqdQJk0iNP2jANdK56kOdrAIB8+/51Ec1tqSuAYpo3vnCvZYMu8Lrcdf/8qG9oSJ0Bydx0x32pE4AicLBM/hnPBQAAAACoXO4DAJ2Z/8TC1AmQSY886XsD6Fz1YBt0AYD8euyFiN/dnboCKLYDxhbutUoyoDts6JBSXAYoofb29rj93odSZ0AyN9zuXTfk0cg990idQJHZoAsAAAAAULn2GLZb6gQggx4xoAud8r0B7Ej1YBt0AYD8OuG8iI7UEUDRzRtXuNcqyYDuyBEGHSCPbrz93tQJkERHR4d//iGHHCoDAAAAAAD5NnrE8NQJQAY9uuDp1AmQSY8+6XsD6NyeewxLnQAAUBTnPRDxwPOpK4BiG9IvYlwBf6wpyYCuGxyQT9ffclfqBEjingcfiZrautQZQIGN8p61ItigCwAAAABQudwLADrz/IpVsbWmNnUGZMri556P2rr61BlARo3YY/fUCQAABVffHPGVy1NXAKVw2OTCvl5JBnQH9O8f1YMHleJSQAmt37gpbrz9ntQZUHIXXH5d6gSgCDyUUxkM6AIAAAAAVK5evXrGHsN2S50BZND98x9PnQCZMv/xhakTgAzbc7gBXQAgf066LmLV1tQVQCm8sRwHdCMiRu65R6kuBZTQhVcYVKSy1Dc0xFXX35I6AyiC0QZ0K4L5XAAAAACAyjZ6pPsBwKvddOd9qRMgU26/58HUCUCGjTSgCwDkzKK1Ef99Q+oKoFSOnFrY1yvZgK6BB8in62+9K7ZsrU2dASVz6bU3RnNLS+oMoAhs0K0MVWFCFwAAAACgkrkfAHTm+lvuSp0AmXLLXYbWgR2zQRcAyJOOjogPnp26AiiVfr0iDhxf2Ncs2YCuGxyQT62tbXHJ1denzoCSsTUa8suBMpWhygpdAAAAAICK5vkVoDOr1qyLpc+/kDoDMmHBM8/Ghk1bUmcAGTZy+B6pEwAACuZnt0Q88HzqCqBUDp8c0avAE7WlG9Dd0w9jkFcXXP7n1AlQEs8+tzwefmxB6gygSDyQUyEM6AIAAAAAVDQHdgI7cvOdNoZCRMStdz+QOgHIsGFDh0SvXj1TZwAAFMSyjRFfvyp1BVBKR04t/GuWcIPunqW6FFBiC555Np5YuDh1BhTd+ZddmzoBKKJRIz2QAwAAAAAAeefATmBHbjGgCxERcdvdD6ZOADJsz+HDUicAABRER0fEB8+OaGxNXQKU0hFTCv+apRvQNfAAuXbhFbbokn8XXXld6gSgiPZyoExFsEAXAAAAAKCy2aAL7Mgd9z0cTc3NqTMgqabm5rj3oUdTZwAZNmKP3VMnAAAUxP/eFnHXktQVQCn16xVx6KTCv27JBnTd4IB8O+/Sa2LL1trUGVA0F1z+59iwaUvqDKBIqgcPiv79+6XOoASqTOgCAAAAAFS0UQ7sBHaguaUl7n7gkdQZkNQ9Dz4azS0tqTOADBu55x6pEwAAdtmTqyK+dmXqCqDUDp4Q0asI07QlG9D1AxnkW2NTc/zqnItSZ0BRtLe3x//88uzUGUARjXKYTMUwoAsAAAAAUNnGjh6ZOgHIsMv/fGPqBEjqqutvSZ0AZNyeNugCAGWutini7WdGNDibCCrOkVOL87olG9DdbUh19OrVs1SXAxL49bl/irr6htQZUHCXX3dTvLB6beoMoIhGG9CtGFVhQBcAAAAAoJL16tUzdhtSnToDyKhrb7wjGpuaU2dAEi2trXHlXwzoAjs3YrgBXQCgvP3zWRHPrk9dAaRQ9gO6EU4hhbyrb2iIM8+9JHUGFFRHR0f85IyzU2cARWaDbuWwQBcAAAAAAPcFgB2pb2iI6266I3UGJPGXm++M+gbLGYCdM6ALAJSzH/4l4tonU1cAKfTqEXHoxOK8dkkHdEeN2LOUlwMSOPOci6OhsSl1BhTMNTfcFs8tfyF1BlBkNugCAAAAAEDlMKAL7Myl1/w1dQIkcem1N6ROAMqAAV0AoFzduDDiW9ekrgBSOWh8RL/exXntEm/QHVHKywEJbK2pjbPOvyx1BhTMT874feoEoATGjh6ZOoESqbJCFwAAAACg4o0fMzp1ApBht9z9QGzeWpM6A0pq89aauOmOe1NnAGXAYTcAQDlauiHiXb+N6EgdAiRz5NTivXZJB3QnjR9byssBiZxx9oXR0NCYOgN22Q233R3PLFmWOgMogUkTvE+tFAZ0AQAAAACY4r4AsBPt7e1x6TU2iVJZrvzLzdHa2pY6A8i4Hj16xJhRljUBAOVla2PE8ae9+BGoXP9nevFeu6QDupPd4ICKsHHzljjtrPNTZ8AuaWtri2//6PTUGUCJTBo/JnUCJWJAFwAAAACAyRM9vwLs3PmXXZs6AUrqkquuT50AlIGJ4/ZKnQAA0C1t7RFv+1XEonWpS4CU+vaKOHxy8V6/pAO6TiCFynHaWRfEilVrUmfA6/bHS6+J55a/kDoDKIEB/fvHsKFDUmdQIuZzAQAAAACYMnF86gQg4xY882zc89CjqTOgJBY882w89NiC1BlAGU/Vp30AACAASURBVJg4zgH4AEB5+dfzI25bnLoCSO2YaS8O6RZLaQd0J44r5eWAhJpbWuK7P7Z9lPJUU1sXJ//iN6kzgBKZMXVi6gRKqCpM6AIAAAAAVLrRI4ZHn969U2cAGXfG7y9MnQAlcdpZ56dOAMqEDboAQDk57baI39+bugLIguNnFPf1Szqg27Nnzxg3ZlQpLwkkdO2NtztNlLL089/+MbZsrU2dAZSIQ2QAAAAAAKDyTJtsiy6wczfefk8sfu751BlQVOs3boqrrr81dQZQJibZoAsAlInrn4r47CWpK4CsOH5mcV+/pAO6ERFTJhiAgErytZNOjba2ttQZ0GUrVq6OM8+5OHUGUEKTxo9NnUApVdmgCwAAAABAxGTPrwBdcPpZF6ROgKL69bl/8mwX0GUTbNAFAMrAnc9G/NOZqSuArBgzNGLvEcW9RukHdG0og4ryzJJl8YeLr0ydAV120k/PjNZWNx6gkkyeYEC3klQZ0AUAAAAAICKmuD8AdMElV/811m/clDoDiqK5pSXOucRzXUDXTTSgCwBk3J3PRhx/WkRja+oSICveNKv41yj5gK4BCKg8p5x2VqzbsDF1Brymhx5bEFddf0vqDKDEJtugW1HM5wIAAAAAEOGAeaBr2tra4sxzLkmdAUVx4RXXxZattakzgDLRo0ePGD9mdOoMAIAd+ttwbn1L6hIgS46fUfxrlH6DrgFdqDhba2rjc984OXUG7FRjU3Oc+LWTUmcACUwc73TPSmKDLgAAAAAAERGTJxjQBbrmd+dfGhs2bk6dAQXV0toap/3u/NQZQBmZMNZwLgCQXYZzgc70rIo4fmbxr5Ngg64bHFCJbr37gTjv0mtSZ8AOfffHp8fzK1alzgBKbOzokdG3T5/UGZRQVRjQBQAAAAAgYtrk8akTgDLR0NgU3z/1l6kzoKB+f8HlsXzl6tQZQBmZOG5M6gQAgE7dtijiHwznAp04ZGLEwBKMCpR8QHfE8N1j0MABpb4skAHf+tFpsWLVmtQZ8Cq33v1A/OHiK1NnAAlMnjA2dQIlZoMuAAAAAAAREX379IlRI4anzgDKxMVXXR9PLFycOgMKoqa2Ln565jmpM4AyM3HcXqkTAABe5ZonIo4/PaLBcC7QiVJsz41IMKAbETF5vEEIqEQNDY3xqa9+Pzo6OlKnwN9t3loTn/mvH6TOABKZ5H0pAAAAAABULAd5At3x1ZP+J3UCFMQvfntebN5akzoDKDMGdAGArLnwoYi3nxnR1Jq6BMiq42eU5jppBnQnusEBlerBR5+M0846P3UG/N3nvnFybNi0JXUGkMgUD95UHAt0AQAAAAD4mykTx6VOAMrI/Mefiouvuj51BuySVWvWxW/++KfUGUAZmjhuTOoEAIC/O+22iA/8PqLd7jhgB4b0i5hXolsAaQZ0J7jBAZXslNPOigXPPJs6A+L8y66NG267O3UGkNAkA7oVp8qELgAAAAAAL5ni+RWgm77/P2dEQ0Nj6gx43U457axoam5OnQGUIRt0AYCs+ObVEZ+9JMJsLrAzb5pVusVOSQZ0Z02bnOKyQEa0tbXFx7/wrairb0idQgVbtPT5+OZ//yJ1BpDYtEnjUydQYj16JPkRCAAAAACADJoxdWLqBKDMbNi0Jb7z49NTZ8Dr8sgTC+OiK69LnQGUoV69esa4vUalzgAAKlxDS8R7fhvxw+tTlwDl4E2zSnetJE+nz54xNcVlgQxZtmJl/NtXvhcdHc4tofS21tTGhz/9tWhobEqdAiQ0eNDAGDVieOoMAAAAAAAgkVnTPb8CdN+5f7o67rzv4dQZ0C2NTc3x71/9fuoMoEzNmDrJgegAQFKL1kYc8N8Rf3okdQlQDnpWRbx9n9JdL8lPS3uN3DOqBw9KcWkgQ26649746a/PTZ1Bheno6IgTvvSdWLZiZeoUILG5c2akTiCBqqqq1AkAAAAAAGTEkOpBMWbUiNQZQBn6zNd/GDW1dakzoMtO/sVvPCsDvG4zp01OnQAAVLCrHo/Y/78jnlqTugQoF8dMjxjcr3TXS3ac0b6zpqe6NJAhPz79rLj93gdTZ1BBTjntd3HHvQ+lzgAyYPYMp+IDAAAAAEClm723+wVA961ZtyH+8wenps6ALrl//uPx63MvSZ0BlDEDugBACm3tEV+8NOLtZ0bUNaeuAcrJP5Vwe25EwgHdOQYigJd84j++Hc8+tzx1BhXgupvviJ//5o+pM4CM2GfGtNQJJGCDLgAAAAAA25q995TUCUCZuvzPN8XVf701dQbsVF19Q3zuGyenzgDK3Kzp3jMDAKW1emvEET+N+OktqUuAcvTO/Up7vXQDuk4gBV5SW1cf7/vkl2Ldho2pU8ix+x5+PP7ty99LnQFkiBPxK5MBXQAAAAAAtuV+AbArPv/Nk2PR0udTZ8AO/dtXvhfLVqxMnQGUOe+ZAYBSum1RxH4nR9y9NHUJUI4OnhAxsrq010w2oDvbBl1gGy+sXhvv+dcvRW1dfeoUcmjhoqXxwRO/Gi2tralTgIzo17dPTBo/JnUGCZjPBQAAAABgW7Ns0AV2QUNjU3z401+LrTW1qVPgVX75h4vipjvuTZ0BlLmRe+4RQ6oHpc4AACpAQ0vE5y6JOPrnEWtqUtcA5eod+5b+mskGdKdMGBf9+/VNdXkgg55evDQ+eOJ/RmtrW+oUcmT12vXxnn/9YtTVN6ROATJkn5nTUyeQiA26AAAAAABsa8yoEVE92MAB8PotW7EyTvjSd6KjoyN1CvzdQ48tiB/89MzUGUAOzJo2OXUCAFABbl0UMfOkiP+9LcJP18CueP8Bpb9msgHdiIhZ051CCrzS/fMfj898/YepM8iJTVu2xrs+8YVYv3FT6hQgY2bvPTV1AolUhQFdAAAAAABeac4M9w2AXXPHvQ/Fj8/4feoMiIiItes3xkc/941ob29PnQLkwEzPegMARVTXHPGpCyOO+XnEcxtT1wDlbubIiHHDSn/dpAO6s93gADpx5V9ujv886dTUGZS5uvqGeNfHvxBLlq1InQJkkAdtKpcNugAAAAAAbG+2oQOgAH565jlx/mXXps6gwtXW1cd7P/klh9kDBTN7b++VAYDiuHFhxIzvR/zqTltzgcJ4535prpt0QHffmdNTXh7IsHMuuSq+dcr/ps6gTDU0NMZ7P/mleGrRktQpQEbtM3Na6gQAAAAAACAj9p21d+oEICe+/L2fxPW33JU6gwrV2toWHzzxP+PpxUtTpwA5su8sz3oDAIVV0xhxwnkRx50WsXxz6hogT95/QJrrJh3Q3c8NDmAnfnvepfHj089KnUGZaW5piQ+c+NV4+LEFqVOAjOrbp0/sPWVi6gwSsUAXAAAAAIDtHbDPzNQJQE50dHTEv37pO3HnfQ+nTqHCdHR0xIlfOynun/946hQgRwYNHBDjx4xOnQEA5ERLW8Qvbo2Y8t2I392TOAbInX1GR8wclebaSQd09546MQYNHJAyAci4U888J37zxz+lzqBMtLa2xcc//82496HHUqcAGTZvv1nRo0fSt8EkVGVCFwAAAACA7YwbMyqGDR2SOgPIiZbW1vjI574Rjy54OnUKFeS7Pzkjrv7rrakzgJw5aP85qRMAgBxo74j4w30R074X8fk/RaytTV0E5NH756W7dvLJhLlznEIK7Ny3f3Ra/OSM36fOIOPq6hviff/25bjpzvtSpwAZN2/fWakTSMiALgAAAAAAnTF8ABRSfUNDvPsT/xEPPbYgdQoV4Pv/88v49bmXpM4Acmj/2XunTgAAytyVj0Xs8/8iPnpuxHMbU9cAefahg9JdO/mA7rx9DegCr+1/fvWH+PR//SDa2tpSp5BB6zZsjDd94N/j7gfmp04ByoAB3QpnQBcAAAAAgE4cuN/s1AlAztTW1ce7P/EFB41TVF8/+efxyz9clDoDyKn958xInQAAlKl7l0Yc+KOIf/p1xJOrUtcAeXfoxIgxQ9NdP/mA7gEGJIAuuuzaG+P9n/pq1NbVp04hQ5559rn4h/d9Mp5Zsix1ClAm3nDAvqkTSMh4LgAAAAAAnfH8ClAMjU3N8ZHPfj2u/uutqVPImY6Ojvjy934Sv7/g8tQpQI4dtP+c1AkAQJm5d2nEW34Zccj/RDz4fOoaoFJ84MC0108+oOsEUqA77rj3oXjLhz8dq9euT51CBtzz4CPx5g+d6J8HoMsmjR8TgwYOSJ0BAAAAAABkzD4zp0WvXj1TZwA51NbWFp/88nfjDxdfmTqFHPnCt/47zrv0mtQZQI6N3WtkDB40MHUGAFAmrn8q4qifvTiYe+2TqWuAStKzKuID89I2JB/QHTxoYEydOC51BlBGnl68NI597wnx+FOLUqeQ0IVXXBfvPuGLNioD3TLP6fcVr6rKDl0AAAAAAF6tf7++MXv6lNQZQI597Qc/jW//6LRob29PnUIZq6mti3d+7PNx8VXXp04Bcm7/2TNSJwAAGdfeEXHJwxEHnBLxj6dH3LY4dRFQiY7dO2K3xPu7kg/oRkQcYFAC6KYNGzfHWz/86bj6r7emTqHE2tvb4xsn/yL+49unuGkFdNu8/WanTiAxA7oAAAAAAOyI51eAYvvNH/8UHzzxP6OhoTF1CmVo+Qur4x/e98m456FHU6cAFWD/OQZ0AYDOtbRF/O7uiBknRbz3rIiHl6cuAipZ6u25ERkZ0LXJDHg9mpqb45Nf/m78+PSzUqdQIjW1dfHP//6VOOuCy1KnAGXK+04M6AIAAAAAsCMHOugTKIFb734g3vyhE2PVmnWpUygjDzzyRBz3vhPiueUvpE4BKoT3xgDA9moaI356c8SEb0eccH7EM2tTFwGVrl+viHftn7rCgC6QA6eeeU587PPfjC1ba1OnUETPLFkWb/rAp+KOex9KnQKUqb59+sT0yRNSZ5CY+VwAAAAAAHbk4Ln7pE4AKsRTi5bEP77/3+KxBc+kTqEMXHrtDfGOj33es1FAyfTt0yf2nTk9dQYAkBF3LYn42LkRI/8r4ouXRazckroI4EXvnRsxsE/qiowM6E6fMjEGDRyQOgMoY3+55c5449v/xfBmDnV0dMQZZ18Yx73nhFj83POpc4AyduiB+0WPHpl4+0tCVWFCFwAAAACAzo3cc48YP2Z06gygQqxdvzHe8qET41fnXBwdHR2pc8igjo6O+N5PzojP/NcPo62tLXUOUEEOmjsnevXqmToDAEhoc0PEz26JmPWDiMNPjTj7voj6ltRVAK/00TekLnhRZiYUDjsoA/uEgbK2bsPGeO8nvxTfOPkX0djUnDqHAlixcnW88+Ofj5NO/VU0t3hHD+yaww+amzoBAAAAAADIOM+vAKXU0toa3/vJGfHuE74Ya9ZtSJ1DhmzYtCX+5bNfj1+dc3HqFKACHXLAvqkTAIBEbn4m4gO/f3Fb7n9cGrFgdeoigM6NHhJx1NTUFS/KzICugQmgUM664LI45l0fi0eeWJg6hV1w8VXXx1Hv/Fjc+9BjqVOAnDjsYA/UEFFVZYMuAAAAAAA7dtiB7icApXf3A/PjyHd8JG68/Z7UKWTAJVf/Nd74tg/75wFI5pB5+6VOAABK6Nn1ET/8S8Sk70T8n19EXPBQRFNr6iqAnTvh0IisPBbeK3XA3xjQBQpp6fMvxJs++Kn4yHvfFl///Cdj8KCBqZPoosXPPR//8a1T4sFHn0ydAuRI//79Yp8Z01JnkAEGdAEAAAAA2JnDD/b8CpDGlq218eHP/Fd88F1vie9++cQYNHBA6iRKbOWadfHFb58St93zYOoUoIL17dMn5u07K3UGAFBkT66KuPSRiEvnRzy2MnUNQPd99A2pC16WmQ26e0+dGEOrB6fOAHKko6Mjzr7oyjj0LR+KS6+9IXUOr6GxqTl+8LMz4+h3fsxwLlBwR75hnsFMIiI7JyUBAAAAAJBNe+4xLCZPGJs6A6hg5116Tbzx7f8Sf77pjtQplEhHR0ecdcFl8ca3/YvhXCC5uXNmRK9ePVNnAABFMH95xDevjphxUsTsH0Z851rDuUB5OmJKxMTdU1e8LDMDuhERRx56YOoEIIfWb9wUn/mvH8a7Pv6FWLT0+dQ5dOKvt94dh7/1Q3H6WRdEa2tb6hwgh5x2z98Y1AYAAAAA4LUcOm+/1AlAhVu9dn184j++FR/69NdizboNqXMooiXLVsRbPvzp+MbJv4j6hobUOQBxyLx9UycAAAV095KIr1weMek7EXNPifjh9REL16SuAtg1Hz04dcErZWpA9/CDDE4AxXP3g4/EUe/4aHz5ez+JdRs2ps4hIh5+bEG87V8+Ex/53NfjhdVrU+cAOXb4QfunTiArDOgCAAAAAPAaDnNfAciIm+64Nw5/24fj9xdcHh0dHalzKKC6+ob48elnxWFv/VA8/NiC1DkAf/eGAwzoAkA5e2JlxM9viXjbryKGfDnisFMjfnJTxFJnPwE50a9XxHsPSF3xSr1SB2zr8IPd4ACKq729Pc679Jq47Nob4l8/9O747Cc+GIMGDkidVXGefW55/PBnv47rbr4jdQpQAaoHD4rpUyamziAjqsKALgAAAAAAO3fEIfNSJwD8XW1dfXz95J/HuX+6Or76mY/HPx59eOokdkFDQ2P89vxL45dnXxSbtmxNnQPwKgfuPyd1AgDQDSs2R9zwVMSNT0fc/HTE6prURQDF9cEDIwb2SV3xSpka0J0wdq8YO3pkLF+5OnUKkHMNjU3xi9+eF+dcfFV89oQPxsf++R3Rv1/f1Fm5t2bdhjj1V3+Icy65KnUKUEGOPuyg1AkAAAAAAEAZ2W1IdUybND6eWbIsdQrA3z21aEl87PPfjH1nTo///Own3ActMw2NTXH2RVfE6WedHxs2bUmdA9CpI94wL/r1zdiT7gDAKzy3IeLupRF3PvviYO7i9amLAErri8ekLni1TA3oRkQceuD+cdGV16XOACrE5q01cdKpv4rTfnd+nPChd8cn3v/OGFI9KHVW7mzasjV+9utz4w8XXRlNzc2pc4AKc/hBc1MnkCFVVTboAgAAAADw2t74hgMM6AKZ9OiCp+MDn/pqzN1nZnz7i5+Kg+fadJhlTc3Nce4lV8cvfnterNuwMXUOwE4dfbjDHwAgS9raIx5eHnH3koi7lrz48QXn/QAV7OAJETNHpa54tcwN6B5+sAFdoPQ2bdkaPz79rDjj9xfER9779vj3j7w3hu8+LHVW2auprYtf/uGiOPOcS6K+oSF1DlChjjp0XuoEMsR8LgAAAAAAXXH0YQfF786/LHUGwA49/NiC+KePfjb2m713fOoj74u3HX906iS20djUHBdecV38/Dfnxuq1VloB5eEY29kBIKktDS8O4v5tGPf+5yLqW1JXAWTHiW9MXdC5zA3oHn2oH+6AdOrqG+KMsy+MM86+MN715uPiI+97exy43+zUWWXnmSXL4oLLro0Lr7guNm+tSZ0DVLBpk8bHmNEjU2eQITboAgAAAADQFYcfPDf69O4dzS2eggSy7ZEnFsa/feV78b2fnBGf+MC74kPvfktUDx6UOqtirVi5On53/mWemQHKzqgRw2Pa5AmpMwCgIrS1RyxcE/H4ypf+euHFj8s2RnSkjgPIqOp+Ee87IHVF5zI3oLv7sKGx3+y945EnFqZOASrcpdfeEJdee0PM3ntKfOyf3xHveNOx0b9f39RZmbVh05b40zV/jUuuuj6efHpx6hyAiIg49shDUieQMQZ0AQAAAADoir59+sShB+4Xt979QOoUgC5ZuWZdnPTTX8WPzzgr/vkdb4oPvOPNMWfG1NRZFePG2++JP156TVx/y12pUwBel2MOPzh1AgDk0vJNrx7EXbgmorktdRlAefnkYRF9MzcJ+6JMZh135KEGdIHMeGLh4vjSd38c3/7RafGet/5DvPPNx9mq+5LGpua45oZb44rrbo6b7rg3dQ7Aqxx7hAFdXsmALgAAAAAAXXXM4Qcb0AXKTmNTc5x94RVx9oVXxKzpU+Kf/+n/xrveclzsNqQ6dVrubNlaG+dffm2cfdEV8fyKValzAHbJ0YcdlDoBAMpWbdOLQ7fPrI145m8fX/qrpil1HUD5q4qIzx2VumLHMjmge+wb3xA/Pv2s1BkAr1BX3xBnX3RlnH3RlTFuzKh495uPi3e/9fiYOG6v1Gkl1d7eHnfc93Bces1f48833RF19Q2pkwA6NXjQwDjIgQoAAAAAAMDrdMzhB8e3f3Ra6gyA1+3JpxfHt0753/jWKf8bb/2Ho+K9bzs+DjtobvTv1zd1WtlqaGyKux+YH9feeHtccPmfU+cAFESPHj3i6MMOTJ0BAJlW1xyxeF3Eso0RC1a9OHy7eN2Lg7nralPXAeTb8TMixu6WumLHMjmgu8/MabH7bkNiw6YtqVMAOvX8ilVx6pnnxKlnnhP7zpweRx9+UBx+0Nw47KD9U6cVxcbNW+K2ux+Mex58JK6/9a5Yu35j6iSA13TM4QdHz549U2eQMfbnAgAAAADQVZMnjI1RI4bHqjXrUqcA7LKr/3prXP3XW6Nvnz5x6IH7xTGHHxxHH3ZQTJ4wNnVa5j2/YlXccPs9cdMd98bdDzwSTc3NqZMACurA/WbFgP79U2cAQFLra18cvn1u40sfN7z48W9/3tKYuhCgcp14ROqCncvkgG5ExD8e88Y479JrUmcAvKZHFzwdjy54On7263Ojb58+cfDcfeKNb5gbh87bL+buMzN13uuytaY27p//eNx+70Nx530Px1OLlqROAui24448JHUCGVRVZUQXAAAAAICuO/6oQ+Psi65MnQFQME3NzXHLXffHLXfdHxERe43cM4476tA45IB949AD94s9hmV4HUkJ3XznfXHLXffHjbffG88tfyF1DkBRHXuEZ2wAyKfVW1/cbrv+b3/VRWyoi1hb8/J/XrHpxSHc+pbUtQB0ZszQiDfPTl2xc5kd0D3uiEMM6AJlp6m5OW6/98G4/d4HIyKiT+/eMXvG1Jg7Z0bMnTMz5u4zI8aPGZ248pWaW1ri8acWxfzHn4qHH18Q8x9f6MYCkAvHuXlAJwzoAgAAAADQHcccfrABXSDXXli9Ns6+8Io4+8IrIiJi7OiRccC+s+KQefvGwfvPielTJiYuLK6GxqZ4evHSWLh4aTy9eGk8+cyz8cD8x6OxyZZcoHIcf/ThqRMA4DWtqYnY8NJQ7fraFwdt//7xpT9vqn/x89bX2ngLkBdfPCaiR8Yf/87sgO4b3zA3+vTuHc0tjqEAyldzS0s8/NiCePixBRFxaUREVA8eFNMmjY/pUybG9MkTYvqUCTF98sQYMXz3ora0trbFkmXL4+lnn4unFy+NZ5Ysi6cXL40lz6+I1ta2ol4boNQO3G92VA8elDqDLDKgCwAAAABANxx20P6eXwEqyvKVq2P5ytVxxXU3RUTEoIEDYtb0yTFr+tSYM2NqzJo+JaZPmRB9evdOXNo9La2t8ezS5bFw8ZJY+NJA7sJFS+P5F1ZFR0dH6jyAZMaOHhlTJ45LnQFAGWlsiWhpi2htf/Hjjv7c2hbR0v7ix4aWiPrmlz9u++cdfaxrfnHT7Ya6iM0Nqf+uAUhhQO+IEw5NXfHaMjugO6B//zjsoP3jlrvuT50CUFBba2rjwUefjAcfffJV/9uoEcNjj2FDY/fdXvpr2NAYUj04+vfrGwP694v+/fr9/c/9+vaN+oaGqG9ojIbGppf/3NAY6zdujg2bXvpr4+bYsGlLbNy8JcHfLUAaxx1pey6dM58L+fHscyvinR/7fOoMAMpEnz69Y96+s1JnAAB06ld/uCguv/bG1BnATvTs2SPCfC5QoWrr6uO+hx+P+x5+/BX//Yypk2L8mNExauTwGD1ieIzcc48YPWJ4jBqxZ0wct1fJOzdu3hIvrFobL6xeEytXr41Va9bH8y+silVr1sWKVWti1Zp1JW8CKAdvPf6o1All4YBTIh5enroCAAAqywmHRQzul7ritWV2QDci4rgjDjGgC1SUVWvWuSEAUADHH3VY6gQyqipM6EJe1Dc0xD0PPZo6A4Aycts9D6ZOAADo1JJlK2LJshWpMwAAuuWpRUviqUVLdvi/9+/fL3arHhxDh1THbkOrY+hLfx42dEj079c3+vXrG/379o2+fftEv79/7BN9+/SJuvqGqG9oeOljY9Q3NEZjU1PU1NZFfUPjK/77NevWx8rVa6OhsamEf/cA+fF/j3lj6gQAAIBXqYqIzx+VuqJrMj2ge/wxh8fXT/556gwAAMrIxHF7xbTJE1JnAAAAAAAAAFSshobGaGhojJUOqgfIrN2GVMcB+8xMnQEAAPAqb50TMWmP1BVd0yN1wM6MHjE89ps1PXUGAABl5G3HH506gQyrqrJBFwAAAAAAAADgTcce4TkKAAAgk75QRiMBmR7QjYh4y3FHpU4AAKCMvPnYI1MnkGFuLAEAAAAAAAAARPzj0YelTgAAAHiVGSMijp6WuqLrMj+gawMaAABdtdfIPWPOjKmpM8gw87kAAAAAAAAAQKXr17dPHHHIvNQZAAAAr/KVY1MXdE/mB3TH7jUyZu89JXUGAABlwOEuvBYbdAEAAID/z96dfWld4Pt+/z7U+FQVRVHMoyAICsggoAyKIrNMgqggqIyKgIoiKiqIOIKi0ioOOHZr26097B726T57d072kLWzkpOss3NW1krWysqfkKxcJDm527no3b17sBWwqr7P8/u9XjfcvsG6qMfn9/l9AQAAAMpu+Q0Lo7mpKTsDAADgj4zojNg6N7viwtT8QDciYs2yG7ITAACoA6uXXZ+dQI0z0AUAAAAAAAAAyu7mVTdmJwAAAPyZw0sjmhuzKy5MXQx0Vy9blJ0AAECNGzKoO2ZPn5KdAQAAAAAAAAAANautWo2li+ZnZwAAAPyRrmrE3uuyKy5cXQx0J44bG5dfNj47AwCAGrZuxQ3ZCdSBSrigCwAAoZxQlQAAIABJREFUAAAAAACU1/qVi6Opsc5OUgEAAIX38I0R1absigtXFwPdiIg1y27ITgAAoIatXnZ9dgJ1oGKfCwAAAAAAAACU2IZVS7ITAAAA/khHc8T9N2RXXJy6GeiuNbgAAOAvGNw9MObPnpGdQR2oWOgCAAAAAAAAACU1qLsrrr3mquwMAACAP7JvUURXNbvi4tTNQHfShHFx2fix2RkAANSgjauXZidQLwx0AQAAAAAAAICS2rBqiZebAwAANaW5IeJwHc8B6magGxGxae2K7AQAAGqQgS7ny5dMAAAAAAAAAEBZbbzJMzYAAEBt2b0gYnBHdsXFq7OB7vLsBAAAaszY0SNixpTJ2RkAAAAAAAAAAFCzRgwbErOuvCI7AwAA4I88tiy74Nupq4HuyGFDYsHcWdkZAADUkNvWrcxOoI44oAsAAAAAAAAAlNHWjauzEwAAAP7IrvkRY7uzK76duhroRkTcts4VXQAA/s2mNXX+yhz6VCUsdAEAAAAAAACA8tm2aW12AgAAwO81VCKevim74turu4HummU3REtzc3YGAAA1YNaVV8Qlo0dmZ1BHKk7oAgAAAAAAAAAlc9282TFsyKDsDAAAgN/bOT9izMDsim+v7ga67W3VuGnpddkZAADUgFtWu57LhTHQBQAAAAAAAADKZsvNBThLBQAAFEZDJeLoquyKnlF3A92IiFvXrshOAAAgWb9+/WL9ysXZGdQZ+1wAAAAAAAAAoEz6d7Q7jgQAANSU3QuKcT03ok4HuovmzY5B3V3ZGQAAJFo0b3YM7i7Ib+X0GRd0AQAAAAAAAIAy2XjT0mhpbs7OAAAAiIiI5oaIJ1dmV/ScuhzoNjQ0xK1rlmdnAACQ6Pb1BfqtHAAAAAAAAAAAesHmDTdlJwAAAPzergJdz42o04FuRMQWHxYBAEqro70tVi25LjuDOlQJF3QBAAAAAAAAgHK49JLRMXPq5OwMAACAiPjt9dxjq7IrelbdDnQnTRgXM6ddnp0BAECC29evjJbm5uwM6lClYqALAAAAAAAAAJTD9ttvzk4AAAD4vXsWRgzvzK7oWXU70I2IuHPT2uwEAAAS7LrjluwE6pR9LgAAAAAAAABQBtXWltiy4absDAAAgIiIaG+OeGZ1dkXPq+uB7s2rboxqtTU7AwCAPnTV9Ckxfuyo7AzqlYUuAAAAAAAAAFACt65dER3tbdkZAAAAERHx2LKI7vbsip5X1wPdtmo1Nq1elp0BAEAf2nbLmuwE6ljFQBcAAAAAAAAAKIFdW2/JTgAAAIiIiKEdEYeXZlf0jroe6EZEbN1koAEAUBbV1pbYuLqgv5kDAAAAAAAAAEAPuG7e7Jh06SXZGQAAABER8ezaiNam7IreUfcD3RlTJsfll43PzgAAoA9sWrM8WpqbszOoYy7oAgAAAAAAAABFt/sO13MBAIDaMGloxK752RW9p+4HuhEROzZvyE4AAKAPbN20JjuBOmeeCwAAAAAAAAAU2YhhQ2LZ9QV++h0AAKgrL2+IaCjEivWrFeKvtmnNsqhWW7MzAADoRZMmjIsZUyZnZ1DnXNAFAAAAAAAAAIrs3rtu83wEAABQExaMj1h3ZXZF7yrEQLetWo2bV96YnQEAQC+6Z9um7AQKwBdQAAAAAAAAAEBRVVtbYuvG1dkZAAAAERHxxm3ZBb2vEAPdiIjtt9+cnQAAQC/p6uwfm9Yuz86gAAx0AQAAAAAAAICi2n77zdHR3padAQAAEJtnR1w1Jrui9xVmoDt9yqS4avqU7AwAAHrBnbeui5bm5uwMCsA+FwAAAAAAAAAoomq1NQ7suiM7AwAAIFoaI17dmF3RNwoz0I2IuGfbpuwEAAB6WENDQ+zZdkt2BgAAAAAAAAAA1Kw9W2+J7q4B2RkAAABxeGnEiJJ8PCnUQHft8htixLAh2RkAAPSgNcuujyGDurMzKIiKE7oAAAAAAAAAQMFUq62xf8eW7AwAAIAY0RlxZHl2Rd8p1EC3X79+sXPLhuwMAAB60J5tm7ITKJBKGOgCAAAAAAAAAMWyf/vm6OzfkZ0BAAAQL62PaGvOrug7hRroRkRsv/3mqLa2ZGcAANADpk6eGLOnT8nOoEhc0AUAAAAAAAAACqR/R3vct/327AwAAICYOSrirmuyK/pW4Qa6He1tcevaFdkZAAD0gH3bN2cnUDD2uQAAAAAAAABAkRzYeUe0VavZGQAAAPHOluyCvle4gW5ExL4dhhwAAPVucPfAWLdicXYGBVOx0AUAAAAAAAAACmLggM7YvXVjdgYAAEBsnh1xzbjsir5XyIHuJaNHxuKFV2dnAADwLezeeks0NjZkZwAAAAAAAAAAQE06sMv1XAAAIF9rY8TLG7IrchRyoBsRsWfbpuwEAAAuUmtLc9x9+/rsDArIBV0AAAAAAAAAoAiGDOqOnVtczwUAAPIdXx0xuiu7IkdhB7qLF14dkyaMy84AAOAi3HXb+ujq7J+dQQFVwkAXAAAAAAAAAKh/D+zeGq0tzdkZAABAyU0eGnFoSXZFnsIOdCMiDuy8IzsBAIAL1NDQEPfdfXt2BgXlgC4AAAAAAAAAUO+GDOqOu25bl50BAAAQH90Z0VjolerXK/RffcOqJTF86ODsDAAALsDGm/wOR++pWOgCAAAAAAAAAHXu0H13R3NTU3YGAABQcrvmR8wfn12Rq9AD3cbGBld0AQDqzIN77sxOoMAMdAEAAAAAAACAejZy2JDYdsua7AwAAKDkBrVHvLIxuyJfoQe6ERF3bFwdAzo7sjMAADgPSxfNjwnjxmRnAAAAAAAAAABATXpk345oaGjIzgAAAErulQ0RXdXsinyFH+hWW1tiz7ZbszMAADgP+3dsyU6g4FzQBQAAAAAAAADq1aRLL4nb1q3IzgAAAEpu/viI7fOyK2pD4Qe6ERG77tgYrS3N2RkAAHyNGVMmx7zZ07MzKDj7XAAAAAAAAACgXr109GHXcwEAgHQfbcsuqB2lGOh2dfaPu25bn50BAMDXOHjvndkJlEAlLHQBAAAAAAAAgPqz7PoFMX/2jOwMAACg5E6sjpg8LLuidpRioBsRsfeu27wxCgCgRk0cNzZWLr42O4MycEIXAAAAAAAAAKgzjY0N8czh/dkZAABAyc0YFXFkRXZFbSnNQHfEsCGxac2y7AwAAL7C4w/szk6gJCoGugAAAAAAAABAndm1ZWOMHzsqOwMAACixxn4Rn+/47Z/8m1L9czy4504P5AMA1JiJ48bG6qWLsjMoCR8HAAAAAAAAAIB6MqCzIx7ZtyM7AwAAKLmnVkZcMTy7ovaUaqA7fuyouG2dG8oAALXkyYfuyU4AAAAAAAAAAICadOSBPdHR3padAQAAlNgVwyKeXJldUZtKNdCNiHhk345oaGjIzgAAICKmTJoQKxdfm51BiVSc0AUAAAAAAAAA6sSkSy+Ju25dl50BAACUWGO/iM93/vZP/lzp/llGjxgWm29elZ0BAEBEPHZgV3YCJWOgCwAAAAAAAADUi5eOPuxZBwAAINUTKyJmjMquqF2lG+hGRBy8585oamzMzgAAKLUpkybE8hsWZGdQMpXwpRUAAAAAAAAAUPuW37Ag5s+ekZ0BAACU2LQREc+szq6obaUc6I4eMSy23uInAwAg0xMP7slOoIS8VBYAAAAAAAAAqHWNjQ1x/JH92RkAAECJNTdEfH9HdkXtK+VANyLi4D13uaILAJBkyqQJseS6edkZlFDFQhcAAAAAAAAAqHG777glxo8dlZ0BAACU2Ik1EVeOzK6ofaUd6A4bMijuvn19dgYAQCmdePRAdgIAAAAAAAAAANScAZ0dcei+7dkZAABAic0bF/Ho0uyK+lDagW7Eb6/otrY0Z2cAAJTKDQvmxsKrZ2VnUFIu6AIAAAAAAAAAteyJB++Jjva27AwAAKCk2psjvtgV4bHr81Pqge6ggQNi19ZbsjMAAErlmcP7sxMoMQNdAAAAAAAAAKBWXXHZpXHXreuyMwAAgBJ7fVPEmIHZFfWj1APdiIgHd2+Lrs7+2RkAAKVw+/qVMWnCuOwMAAAAAAAAAACoOa89+1h2AgAAUGLLL4/YvSC7or6UfqDbv6M9Ht57d3YGAEDhNTc1xeP3787OAAAAAAAAAACAmrP99vUxY8rk7AwAAKCkBlYjPt2eXVF/Sj/QjYjYvvnmGDNyeHYGAECh3XvXbTF86ODsDIhKpZKdAAAAAAAAAADwe0MGdcdTD+3NzgAAAErs47sihnRkV9QfA92IaGpsjGOH7svOAAAorAGdHXH/rjuyMyAiDHQBAAAAAAAAgNry/JEHor2tmp0BAACU1O4FEeuuzK6oTwa6/2rNsutjzoyp2RkAAIV0eN/O6N/Rnp0BAAAAAAAAAAA15YYFc2Pt8huyMwAAgJKaNDTijVuzK+qXge4feP7Ig9kJAACFM3rEsNh++/rsDPg9F3QBAAAAAAAAgFrQ2tIcp595NDsDAAAoqeaGiB/vjmhtyi6pXwa6f2D6lEneQAUA0MOOH94fDQ0N2Rnwe/a5AAAAAAAAAEAtOLxvZ4wcNiQ7AwAAKKkX1kVMG5ldUd8MdP/E0Yf2RmOjAQkAQE+YN3t6rF66KDsD/kglLHQBAAAAAAAAgFyTJ46Pe++6NTsDAAAoqaWTIw4tya6ofwa6f2LMqOGx+45bsjMAAArh5FMPZyfAn6k4oQsAAAAAAAAAJDvz3OPR0OCoEAAA0PcGt0d8viO7ohgMdL/Cofu2R3fXgOwMAIC6dtet62LShHHZGfBnDHQBAAAAAAAAgEzbb18fM6ZMzs4AAABK6vMdEYM7siuKwUD3K3S0t8XTj+zLzgAAqFvtbdU48uCe7AwAAAAAAAAAAKgpQwZ1x1MP7c3OAAAASur+6yOWXp5dURwGun/BbetWxNyZ07IzAADq0mMHdkVXZ//sDPhKDugCAAAAAAAAAFmeP/JAtLdVszMAAIASumpMxOmN2RXFYqD7NU4/82j06+efCADgQowbMyp2btmQnQF/UcVCFwAAAAAAAABIcMOCubF2+Q3ZGQAAQAkNaI34xd6IpobskmKxPv0al40fa1wCAHCBXnrqoWho8Fs7NcxAFwAAAAAAAADoY9XWlnjl+OHsDAAAoIQqEfGj3REjB2SXFI+B7jd47MCu6O7ykwcAcD6WLpof18+fk50BX6sSBroAAAAAAAAAQN96+pF9MWr40OwMAACghI6uilh6eXZFMRnofoOO9rY4fnh/dgYAQF147vH7sxPgGzmgCwAAAAAAAAD0pevnz4m7b1ufnQEAAJTQookRx2/KriguA93zcOva5TF35rTsDACAmvbo/p1xyeiR2RkAAAAAAAAAAFAzBnR2xFsvPpWdAQAAlNDIARE/3ePAUW8y0D1Pp44eyk4AAKhZE8aNift3bc3OgPNS8QkTAAAAAAAAAOgj33nuiRjU3ZWdAQAAlExTv4hf7I3obs8uKTYD3fN0+WXjY9/2zdkZAAA16fVnH4/GxobsDDgvBroAAAAAAAAAQF+4edWSWH7DguwMAACghF7bFHHVmOyK4jPQvQCP7NsRI4YNyc4AAKgpWzbcFHNmTM3OgPNmoAsAAAAAAAAA9Lahg7vj1NGHszMAAIAS2jY3Yv+i7IpyMNC9ANXWljh9/HB2BgBAzRg4oDOePrQvOwMuiH0uAAAAAAAAANDb3jl1LPp3tGdnAAAAJbPw0ogPt2VXlIeB7gVavPDquHnVkuwMAICacOKxAzGgsyM7Ay5IJSx0AQAAAAAAAIDes33zzTF/zszsDAAAoGTGdEX8Ym9EU0N2SXkY6F6E5488EJ39DVEAgHJbMGdmbFqzPDsDLljFCV0AAAAAAAAAoJeMHT0inj60LzsDAAAomY7miF/vjxjYll1SLga6F6G7a0A8fei+7AwAgDTNTU3x2onHsjMAAAAAAAAAAKBmVCqVOPfKM9Ha0pydAgAAlEglIn60J2LKiOyS8jHQvUh3bFwds6dPyc4AAEjx6P6dMXa0396pTy7oAgAAAAAAAAC94eA9d8b0KZOyMwAAgJJ5fm3EiiuyK8rJQPdbeP25x6OhoSE7AwCgT02fMin27dicnQEXzT4XAAAAAAAAAOhpl182Ph6+9+7sDAAAoGRunRVxZEV2RXkZ6H4LE8eNjYfuvSs7AwCgz7Q0N8e7Lz/tAin1zc8vAAAAAAAAANCDmhob49zpZ6Kx0eEfAACg78wZG/E97wlKZaD7LT24e1tMmTQhOwMAoE8ceXBPjBszKjsDvpVKGOgCAAAAAAAAAD3n2KH7YuK4sdkZAABAiYzrjvjVvoiWxuyScjPQ/ZYaGxvi7VPHoqHBG68AgGKbM2Nq3LNtU3YGfGsuQAMAAAAAAAAAPWXxwqtj99ZbsjMAAIAS6WyN+JsDEYM7sksw0O0Bky69JB7dvzM7AwCg17Q0N8fbp44ZNgIAAAAAAAAAwL8aPnRwvH3yWHYGAABQIg2ViJ/fG3HZ0OwSIgx0e8yBnVti5tTJ2RkAAL3i2KG9MXrEsOwM6BF25gAAAAAAAADAt9XQ0BAfvf5cDOh0sgoAAOg75+6IuP6y7Ap+x0C3h/Tr1y/ePnUsWpqbs1MAAHrUnBlTY+eWjdkZ0GNcggYAAAAAAAAAvq0nHtgTM6ddnp0BAACUyOGlETvmZ1fwhwx0e9C4MaPiiQf3ZGcAAPSYamtLvH3yaHYG9CgDXQAAAAAAAADg21i88OrYt2NzdgYAAFAia6ZFnFyfXcGfMtDtYXu2bYq5M6dlZwAA9IgXnzwYo0cOz86AHmWgCwAAAAAAAABcrMHdA+Ptk8eyMwAAgBKZOzbii10RHoOuPQa6PaxSqcTZl56KarU1OwUA4FtZdv2CuH39quwM6HE+lwIAAAAAAAAAF6NSqcQHr52IAZ0d2SkAAEBJTBoa8av9EdWm7BK+ioFuLxg9cnicOHwgOwMA4KINHdwd33n+SHYG9AoXdAEAAAAAAACAi/HYgV1x9awrszMAAICSGDkg4r9+MGJQe3YJf4mBbi/ZtmlNrF66KDsDAOCivHPqWHR19s/OAAAAAAAAAACAmrBg7qx4YPfW7AwAAKAkuqq/HeeOHJBdwtcx0O1Frz/7eIwcNiQ7AwDgguy6Y2PMnzMzOwN6jQu6AAAAAAAAAMCFGNw9MM6dPu6ZAwAAoE+0Nkb8zYGISUOzS/gmBrq9qKO9Lc6dfsaHcQCgbkwYNyaOHbovOwN6ld/PAQAAAAAAAIDzValU4oPXTkR3l7NVAABA72uoRPzs3oi5l2SXcD4MdHvZVdOnxCP7dmRnAAB8o6bGxjh3+plobmrKToHeZZ8LAAAAAAAAAJynQ3vvjqtnXZmdAQAAlMT37o5YfkV2BefLQLcPHNyzLebNnp6dAQDwtR47sCuuuOzS7AzodS7oAgAAAAAAAADnY+7MafHw3ruzMwAAgJJ4dWPEljnZFVwIA90+0K9fv3j35eMxoLMjOwUA4CstmDMz9u3YnJ0BfaLihC4AAAAAAAAA8A2GDu6Oj15/zovAAQCAPvHkioiHbsyu4EIZ6PaRoYO7480XnszOAAD4M4O7B8a5V5/xZQIAAAAAAAAAAEREa0tzfHb2VAzq7spOAQAASmDPgojn1mZXcDEMdPvQ0kXzY/vmm7MzAAB+r1KpxEdnnovurgHZKdBnjNEBAAAAAAAAgK/zzqmnY9rlE7MzAACAErj9qoh3t2RXcLEMdPvYiUcPxJRJE7IzAAAiIuKxA7tizoyp2RnQp+xzAQAAAAAAAIC/5IHdW2PF4oXZGQAAQAncNDXis+2eb65nBrp9rKmxMT4+83y0t1WzUwCAklswZ2Y8sHtrdgb0ORd0AQAAAAAAAICvcsOCufH4/buzMwAAgBJYOjnip3siGiw865r/fAnGjBoeb774ZHYGAFBig7sHxrlXnzFUpJT83AMAAAAAAAAAf+rSS0bH+6+e8FwBAADQ6+aNi/jF3ojmxuwSvi0D3SQrF18bu7fekp0BAJRQpVKJj848F91dA7JTIEUlfJEGAAAAAAAAAPybjva2+Pztl6O9rZqdAgAAFNz0kRF/e39Ea1N2CT3BQDfR04f2xcypk7MzAICSOfLA7pgzY2p2BgAAAAAAAAAApKtUKvHxmedj7OgR2SkAAEDBTR0R8XcHIzpaskvoKQa6iRobG+LD15+Lzv4d2SkAQEksXTQ/7t+1NTsDUlUc0AUAAAAAAAAA/tXTj+yLhVfPys4AAAAKbuqIiH98KGJgW3YJPclAN9mIYUPi7ZNHszMAgBKYMG5MvHPqWHYGpKtY6AIAAAAAAAAAEXHL6mVx7523ZmcAAAAFZ5xbXAa6NeDGa6+JfTs2Z2cAAAXWVq3GZ2dPRntbNTsF8hnoAgAAAAAAAEDpzZw6OV579rHsDAAAoOCMc4vNQLdGHH1ob8yfPSM7AwAoqPdOH49LRo/MzoCa4IIuAAAAAAAAAJTb0MHd8elbJ6OpsTE7BQAAKLCZo4xzi85At4Z8eOa5GDNqeHYGAFAwj9+/O5Zce012BtQM+1wAAAAAAAAAKK/mpqb47OypGNTdlZ0CAAAU2MxREX9vnFt4Bro1pKuzf3z+9svRVq1mpwAABbFy8bXx4J5t2RlQUyphoQsAAAAAAAAAZfXeK8dj2uUTszMAAIAC+904t7M1u4TeZqBbYyaMGxPvv/pMVJz1AgC+pckTx8fZk0ezMwAAAAAAAAAAoCa8cOTBWLF4YXYGAABQYFdfEvEPxrmlYaBbgxYvvDqeObw/OwMAqGNdnf3js7Mno9rakp0CNcfLcAAAAAAAAACgfPbt2Bw7tmzIzgAAAAps8WURf3cwor9xbmkY6NaoPds2xR0bV2dnAAB16sPXn41Rw4dmZ0BNMtAFAAAAAAAAgHJZu/yGOPrQ3uwMAACgwDbOiPj3ByKqTdkl9CUD3Rp26ujDMXfmtOwMAKDOvHPqWMyfMzM7A2qWfS4AAAAAAAAAlMfCq2fF2ZeOZmcAAAAFdvc1ET/aHdHUkF1CXzPQrWENDQ3x3TdfjDGjhmenAAB14uA9d8b6lTdmZ0BNc0EXAAAAAAAAAMph8sTx8d03XojGRk/JAwAAvePAooiP73REqKwMdGtcV2f/+Pztl6O9rZqdAgDUuHUrFsdjB3ZlZ0DNM9AFAAAAoFaMGellzQAAAL1l1PCh8eW509FW9QwuAADQO15YG/HGbdkVZDLQrQMTxo2J7735ord3AQB/0VXTp8SbLz6ZnQEAAAAAwHkaO3pE/OyTN7IzAAAACqmzf0f86IPXYsig7uwUAACgoN7dEnFkRXYF2Qx068T8OTPjzLNHsjMAgBo0bsyo+OzsyWhqbMxOgbpQCRd0AQAAAMg1YdyY+OX33ooRw4ZkpwAAABROS3Nz/OCdl2PcmFHZKQAAQAG1Nkb8en/EPQuzS6gFBrp1ZOPqpXF4/87sDACghgzo7Igvz52Ors7+2SlQNyr2uQAAAAAkmjRhXPzskzddcQIAAOgFlUolPnz92Zh15RXZKQAAQAENbo/4bx6OWOEjB//KQLfOPHzvXbHhpiXZGQBADWhqbIzPzp6K0SOHZ6dAfbHQBQAAACDJ1MkT42efvBGDBg7ITgEAACikV55+JG689prsDAAAoIAuHRTxPz4WMXtsdgm1xEC3Dp157kjMnz0jOwMASFSpVOKD107E7OlTslOg7lQMdAEAAABIMHPq5PjpR2eiq7N/dgoAAEAhPXzvXXHHxtXZGQAAQAFdMy7if3gsYmx3dgm1xkC3DjU1NsYnb7wQl403tweAsnrtxKOx7PoF2RlQlwx0AQAAAOhrc2ZMjR998Hr072jPTgEAACikzTevisP7d2ZnAAAABbRxRsQ/HIwY2JZdQi0y0K1T/Tva4wfvnY4hg8zuAaBsnjp4b9y+flV2BtQt81wAAAAA+tKCOTPji3OvRntbNTsFAACgkFYuvjZOHz+cnQEAABTQoRsjfrwnorkxu4RaZaBbx0YOGxKfnT0ZrS3N2SkAQB/ZvfWW2L9zS3YGAAAAAADnYdG8OfH9d05FtbUlOwUAAKCQllx7TZw7/Uz06+eRaAAAoGe9tyXilY3ZFdQ6n0br3JVXXBafnT0ZTY1m+ABQdDevWhLPPnZ/dgbUvUrFDV0AAAAAet+S6+bFp2dfipZmL1wGAADoDfNmT48PzzwXjY0N2SkAAECBdDRH/N2DEXsWZpdQDwx0C2DB3FnxwWsnvP0LAAps6aL58eYLT2RnQCEY6AIAAADQ25ZcNy8+PvO8Fy0DAAD0kulTJsX3z56K5qam7BQAAKBAxnRF/MfHIq6/LLuEemHRWRDLrl8Qb77wZHYGANAL5syYGh+8diIaGrztE3qCgS4AAAAAvWnVjdfFx2eed8EJAACgl1xx2aXx5blXo1ptzU4BAAAKZNboiP90JOLyYdkl1BMD3QLZcNOSOPHogewMAKAHXXnFZfH5Oy972yf0IPtcAAAAAHrL+pU3xrnTx41zAQAAesn4saPixx++Hp39O7JTAACAAll/ZcQ/HYoY1J5dQr0x0C2YPds2xf27tmZnAAA94LLxY+OH752Ojva27BQoFBd0AQAAAOgNt65dHm+fPBoNDca5AAAAvWHMqOHx04++EwMHdGanAAAABfLEioi/ujei1U0tLoKBbgE98eCeuH39yuwMAOBb8IUCAAAAAED92HrLmjjz3BEvhwMAAOglQwd3x08/+k4MGzIoOwUAACiQT+6MeH5tdgX1rDE7gN7x6jOPxv/9//y/8de/+YfsFADgAv3uC4VB3V3ZKVBIlfCQJAAAAAA9Z8eWDfHCkQezMwAAAAqrq7N//PSj78So4UOzUwAAgIIY1B7xq30Rcy/JLqHeuaBbUP369Yv3Xz0RS66bl50CAFyAQQMH+EIBepkrJgAAAAD0lPvuvt04FwAAoBf172iPH3/4elx6yejsFABDhShtAAAgAElEQVQAoCCmjYj4T48b59IzDHQL7sPXn42FV8/KzgAAzkP/jvb4yUff8YUC9DYDXQAAAAB6wCP7dsSxQ/dlZwAAABRWtbUlvnz/1ZgyaUJ2CgAAUBA3TY347w5HjBmYXUJRGOgWXHNTU3z61kkjXQCocW3Vanz5/qsx6VKv4YHeZp8LAAAAwLd19OG9cWjv3dkZAAAAhdXS3ByfvX0qZkyZnJ0CAAAUxJHlEb/cG9HWnF1CkRjolkBrS7ORLgDUsJbm5vji3GlfKEAfqVjoAgAAAPAtPH/kgdi3fXN2BgAAQGFVq63xg3dfifmzZ2SnAAAABdDaGPHFzogX1jn0Q88z0C2J3410r551ZXYKAPAHmpua4vtvn4zZ06dkpwAAAAAA8A1ePvZI7NyyMTsDAACgsDr7d8RPPzoT82ZPz04BAAAKYGhHxD8dirj1quwSispAt0RaW5rjB++8bKQLADWitaU5Pn/nVCyY68o99CUXdAEAAAC4GGeeOxLbNq3JzgAAACisgQM64xfffTNmTJmcnQIAABTAtZdG/PORiFljsksoMgPdkqlWW+MH77wcs668IjsFAEqttaU5vjj3qnEuJKiEgS4AAAAA569fv37x9smjcdu6FdkpAAAAhTVsyKD45adnY9KEcdkpAABAnatExJHlEX93MGLEgOwais5At4Sq1db48tyrcdX0KdkpAFBKbdVqfHHu1Zg7c1p2CpSSA7oAAAAAnK+GhoY4d/qZuHnVkuwUAACAwhozanj88tOzceklo7NTAACAOje4PeK/eiDihXURDZaT9AE/ZiXV3laNL8+djmuuujI7BQBKpa1ajR9/8JpxLiSqWOgCAAAAcB4aGxvi4zPPxU1LrstOAQAAKKxJl14S/+6zt2P0iGHZKQAAQJ279tKI//mpiMWTsksoEwPdEmurVuOH752OG6+9JjsFAErhd+PcmdMuz06BUjPQBQAAAOCbNDc1xadvnYyli+ZnpwAAABTWzGmXx8+/+1YM7h6YnQIAANSxfpWIY6si/v6hiGH9s2soGwPdkmtpbo5PvvNCrFi8MDsFAAqto73NOBdqhIEuAAAAAF+ntaU5Pn/nVFw/f052CgAAQGEtmDsrfvLhmRjQ2ZGdAgAA1LFh/SP+/mDEM6t/O9SFvmagSzQ2NsSHrz0bG1cvzU4BgELq6uwfP/7gdeNcAAAAAIAa11atxhfnXo0Fc2dlpwAAABTWTUuuix+8+3JUW1uyUwAAgDq27PKI/+mJiGsnZJdQZo3ZAdSGfv36xZsvPBn929vjky9+lp0DAIUxdHB3/NXHb8T4saOyU4B/5eVYAAAAAHyVjva2+PLcq162CAAA0Iu23rImXj52KCoV394DAAAXp6lfxPPrIh5ZEuGjBdkMdPm9SqUSLz31UDQ3N8W5T3+UnQMAdW/cmFHxow9ei1HDh2anAH/IJ3EAAAAA/sSAzo740fuvx7TLJ2anAAAAFNYDu7fGkQf2ZGcAAAB1bFx3xI92R8wem10Cv2Wgy5858eiBGNw9MF78zrnsFACoW9Munxg/fO90dHcNyE4B/oS38AIAAADwh7q7BsRPPnw9Jk8cn50CAABQWM8feSB2btmYnQEAANSx266K+GBrREdLdgn8GwNdvtIDu7fGkEED49Dxl+Nf/uVfsnMAoK7MnTktfvDuy9FWrWanAF/BQBcAAACA3+nuGhA/++4bMXGc16wDAAD0lrdPHo2bVy3JzgAAAOpUR3PE2c0Rd16dXQJ/rl92ALVry4ab4ntvvRQtzc3ZKQBQN5Yumh9fvv+qcS7UMPtcAAAAACIiBncPNM4FAADoRYO6u+JX33/HOBcAALhoM0ZF/PMTxrnULgNdvtaSa6+Jv/rkjejq7J+dAgA1b/3KG+OT7zzv5RYAAAAAADVu+NDB8ctP3zLOBQAA6CWTJ46P33zxfsycdnl2CgAAUKceXxbxz0ciJgzOLoG/zECXbzRz6uT41efvxOgRw7JTAKBmHdh5R7xz6lj06+fXK6h1FSd0AQAAAEpt9Ihh8YvvvhmXjB6ZnQIAAFBIKxYvjF999nYMH+opegAA4MIN7x/x9wcjXlyfXQLfzIKE8zJuzKj49efvxqQJ47JTAKCmVCqVOPPckXjy4D3ZKcB5qoSBLgAAAEBZjR09In7+3Tdj9Mjh2SkAAACFdPCeO+PjM89HtdqanQIAANShtdMi/pdjEYsmZpfA+THQ5bwN6u6Kv/70bMyfPSM7BQBqQrW1JT47ezJuW7ciOwW4AC7oAgAAAJTThHFj4pffeytGDBuSnQIAAFA4Lc3N8d4rx+OxA7uyUwAAgDrU3hzxwdaIn++N6Kpm18D5M9DlgnS0t8UPz52OtctvyE4BgFSDuwfGLz89G4sXXp2dAlwg+1wAAACA8pk0YVz87JM3Y8ig7uwUAACAwhk6uDv++rOzni0FAAAuyqzREf/5iYid87NL4MIZ6HLBmhob471XjsfD996VnQIAKSZdekn8zQ/fiymTJmSnABfBBV0AAACAcpk6eWL87JM3YtDAAdkpAAAAhXPV9CnxH370YUydPDE7BQAAqDP9KhFPrIj47x+NuHRwdg1cHANdLtrh/TvjvVeOR0tzc3YKAPSZBXNnxb/7/jsxYtiQ7BTgIhnoAgAAAJTHzKmT46cfnYmuzv7ZKQAAAIWzac3y+NnHb8Sg7q7sFAAAoM5MHBzxjw9FPL82otHCkTrWmB1AfVu7/IYYN2ZUbLnvcPwf/+f/lZ0DAL1q/cob460Xn4yGhobsFAAAAAAAvsGcGVPjB+++Eu1t1ewUAACAQmlsbIhnH70/tm++OTsFAACoM80NEY8ti3hqZUSzZSMFYF/Ot3blFZfFb754PyZPHJ+dAgC9olKpxFMH7413Th0zzoUCcEEXAAAAoPgWzJkZX5x71TgXAACghw0c0Bl/9fEbxrkAAMAFmzcu4p+PRJxYY5xLcRjo0iOGDx0cv/rs7Vhy7TXZKQDQozra2+KL907H/p1bslMAAAAAADgPi+bNie+/cyqqrS3ZKQAAAIVy+WXj42+/fD9mT5+SnQIAANSRztaIN2+L+KdDEVcMz66BnmWgS4+pVlvje2+9FAd23pGdAgA94pLRI+NvvzgX115zVXYK0INc0AUAAAAoriXXzYtPz74ULc3N2SkAAACFcsfG1fHrz9+NUcOHZqcAAAB1ZPXUiP/1aMT+RREe4aWIHIOmR1UqlXjy4D0xacK4eODJF7JzAOCiLbx6Vnz0+nPRv6M9OwXoYQa6AAAAAMW06sbr4r1XjkdjY0N2CgAAQGG0tjTH6eOPxsbVS7NTAACAOjK8f8TZzREbZmSXQO9yQZdeceva5fHrH7wbI4YNyU4BgAu2b/vm+OK908a5UFAGugAAAADFs37ljXHutHEuAABATxo/dlT8+x+eM84FAADOW7/Kb6/l/m/HjXMpBwNdes2MKZPjN1++HwuvnpWdAgDnpbmpKd5/9UQcfXhv9Ovn1yQAAAAAgHpw69rl8fbJo9HQYJwLAADQU9Ysuz5+8+X7MenSS7JTAACAOjFleMR/fDTizdsiOlqya6BvWJ7Qq7q7BsQX752O/Tu3ZKcAwNcaNmRQ/Px7b8bqpYuyU4Be5oAuAAAAQHFsvWVNnHnuSFT8Tx8AAIAe0dTYGC8+cTDOnX4m2qrV7BwAAKAOtDdHvLIh4j8/EXHVmOwa6FuN2QEUX79+/eKpg/fGrGlXxP1PvhD/5b/8f9lJAPBHrps3O959+ekYOKAzOwXoAx7WBAAAACiGHVs2xAtHHszOAAAAKIwxo4bH+6dPxPQpk7JTAACAOrHiiogPt0WMHJBdAjlc0KXPrF66KP7mh+/FhHFehQBAbahUKnF4/8744buvGOdCiVTCQBcAAACg3t139+3GuQAAAD1oy4ab4u9/8rFxLgAAcF5Gd0X8ZE/Er/cb51JuLujSpyaOGxt/88P34t7DJ+I3//DfZucAUGKDBg6Ic6efiflzZmanAH3MBV0AAACA+nbwnjvjsQO7sjMAAAAKobN/R7zx/BOx/IYF2SkAAECdeGRJxLFVEf1bs0sgnwu69Lm2ajW+9+aLcfThvdkpAJTUzGmXx3/48UfGuVBS9rkAAAAA9evow3uNcwEAAHrIvNnT4x9/9l3jXAAA4LzcNDXifz8e8fIG41z4HQNd0uzbvjl+/YN3Y+SwIdkpAJTIPXfeGr/47lsxdHB3dgoAAAAAABfg+SMPxL7tm7MzAAAA6l5jY0M8efCe+MmH/z979x1dd13/cfydnTQ76R7p3nvvXWhZbQU6WC27tAIyBWSIgiKCSOEngiCtuBAQUBn+FERAGUpRQBkCgoAyRabF0vH7I4jyY3Uk+dybPB7n3JObweEJ57Rpc7+v72ela2gAAICP1btNxE2HRVy/PKJH69Q1kFkMdElq6IC+ccvVq2LO9EmpUwBo5srLSmP1yi/E5479ZOTn56XOARLKcYQuAAAAQNb5wgmHx/577Jo6AwAAIOt169Iprv/O1+PQ/ff0+jkAAPCRKoojzpof8eDJETP7pq6BzGSgS3IV5WWxauXpcebJR0VRYWHqHACaoWED+8at16yO2dMnpk4BMoAXGAEAAACyy1mnHGOcCwAA0ACWLpwXt1y9KoYM6JM6BQAAyGC5ORH7j494/NSIY2ZF5FsgwofKTx0A/7ZkwdwYO3xwHHDUKfH4k0+nzgGgGcjNzY0jDto7jjpkaeTlOTUX+DcDXQAAAIBssfL0E2Lh3NmpMwAAALJabU1VnHf6CTFj0tjUKQAAQIab2CPia4sihnZKXQLZwX6djNK3V/e46cpvxqJ5O6ROASDLtW/bOq7/zgVx7Cf3N84F3sMBugAAAACZLzc3N75+5snGuQAAANtou6kT4rZrv2WcCwAAfKSuNRGX7xfxq6OMc2FLOEGXjFNcVBjnnnZcTB0/Ko79/Nnx5j/Xpk4CIMvsOHNynHva8VFeVpo6BchAORa6AAAAABktLy8vvnH2qbHjzMmpUwAAALJWq5KS+Nyxn4y9d985dQoAAJDBygojjt8+4phZEUWWhrDF/LIhY31ix5kxbuSQWHH8aXHXmvtT5wCQBVqVlMQXP3O4k9iBj2SgCwAAAJC58vPzYtW5p8esKeNTpwAAAGStYYP6xYVfPiW6du6YOgUAAMhQuTkRS8dGfGleRNvy1DWQvQx0yWgd2rWJqy9dGRd/56r44sqL41/r1qVOAiBDDR3QN75x9qlR17lD6hQAAAAAALZCYUFBXPY/Z8TU8aNSpwAAAGSl4qLC+PShB8SyfRZEbm5u6hwAACBDTewR8bVFEUM7pS6B7Odv32S8nJycOHifBfGzKy6Ofr27p84BIMMU5OfH8YcdGDd87+vGucBmcYIuAAAAQOYpLiqM71/4ZeNcAACArTR62KD4xQ9XxfKli4xzAQCAD9SjNuLKAyJ+dZRxLjQUJ+iSNfr06Bo/+8HF8ZWvr47zv/m92LhxY+okABIb0KdnXPClk6JvLzdwADaffS4AAABAZmlVUhKXX3RWjB42KHUKAABA1ikpKY7PHH5QHLDnrm5YDQAAfKDutREnzYlYMjYi3/18oEEZ6JJV/n1K4pzpk2LZpz8XTz3zbOokABLIz8+LIw7aJz510D6Rn5+XOgfIMjnhBUkAAACATFFW2iquvPicGDaoX+oUAACArDNh1LA497Tjo0un9qlTAACADNS1JuLE2RH7jTfMhcZioEtWGjaoX/zyh6vi8+d8PVb/4EepcwBoQn16dosLvnRSDOzbK3UKkKXcMRgAAAAgM1RWlMVVl5wbg/r5eS8AAMCWKG1VEicdeUjsu2he6hQAACADdamKOHFOxP7jIwqchwWNyvadrFVSUhxnnHhkXPedC6Kuc4fUOQA0stzc3Dj8wL3ipisvMc4FtomBLgAAAEB6NVWV8aPV5xvnAgAAbKG5s6fHHdd91zgXAAB4n85VEV9bGPHYqRHLJhnnQlNwgi5Zb+SQAXHbtd+Ksy5YFV9f/YPYuHFj6iQAGlivbnVx/hc/E8MG9UudAgAAAADANmpdUx3XrF4ZvbrVpU4BAADIGj27dYmzPntMjB85NHUKAACQYdqXR5wwO+LwaalLoOUx0KVZKCosjJOOWBbz58yMw078Qjz86BOpkwBoAEWFhXHksiWxYr/FUZDvjy1Aw3CALgAAAEA67du2jmtXnxddO3dMnQIAAJAVSkqK46hlS+KQJYsiP9/xVwAAwH+0K484bruIFVMiilxuD0n4pUezMqhfr7jpikvi/G9+L7560WWx7u23UycBsJUmjB4e53zuWBdpAQ3PQhcAAAAgic4d2sU1q1ZG547tU6cAAABkhZ23mxqnHXdYtG/bOnUKAACQQdqURRw7K+LQqRElBalroGUz0KXZycvLiyMO3ifmzp4eK447Le578JHUSQBsgZqqyvjs0ctj4bw5qVOAZirHQBcAAACgydV17hDXrjovOrRrkzoFAAAg43Xt3DHO/uwxMWnsiNQpAABABqktjThmZsTh0yJaFaauASIMdGnGenTtHD+9/KJY/YMfxelfvTDe/Ofa1EkAfIwFu2wfnz/usKiqKE+dAjRjOWGgCwAAANCUenbrEtesWhltamtSpwAAAGS0kuKiOPzAvWPFfoujsMAxWAAAQL3qkoijZkYcMT2irCh1DfDfDHRp9vZdNC922W5qnHr2BXHVdT9LnQPAB6jr3CHOOfXTMXHM8NQpQAvgAF0AAACAptOnZ7e4+tKVUVtdmToFAAAgo82ZPilOP+Hw6NS+beoUAAAgQ7Qrrx/lLp8cUVmSugb4IAa6tAi1NVVx/hc/E0sWzo0jTzkzHn/y6dRJAEREcVFhHHrAXnHo/ntEUWFh6hyghcix0AUAAABoEgP79oqrvvnVqKooT50CAACQsbp0bB9nnnxUTJ84JnUKAACQIQZ2iDhqRsQ+YyIK8lLXAB/FQJcWZfSwQfHLq1fHN759ZZx94epYu/at1EkALdZOs6bE5487LDq2a5M6BQAAAACABjawb6+4ZtXKKC8rTZ0CAACQkUpblcSh++8ZRxy8T+oUAAAgQ8zoE3H0zIgdB6YuATaXgS4tTn5+XqzYb3HsutOsOOlL58X1N92WOgmgRenVrS6+fMpRMX7UsNQpQAvlBF0AAACAxjVsYN+44uJzjHMBAAA+QElxUey/565x2P57RWVFWeocAAAgsfzciIUjIo7fPmJwx9Q1wJYy0KXFat+2dVxyzufj1jvvieNOOyf+8szfUicBNGtlpa3i6OX7xkF77RZ5eXmpc4AWzEAXAAAAoPGMGjowLr/o7ChtVZI6BQAAIKMUFhTE3rvvEkcu2yda11SnzgEAABKrKI44cEL9ibkdK1PXAFvLQJcWb+r4UXH7jy+LS777w/jqRZfF62+8mToJoNlZOHd2nHL0iqit9jcHID3zXAAAAIDGMWHUsPjOBWdGSXFR6hQAAICMkZeXFwvnzo5jV+wXHdq1SZ0DAAAk1rkq4vBpEcsm1Y90gexmoAsRUZCfH8uXLoqFc+fEWV+7NL591U9i48aNqbMAst7g/r3jSyceGSOGDEidAvAuJ+gCAAAANLwp40bFZf/zxSgqLEydAgAAkBFycnJi3pwZccJhB0Zd5w6pcwAAgMSGdoo4bruIPUalLgEakoEu/Jfa6sr40klHxn6L58dJZ54fv7r73tRJAFmpTW1NnHjEQbFw7hxDOCDj+H0JAAAAoGHNnDwuVq08PQryvfwMAAAQETF7+sT4zOEHRZ+e3VKnAAAACRXkRuw6LOLQqRGTeqauARqDV0jhA/Tt1T2uvPicuOm2O+PUsy+Ix598OnUSQFYoLCiIg/bZPY5atiRalZSkzgEAAAAAoJHtMGNyfOPsUyM/Py91CgAAQHJTx4+KE49YFoP7906dAgAAJNS+POLgSRHLJ0e0r0hdAzQmA134CLOmjI9pE8bEqsuvia9cuDpefe2N1EkAGWv7aRPi858+NLp27pg6BeAjOUEXAAAAoGHMmzMjvnbGiZGXZ5wLAAC0bCOGDIhTjloeY0cMTp0CAAAkNL57xCenRCwcEVHg5RNoEQx04WPk5+fFQXvvHgvmzo7zv/nduPR7V8db/1qXOgsgY/TqVhdfPuWoGD9qWOoUgM1jnwsAAACwzRbssn2sPP0EN0MDAABatHEjh8ShB+wVMyeNTZ0CAAAkUpwfsWhkxBHTI4Z1Tl0DNDUDXdhMVRXlcfKRh8RBe+0eZ399dVx+7Y2xYcOG1FkAydRWV8bhB+4dB++zIHUKwBZx0SgAAADAttlrt53jrFOO9nMWAACgxZo1ZXwccfA+MXLIgNQpAABAInXVEYdMilg2KaKmNHUNkIqBLmyh9m1bx9mfPSaWL10UXzr/krju57emTgJoUtWVFbFiv8VxwJ67RUlxUeocgC2W4whdAAAAgK223x6fiC+e8KnUGQAAAE0uNzc35s2ZHkcctE/06dktdQ4AAJDI9N4Rh06NmDckIi83dQ2QmoEubKWe3brExV/5XPz+j4/E58++IO5cc1/qJIBGVV5WGsv2WRCHLF0Upa1KUucAbDUnuwAAAABsneVLF8UpRy9PnQEAANCkigoLY9G8OXHYgXtF5w7tUucAAAAJdKyMWDIm4oAJEb3apK4BMomBLmyjYQP7xtWrVsbtd62JL5z7jbjvwUdSJwE0qJKS4jhwz93ik/vtEZUVZalzAAAAAABI4OhDlsYxK/ZLnQEAANBkSluVxNJF8+KQJQujTW1N6hwAAKCJFeZFzB0csd/4iNn9nZYLfDADXWggk8eNjJ9eflH87y2/jq9cuDoeeOjR1EkA26S4qDCWLpwXhx24d9RWV6bOAWgwDtAFAAAA2DInH3VIrNh3ceoMAACAJlFbXRkH7LlbHLDnrlFR7mb2AADQ0gzrVD/K3Xt0RE1p6hog0xnoQgObPX1izJ4+MX5+6x3xla9/y4m6QFY6cK/d4rAD9oq2rd39E2h+cix0AQAAADbbF044PPbfY9fUGQAAAI2uU/u2ccjSRbH37rtEcVFh6hwAAKAJ1ZZG7Dkq4qCJEYM7pq4BsomBLjSS7aZOiO2mToibb78rzr5gVfz+j4a6QGYrKS6KJQvmxmEH7BW1NVWpcwAajYEuAAAAwOY565RjYu/dd06dAQAA0KgG9OkZB+29eyyev0PqFAAAoAnl5URs3z9iv3ER84dGFOSlLgKykYEuNLKZk8fFzMnj4he/ujvO/vrq+N0DD6VOAniPViUlsd8e8+OT++0R1ZUVqXMAGp2BLgAAAMDHW3n6CbFw7uzUGQAAAI2isKAg5s6eHksXzYtRQwemzgEAAJpQv3YRS8ZELB0X0bEydQ2Q7Qx0oYnMmDQ2ZkwaGzffflec/83vxt33PpA6CWjhykpbxQF77hrLly6Oyoqy1DkATcY8FwAAAODD5ebmxtfOODHm7zAzdQoAAECD69KpfSxZMDf22m1nN7IHAIAWpFfriEUjIxaOiBjSKXUN0JwY6EIT+/eJun94+LH4xreviB/99JZY9/bbqbOAFqSyoiwO3HO3OGjvBYa5QIvkBF0AAACAD5aXlxffOPvU2HHm5NQpAAAADSYnJydmTBwT+y6eHzMnj/OaMQAAtBDdauoHuYtGRozokroGaK4MdCGRQf16xXlf+Ex89phPxrev/HGs/sG18fyLf0+dBTRjHdq1iYP3WRBLF8yNkpLi1DkAAAAAAGSQ/Py8WHXu6TFryvjUKQAAAA2ipqoyFs/fIfZbPD86d2yfOgcAAGgCXaoiFoyIWDQiYky31DVAS2CgC4nVVlfGEQfvE4fuv2fccPNtccl3fxi//f0fUmcBzciwQf1in913iT133Sl1CkBGcDdkAAAAgPcqLCiIy/7njJg6flTqFAAAgG02fHD/2HfR/Jg3Z3oUFRamzgEAABpZh4r6Ue7CERETe6SuAVoaA13IEPn5eTF39vSYO3t6PPTon+Oiy66Ia264Oda9/XbqNCALVVaUxW47bR9LF86NPj27pc4ByCwGugAAAADvKiwoiO9f+OWYMHp46hQAAICtVlJcFPN3mBn777FrDOrXK3UOAADQyNqWRew2vP6k3Cm9XBoKpGOgCxmof+8ece5px8dnj1kRl197Y3z7yh/HE0/9NXUWkAXGjRwSe+66c8ydPc0dQAE+RK6fwgAAAABERERxUWF894IzjXMBAICsNWHUsFg0f4eYNmF0tG1dkzoHAABoRD1qI+YNqX9M7hWR63JQIAMY6EIGq66siOVLF8XypYvi9rvWxGVX/jh+esuvYv36DanTgAxSW10ZC3aZHUsWzovudZ1S5wBkvBwDXQAAAIBoVVISl190VoweNih1CgAAwBbp0rF9LJw7OxbP3yE6d2yfOgcAAGhEI7vUD3LnD40Y3DF1DcD7GehClpg8bmRMHjcyXnjp5fje1dfHd394XTzz7POps4CEpowbFXvttlPsMHNyFOT7lg4AAAAAwOYpK20VV158Tgwb1C91CgAAwGYpKS6KnWZNjUXz5sTEMcPdmBkAAJqpgtyIaX3qR7m7Do3oUJm6COCjWfNAlmnbuiaOOHifOPzAveKWX/8mvnXFj+Om2+6MTZs2pU4DmkC7NrWxaN6c2Gf3XdwBFGAreaEWAAAAaMkqK8riqkvOjUH9eqVOAQAA+Fijhg6MxfN3iHlzZkRZaavUOQAAQCNoUxYxf0jEdv0idhgYUVaUughg8xnoQpbKzc2NmZPHxczJ4+Kvz70Q37nqJ/H9a26I51/8e+o0oIHl5ubGjEljY6/ddortpoyPvLy81EkAWc1AFwAAAGipaqoq4+pLz42+vbqnTgEAAPhQ7du2jt133j723HWn6F7XKXUOAADQwApyIyb2jJgzoP4x1B/7gSxmoAvNQKf2beO4Qw+IY5bvG7feeU9cfldeCw0AACAASURBVO2N8b+3/DrWvf126jRgG3Tu0C4Wf2LH2Gf3XaJt65rUOQDNhn0uAAAA0BK1rqmOa1avjF7d6lKnAAAAvE9hQUHMnj4xFs3fIaZPGB25ubmpkwAAgAbUreY/g9xZ/SJKC1MXATQMA11oRvLy8mLGpLExY9LYePW1N+KaG26Ky6+9Me578JHUacBmKikpjrnbT4v5O8yMaRNGp84BAAAAAKAZaN+2dVy7+rzo2rlj6hQAAID3GDN8cMydPT1233n7qKwoS50DAAA0kJKCiGm968e4s/tHDOyQugigcRjoQjNVWVEW+y6eH/sunh9/evzJ+N7V18dV1/88/v7yK6nTgP8nP79+XL/rjrNi9vRJUVzkdkAAjSnHEboAAABAC9K5Q7u4ZtXK6NyxfeoUAACAyM3NjfGjhsbOs6bGzttPjdY11amTAACABjKkY8TsAfWD3Mk9Iwqt1oAWwG910AL06dktTj32k3HSkYfEzbffFZdfe2PcdPudsX79htRp0KKNHTE4dt1pu5g7e3pUVZSnzgFoMXLCQBcAAABoGeo6d4hrV50XHdq1SZ0CAAC0YHl5eTFpzPDYebtpsdN2U6K6siJ1EgAA0ABal0Zs1y9i+/4ROw6MaOuSeKAFMtCFFiQ/Py9mT58Ys6dPjL+//Epcf/Ntcd3Pb43b71qTOg1ajL69uscndpgZu++yfXRq3zZ1DgAAAAAAzVTPbl3imlUro01tTeoUAACgBSrIz48p40bGzttPizkzJrl5PQAANANlhRGTekZM6xMxrXfE2G6piwDSM9CFFqq2piqWLJgbSxbMjddefyP+95d3xA033Ra/vOM38da/1qXOg2alU/u2MX/HmbFw7pzo06Nr6hyAFi8nxwm6AAAAQPPWp2e3uPrSlVFbXZk6BQAAaEGKCgtj6oRRsfN202LO9IlRXlaaOgkAANgG/3+QO6ouIi83dRVAZjHQBaKivCwW7LJ9LNhl+1i79q34xa9/EzfcfFv8/NY74/U33kydB1mpqqI8dtl+Wuy603YxdsRgYzCATOK3ZAAAAKAZG9i3V1z1za86nQoAAGgSJcVFMWPS2Nhp1tSYPX1CtCopSZ0EAABspbLCiIk968e403pHjO5qkAvwcQx0gfcoKSmOnWZNiZ1mTYm316+PX919b9xw821x4y9+FX9/+ZXUeZDR+vfuETMmj42Zk8bG6GGDIz8/L3USAB/ATRMAAACA5mrYwL5xxcXnOKUKAABoVL2718W0iWNi2oTRMWH08CguKkydBAAAbIXutRHju0dM6FH/dmgng1yALWWgC3yogvz8mD5xTEyfOCbOOuWYuHPNffGzW34dv/jV3fGnP/8ldR4kV9qqJKaMGxUzJo2N7aaOj3ZtalMnAQAAAADQQo0aOjAuv+jsKG3ltCoAAKBhlZeVxuSxI2LaxDGx3ZTx0b5t69RJAADAFirKjxjZ5T9j3Ek9I9qWp64CyH4GusBmGz9yaIwfOTQ+e8yKeOGll+MXv7o7bvn1b+K2O++JV157PXUeNIm+vbrHzH+fkjt8cBTk+1YKkG2coAsAAAA0NxNGDYvvXHBmlBQXpU4BAACagZycnBjSv09MnzQmpk0YE6OGDoi8vLzUWQAAwBbo3SZiZF3EmK4R47rXj3IBaHhWRcBWadu6JhbP3yEWz98hNm7cGPf98ZG45Y7fxi9//Zu494GHYsOGDakToUGUtiqJyWNHxozJY2PW5HHRoV2b1EkAbCMDXQAAAKA5mTJuVFz2P1+MosLC1CkAAEAWa1NbE9MmjIppE8bE9EljorqyInUSAACwGXIiok/b+jHuyLr6U3JH1kWUuacnQJMw0AW2WW5ubgwf3D+GD+4fRy1bEm+8+c+47a41ccuv745b77gnnv7bc6kTYYsM6tcrJo0ZETMnj4tJY0ekzgGggZnnAgAAAM3FzMnjYtXK06Mg38u+AADAlps4ZnhMHT8qpo4fHUMG9EmdAwAAbIbBHesfxrgAmcErtUCDKyttFTvOnBw7zpwcERF/evzJuOO3v4/f3veH+M29D8Qzzz6fuBDea/SwQTFu5NAYO2JwjBk+OMrLSlMnAQAAAADAR9phxuT4xtmnRn5+XuoUAAAgC7SuqY4xwwfFmBFDYsywQTG4fx9/nwAAgAxWV10/xB3U8T+j3P7tIwr8MR4goxjoAo2uT89u0adnt9h38fyIiHjhpZfjjt/+Lu7+3QNx95r74+HHnohNmzYlrqSlqCgvi9FDB8aYEUNi7IghMXxwvygsKEidBUATyslxhi4AAACQ3ebNmRFfO+PEyMtzFQ4AAPDBenevi9HDB8fY4YNj9PDB0b2uU+okAADgA7Qrj+jXLmJgh3eGuJ0ihnSMKC9OXQbA5jDQBZpc29Y1MX+HmTF/h5kREfH6G2/Gb373QNx97wNx9733x+//8HCse/vtxJU0F+3bto6xI4bE2OGDY+zIIdG/dw/DLIAWzvcBAAAAIJst2GX7WHn6CX7GAQAAvKuwoCCGDuwbo4cPirHDh8SYEYOjqqI8dRYAAPCOVgURfdpG9GkX0bdtRN929e/3bx9RVpS6DoBtYaALJFdeVhozJ4+LmZPHvfuxu+99IH7zu/vjdw88HH94+NF4+m/PJSwkmwzq1ytGDhkYI4YMiHEjhkRd5w6pkwAAAAAAoEHstdvOcdYpRxvnAgBAC9e5Q7vo36dnjBk+KEYPGxxjRwxOnQQAAEREj9r/DG97tvnPGLdLdeoyABqLgS6QkcaOeO8Pjl97/Y2474+PxAMPPRr3PfhIPPDQn+KJp/6asJCUcnJyoq5Th+jfu0f06929/m2v7tGzW5fIy8tLnQdAhnMBKwAAAJCN9tvjE/HFEz6VOgMAAGgiRYWF0b1rp+jdvWv07l4XvXt0jV7du0bPbl2ipNgRWwAAkEr78vqTcPu0fe+jV5uIApeyA7Q4BrpAVqgoL4vJ40bG5HEj3/3YG2/+Mx546E9x/0OPxv0PPhIPPPineOzJp2PTpk0JS2lobWpr3jPC7d+7R/Tt1d0LDQBsNftcAAAAINssX7ooTjl6eeoMAACgEVRVlL8zvq2LXt3ros87z+s6dYjc3NzUeQAA0OIU50d0rYnoVhvR/Z3Hv98f1DGitDB1IQCZxEAXyFplpa1i/KhhMX7UsHc/tnbtW/HAw4/Gn//yTDzx1DPxxFN/jaeeeTYefeKp+OfatQlr+ThtW9dE184do3ePrtG/d4/o37tHDOzXK6oqylOnAdDM5ISFLgAAAJA9jly2JD79yf1TZwAAANugvKw06jp1iLpOHaJr5w7RvWvnd0/FbV1TnToPAABalMriiI6VEV2q64e33Wvrx7fdaiO61UR0qExdCEA2MdAFmpWSkuIYM3xwjBk++H2f+/vLr8QTT/81nnjqr/HkU8+8+/yJp56JV197I0Fty1JVUR51nTu8+2JDl04doq5T+3ffFhW6lRAAAAAAAPy3k486JFbsuzh1BgAA8DFKiouiS8d3roP5r+tj6t65LqaivCx1IgAANHtF+fXD246VEZ2q3nlbGdGxqv5tp6r6R0lB6lIAmhMDXaDFqK2pitqaqhg1dOD7PvfyK6/GX57+Wzzz7PPx3AsvxfMv/T2eff7FeO75l+LZF16M5154Kda+9a8E1dmjpKQ4unRs/58XFzrX3/GzS8f20bVzxygrbZU6EQAiIiInxwm6AAAAQOb7wgmHx/577Jo6AwAAWrySkuKoriiPqsqKaF1THZ07tnvPabhdOrWPNrU1qTMBAKDZKSmIaFP2X4/yj36/siR1MQAtkYEuQETUVFVGTVVlDB/c/0O/5tXX3ojnX3wpnnvxpXj2+Rfj2edfiudffCmefeGleOnv/4h/vPpavPLq6/HyK682YXnjatu6Jmqrq6JNbU3UVFdG65qqaF1THbXVVdG69r+e11RFeVlp6lwA2DwGugAAAECGO+uUY2Lv3XdOnQEAAM1KWWmrqK6siKrK+rFtVUV5VFdWRHVVRVRVVkR1ZXlUVfzX83c+V5DvMksAANgSJQURrQojWhVElBbVPy8tjCgvjqgqqX9U/r+3rcvqv6aqVURlcf1bJ90CkA385AhgM1VWlEVlRVn06dntY7/29TfejFdefT1eee31eOXV1+rf/vfzV+ufv/r6G7Fu3dvx9vr1sWHDhli/fkOsX78+1m/YUP9YX//YsGFDvP3Ox9eufes9/66y0lZRVFgQhYWFUVhQ8M7z+veLCwujoCA/iooKo+idzxcWFrzn61uVFL8zvv3P8La2uiqqKysa6f8kAKT1r3XrUicAW2DogL4xa8q41BkAAABNpn+fnrHTrCmpM2hCRx+yNHUCAEBGy83Li6KCf18PUxDFRYVRWFD47jUwRYWFUVhY+O41M0XvPi989/2S4qLU/xkAZLFRdRHlvpUAWSQ3J6Ig76Mfhf/vef5/fz734/+5wvz3j3D/PcQFgJYkZ9OmTZtSRwAAADSVoz775fj+NTekzgA20/Kli+KUo5enzgAAAAAAAAAAAACA98hNHQAAANCUHnn8ydQJwBYoKytNnQAAAAAAAAAAAAAA72OgCwAAtCgPPfrn1AnAFigvbZU6AQAAAAAAAAAAAADex0AXAABoMZ559vlYu/at1BnAFih3gi4AAAAAAAAAAAAAGchAFwAAaDEeeeyJ1AnAFipzgi4AAAAAAAAAAAAAGchAFwAAaDEeeezJ1AnAFqood4IuAAAAAAAAAAAAAJnHQBcAAGgxHn7sz6kTgC1UXmqgCwAAAAAAAAAAAEDmMdAFAABajD8+8njqBGALlZUZ6AIAAAAAAAAAAACQeQx0AQCAFuGtf62Lhx51gi5km/LSVqkTAAAAAAAAAAAAAOB9DHQBAIAWYc19f4xNmzalzgC2ULkTdAEAAAAAAAAAAADIQAa6AABAi3DPfX9MnQBshdJWJakTAAAAAAAAAAAAAOB9DHQBAIAWwUAXsk/rmurUCQAAAAAAAAAAAADwgQx0AQCAFmGNgS5kndqaqtQJAAAAAAAAAAAAAPCBDHQBAIBm74mn/hr/ePW11BnAFmptoAsAAAAAAAAAAABAhjLQBQAAmr17nJ4LWam22kAXAAAAAAAAAAAAgMxkoAsAADR7d97z+9QJwFZoXVOdOgEAAAAAAAAAAAAAPpCBLgAA0Oz98o7fpk4AtkJtjRN0AQAAAAAAAAAAAMhMBroAAECz9viTT8ezz7+YOgPYCq0NdAEAAAAAAAAAAADIUAa6AABAs3brnU7PhWxVW22gCwAAAAAAAAAAAEBmMtAFAACatVvvvCd1ArCVWtdUp04AAAAAAAAAAAAAgA9koAsAADRbGzZsiNvvvjd1BrCVamsqUycAAAAAAAAAAAAAwAcy0AUAAJqtNfc/GGvXvpU6A9hKbWpqUicAAAAAAAAAAAAAwAcy0AUAAJqt2+68J3UCsJWKiwqjsqIsdQYAAAAAAAAAAAAAfCADXQAAoNm68rqfpU4AtlLnDu1TJwAAAAAAAAAAAADAhzLQBQAAmqUH//R4PPXMs6kzgK3UsX3b1AkAAAAAAAAAAAAA8KEMdAEAgGbp6htuSp0AbIOO7dukTgAAAAAAAAAAAACAD2WgCwAANEtXX2+gC9mskxN0AQAAAAAAAAAAAMhgBroAAECzc/e9D8Szz7+YOgPYBh0NdAEAAAAAAAAAAADIYAa6AABAs3PtjU7PhWxnoAsAAAAAAAAAAABAJjPQBQAAmp1rbrw5dQKwjQx0AQAAAAAAAAAAAMhkBroAAECzct3Pb41XX3sjdQawjbp0bJ86AQAAAAAAAAAAAAA+lIEuAADQrHz7yp+kTgC2UUV5WZQUF6XOAAAAAAAAAAAAAIAPZaALAAA0G888+3zcdtc9qTOAbeT0XAAAAAAAAAAAAAAynYEuAADQbKy6/JrUCUAD6F7XKXUCAAAAAAAAAAAAAHwkA10AAKBZWL9+Q3z/6htSZwANoHtd59QJAAAAAAAAAAAAAPCRDHQBAIBm4bqf/zL+8eprqTOABtCzm4EuAAAAAAAAAAAAAJnNQBcAAGgWLrvix6kTgAbiBF0AAAAAAAAAAAAAMp2BLgAAkPXuf/BPceea+1JnAA2kR1cDXQAAAAAAAAAAAAAym4EuAACQ9VZe/O3UCUADaVVSEq1rqlNnAAAAAAAAAAAAAMBHMtAFAACy2p//8kzccPPtqTOABtK7e13qBAAAAAAAAAAAAAD4WAa6AABAVjvvku+kTgAaUPeunVMnAAAAAAAAAAAAAMDHMtAFAACy1vMv/j2uuu7nqTOABtTTQBcAAAAAAAAAAACALGCgCwAAZK3zv/nd2LBhQ+oMoAH16NoldQIAAAAAAAAAAAAAfCwDXQAAICu99PI/4jtXXZc6A2hgfXt1S50AAAAAAAAAAAAAAB/LQBcAAMhKZ1+wOv61bl3qDKAB5eTkRJ+e3VJnAAAAAAAAAAAAAMDHMtAFAACyzhNP/TW+fdVPUmcADaxPz25RkJ+fOgMAAAAAAAAAAAAAPpaBLgAAkHVOO+fC2LhxY+oMoIEN6NMjdQIAAAAAAAAAAAAAbBYDXQAAIKusuf/BuPEXt6fOABrBgD49UycAAAAAAAAAAAAAwGYx0AUAALLK8aefkzoBaCT9DXQBAAAAAAAAAAAAyBIGugAAQNa47ue3xh8efix1BtBIBvTukToBAAAAAAAAAAAAADaLgS4AAJAV3vzn2jj5zPNTZwCNpKK8LDq0a5M6AwAAAAAAAAAAAAA2i4EuAACQFU4/96J47oWXUmcAjWRQ316pEwAAAAAAAAAAAABgsxnoAgAAGe93DzwUqy+/NnUG0Ij69+mROgEAAAAAAAAAAAAANpuBLgAAkNHWvf12rDj+9NQZQCMbMqBv6gQAAAAAAAAAAAAA2GwGugAAQEY78/xvxpNP/zV1BtDIRgzpnzoBAAAAAAAAAAAAADabgS4AAJCx/vDwY3HhZVekzgAaWVlpq+jVrS51BgAAAAAAAAAAAABsNgNdAAAgI731r3Wx7NhTY+PGjalTgEY2aujA1AkAAAAAAAAAAAAAsEUMdAEAgIx0ypnnx5//8kzqDKAJjBjcP3UCAAAAAAAAAAAAAGwRA10AACDj3HTbnfHtq36SOgNoIiOGDEidAAAAAAAAAAAAAABbJGfTpk2bUkcAAAD82wsvvRxT5i+JV197I3UK0ET+dMf1UV5WmjoDAAAAAAAAAAAAADabE3QBAICMsWnTplh27KnGudCCdO3c0TgXAAAAAAAAAAAAgKxjoAsAAGSMC1ZdHnetuT91BtCERg4dkDoBAAAAAAAAAAAAALaYgS4AAJAR7rzn9/HF8y5OnQE0sRGDDXQBAAAAAAAAAAAAyD4GugAAQHJ//sszseSwz8TGjRtTpwBNbPSwQakTAAAAAAAAAAAAAGCLGegCAABJvfLa67F42THxxpv/TJ0CNLFWJSUxqF+v1BkAAAAAAAAAAAAAsMUMdAEAgGTeXr8+9l5xXDz9t+dSpwAJjB85JHJz/WgCAAAAAAAAAAAAgOzjKlgAACCZT510Rqy5/8HUGUAi40cNS50AAAAAAAAAAAAAAFvFQBcAAEjiqxddFtfccHPqDCCh8aOGpk4AAAAAAAAAAAAAgK1ioAsAADS5S79/dXz5a5emzgASKiosjCED+qbOAAAAAAAAAAAAAICtYqALAAA0qSt/8rM48YzzUmcAiY0bOSTy8/NSZwAAAAAAAAAAAADAVjHQBQAAmsyPfvqL+NRJZ6TOADLAuJFDUycAAAAAAAAAAAAAwFYz0AUAAJrEjb+4PVYcf3ps2rQpdQqQAcaPGpY6AQAAAAAAAAAAAAC2Wn7qAAAAoPm76bY7Y/8jTk6dAWSIosLCGDlkQOoMAAAAAAAAAAAAANhqTtAFAAAa1fU33Rb7HXFS6gwgg4wbOSTy8/NSZwAAAAAAAAAAAADAVjPQBQAAGs0VP/ppHHjUKbF+/YbUKUAGmT5pbOoEAAAAAAAAAAAAANgm+akDAACA5um8S74bZ5x3ceoMIAPNMNAFAAAAAAAAAAAAIMsZ6AIAAA3uM2esjFXfvyZ1BpCB2rWpjd7d61JnAAAAAAAAAAAAAMA2MdAFAAAa1BEnnxk/+NGNqTOADDV72sTUCQAAAAAAAAAAAACwzQx0AQCABvHKa6/H/p86Ke5cc1/qFCCDzZg0NnUCAAAAAAAAAAAAAGwzA10AAGCbPfrEU7HX8k/H0397LnUKkMFyc3NjyriRqTMAAAAAAAAAAAAAYJvlpg4AAACy22133RNzFi8zzgU+1vhRQ6OkpDh1BgAAAAAAAAAAAABsMwNdAABgq12w6vJYvOzY+OfatalTgCwwY9LY1AkAAAAAAAAAAAAA0CDyUwcAAADZZ+3at+KoU8+Ka2+8OXUKkEVmTR6XOgEAAAAAAAAAAAAAGoSBLgAAsEUeeeyJWHr4ifGXZ/6WOgXIIp3at40+PbulzgAAAAAAAAAAAACABpGbOgAAAMgel37/6pi9eJlxLrDF5u84M3UCAAAAAAAAAAAAADQYJ+gCAAAf67XX34gVx58eN99+V+oUIEvtNHNK6gQAAAAAAAAAAAAAaDAGugAAwEdac/+DcfDRn42/Pf9i6hQgS7WprYnhg/unzgAAAAAAAAAAAACABmOgCwAAfKB/rVsXX/7apXHht66IjRs3ps4Bsti8OdNTJwAAAAAAAAAAAABAgzLQBQAA3mfN/Q/GiuNPi6eeeTZ1CtAM7DRrauoEAAAAAAAAAAAAAGhQBroAAMC7/rl2bXzh3Ivj0u9fnToFaCaqKspj7IjBqTMAAAAAAAAAAAAAoEEZ6AIAABERcdea+2PF8afFs8+/mDoF/o+9+4yygr73PfybYSiDNEEEBRQVQUEUhMggDAgDyAy9l9BFREFFwB5LjCZ2c3LtRj0xGo2x5MQYz9FrYkksiSn3qie2xJ4cVFAQpQ3u++JmZaVgpMye/y7P83Zm9v/zaq81L77rRwEZe/SQKCkpSZ0BAAAAAAAAAAAAAHXKQBcAAIrc6g/XxgVXXBt3/+i/UqcABWjU8EGpEwAAAAAAAAAAAACgzhnoAgBAkdq6dWvccuf9cdm1t8bH6z9JnQMUoNatWsagir6pMwAAAAAAAAAAAACgzhnoAgBAEfrlb5+PFeddFq+98VbqFKCAjasemjoBAAAAAAAAAAAAALLCQBcAAIrIB2s+jHMuuTp++NCjqVOAIjBp1PDUCQAAAAAAAAAAAACQFQa6AABQBNZ9vD6u+87346bb74lPPt2QOgcoAvt03Cv6HNo9dQYAAAAAAAAAAAAAZIWBLgAAFLB1H6+P62+7O759x73x8fpPUucARWSy67kAAAAAAAAAAAAAFDADXQAAKEBr162P675zV9z8vfti/Sefps4BitDUcSNTJwAAAAAAAAAAAABA1hjoAgBAAXl/9Zq4/jt3x6133R8bNm5KnQMUqcO6d4t9O+6dOgMAAAAAAAAAAAAAssZAFwAACsA7f14V19zyvbjz/odi0+bNqXOAIjdp9PDUCQAAAAAAAAAAAACQVQa6AACQx1574634txtvj/sfejS2bt2aOgcgSktLY0JNVeoMAAAAAAAAAAAAAMgqA10AAMhDjz31q7j1rvvj4ceeSp0C8HcG9+8be7TePXUGAAAAAAAAAAAAAGSVgS4AAOSJj9d/Enf98KH49+//MP745jupcwC2acaEmtQJAAAAAAAAAAAAAJB1BroAAJDjXvnDG/HtO+6Nex58JDZs2Jg6B+Bz7d6yRVQPrUydAQAAAAAAAAAAAABZZ6ALAAA56KN1H8d9Dz4SP3jg4fjdCy+lzgHYLjMm1kRZWYPUGQAAAAAAAAAAAACQdQa6AACQIzZv2RIPP/ZU3PPjh+PRJ5+J2tqtqZMAdsj86RNSJwAAAAAAAAAAAABAvTDQBQCAxJ545rl46Kc/j3seeDjWf/Jp6hyAnTLgiN7Rca92qTMAAAAAAAAAAAAAoF4Y6AIAQD3buGlzPPbUL+OhR5+Mhx97Kj5a93HqJIBdNnvymNQJAAAAAAAAAAAAAFBvDHQBAKAefLh2Xfzs57+MHz/yePzsF8/Gxk2bUycB1JndW7aIUcMGp84AAAAAAAAAAAAAgHpjoAsAAFmwpbY2fvmb5+Pxp5+Lx5/+Vfzf/34ldRJA1kwfXx1lZQ1SZwAAAAAAAAAAAABAvTHQBQCAOvLya6/H408/F088/Vz84le/dSUXKBqzp4xNnQAAAAAAAAAAAAAA9cpAFwAAdtKfVr0fTzz9XDz57K/jyWd+E++vXpM6CaDeDe7fN/bbp0PqDAAAAAAAAAAAAACoVwa6AACwnd7586r4Py++HI8/9at46rnfxR/eeDt1EkByx82ZmjoBAAAAAAAAAAAAAOqdgS4AAPyDTCYTr73xdrzw+1fjhZdejedfejVe+P2r8eHadanTAHLKAZ07xZABR6TOAAAAAAAAAAAAAIB6Z6ALAAB/46GfPhlLzrgwNmzclDoFIOedMG966gQAAAAAAAAAAAAASKI0dQAAAOSSYYP6x557tEmdAZDzWrZoFpPHjEidAQAAAAAAAAAAAABJGOgCAMDfaFhWFpeeuzx1BkDOWzhzUjRq2DB1BgAAAAAAAAAAAAAkYaALAAD/YFBF3xhx1JGpMwByVsOyslg4a3LqDAAAAAAAAAAAAABIxkAXAAC24aIzT46ysgapMwBy0uQxI6JVi+apMwAAAAAAAAAAAAAgGQNdAADYho57tYsT5k1PnQGQk06Y7/sRAAAAAAAAAAAAgOJmoAsAAJ9j2bGzY889WqfOAMgpwwb1jy6d90mdAQAAAAAAAAAAAABJGegCAMDnKC9vEuevXJI6AyCnnLZkQeoEAAAAAAAAAAAAAEjOQBcAAP6FCTVVcUTvnqkzAHLC0IH9oufBI+2OpgAAIABJREFUB6bOAAAAAAAAAAAAAIDkDHQBAOALXHbeytQJADnhjBMXpk4AAAAAAAAAAAAAgJxgoAsAAF+g6/77xtyp41JnACQ1qKKv67kAAAAAAAAAAAAA8BcGugAAsB3OOGlhtGzRLHUGQDKnLV2QOgEAAAAAAAAAAAAAcoaBLgAAbIdWLZrHGUsXps4ASOLIL/WOPod2T50BAAAAAAAAAAAAADnDQBcAALbT3Gnj4sD99kmdAVDvVh4/N3UCAAAAAAAAAAAAAOQUA10AANhOJSUlcdl5p6bOAKhX/Q7vGf379kqdAQAAAAAAAAAAAAA5xUAXAAB2QL/De8a4kUNTZwDUmwtOOzF1AgAAAAAAAAAAAADkHANdAADYQV89dUmUN2mcOgMg66qHVsah3bumzgAAAAAAAAAAAACAnGOgCwAAO6hd2zZx8rGzU2cAZFVpaWmcvWxR6gwAAAAAAAAAAAAAyEkGugAAsBNOmD89OrTfM3UGQNbMmjQ6DujcKXUGAAAAAAAAAAAAAOQkA10AANgJDcvK4qIzT06dAZAV5eVN4tQl81NnAAAAAAAAAAAAAEDOMtAFAICddPSQAVFZ0Sd1BkCdO37O1Nij9e6pMwAAAAAAAAAAAAAgZ5VkMplM6ggAAMhXb7z9blSOmxO1tVtTpwDUiVYtmsevH7k7mpaXp04BAAAAAAAAAAAAgJzlgi4AAOyCzp06xLFfnpw6A6DOnL70GONcAAAAAAAAAAAAAPgCLugCAMAuWv/Jp1FRMyNWf7g2dQrALtl/347xiwduT50BAAAAAAAAAAAAADnPBV0AANhFzXZrGucuPz51BsAuu/jsU1InAAAAAAAAAAAAAEBeMNAFAIA6MHXcyOh1yEGpMwB2WlVlRVRW9EmdAQAAAAAAAAAAAAB5oSSTyWRSRwAAQCF48eXXYtiUhakzAHZYWVmD+PmPvhv7dtw7dQoAAAAAAAAAAAAA5AUXdAEAoI706NYlZkyoSZ0BsMMWzpxknAsAAAAAAAAAAAAAO8AFXQAAqEOr13wU/WpmxCefbkidArBdWrdqGc8+dGc0261p6hQAAAAAAAAAAAAAyBsu6AIAQB1q07pVnLZkQeoMgO129rJFxrkAAAAAAAAAAAAAsINc0AUAgDq2devWGDJxfrz6+lupUwD+pYMP3D8evefmKCkpSZ0CAAAAAAAAAAAAAHnFBV0AAKhjDRo0iMvOOzV1BsAXuvTcFca5AAAAAAAAAAAAALATDHQBACAL+h3eM2qqKlNnAHyuaeNGRt/DeqTOAAAAAAAAAAAAAIC8VJLJZDKpIwAAoBC98+dVMWD0rNi8ZUvqFIC/06J5s3j6wTuidauWqVMAAAAAAAAAAAAAIC+5oAsAAFnSca92sXTBjNQZAP/kvBXHG+cCAAAAAAAAAAAAwC5wQRcAALJo0+bNccTI6fHeB2tSpwBERESfQ7vHj2+/NnUGAAAAAAAAAAAAAOQ1F3QBACCLGjdqFBeecVLqDICIiCgtLY1vXnhG6gwAAAAAAAAAAAAAyHsGugAAkGVjRhwVR/TumToDIBbPnRpdOu+TOgMAAAAAAAAAAAAA8l5JJpPJpI4AAIBC98of34whE+fHZ599ljoFKFJ7tWsbv3jg9ihv0jh1CgAAAAAAAAAAAADkPRd0AQCgHnTdf9+YN2186gygiF3ylVOMcwEAAAAAAAAAAACgjhjoAgBAPTnzpIXRskWz1BlAEZpQUxXDBx+ZOgMAAAAAAAAAAAAACoaBLgAA1JNmuzWNs5cdlzoDKDJ7t2sbl56zInUGAAAAAAAAAAAAABQUA10AAKhHsyaNju5dD0idARSRm674ajTbrWnqDAAAAAAAAAAAAAAoKAa6AABQj0pKSuLy81amzgCKxJIFM+LwQ7unzgAAAAAAAAAAAACAgmOgCwAA9ax3z4Nj0qjhqTOAAtety35xxtKFqTMAAAAAAAAAAAAAoCCVZDKZTOoIAAAoNqveXx39R82MDRs3pU4BClDjRo3i0XtujgM6d0qdAgAAAAAAAAAAAAAFyQVdAABIoF3bNrF88dzUGUCBOnfFYuNcAAAAAAAAAAAAAMgiA10AAEjkuDlTY9+Oe6fOAApMZUWfWDBjYuoMAAAAAAAAAAAAAChoBroAAJBIw7KyuPTc5akzgALSskWzuO6Sc1NnAAAAAAAAAAAAAEDBM9AFAICEBlX0jarKitQZQIG4+utnR5vdW6bOAAAAAAAAAAAAAICCZ6ALAACJXXjGiVFW1iB1BpDn5k0bF8MG9U+dAQAAAAAAAAAAAABFwUAXAAAS69ypQxw3Z2rqDCCPHXzg/nHB6SemzgAAAAAAAAAAAACAolGSyWQyqSMAAKDYbdiwMSpGzYz3PliTOgXIM03Ly+Px+2+Njnu3T50CAAAAAAAAAAAAAEXDBV0AAMgB5eVN4twVx6fOAPLQdZecY5wLAAAAAAAAAAAAAPXMQBcAAHLEpFHDo9chB6XOAPLI/BkTYsRRR6bOAAAAAAAAAAAAAICiU5LJZDKpIwAAgP/vxZdfi2FTFqbOAPLAwQfuH//1/RujYVlZ6hQAAAAAAAAAAAAAKDou6AIAQA7p0a1LzJo8OnUGkOOalpfHbf/r68a5AAAAAAAAAAAAAJCIgS4AAOSYs5cdFy1bNEudAeSw6y45Jzru3T51BgAAAAAAAAAAAAAULQNdAADIMa1aNI/TlixInQHkqEWzp8SIo45MnQEAAAAAAAAAAAAARa0kk8lkUkcAAAB/b+vWrTFk4vx49fW3UqcAOeTQ7l3jwduvi7KyBqlTAAAAAAAAAAAAAKCouaALAAA5qEGDBnHZeaemzgByyO4tW8TNV33NOBcAAAAAAAAAAAAAcoCBLgAA5Kh+h/eMMSOOSp0B5IAmjRvFXTdcHh33apc6BQAAAAAAAAAAAACIiJJMJpNJHQEAAGzbqvdXxxEjp8fmLVtSpwAJ3X7NxVFVWZE6AwAAAAAAAAAAAAD4Cxd0AQAgh7Vr2yZOXjQ7dQaQ0PmnLjHOBQAAAAAAAAAAAIAcY6ALAAA5bsn86dGh/Z6pM4AEZk0eHcfNnpI6AwAAAAAAAAAAAAD4Bwa6AACQ4xo3ahQXnH5i6gygnlUN7BeXfGV56gwAAAAAAAAAAAAAYBsMdAEAIA/UVFVGZUWf1BlAPel58IFx05UXRGmpf9sBAAAAAAAAAAAAIBeVZDKZTOoIAADgi73x9rsxYMzs+Oyzz1KnAFnUfs894n//4OZos3vL1CkAAAAAAAAAAAAAwOdwigcAAPJE504dYuGXJ6XOALKo2W5N4+6brjTOBQAAAAAAAAAAAIAc54IuAADkkfWffBoVNTNi9YdrU6cAdaysrEHcfdOV0b/PYalTAAAAAAAAAAAAAIAv4IIuAADkkWa7NY2zlx2XOgOoYyUlJXHdJeca5wIAAAAAAAAAAABAnjDQBQCAPDNjQk1073pA6gygDl11wWkxevjg1BkAAAAAAAAAAAAAwHYy0AUAgDx0+XkrUycAdeTUJQti2rjq1BkAAAAAAAAAAAAAwA4w0AUAgDzUu+fBMW3cyNQZwC6aM2VsLD9uTuoMAAAAAAAAAAAAAGAHlWQymUzqCAAAYMetXvNR9KuZEZ98uiF1CrATxldXxbUXfyVKSkpSpwAAAAAAAAAAAAAAO8gFXQAAyFNtWreKFcfPS50B7ITB/fvG1V8/yzgXAAAAAAAAAAAAAPKUC7oAAJDHttTWRuXYOfHmO39KnQJsp76H9YgffPuqaNK4UeoUAAAAAAAAAAAAAGAnuaALAAB5rGFZWVx67vLUGcB26npA57jz+suMcwEAAAAAAAAAAAAgzxnoAgBAnhtU0TeOHjIgdQbwBfbpuFfce/NV0Wy3pqlTAAAAAAAAAAAAAIBdVJLJZDKpIwAAgF3zzp9XxYDRs2Lzli2pU4BtaNe2TfzoO1fHPh33Sp0CAAAAAAAAAAAAANQBF3QBAKAAdNyrXRw/b1rqDGAb2u+5R/z4u9cY5wIAAAAAAAAAAABAAXFBFwAACsSGDRujYtTMeO+DNalTgL9ov+ce8cBtV0fHvdunTgEAAAAAAAAAAAAA6pALugAAUCDKy5vEBactTZ0B/IVxLgAAAAAAAAAAAAAULgNdAAAoIONGDo0jevdMnQFFzzgXAAAAAAAAAAAAAApbSSaTyaSOAAAA6s4rf3wzBo+fmzoDipZxLgAAAAAAAAAAAAAUPhd0AQCgwHTdf9+YN21c6gwoSsa5AAAAAAAAAAAAAFAcXNAFAIAC9NG6j6OiZkasXbc+dQoUDeNcAAAAAAAAAAAAACgeLugCAEABatWieZx50rGpM6BoGOcCAAAAAAAAAAAAQHEx0AUAgAI1Z8rY6N71gNQZUPD2btfWOBcAAAAAAAAAAAAAioyBLgAAFKiSkpK4/LyVqTOgoHU9oHM8dOcNxrkAAAAAAAAAAAAAUGQMdAEAoID17nlwjK+uSp0BBal/n8PiwduvjT33aJ06BQAAAAAAAAAAAACoZyWZTCaTOgIAAMieVe+vjv6jZsaGjZtSp0DBGDPiqLjm4q9Ew7Ky1CkAAAAAAAAAAAAAQAIu6AIAQIFr17ZNLFs0J3UGFIzFc6bGjZefb5wLAAAAAAAAAAAAAEXMBV0AACgCW2pro3/NzHj3f95LnQJ57RtnnxLzpo1LnQEAAAAAAAAAAAAAJOaCLgAAFIGGZWXx9bOWpc6AvFVW1iBu/bcLjXMBAAAAAAAAAAAAgIgw0AUAgKIx4qgjo6qyInUG5J3dmpbH3TdeESOHDEydAgAAAAAAAAAAAADkiJJMJpNJHQEAANSPN95+NyrHzYna2q2pUyAvtG3TOn5w0xXRrct+qVMAAAAAAAAAAAAAgBzigi4AABSRzp06xOI501JnQF446MD94j/vusE4FwAAAAAAAAAAAAD4Jy7oAgBAkdmwYWNUjJoZ732wJnUK5Kyaqsq4+htfifImjVOnAAAAAAAAAAAAAAA5yAVdAAAoMuXlTeK8FSekzoCcVFpaGl9ZdlzcfNXXjHMBAAAAAAAAAAAAgM/lgi4AABSp6pmL43cvvJQ6A3JGi+bN4uYrL4iB/Q5PnQIAAAAAAAAAAAAA5DgDXQAAKFIvvvxaDJuyMHUG5ISuB3SOO665ODru3T51CgAAAAAAAAAAAACQB0pTBwAAAGn06NYl5kwZmzoDkqupqoz/vPMG41wAAAAAAAAAAAAAYLu5oAsAAEXso3UfR0XNjFi7bn3qFKh3paWlcdZJx8aSBTNSpwAAAAAAAAAAAAAAecYFXQAAKGKtWjSPM5YuTJ0B9a5F82bx/RsuN84FAAAAAAAAAAAAAHaKC7oAAEAMm7IwXnz5tdQZUC+6ddkvbvvW12OfjnulTgEAAAAAAAAAAAAA8pQLugAAQFx05smpE6BeTKipioe+d71xLgAAAAAAAAAAAACwSwx0AQCA6Hd4zxhfXZU6A7KmcaNGcdm5K+Pai8+J8iaNU+cAAAAAAAAAAAAAAHmuJJPJZFJHAAAA6a16f3X0HzUzNmzclDoF6lSH9nvGd6+5OA4+cP/UKQAAAAAAAAAAAABAgXBBFwAAiIiIdm3bxLJFc1JnQJ0aOrBf/PTeW4xzAQAAAAAAAAAAAIA65YIuAADwV1tqa6Ny7Jx4850/pU6BXVJaWhpnnrQwli6YmToFAAAAAAAAAAAAAChALugCAAB/1bCsLL52+tLUGbBL2rZpHT/8928Z5wIAAAAAAAAAAAAAWWOgCwAA/J3hg4+Myoo+qTNgp/Q9rEf87N5b4ku9DkmdAgAAAAAAAAAAAAAUsJJMJpNJHQEAAOSWN95+NyrHzYna2q2pU2C7nTB/epx10rHRoEGD1CkAAAAAAAAAAAAAQIFzQRcAAPgnnTt1iBPmTU+dAdulbZvWcfeNV8Q5pyw2zgUAAAAAAAAAAAAA6oULugAAwDZt2LAxKkbNjPc+WJM6BT5XTVVlXPnV06Nli2apUwAAAAAAAAAAAACAIuKCLgAAsE3l5U3i/JVLUmfANrVs0Syuu+ScuPmqrxnnAgAAAAAAAAAAAAD1zkAXAAD4XBNqqqLXIQelzoC/M7Df4fHED2+L8dVVqVMAAAAAAAAAAAAAgCJVkslkMqkjAACA3PXiy6/FsCkLU2dAlDdpHOcuPz7mTR+fOgUAAAAAAAAAAAAAKHIu6AIAAP9Sj25dYu7UcakzKHK9enSLn913q3EuAAAAAAAAAAAAAJATXNAFAAC+0EfrPo6Kmhmxdt361CkUmbKyBrFi8bw48ZiZ0aBBg9Q5AAAAAAAAAAAAAAAR4YIuAACwHVq1aB5nLF2YOoMic+B++8RP7rg+li2abZwLAAAAAAAAAAAAAOQUF3QBAIDtkslkYvD4ufHq62+lTqEIHDd7Spy1bFE0atgwdQoAAAAAAAAAAAAAwD8x0AUAALbbs795PsbPOzF1BgWs097t41sXnRUVfQ5NnQIAAAAAAAAAAAAA8LlKUwcAAAD5o9/hPWPcyKGpMyhAjRo2jGWLZscT/3GbcS4AAAAAAAAAAAAAkPNc0AUAAHbIqvdXR/9RM2PDxk2pUygQRx35pbj0nBXRqUP71CkAAAAAAAAAAAAAANvFBV0AAGCHtGvbJk5aOCt1BgWgQ/s949tXXhB3Xn+ZcS4AAAAAAAAAAAAAkFdc0AUAAHbYps2bY8DoWfHu/7yXOoU81LCsLBbPnRbLF8+NJo0bpc4BAAAAAAAAAAAAANhhLugCAAA7rHGjRnHRmSenziAPDTiidzzxH9+Js04+1jgXAAAAAAAAAAAAAMhbLugCAAA7beqiFfHkM79OnUEe2Ktd2/jqqUtizIijUqcAAAAAAAAAAAAAAOwyA10AAGCnvfH2u1E5bk7U1m5NnUKOKitrEItmT4mVi+dFeXmT1DkAAAAAAAAAAAAAAHWiNHUAAACQvzp36hALZ05KnUGOquhzaPzsvlvjnFMWG+cCAAAAAAAAAAAAAAXFBV0AAGCXfPLphuhXPT1Wf7g2dQo5ol3bNvG100+MMSOOSp0CAAAAAAAAAAAAAJAVLugCAAC7ZLem5XHu8uNTZ5ADmpaXx6lLFsQzP7nTOBcAAAAAAAAAAAAAKGgu6AIAAHWieubi+N0LL6XOIIHS0tKYMaEmzjxxYbRp3Sp1DgAAAAAAAAAAAABA1hnoAgAAdeLFl1+LYVMWps6gng0d2C8uOG1pHNC5U+oUAAAAAAAAAAAAAIB6U5o6AAAAKAw9unWJ6eOrU2dQT7p12S/uu+Wbcce1lxjnAgAAAAAAAAAAAABFxwVdAACgzqxe81H0q5kRn3y6IXUKWdKubZs4fekxMX18dZSUlKTOAQAAAAAAAAAAAABIwgVdAACgzrRp3SpOW7IgdQZZ0LS8PFaeMD+efvB7MWNCjXEuAAAAAAAAAAAAAFDUXNAFAADq1NatW2PIxPnx6utvpU6hDpSWlsb08dVx1knHRpvWrVLnAAAAAAAAAAAAAADkBANdAACgzj37m+dj/LwTU2ewi4YMOCLOP3VJdN1/39QpAAAAAAAAAAAAAAA5xUAXAADIimNOOSd+8uiTqTPYCT26dYlzli+Owf37pk4BAAAAAAAAAAAAAMhJBroAAEBWvPPnVTFg9KzYvGVL6hS202Hdu8WK4+fG8MFHpk4BAAAAAAAAAAAAAMhpBroAAEDWXHbNLXHlDbelzuAL9OrRLZYvNswFAAAAAAAAAAAAANheBroAAEDWbNq8OY4YOT3e+2BN6hS2wTAXAAAAAAAAAAAAAGDnGOgCAABZ9cDDj8WileenzuBv9OrRLVYcPy+GDeqfOgUAAAAAAAAAAAAAIC8Z6AIAAFk3bu6J8cvfPp86o+gZ5gIAAAAAAAAAAAAA1A0DXQAAIOte+eObMWTi/Pjss89SpxSlXoccFCsWzzXMBQAAAAAAAAAAAACoIwa6AABAvTj7G9+KW+68L3VGUTHMBQAAAAAAAAAAAADIDgNdAACgXqxdtz76j5oZH65dlzql4PU65KBYecL8qBrYL3UKAAAAAAAAAAAAAEBBMtAFAADqzXfveSBOu+CK1BkFqaSkJKqHDozj5kyNI3r3TJ0DAAAAAAAAAAAAAFDQDHQBAIB6k8lkYtiUhfHfr/whdUrBKC9vEjPG18Si2ZNj3457p84BAAAAAAAAAAAAACgKBroAAEC9+u3zv4+aLx+fOiPvtWvbJo6ZOTHmTh0XLZo3S50DAAAAAAAAAAAAAFBUDHQBAIB6t/TMi+LeBx9JnZGXenTrEsfNmRrjq4dGw7Ky1DkAAAAAAAAAAAAAAEXJQBcAAKh3q95fHf1HzYwNGzelTskbVQP7xeK502Jgv8NTpwAAAAAAAAAAAAAAFD0DXQAAIImrb/leXPTNG1Nn5LTGjRrF5DEjYvHcqdGl8z6pcwAAAAAAAAAAAAAA+AsDXQAAIIkttbVROXZOvPnOn1Kn5Jw2rVvF/GnjY/6MCdG6VcvUOQAAAAAAAAAAAAAA/AMDXQAAIJlHf/5szDrh9NQZOaNbl/1iwYwJMWfK2NQpAAAAAAAAAAAAAAD8Cwa6AABAUrOWnBGPPvlM6oxkmpaXx/jqoTF7ytjo1aNb6hwAAAAAAAAAAAAAALaDgS4AAJDUG2+/G5Xj5kRt7dbUKfXqkIO6xKzJY2Ly6BGxW9Py1DkAAAAAAAAAAAAAAOwAA10AACC5C795Q1xzy52pM7KuvLxJTKiuitmTx0SvQw5KnQMAAAAAAAAAAAAAwE4y0AUAAJLbsGFjVIyaGe99sCZ1Slb06NYlZk9xLRcAAAAAAAAAAAAAoFAY6AIAADnh3gcfiaVnXpQ6o86UlzeJ8SOHxpwpY13LBQAAAAAAAAAAAAAoMAa6AABAzqieuTh+98JLqTN2SY9uXWLW5DExZYxruQAAAAAAAAAAAAAAhcpAFwAAyBkvvPRaDJ+6MHXGDisvbxJjRwyJuVPHRu+eB6fOAQAAAAAAAAAAAAAgywx0AQCAnHLqBZfH7ff8OHXGFyoraxBDBvSLSaOGxdFDBkaTxo1SJwEAAAAAAAAAAAAAUE8MdAEAgJzy0bqPo6JmRqxdtz51yjZ9qdchMXHU8BhfPTRatWieOgcAAAAAAAAAAAAAgAQMdAEAgJxzy533xdnf+FbqjL86cL99YuKo4TF59PDouHf71DkAAAAAAAAAAAAAACRmoAsAAOScrVu3xpCJ8+PV199K1rDnHq1jfHVVTBw1LA7r3i1ZBwAAAAAAAAAAAAAAucdAFwAAyEnP/ub5GD/vxHp9c7em5TFq2KCYOGp4VPY7PEpLS+v1fQAAAAAAAAAAAAAA8oOBLgAAkLMWrTw/Hnj4say+UVbWIIYM6BeTRg2Lo4cMjCaNG2X1PQAAAAAAAAAAAAAA8p+BLgAAkLP+tOr96DN8SlY++8gv9Y4xI46K8dVDo1WL5ll5AwAAAAAAAAAAAACAwmSgCwAA5LQrb7gtLrvmll3+nMaNGsXgI/tGTVVlHD1koFEuAAAAAAAAAAAAAAA7zUAXAADIaZs2b44Bo2fFu//z3g7/bfNmu8WwQRVRPbQyhlVWRHl5kywUAgAAAAAAAAAAAABQbAx0AQCAnPeTR5+MY045Z7t+d4/Wu8fIoQOiemhlVFb0iYZlZVmuAwAAAAAAAAAAAACg2BjoAgAAeWHqohXx5DO/3ubPOnVoHzVDK6O6alAc0fuQKCkpqec6AAAAAAAAAAAAAACKiYEuAACQF954+90YMGZ2fPbZZxER0a3LflFTVRnVQyuj58EHJq4DAAAAAAAAAAAAAKCYGOgCAAB54/rb7o7a2toYPXxwdO7UIXUOAAAAAAAAAAAAAABFykAXAAAAAAAAAAAAAAAAAAB2QGnqAAAAAAAAAAAAAAAAAAAAyCcGugAAAAAAAAAAAAAAAAAAsAMMdAEAAAAAAAAAAAAAAAAAYAcY6AIAAAAAAAAAAAAAAAAAwA4w0AUAAAAAAAD+H/t2LAAAAAAwyN96DPvLIwAAAAAAAABgEHQBAAAAAAAAAAAAAAAAAGAQdAEAAAAAAAAAAAAAAAAAYBB0AQAAAAAAAAAAAAAAAABgEHQBAAAAAAAAAAAAAAAAAGAQdAEAAAAAAAAAAAAAAAAAYBB0AQAAAAAAAAAAAAAAAABgEHQBAAAAAAAAAAAAAAAAAGAQdAEAAAAAAAAAAAAAAAAAYBB0AQAAAAAAAAAAAAAAAABgEHQBAAAAAAAAAAAAAAAAAGAQdAEAAAAAAAAAAAAAAAAAYBB0AQAAAAAAAAAAAAAAAABgEHQBAAAAAAAAAAAAAAAAAGAQdAEAAAAAAAAAAAAAAAAAYBB0AQAAAAAAAAAAAAAAAABgEHQBAAAAAAAAAAAAAAAAAGAQdAEAAAAAAAAAAAAAAAAAYBB0AQAAAAAAAAAAAAAAAABgEHQBAAAAAAAAAAAAAAAAAGAQdAEAAAAAAAAAAAAAAAAAYBB0AQAAAAAAAAAAAAAAAABgEHQBAAAAAAAAAAAAAAAAAGAQdAEAAAAAAAAAAAAAAAAAYBB0AQAAAAAAAAAAAAAAAABgEHQBAAAAAAAAAAAAAAAAAGAQdAEAAAAAAAAAAAAAAAAAYBB0AQAAAAAAAAAAAAAAAABgEHQBAAAAAAAAAAAAAAAAAGAQdAEAAAAAAAAAAAAAAAAAYBB0AQAAAAAAAAAAAAAAAABgEHQBAAAAAAAAAAAAAAAAAGAQdAEAAAAAAAAAAAAAAAAAYBB0AQAAAAAAAAAAAAAAAABgEHQBAAAAAAAAAAAAAAAAAGAQdAEAAAAAAAAAAAAAAAAAYBB0AQAAAAAAAAAAAAAAAABgEHQBAAAAAAAAAAAAAAAAAGAQdAEAAAAAAAAAAAAAAAAAYBB0AQAAAAAAAAAAAAAAAABgEHQBAAAAAAAAAAAAAAAAAGAQdAEAAAAvx5CQAAARQUlEQVQAAAAAAAAAAAAAYBB0AQAAAAAAAAAAAAAAAABgEHQBAAAAAAAAAAAAAAAAAGAQdAEAAAAAAAAAAAAAAAAAYBB0AQAAAAAAAAAAAAAAAABgEHQBAAAAAAAAAAAAAAAAAGAQdAEAAAAAAAAAAAAAAAAAYBB0AQAAAAAAAAAAAAAAAABgEHQBAAAAAAAAAAAAAAAAAGAQdAEAAAAAAAAAAAAAAAAAYBB0AQAAAAAAAAAAAAAAAABgEHQBAAAAAAAAAAAAAAAAAGAQdAEAAAAAAAAAAAAAAAAAYBB0AQAAAAAAAAAAAAAAAABgEHQBAAAAAAAAAAAAAAAAAGAQdAEAAAAAAAAAAAAAAAAAYBB0AQAAAAAAAAAAAAAAAABgEHQBAAAAAAAAAAAAAAAAAGAQdAEAAAAAAAAAAAAAAAAAYBB0AQAAAAAAAAAAAAAAAABgEHQBAAAAAAAAAAAAAAAAAGAQdAEAAAAAAAAAAAAAAAAAYBB0AQAAAAAAAAAAAAAAAABgEHQBAAAAAAAAAAAAAAAAAGAQdAEAAAAAAAAAAAAAAAAAYBB0AQAAAAAAAAAAAAAAAABgEHQBAAAAAAAAAAAAAAAAAGAQdAEAAAAAAAAAAAAAAAAAYBB0AQAAAAAAAAAAAAAAAABgEHQBAAAAAAAAAAAAAAAAAGAQdAEAAAAAAAAAAAAAAAAAYBB0AQAAAAAAAAAAAAAAAABgEHQBAAAAAAAAAAAAAAAAAGAQdAEAAAAAAAAAAAAAAAAAYBB0AQAAAAAAAAAAAAAAAABgEHQBAAAAAAAAAAAAAAAAAGAQdAEAAAAAAAAAAAAAAAAAYBB0AQAAAAAAAAAAAAAAAABgEHQBAAAAAAAAAAAAAAAAAGAQdAEAAAAAAAAAAAAAAAAAYBB0AQAAAAAAAAAAAAAAAABgEHQBAAAAAAAAAAAAAAAAAGAQdAEAAAAAAAAAAAAAAAAAYBB0AQAAAAAAAAAAAAAAAABgEHQBAAAAAAAAAAAAAAAAAGAQdAEAAAAAAAAAAAAAAAAAYBB0AQAAAAAAAAAAAAAAAABgEHQBAAAAAAAAAAAAAAAAAGAQdAEAAAAAAAAAAAAAAAAAYBB0AQAAAAAAAAAAAAAAAABgEHQBAAAAAAAAAAAAAAAAAGAQdAEAAAAAAAAAAAAAAAAAYBB0AQAAAAAAAAAAAAAAAABgEHQBAAAAAAAAAAAAAAAAAGAQdAEAAAAAAAAAAAAAAAAAYBB0AQAAAAAAAAAAAAAAAABgEHQBAAAAAAAAAAAAAAAAAGAQdAEAAAAAAAAAAAAAAAAAYBB0AQAAAAAAAAAAAAAAAABgEHQBAAAAAAAAAAAAAAAAAGAQdAEAAAAAAAAAAAAAAAAAYBB0AQAAAAAAAAAAAAAAAABgEHQBAAAAAAAAAAAAAAAAAGAQdAEAAAAAAAAAAAAAAAAAYBB0AQAAAAAAAAAAAAAAAABgEHQBAAAAAAAAAAAAAAAAAGAQdAEAAAAAAAAAAAAAAAAAYBB0AQAAAAAAAAAAAAAAAABgEHQBAAAAAAAAAAAAAAAAAGAQdAEAAAAAAAAAAAAAAAAAYBB0AQAAAAAAAAAAAAAAAABgEHQBAAAAAAAAAAAAAAAAAGAQdAEAAAAAAAAAAAAAAAAAYBB0AQAAAAAAAAAAAAAAAABgEHQBAAAAAAAAAAAAAAAAAGAQdAEAAAAAAAAAAAAAAAAAYBB0AQAAAAAAAAAAAAAAAABgEHQBAAAAAAAAAAAAAAAAAGAQdAEAAAAAAAAAAAAAAAAAYBB0AQAAAAAAAAAAAAAAAABgEHQBAAAAAAAAAAAAAAAAAGAQdAEAAAAAAAAAAAAAAAAAYBB0AQAAAAAAAAAAAAAAAABgEHQBAAAAAAAAAAAAAAAAAGAQdAEAAAAAAAAAAAAAAAAAYBB0AQAAAAAAAAAAAAAAAABgEHQBAAAAAAAAAAAAAAAAAGAQdAEAAAAAAAAAAAAAAAAAYBB0AQAAAAAAAAAAAAAAAABgEHQBAAAAAAAAAAAAAAAAAGAQdAEAAAAAAAAAAAAAAAAAYBB0AQAAAAAAAAAAAAAAAABgEHQBAAAAAAAAAAAAAAAAAGAQdAEAAAAAAAAAAAAAAAAAYBB0AQAAAAAAAAAAAAAAAABgEHQBAAAAAAAAAAAAAAAAAGAQdAEAAAAAAAAAAAAAAAAAYBB0AQAAAAAAAAAAAAAAAABgEHQBAAAAAAAAAAAAAAAAAGAQdAEAAAAAAAAAAAAAAAAAYBB0AQAAAAAAAAAAAAAAAABgEHQBAAAAAAAAAAAAAAAAAGAQdAEAAAAAAAAAAAAAAAAAYBB0AQAAAAAAAAAAAAAAAABgEHQBAAAAAAAAAAAAAAAAAGAQdAEAAAAAAAAAAAAAAAAAYBB0AQAAAAAAAAAAAAAAAABgEHQBAAAAAAAAAAAAAAAAAGAQdAEAAAAAAAAAAAAAAAAAYBB0AQAAAAAAAAAAAAAAAABgEHQBAAAAAAAAAAAAAAAAAGAQdAEAAAAAAAAAAAAAAAAAYBB0AQAAAAAAAAAAAAAAAABgEHQBAAAAAAAAAAAAAAAAAGAQdAEAAAAAAAAAAAAAAAAAYBB0AQAAAAAAAAAAAAAAAABgEHQBAAAAAAAAAAAAAAAAAGAQdAEAAAAAAAAAAAAAAAAAYBB0AQAAAAAAAAAAAAAAAABgEHQBAAAAAAAAAAAAAAAAAGAQdAEAAAAAAAAAAAAAAAAAYBB0AQAAAAAAAAAAAAAAAABgEHQBAAAAAAAAAAAAAAAAAGAQdAEAAAAAAAAAAAAAAAAAYBB0AQAAAAAAAAAAAAAAAABgEHQBAAAAAAAAAAAAAAAAAGAQdAEAAAAAAAAAAAAAAAAAYBB0AQAAAAAAAAAAAAAAAABgEHQBAAAAAAAAAAAAAAAAAGAQdAEAAAAAAAAAAAAAAAAAYBB0AQAAAAAAAAAAAAAAAABgEHQBAAAAAAAAAAAAAAAAAGAQdAEAAAAAAAAAAAAAAAAAYBB0AQAAAAAAAAAAAAAAAABgEHQBAAAAAAAAAAAAAAAAAGAQdAEAAAAAAAAAAAAAAAAAYBB0AQAAAAAAAAAAAAAAAABgEHQBAAAAAAAAAAAAAAAAAGAQdAEAAAAAAAAAAAAAAAAAYBB0AQAAAAAAAAAAAAAAAABgEHQBAAAAAAAAAAAAAAAAAGAQdAEAAAAAAAAAAAAAAAAAYBB0AQAAAAAAAAAAAAAAAABgEHQBAAAAAAAAAAAAAAAAAGAQdAEAAAAAAAAAAAAAAAAAYBB0AQAAAAAAAAAAAAAAAABgEHQBAAAAAAAAAAAAAAAAAGAQdAEAAAAAAAAAAAAAAAAAYBB0AQAAAAAAAAAAAAAAAABgEHQBAAAAAAAAAAAAAAAAAGAQdAEAAAAAAAAAAAAAAAAAYBB0AQAAAAAAAAAAAAAAAABgEHQBAAAAAAAAAAAAAAAAAGAQdAEAAAAAAAAAAAAAAAAAYBB0AQAAAAAAAAAAAAAAAABgEHQBAAAAAAAAAAAAAAAAAGAQdAEAAAAAAAAAAAAAAAAAYBB0AQAAAAAAAAAAAAAAAABgEHQBAAAAAAAAAAAAAAAAAGAQdAEAAAAAAAAAAAAAAAAAYBB0AQAAAAAAAAAAAAAAAABgEHQBAAAAAAAAAAAAAAAAAGAQdAEAAAAAAAAAAAAAAAAAYBB0AQAAAAAAAAAAAAAAAABgEHQBAAAAAAAAAAAAAAAAAGAQdAEAAAAAAAAAAAAAAAAAYBB0AQAAAAAAAAAAAAAAAABgEHQBAAAAAAAAAAAAAAAAAGAQdAEAAAAAAAAAAAAAAAAAYBB0AQAAAAAAAAAAAAAAAABgEHQBAAAAAAAAAAAAAAAAAGAQdAEAAAAAAAAAAAAAAAAAYBB0AQAAAAAAAAAAAAAAAABgEHQBAAAAAAAAAAAAAAAAAGAQdAEAAAAAAAAAAAAAAAAAYBB0AQAAAAAAAAAAAAAAAABgEHQBAAAAAAAAAAAAAAAAAGAQdAEAAAAAAAAAAAAAAAAAYBB0AQAAAAAAAAAAAAAAAABgEHQBAAAAAAAAAAAAAAAAAGAQdAEAAAAAAAAAAAAAAAAAYBB0AQAAAAAAAAAAAAAAAABgEHQBAAAAAAAAAAAAAAAAAGAQdAEAAAAAAAAAAAAAAAAAYBB0AQAAAAAAAAAAAAAAAABgEHQBAAAAAAAAAAAAAAAAAGAQdAEAAAAAAAAAAAAAAAAAYBB0AQAAAAAAAAAAAAAAAABgEHQBAAAAAAAAAAAAAAAAAGAQdAEAAAAAAAAAAAAAAAAAYBB0AQAAAAAAAAAAAAAAAABgEHQBAAAAAAAAAAAAAAAAAGAQdAEAAAAAAAAAAAAAAAAAYBB0AQAAAAAAAAAAAAAAAABgEHQBAAAAAAAAAAAAAAAAAGAQdAEAAAAAAAAAAAAAAAAAYBB0AQAAAAAAAAAAAAAAAABgEHQBAAAAAAAAAAAAAAAAAGAQdAEAAAAAAAAAAAAAAAAAYBB0AQAAAAAAAAAAAAAAAABgEHQBAAAAAAAAAAAAAAAAAGAQdAEAAAAAAAAAAAAAAAAAYBB0AQAAAAAAAAAAAAAAAABgEHQBAAAAAAAAAAAAAAAAAGAQdAEAAAAAAAAAAAAAAAAAYBB0AQAAAAAAAAAAAAAAAABgEHQBAAAAAAAAAAAAAAAAAGAQdAEAAAAAAAAAAAAAAAAAYBB0AQAAAAAAAAAAAAAAAABgEHQBAAAAAAAAAAAAAAAAAGAQdAEAAAAAAAAAAAAAAAAAYBB0AQAAAAAAAAAAAAAAAABgEHQBAAAAAAAAAAAAAAAAAGAQdAEAAAAAAAAAAAAAAAAAYBB0AQAAAAAAAAAAAAAAAABgEHQBAAAAAAAAAAAAAAAAAGAQdAEAAAAAAAAAAAAAAAAAYBB0AQAAAAAAAAAAAAAAAABgEHQBAAAAAAAAAAAAAAAAAGAQdAEAAAAAAAAAAAAAAAAAYBB0AQAAAAAAAAAAAAAAAABgEHQBAAAAAAAAAAAAAAAAAGAQdAEAAAAAAAAAAAAAAAAAYBB0AQAAAAAAAAAAAAAAAABgEHQBAAAAAAAAAAAAAAAAAGAQdAEAAAAAAAAAAAAAAAAAYBB0AQAAAAAAAAAAAAAAAABgEHQBAAAAAAAAAAAAAAAAAGAQdAEAAAAAAAAAAAAAAAAAYBB0AQAAAAAAAAAAAAAAAABgEHQBAAAAAAAAAAAAAAAAAGAQdAEAAAAAAAAAAAAAAAAAYBB0AQAAAAAAAKD27VgAAAAAYJC/9Rj2l0cAAAAAAAAAg6ALAAAAAAAAAAAAAAAAAACDoAsAAAAAAAAAAAAAAAAAAIOgCwAAAAAAAAAAAAAAAAAAg6ALAAAAAAAAAAAAAAAAAACDoAsAAAAAAAAAAAAAAAAAAIOgCwAAAAAAAAAAAAAAAAAAg6ALAAAAAAAAAAAAAAAAAACDoAsAAAAAAAAAAAAAAAAAAIOgCwAAAAAAAAAAAAAAAAAAg6ALAAAAAAAAAAAAAAAAAACDoAsAAAAAAAAAAAAAAAAAAIOgCwAAAAAAAAAAAAAAAAAAg6ALAAAAAAAAAAAAAAAAAACDoAsAAAAAAAAAAAAAAAAAAIOgCwAAAAAAAAAAAAAAAAAAg6ALAAAAAAAAAAAAAAAAAACDoAsAAAAAAAAAAAAAAAAAAIOgCwAAAAAAAAAAAAAAAAAAg6ALAAAAAAAAAAAAAAAAAACDoAsAAAAAAAAAAAAAAAAAAIOgCwAAAAAAAAAAAAAAAAAAg6ALAAAAAAAAAAAAAAAAAACDoAsAAAAAAAAAAAAAAAAAAIOgCwAAAAAAAAAAAAAAAAAAg6ALAAAAAAAAAAAAAAAAAACDoAsAAAAAAAAAAAAAAAAAAEP4+5gzxx3oIwAAAABJRU5ErkJggg==;" vertex="1" parent="1">
          <mxGeometry x="-800" y="1570" width="410" height="203.29" as="geometry" />
        </mxCell>
        <mxCell id="b7sSyu238cDtJSHryWbN-19" style="edgeStyle=orthogonalEdgeStyle;rounded=0;orthogonalLoop=1;jettySize=auto;html=1;entryX=0.5;entryY=1;entryDx=0;entryDy=0;" edge="1" parent="1" source="b7sSyu238cDtJSHryWbN-3" target="b7sSyu238cDtJSHryWbN-1">
          <mxGeometry relative="1" as="geometry" />
        </mxCell>
        <mxCell id="b7sSyu238cDtJSHryWbN-3" value="" style="image;aspect=fixed;perimeter=ellipsePerimeter;html=1;align=center;shadow=0;dashed=0;spacingTop=3;image=img/lib/active_directory/generic_server.svg;rotation=0;" vertex="1" parent="1">
          <mxGeometry x="420" y="540" width="302.4" height="540" as="geometry" />
        </mxCell>
        <mxCell id="b7sSyu238cDtJSHryWbN-4" value="&lt;font style=&quot;font-size: 100px;&quot;&gt;our server&lt;/font&gt;" style="text;html=1;align=center;verticalAlign=middle;whiteSpace=wrap;rounded=0;strokeWidth=13;" vertex="1" parent="1">
          <mxGeometry x="-20" y="329.99999999999994" width="770" height="240" as="geometry" />
        </mxCell>
        <mxCell id="b7sSyu238cDtJSHryWbN-7" value="" style="shape=image;html=1;verticalAlign=top;verticalLabelPosition=bottom;labelBackgroundColor=#ffffff;imageAspect=0;aspect=fixed;image=https://cdn1.iconfinder.com/data/icons/online-shop-7/128/shop-store-market-2-128.png" vertex="1" parent="1">
          <mxGeometry x="1720" y="1260" width="468" height="468" as="geometry" />
        </mxCell>
        <mxCell id="b7sSyu238cDtJSHryWbN-8" value="Actor" style="shape=umlActor;verticalLabelPosition=bottom;verticalAlign=top;html=1;outlineConnect=0;" vertex="1" parent="1">
          <mxGeometry x="1920" y="1786.71" width="130" height="180" as="geometry" />
        </mxCell>
        <mxCell id="b7sSyu238cDtJSHryWbN-11" value="&lt;font style=&quot;font-size: 100px;&quot;&gt;SPEX Store&lt;br&gt;&lt;/font&gt;" style="text;html=1;align=center;verticalAlign=middle;whiteSpace=wrap;rounded=0;strokeWidth=13;" vertex="1" parent="1">
          <mxGeometry x="1550" y="1090" width="770" height="240" as="geometry" />
        </mxCell>
        <mxCell id="b7sSyu238cDtJSHryWbN-17" style="edgeStyle=orthogonalEdgeStyle;rounded=0;orthogonalLoop=1;jettySize=auto;html=1;" edge="1" parent="1" source="b7sSyu238cDtJSHryWbN-13" target="b7sSyu238cDtJSHryWbN-2">
          <mxGeometry relative="1" as="geometry" />
        </mxCell>
        <mxCell id="b7sSyu238cDtJSHryWbN-13" value="" style="image;points=[];aspect=fixed;html=1;align=center;shadow=0;dashed=0;image=img/lib/allied_telesis/computer_and_terminals/Personal_Computer.svg;" vertex="1" parent="1">
          <mxGeometry x="770" y="1340" width="375.6" height="509.04" as="geometry" />
        </mxCell>
        <mxCell id="b7sSyu238cDtJSHryWbN-14" value="&lt;font style=&quot;font-size: 100px;&quot;&gt;Sales Person&lt;br&gt;&lt;/font&gt;" style="text;html=1;align=center;verticalAlign=middle;whiteSpace=wrap;rounded=0;strokeWidth=13;" vertex="1" parent="1">
          <mxGeometry x="650" y="1860" width="770" height="240" as="geometry" />
        </mxCell>
        <mxCell id="b7sSyu238cDtJSHryWbN-18" value="&lt;font style=&quot;font-size: 100px;&quot;&gt;creates invoice&lt;br&gt;&lt;/font&gt;" style="text;html=1;align=center;verticalAlign=middle;whiteSpace=wrap;rounded=0;strokeWidth=13;" vertex="1" parent="1">
          <mxGeometry x="-290" y="1340" width="770" height="240" as="geometry" />
        </mxCell>
        <mxCell id="b7sSyu238cDtJSHryWbN-20" value="&lt;div&gt;&lt;font style=&quot;font-size: 100px;&quot;&gt;creates a card for customer&lt;/font&gt;&lt;/div&gt;&lt;div&gt;&lt;font style=&quot;font-size: 100px;&quot;&gt;add amount to card&lt;br&gt;&lt;/font&gt;&lt;/div&gt;" style="text;html=1;align=center;verticalAlign=middle;whiteSpace=wrap;rounded=0;strokeWidth=13;" vertex="1" parent="1">
          <mxGeometry x="-1870" y="620" width="2010" height="400" as="geometry" />
        </mxCell>
      </root>
    </mxGraphModel>
  </diagram>
</mxfile>
